<?xml version="1.0" standalone="no"?>
<!DOCTYPE svg PUBLIC "-//W3C//DTD SVG 20010904//EN"
 "http://www.w3.org/TR/2001/REC-SVG-20010904/DTD/svg10.dtd">
<svg version="1.0" xmlns="http://www.w3.org/2000/svg"
 width="960.000000pt" height="1280.000000pt" viewBox="0 0 960.000000 1280.000000"
 preserveAspectRatio="xMidYMid meet">

<g transform="translate(0.000000,1280.000000) scale(0.100000,-0.100000)"
fill="#000000" stroke="none">
<path d="M4078 9043 c12 -2 30 -2 40 0 9 3 -1 5 -23 4 -22 0 -30 -2 -17 -4z"/>
<path d="M4185 9041 c25 -5 31 -12 36 -46 10 -53 1 -2846 -9 -2910 -4 -33 -12
-50 -21 -50 -12 0 -14 56 -14 345 0 201 -3 335 -8 320 -6 -17 -7 -10 -3 25 3
32 2 45 -4 36 -8 -11 -11 -10 -19 4 -7 12 -13 -10 -22 -80 -6 -54 -17 -107
-23 -119 -8 -13 -13 -99 -16 -241 -2 -121 -7 -221 -11 -223 -21 -8 -39 -30
-45 -54 l-6 -27 155 2 c116 2 156 -1 160 -10 2 -7 0 -13 -5 -13 -6 0 -10 -6
-10 -14 0 -8 -6 -16 -12 -19 -7 -2 -10 -8 -6 -12 4 -4 13 -3 20 3 7 5 74 12
149 14 113 2 138 6 153 21 16 16 80 23 156 17 29 -2 17 15 -15 23 -13 3 -10 5
11 6 37 1 44 14 44 78 0 64 8 50 12 -20 3 -54 5 -58 33 -67 16 -5 86 -14 155
-20 69 -6 152 -13 184 -16 42 -3 62 -1 68 8 6 10 8 10 8 1 0 -7 5 -13 11 -13
5 0 7 5 4 10 -7 11 97 14 108 3 4 -4 32 -5 62 -4 30 1 55 -2 55 -7 0 -5 16
-12 36 -15 20 -3 51 -18 69 -32 58 -43 68 -37 128 77 6 13 24 37 40 53 15 16
27 33 27 37 0 7 60 3 64 -4 0 -2 8 -19 17 -38 44 -92 58 -157 68 -300 5 -73
14 -126 22 -136 10 -13 30 -15 105 -12 53 2 98 8 105 15 6 6 18 69 25 140 7
70 18 144 24 163 5 19 16 64 25 100 19 79 34 120 46 120 17 0 9 38 -8 45 -22
8 -395 25 -406 18 -7 -4 -277 -9 -934 -16 -73 -1 -133 -5 -133 -9 0 -5 -3 -8
-7 -8 -5 0 -8 362 -8 804 0 572 -3 808 -11 816 -6 6 -9 31 -6 60 3 34 1 50 -7
50 -8 0 -9 6 -3 18 14 27 15 392 1 368 -7 -11 -10 -47 -7 -93 3 -41 2 -69 -2
-63 -6 10 -18 -516 -22 -1010 l-2 -225 -6 210 c-3 116 -5 334 -3 484 2 158 -1
277 -6 281 -5 3 -6 32 -3 65 9 76 4 197 -7 190 -5 -3 -12 2 -15 11 -4 12 -2
15 9 10 14 -5 15 23 9 257 -3 144 -5 305 -4 359 1 56 -3 105 -10 117 -13 25
-40 28 -40 5 0 -14 3 -14 15 -4 17 14 21 0 4 -17 -6 -6 -10 -29 -7 -51 2 -22
0 -38 -4 -36 -5 3 -8 -38 -8 -90 0 -57 -4 -96 -10 -96 -5 0 -10 -17 -10 -38 0
-20 -4 -51 -9 -69 -7 -24 -6 -35 5 -44 17 -14 18 -30 2 -27 -18 4 -25 -93 -33
-442 -7 -299 -10 -346 -25 -320 -9 16 -15 215 -26 833 -4 186 -8 336 -10 334
-7 -7 -14 -2525 -8 -2542 8 -20 24 -9 25 18 3 41 25 -175 23 -224 l-1 -48 46
-4 c25 -3 -2 -4 -61 -3 -60 1 -108 -1 -108 -4 0 -3 -9 -6 -20 -6 -18 0 -19 6
-15 76 8 133 21 1144 29 2274 3 334 7 611 11 614 3 3 11 0 18 -7 9 -9 12 -69
12 -224 0 -117 3 -196 7 -177 3 19 5 -37 3 -125 -2 -114 0 -143 6 -100 4 33
11 184 14 335 4 161 11 278 17 281 5 3 1 9 -9 12 -88 27 -145 39 -253 52 -127
15 -179 18 -125 6z m250 -54 c10 -35 13 -897 5 -1657 -5 -476 -10 -954 -10
-1062 -1 -108 -4 -206 -7 -217 -4 -17 -13 -21 -45 -21 -38 0 -39 0 -33 33 3
17 7 90 8 161 1 96 -1 130 -10 133 -16 6 -17 40 -2 45 21 7 28 371 31 1598 1
666 5 1007 12 1012 12 8 46 -9 51 -25z m32 -359 c-2 -18 -4 -4 -4 32 0 36 2
50 4 33 2 -18 2 -48 0 -65z m330 -740 c-3 -8 -6 -5 -6 6 -1 11 2 17 5 13 3 -3
4 -12 1 -19z m-150 -415 c-3 -10 -5 -2 -5 17 0 19 2 27 5 18 2 -10 2 -26 0
-35z m-10 -115 c-2 -18 -4 -4 -4 32 0 36 2 50 4 33 2 -18 2 -48 0 -65z m10
-395 c-2 -21 -4 -6 -4 32 0 39 2 55 4 38 2 -18 2 -50 0 -70z m0 -100 c-3 -10
-5 -2 -5 17 0 19 2 27 5 18 2 -10 2 -26 0 -35z m-507 -338 c0 -43 -4 -75 -10
-75 -11 0 -14 133 -3 143 12 13 13 7 13 -68z m-33 13 c-3 -8 -6 -5 -6 6 -1 11
2 17 5 13 3 -3 4 -12 1 -19z m230 -210 c-3 -8 -6 -5 -6 6 -1 11 2 17 5 13 3
-3 4 -12 1 -19z"/>
<path d="M3630 8918 c0 -15 4 -38 10 -52 6 -16 6 -27 0 -31 -6 -4 -10 1 -10 9
0 9 -4 16 -10 16 -5 0 -10 -14 -10 -31 0 -16 -3 -28 -8 -26 -4 3 -7 -7 -8 -21
-4 -246 -7 -304 -14 -254 -4 29 -11 56 -14 59 -3 4 -7 -115 -7 -263 -1 -148
-3 -285 -4 -304 -11 -185 -13 -522 -4 -730 15 -354 14 -424 -3 -413 -5 2 -9
-69 -9 -159 -1 -90 -5 -206 -9 -258 -6 -86 -7 -89 -10 -35 l-2 60 -10 -60 c-5
-33 -8 -92 -6 -132 2 -39 0 -66 -4 -60 -4 7 -8 48 -8 91 0 44 -2 77 -4 75 -8
-9 -14 -289 -6 -284 11 7 24 -31 15 -45 -4 -6 -11 -7 -17 -4 -6 4 -9 1 -6 -7
5 -15 51 -18 81 -5 12 6 17 4 17 -7 0 -12 -15 -16 -65 -19 -36 -1 -65 0 -65 5
0 4 5 7 10 7 14 0 13 13 -3 34 -11 15 -13 15 -15 -10 -2 -29 -9 -41 -17 -32
-3 3 -6 102 -8 221 -1 118 -5 218 -8 222 -4 3 -31 8 -60 9 -30 2 -75 6 -100
11 -40 6 -50 4 -68 -14 -17 -17 -21 -33 -21 -83 -1 -76 -13 -136 -34 -156 -9
-9 -43 -18 -91 -21 -76 -7 -94 -16 -95 -51 0 -27 -38 -79 -69 -95 -17 -8 -48
-15 -70 -15 -34 0 -42 5 -60 34 -16 26 -32 36 -67 45 -25 7 -57 23 -70 36 -14
14 -38 32 -54 40 -65 34 -111 115 -124 220 -2 16 -9 19 -48 16 -31 -1 -48 2
-58 14 -7 9 -26 23 -42 31 -24 13 -28 20 -28 59 0 25 4 45 9 45 5 0 11 9 14
20 4 15 0 20 -14 20 -10 0 -19 4 -19 8 0 9 -43 33 -66 38 -13 2 -109 -22 -124
-31 -13 -8 -13 -95 0 -95 6 0 10 -13 10 -29 0 -16 8 -38 18 -47 15 -16 15 -17
0 -12 -9 4 -22 0 -29 -8 -7 -8 -18 -13 -26 -10 -23 9 -58 -21 -81 -68 -26 -51
-47 -72 -57 -56 -7 12 -35 -11 -35 -30 0 -22 -53 -88 -75 -94 -38 -10 -80 22
-78 59 1 17 0 24 -3 17 -3 -6 -10 -9 -15 -6 -6 3 -16 0 -24 -6 -8 -7 -21 -10
-29 -7 -9 4 -17 -1 -20 -11 -3 -9 -4 2 -2 26 4 40 3 42 -24 42 -24 0 -29 -5
-34 -35 -4 -19 -11 -35 -17 -35 -6 0 -8 -4 -5 -8 7 -12 -148 -70 -200 -75 -30
-4 -51 0 -74 14 -20 13 -43 18 -61 15 -25 -4 -38 3 -78 41 -41 38 -55 45 -95
48 -33 2 -51 -2 -63 -14 -33 -33 -69 -51 -105 -51 -48 0 -54 -12 -18 -39 48
-35 40 -75 -26 -143 -19 -20 -79 -24 -89 -8 -5 8 -11 7 -21 -1 -11 -9 -14 -8
-14 4 0 8 -6 17 -12 20 -10 3 -10 7 -1 18 6 8 13 30 14 49 4 38 47 80 81 80
10 0 18 4 18 10 0 5 -7 7 -15 4 -8 -4 -15 -1 -15 5 0 10 16 15 48 14 6 -1 12
5 12 13 0 8 7 14 15 14 9 0 20 11 25 24 5 13 16 29 26 34 11 6 13 12 6 16 -15
9 -4 36 12 30 9 -3 16 6 19 25 5 22 12 31 27 31 11 0 20 6 20 14 0 8 15 24 33
36 l32 22 -45 -7 c-25 -3 -49 -10 -54 -16 -6 -5 -20 -9 -31 -9 -19 0 -72 -16
-150 -45 -18 -7 -18 -6 3 15 27 26 21 41 -6 17 -25 -23 -69 -22 -82 3 -6 10
-10 57 -9 103 1 47 -3 93 -9 103 -7 13 -7 25 0 37 12 23 2 67 -21 88 -27 25
-37 136 -14 161 9 10 12 18 7 18 -5 0 -1 7 9 14 25 19 13 76 -14 69 -15 -4
-18 -2 -12 13 3 11 13 23 20 27 7 5 11 13 7 18 -3 5 0 17 7 25 9 12 14 12 20
2 5 -8 10 -3 14 14 5 21 14 28 38 30 19 2 31 8 29 16 -1 6 3 12 10 12 6 0 8 3
5 7 -8 7 31 61 80 112 18 18 30 37 28 41 -3 4 2 13 10 20 10 8 15 31 15 64 0
47 -2 52 -31 65 -28 12 -32 11 -55 -10 -13 -12 -24 -18 -24 -12 0 15 -38 24
-43 10 -2 -6 -11 -8 -20 -4 -9 3 -14 13 -11 21 3 8 1 17 -5 20 -6 4 -8 20 -4
37 5 28 4 29 -27 27 -35 -3 -35 -3 -69 73 -22 48 -27 84 -12 93 4 3 11 23 15
43 5 32 15 44 59 75 50 35 55 41 66 94 6 32 11 62 11 67 0 9 -28 5 -64 -9 -12
-5 -15 -2 -9 12 4 12 3 15 -5 10 -7 -4 -12 -2 -12 3 0 6 5 11 12 11 6 0 9 3 6
6 -4 3 -20 -2 -36 -10 -17 -9 -43 -14 -59 -11 -30 6 -72 -19 -76 -45 -5 -27
-22 -45 -54 -57 -30 -10 -46 -2 -23 12 18 11 10 21 -17 20 -23 0 -28 6 -36 35
-5 19 -9 45 -9 58 0 17 -6 22 -25 22 -21 0 -24 4 -20 22 7 24 -12 65 -48 103
-13 15 -29 42 -35 61 -6 19 -15 34 -20 34 -7 0 -13 20 -26 93 -3 17 -10 42
-16 54 -6 12 -7 36 -3 55 14 62 17 200 5 212 -20 20 -30 -16 -23 -83 l6 -64
-22 22 c-28 28 -51 13 -51 -34 0 -36 -31 -119 -49 -129 -8 -5 -11 -93 -11
-273 0 -241 2 -267 17 -278 17 -13 17 -14 0 -32 -16 -18 -17 -73 -17 -808 0
-645 2 -790 13 -799 16 -13 39 -109 31 -130 -3 -9 -14 -18 -25 -21 -19 -6 -19
-30 -19 -906 0 -494 4 -899 8 -899 5 0 42 35 84 78 65 66 79 86 93 137 10 33
24 67 31 76 8 8 14 22 14 30 0 14 42 82 67 107 7 7 13 19 13 27 0 7 5 15 11
17 6 2 14 27 16 55 5 43 2 54 -16 70 -12 10 -40 20 -64 23 -31 4 -43 10 -45
24 -3 15 0 18 17 13 13 -3 19 -1 15 5 -4 6 -32 8 -73 4 -36 -3 -79 -2 -96 2
-44 12 -44 38 -1 56 20 8 36 22 36 30 0 14 11 20 32 17 4 0 16 11 26 24 11 14
25 25 31 25 6 0 11 8 11 18 0 9 13 24 28 33 22 13 28 23 28 50 -1 21 4 34 12
34 7 0 17 7 22 15 8 13 11 13 22 -1 7 -9 30 -29 51 -44 47 -35 77 -93 86 -165
6 -53 7 -55 38 -58 24 -2 33 1 37 16 8 25 51 72 66 72 6 0 13 7 16 15 4 8 11
15 17 15 29 0 97 68 118 117 11 29 41 73 65 97 24 25 44 52 44 59 0 7 16 32
35 54 44 52 111 85 151 77 21 -4 34 -1 43 10 8 9 19 16 27 16 18 0 29 -21 15
-29 -11 -7 11 -92 32 -118 15 -20 48 -15 92 12 22 13 47 25 55 25 26 1 60 37
66 69 4 17 22 44 41 61 18 17 31 30 28 30 -4 0 3 12 14 26 12 15 21 33 21 40
0 8 4 14 10 14 6 0 9 32 7 78 -2 52 2 81 10 90 7 7 13 26 13 41 0 31 30 66 37
44 5 -15 59 -17 68 -3 4 7 14 6 28 -2 14 -7 66 -11 147 -10 95 1 135 -2 168
-15 35 -13 64 -15 154 -10 62 4 114 11 117 16 3 4 69 11 146 14 192 9 324 24
340 41 11 11 27 11 87 2 41 -7 85 -9 98 -5 14 4 51 7 83 8 57 1 66 5 113 48
22 21 23 21 29 2 8 -24 21 -24 30 -1 6 16 7 16 18 1 10 -14 28 -16 102 -13
136 6 161 5 280 -16 63 -11 158 -19 223 -19 102 -1 113 1 110 17 -1 9 1 22 5
28 9 15 -52 24 -145 23 -110 -1 -102 -44 -94 509 4 262 6 722 5 1022 0 300 0
608 2 685 4 268 4 360 -4 393 -4 21 -3 31 3 27 12 -8 12 -3 0 29 -7 18 -14 24
-27 20 -11 -3 -14 -2 -8 3 6 4 17 21 24 36 13 24 13 37 2 90 -15 74 -30 106
-31 65z m-3575 -1048 c3 -5 1 -10 -4 -10 -6 0 -11 5 -11 10 0 6 2 10 4 10 3 0
8 -4 11 -10z m3602 -1057 c-2 -21 -4 -4 -4 37 0 41 2 58 4 38 2 -21 2 -55 0
-75z m-42 -141 c-10 -10 -11 4 -6 98 l6 95 3 -94 c1 -51 0 -96 -3 -99z m-3491
-95 c-3 -9 -12 -17 -20 -17 -8 0 -14 -4 -14 -10 0 -5 -7 -10 -16 -10 -13 0
-12 5 5 29 12 16 21 35 21 42 0 10 4 9 15 -2 9 -9 13 -23 9 -32z m1971 -17 c3
-5 1 -10 -4 -10 -6 0 -11 5 -11 10 0 6 2 10 4 10 3 0 8 -4 11 -10z m-1925 -47
c0 -7 -4 -13 -10 -13 -5 0 -10 12 -10 28 0 21 2 24 10 12 5 -8 10 -21 10 -27z
m-57 -11 c-5 -33 -6 -33 -18 -10 -10 19 -9 25 3 35 20 16 21 15 15 -25z m3286
-234 c0 -54 -3 -67 -9 -50 -5 12 -14 22 -20 22 -15 0 -12 29 5 46 8 9 15 24
15 35 0 10 2 19 5 19 3 0 5 -33 4 -72z m168 -180 c-3 -7 -5 -2 -5 12 0 14 2
19 5 13 2 -7 2 -19 0 -25z m-784 -85 c-7 -2 -21 -2 -30 0 -10 3 -4 5 12 5 17
0 24 -2 18 -5z m-1423 -178 c0 -8 9 -15 20 -15 11 0 20 -7 20 -15 0 -13 -4
-14 -20 -5 -14 7 -20 7 -20 0 0 -13 -27 -13 -35 0 -6 10 15 50 27 50 5 0 8 -7
8 -15z m-771 -44 c19 -12 6 -41 -19 -41 -21 0 -24 8 -14 34 7 18 13 19 33 7z
m53 -56 c-3 -19 -11 -25 -29 -25 -27 0 -26 2 12 46 15 18 23 8 17 -21z"/>
<path d="M3494 8415 c0 -82 2 -115 3 -72 2 43 2 110 0 150 -1 40 -3 5 -3 -78z"/>
<path d="M9259 8243 l-86 -26 0 -56 c0 -53 -1 -56 -26 -59 -15 -2 -27 -7 -27
-12 0 -11 -32 -5 -62 11 -30 17 -56 12 -82 -15 -11 -12 -29 -25 -38 -29 -10
-3 -28 -28 -40 -54 -12 -26 -32 -56 -43 -65 -20 -17 -20 -17 5 -18 20 -1 18
-3 -15 -15 -22 -8 -47 -15 -56 -15 -9 0 -23 -7 -30 -16 -8 -9 -32 -25 -54 -35
-48 -22 -70 -39 -77 -59 -3 -10 -19 -15 -44 -16 -51 -2 -119 -34 -168 -78 -21
-20 -42 -36 -46 -36 -4 0 -24 -15 -45 -34 -20 -19 -51 -40 -69 -46 -32 -12
-99 -44 -171 -82 -22 -12 -47 -23 -55 -24 -83 -15 -113 -33 -181 -103 -56 -58
-68 -77 -65 -97 4 -18 -3 -33 -26 -54 -17 -17 -36 -30 -42 -30 -17 0 -38 16
-34 26 1 5 -10 10 -27 12 -23 2 -32 -2 -40 -20 -8 -18 -19 -24 -53 -26 -37 -3
-43 0 -51 21 -11 29 -5 62 19 97 10 14 24 45 31 70 7 25 18 52 24 60 21 28 35
69 25 75 -17 10 -11 23 13 28 20 5 19 5 -3 4 -35 -2 -50 10 -50 40 0 20 4 24
19 20 10 -2 26 0 35 5 12 7 16 5 16 -8 0 -14 3 -14 15 -4 23 19 40 -1 26 -29
-15 -27 2 -28 61 -2 48 21 98 65 98 85 0 8 24 21 53 31 68 22 107 38 107 46 0
4 -8 6 -17 5 -12 0 -18 6 -18 19 0 13 -17 28 -52 47 -29 15 -59 28 -66 28 -8
0 -27 -18 -41 -39 -30 -43 -68 -65 -131 -77 -21 -4 -44 -11 -50 -15 -5 -5 -21
-18 -35 -29 -20 -16 -22 -19 -7 -20 27 0 20 -19 -10 -26 -17 -5 -28 -3 -31 4
-2 7 -11 12 -19 12 -9 0 -13 6 -9 15 7 19 6 19 -137 -5 -65 -10 -129 -26 -142
-34 -14 -9 -30 -16 -38 -16 -7 0 -31 -13 -53 -30 -21 -16 -47 -30 -56 -30 -9
0 -20 -4 -23 -10 -3 -5 -13 -10 -20 -10 -18 0 -55 -31 -55 -45 0 -18 -145 -67
-177 -59 -44 11 -51 21 -58 90 -6 53 -4 68 9 83 9 10 16 27 16 39 0 12 5 22
10 22 6 0 10 5 10 11 0 6 -9 8 -21 4 -13 -4 -27 0 -40 11 -19 17 -22 17 -84
-14 -36 -17 -65 -36 -65 -41 0 -4 -12 -6 -26 -3 -16 3 -30 -1 -35 -9 -14 -23
-11 -29 16 -29 32 0 32 -10 0 -40 l-26 -24 -35 19 c-20 11 -33 24 -30 31 3 8
1 16 -5 19 -5 4 -7 11 -4 16 6 9 -20 12 -93 9 -23 -1 -42 2 -41 7 4 17 -14 64
-30 76 -9 6 -29 32 -46 56 l-30 44 -5 204 c-5 212 -7 221 -50 224 -8 0 -34 3
-58 5 -24 3 -59 0 -78 -6 l-34 -12 0 -97 c0 -85 -3 -104 -25 -147 -14 -27 -29
-67 -33 -89 -8 -42 -7 -41 -69 -33 -7 1 -14 7 -17 15 -3 7 0 12 6 10 6 -1 12
3 15 10 5 15 -56 27 -94 19 -16 -3 -22 -3 -15 0 17 8 15 24 -3 24 -18 0 -55
35 -55 53 0 9 -3 8 -9 -2 -7 -11 -11 -9 -21 9 -11 20 -17 22 -58 16 -26 -4
-72 -10 -102 -13 -30 -3 -57 -9 -60 -12 -15 -20 -71 -51 -93 -51 -16 0 -26 -7
-30 -20 -6 -25 -37 -26 -37 -2 0 15 -6 18 -30 14 -17 -2 -30 -9 -30 -14 0 -6
19 -28 41 -50 39 -38 41 -43 36 -87 -4 -39 -12 -52 -48 -83 -24 -21 -56 -40
-71 -43 -34 -8 -40 -17 -40 -63 0 -81 -23 -105 -118 -122 -35 -7 -64 -19 -82
-37 -15 -15 -26 -29 -23 -31 2 -3 -3 -21 -12 -41 -9 -20 -17 -61 -19 -91 -1
-30 -6 -72 -12 -92 -8 -30 -5 -50 15 -110 47 -140 86 -148 266 -54 68 35 141
74 162 88 22 13 47 28 55 31 8 4 44 23 80 42 36 19 70 35 76 35 6 0 16 6 22
13 12 13 110 64 170 87 67 26 111 -30 60 -77 -28 -25 -83 -59 -168 -103 -74
-39 -191 -116 -202 -133 -21 -33 -26 -32 272 -40 126 -3 366 15 402 30 46 19
50 30 38 96 -8 40 -7 63 4 93 12 36 16 39 47 36 40 -4 60 -27 78 -88 11 -38
17 -44 40 -44 15 0 31 -8 39 -20 7 -12 23 -20 40 -20 15 0 42 -9 60 -20 44
-27 104 -47 167 -56 62 -8 96 -25 127 -63 23 -27 25 -39 32 -182 4 -85 7 -165
7 -179 -1 -53 -8 -51 360 -56 386 -5 400 -8 435 -72 16 -31 19 -57 19 -196 l0
-160 27 -14 c23 -11 35 -10 79 4 57 19 82 14 169 -31 42 -22 63 -25 235 -31
105 -4 219 -9 255 -10 36 -2 184 -8 330 -13 365 -13 530 -22 530 -32 0 -4 15
-3 32 2 41 11 48 11 48 -1 0 -5 -11 -10 -24 -10 -14 0 -28 -5 -31 -11 -4 -6
-13 -8 -21 -5 -8 3 -11 0 -7 -10 4 -12 15 -14 47 -9 26 4 36 3 28 -3 -9 -6 5
-7 37 -4 49 4 51 4 51 -21 0 -22 5 -27 38 -32 71 -12 83 -16 77 -26 -11 -16
15 -39 44 -39 33 0 56 -14 47 -29 -5 -7 1 -11 13 -11 l21 0 0 1250 0 1250 -59
-6 c-49 -6 -67 -3 -105 16 -26 12 -51 30 -56 41 -6 10 -16 17 -23 15 -6 -1 -9
-1 -4 1 4 3 7 9 7 14 0 12 -1 12 -101 -18z m169 -260 c-9 -20 -22 -29 -43 -31
l-30 -4 25 -13 25 -13 -27 -12 c-15 -7 -34 -10 -43 -6 -15 5 -15 9 -4 22 11
13 10 17 -4 25 -26 15 -21 27 23 49 22 11 39 24 38 28 -1 4 9 19 22 34 l25 27
3 -39 c2 -22 -3 -52 -10 -67z m-311 -82 c37 -1 51 -28 32 -59 -10 -16 -21 -19
-61 -16 -26 1 -48 -1 -48 -7 0 -5 12 -9 28 -9 21 0 24 -2 12 -10 -44 -28 -108
21 -94 74 6 25 24 32 74 30 14 -1 39 -2 57 -3z m-3183 -217 c9 -3 16 -11 16
-16 0 -6 11 -23 25 -40 30 -35 31 -56 8 -97 -26 -45 -82 -56 -113 -23 -60 66
-64 106 -14 150 36 32 50 37 78 26z m994 -678 c15 -8 35 -17 45 -20 19 -6 24
-46 5 -46 -9 0 -8 -3 2 -10 22 -14 7 -21 -29 -14 -23 5 -36 16 -47 40 -9 19
-21 34 -26 34 -6 0 -5 6 2 15 15 18 16 18 48 1z m1382 -156 c0 -5 -4 -10 -10
-10 -5 0 -10 5 -10 10 0 6 5 10 10 10 6 0 10 -4 10 -10z"/>
<path d="M9005 8240 c-3 -5 -1 -10 5 -10 7 0 9 -12 4 -36 -5 -30 -4 -35 7 -28
26 16 59 16 59 -1 0 -16 35 -21 44 -6 7 10 -26 40 -76 70 -23 14 -39 18 -43
11z"/>
<path d="M4532 8105 c1 -77 4 -160 8 -185 5 -28 8 16 8 120 0 90 -4 173 -8
185 -5 12 -8 -38 -8 -120z"/>
<path d="M3493 7975 c0 -27 2 -38 4 -22 2 15 2 37 0 50 -2 12 -4 0 -4 -28z"/>
<path d="M4512 7900 c0 -14 2 -19 5 -12 2 6 2 18 0 25 -3 6 -5 1 -5 -13z"/>
<path d="M4543 7790 c0 -30 2 -43 4 -27 2 15 2 39 0 55 -2 15 -4 2 -4 -28z"/>
<path d="M3517 7708 c-8 -100 -7 -282 2 -322 3 -17 7 68 8 187 1 119 1 217 -1
217 -2 0 -6 -37 -9 -82z"/>
<path d="M6941 7731 c-14 -3 -27 -13 -29 -20 -3 -10 0 -12 12 -8 10 4 38 7 63
7 31 0 43 4 41 13 -5 14 -52 19 -87 8z"/>
<path d="M4082 7673 c1 -5 -3 -53 -10 -108 -6 -55 -14 -179 -17 -275 -3 -96
-8 -233 -11 -305 -5 -114 -4 -128 8 -111 12 15 24 18 66 14 l52 -5 0 107 c0
59 -3 109 -6 112 -3 3 -7 50 -8 104 -4 99 -6 143 -20 329 -10 134 -13 145 -36
145 -11 0 -19 -3 -18 -7z"/>
<path d="M3484 7215 c0 -99 2 -138 3 -87 2 51 2 132 0 180 -1 48 -3 6 -3 -93z"/>
<path d="M3522 7320 c0 -14 2 -19 5 -12 2 6 2 18 0 25 -3 6 -5 1 -5 -13z"/>
<path d="M4850 7215 c0 -8 7 -15 15 -15 8 0 15 7 15 15 0 8 -7 15 -15 15 -8 0
-15 -7 -15 -15z"/>
<path d="M640 7090 c0 -5 5 -10 10 -10 6 0 10 5 10 10 0 6 -4 10 -10 10 -5 0
-10 -4 -10 -10z"/>
<path d="M3514 6915 c0 -104 2 -146 3 -92 2 54 2 139 0 190 -1 51 -3 7 -3 -98z"/>
<path d="M3861 6864 c0 -11 3 -14 6 -6 3 7 2 16 -1 19 -3 4 -6 -2 -5 -13z"/>
<path d="M4033 6810 c0 -25 2 -35 4 -22 2 12 2 32 0 45 -2 12 -4 2 -4 -23z"/>
<path d="M3413 6720 c0 -47 2 -66 4 -42 2 23 2 61 0 85 -2 23 -4 4 -4 -43z"/>
<path d="M3845 6773 c-3 -16 -10 -44 -15 -63 -13 -50 -19 -179 -9 -186 5 -3 9
4 9 15 0 24 27 18 33 -7 2 -10 5 47 6 126 1 90 -2 142 -9 142 -5 0 -12 -12
-15 -27z"/>
<path d="M4096 6708 c-7 -67 -8 -103 0 -95 7 7 18 147 12 147 -3 0 -8 -24 -12
-52z"/>
<path d="M3476 6724 c-11 -27 -7 -272 4 -279 7 -5 10 42 9 144 0 83 -2 151 -4
151 -1 0 -6 -7 -9 -16z"/>
<path d="M3412 6580 c0 -14 2 -19 5 -12 2 6 2 18 0 25 -3 6 -5 1 -5 -13z"/>
<path d="M3838 6304 c-5 -173 -3 -214 9 -214 11 0 12 27 9 126 -5 128 -15 178
-18 88z"/>
<path d="M1568 6333 c7 -3 16 -2 19 1 4 3 -2 6 -13 5 -11 0 -14 -3 -6 -6z"/>
<path d="M7040 6189 c-20 -8 -22 -12 -10 -19 8 -5 12 -10 8 -10 -4 0 -3 -11 2
-24 4 -13 5 -27 0 -32 -27 -28 -47 -285 -32 -424 9 -83 13 -97 36 -117 37 -32
69 -29 100 8 19 22 27 44 28 77 1 26 3 72 5 102 1 30 5 141 7 246 l6 192 -23
6 c-33 9 -99 6 -127 -5z"/>
<path d="M3836 6071 c-3 -5 1 -11 9 -15 15 -6 29 7 18 18 -9 9 -21 8 -27 -3z"/>
<path d="M3930 6030 c-11 -7 -2 -10 33 -10 26 0 47 5 47 10 0 13 -60 13 -80 0z"/>
<path d="M5316 5991 c5 -5 20 -12 34 -15 l25 -7 -25 15 c-28 17 -50 21 -34 7z"/>
<path d="M3168 5983 c6 -2 18 -2 25 0 6 3 1 5 -13 5 -14 0 -19 -2 -12 -5z"/>
<path d="M4660 5928 c-24 -10 -24 -10 -5 -18 31 -13 39 -12 53 10 10 17 10 20
-5 19 -10 0 -29 -5 -43 -11z"/>
<path d="M5308 5923 c7 -3 16 -2 19 1 4 3 -2 6 -13 5 -11 0 -14 -3 -6 -6z"/>
<path d="M5080 5905 c9 -11 16 -12 25 -5 6 5 14 7 17 4 3 -3 9 -1 13 5 4 7 -7
11 -31 11 -31 0 -35 -2 -24 -15z"/>
<path d="M5165 5910 c-15 -6 -9 -8 23 -7 23 1 42 5 42 9 0 10 -39 9 -65 -2z"/>
<path d="M5270 5831 c0 -25 6 -27 13 -6 4 8 2 17 -3 20 -6 4 -10 -3 -10 -14z"/>
<path d="M5393 5803 c-5 -14 -5 -49 -1 -77 4 -28 12 -89 17 -136 8 -77 9 -70
7 77 0 90 -4 163 -8 163 -3 0 -10 -12 -15 -27z"/>
<path d="M2974 5771 c4 -5 1 -12 -4 -14 -6 -3 -5 -4 2 -3 15 3 23 26 8 26 -6
0 -9 -4 -6 -9z"/>
<path d="M3005 5761 c-3 -5 -1 -12 5 -16 5 -3 10 1 10 9 0 18 -6 21 -15 7z"/>
<path d="M4900 5713 c-63 -2 -317 -7 -564 -12 -295 -6 -452 -13 -459 -20 -15
-15 -30 -14 -21 0 5 9 -26 10 -122 6 -71 -4 -245 -10 -386 -13 l-257 -7 4
-391 c3 -215 7 -598 10 -851 3 -253 10 -739 16 -1080 12 -679 13 -734 24
-1193 l7 -314 167 7 c91 3 407 12 701 20 294 8 587 17 650 20 384 18 531 25
579 25 l54 0 -7 298 c-3 163 -9 423 -12 576 -6 219 -4 277 5 272 7 -5 10 -14
7 -22 -3 -7 3 -18 14 -24 26 -14 33 -13 26 7 -4 9 -2 19 3 23 6 3 8 16 4 29
-5 19 -11 22 -34 17 -36 -7 -39 2 -39 141 0 114 0 116 19 99 25 -23 41 -13 41
25 0 31 -25 40 -48 17 -9 -9 -12 -7 -13 13 0 13 -3 76 -5 140 l-5 116 33 7
c24 5 29 9 19 15 -8 5 -22 8 -32 6 -15 -3 -18 13 -24 178 -4 100 -5 219 -2
264 2 45 0 84 -4 85 -4 2 -12 212 -18 468 -6 256 -13 521 -16 590 -2 69 -7
203 -11 298 l-6 172 -92 -2 c-50 -1 -143 -4 -206 -5z m270 -40 c0 -18 25 -951
35 -1318 16 -589 25 -918 30 -1070 2 -93 7 -300 10 -460 3 -159 8 -297 11
-306 2 -9 -3 -22 -11 -29 -14 -12 -14 -15 1 -31 32 -36 33 -36 -305 -43 -133
-2 -227 -8 -234 -15 -7 -7 -2 -12 17 -17 16 -4 26 -13 26 -24 0 -11 18 -28 43
-43 23 -14 56 -37 72 -51 17 -14 35 -26 42 -26 6 0 13 -3 15 -7 2 -5 26 -19
53 -33 28 -13 54 -30 58 -37 5 -8 12 -11 16 -8 5 2 14 -2 21 -10 7 -8 17 -15
22 -15 6 0 4 8 -3 17 -12 15 -12 16 3 10 12 -4 21 0 28 13 6 11 15 20 21 20
15 0 1 -61 -19 -83 -9 -10 -12 -18 -7 -17 33 7 45 -1 45 -30 0 -16 -4 -30 -10
-30 -5 0 -10 12 -10 27 0 32 -16 20 -23 -17 l-4 -25 -8 25 c-8 24 -9 24 -21
-10 -7 -19 -13 -29 -13 -22 -1 10 -4 10 -15 0 -8 -7 -12 -16 -10 -20 2 -3 -6
-4 -18 0 -14 3 -19 2 -14 -6 4 -7 29 -12 57 -12 32 0 49 -4 50 -12 0 -7 4 -3
9 9 10 24 25 30 34 14 8 -12 74 -12 82 0 12 20 34 8 34 -19 l0 -29 -182 -7
c-456 -18 -484 -18 -502 0 -21 20 -13 32 10 13 13 -11 17 -11 25 3 6 11 18 15
39 12 27 -5 30 -3 30 22 0 24 -2 26 -12 11 -16 -20 -46 -17 -63 7 -11 14 -13
14 -18 2 -5 -13 -11 -14 -45 -2 -23 8 -63 12 -96 10 -51 -4 -57 -2 -66 18 l-9
23 0 -22 c-1 -30 -18 -30 -24 0 -4 21 -5 21 -11 1 -6 -15 -17 -21 -47 -22 -33
-2 -39 0 -39 18 0 11 -4 20 -10 20 -5 0 -10 -4 -10 -10 0 -5 -4 -10 -10 -10
-5 0 -10 10 -10 23 0 21 4 22 73 22 39 0 77 -3 84 -8 6 -4 14 -3 17 2 3 5 31
9 61 10 52 0 105 22 105 42 0 4 11 -2 24 -15 19 -17 33 -21 60 -18 20 2 33 8
30 13 -3 6 -14 7 -25 4 -15 -5 -19 -1 -19 17 0 15 -13 32 -35 48 -40 29 -42
36 -15 50 27 14 25 27 -2 26 -14 -1 -26 -9 -30 -21 -5 -15 -6 -12 -5 11 1 28
4 31 39 33 35 2 68 -15 68 -34 0 -14 39 -47 49 -40 17 10 14 58 -3 52 -10 -4
-12 0 -8 15 4 18 2 20 -16 16 -24 -7 -33 9 -20 35 6 12 5 17 -7 17 -8 0 -15 5
-15 11 0 6 -10 9 -22 7 -14 -2 -30 5 -39 16 -14 17 -20 18 -64 7 -40 -10 -50
-10 -65 4 -24 22 -47 19 -54 -7 -6 -21 -7 -22 -19 -6 -34 43 -93 45 -953 22
l-251 -7 -7 349 c-3 192 -9 498 -11 679 -3 182 -7 377 -10 435 -3 58 -7 395
-10 750 -3 355 -8 738 -10 851 l-6 206 268 7 c760 19 1455 37 1508 40 28 1
101 3 163 4 101 2 112 0 112 -15z m-697 -3375 c7 -25 3 -33 -12 -23 -13 8 -15
45 -2 45 5 0 11 -10 14 -22z m58 -41 c-13 -13 -26 -3 -16 12 3 6 11 8 17 5 6
-4 6 -10 -1 -17z m-1064 -13 c26 -20 33 -32 33 -60 0 -53 -36 -84 -98 -84
l-49 0 -6 40 c-7 56 3 87 38 110 38 25 41 25 82 -6z m907 -9 c8 -41 2 -55 -24
-55 -26 0 -30 11 -23 53 8 50 38 51 47 2z m-419 15 c3 -5 -2 -10 -12 -11 -15
0 -14 -2 5 -11 30 -15 26 -52 -5 -56 -13 -2 -23 1 -23 7 0 6 7 11 15 11 8 0
15 5 15 10 0 6 -7 10 -15 10 -8 0 -15 8 -15 18 0 29 22 43 35 22z m61 -7 c-3
-10 -8 -30 -12 -45 -3 -16 -11 -28 -16 -28 -6 0 -7 7 -4 16 3 9 9 27 12 40 5
20 3 23 -12 17 -12 -4 -15 -3 -10 5 4 7 16 12 27 12 15 0 19 -5 15 -17z m60
-7 c9 -38 1 -61 -24 -64 -12 -2 -22 1 -22 7 0 6 7 11 15 11 8 0 15 5 15 10 0
6 -6 10 -14 10 -19 0 -27 25 -13 39 18 18 36 13 43 -13z m64 -23 l-1 -48 -14
39 c-14 40 -12 56 6 56 5 0 9 -21 9 -47z m39 0 l-2 -48 -6 40 c-7 38 -5 55 5
55 2 0 3 -21 3 -47z m66 7 c0 -29 -4 -36 -22 -38 -13 -2 -23 2 -23 8 0 6 4 9
9 5 5 -3 12 -1 15 4 3 5 -3 11 -13 14 -29 7 -16 49 13 45 17 -2 21 -10 21 -38z
m63 3 c-2 -31 -7 -39 -25 -41 -13 -2 -23 1 -23 7 0 6 10 12 23 12 l22 2 -22 4
c-16 3 -23 11 -23 29 0 19 5 24 26 24 23 0 25 -3 22 -37z m-592 0 c4 -14 2
-33 -3 -42 -12 -19 -43 -27 -43 -12 0 6 7 11 15 11 8 0 15 5 15 10 0 16 -48
11 -58 -6 -8 -14 -10 -14 -21 0 -11 13 -10 18 2 31 12 11 17 12 20 2 3 -8 11
-4 22 11 22 30 43 28 51 -5z m35 -53 c-3 -8 -8 3 -12 25 -4 22 -4 45 0 50 8
13 19 -55 12 -75z m77 43 c-12 -45 -34 -73 -24 -31 3 14 9 33 12 41 3 10 -1
17 -13 20 -12 3 -10 5 9 6 26 1 26 0 16 -36z m75 23 c7 -18 -3 -59 -16 -68
-28 -18 -54 29 -36 64 11 21 45 24 52 4z m184 -130 c-2 -6 -26 -11 -53 -11
-53 0 -67 3 -60 13 7 12 117 9 113 -2z m188 4 c9 -14 -15 -23 -63 -22 -56 2
-102 11 -102 21 0 11 159 11 165 1z m207 -5 c21 -3 39 -1 43 5 3 5 10 10 16
10 5 0 0 -9 -11 -20 -14 -14 -33 -20 -62 -20 -73 0 -178 13 -178 21 0 4 26 10
58 11 59 4 72 3 134 -7z m-615 -1 c-3 -3 -12 -4 -19 -1 -8 3 -5 6 6 6 11 1 17
-2 13 -5z m-487 -44 c32 -25 43 -25 65 0 31 35 52 26 59 -26 3 -25 3 -56 0
-68 -5 -21 -11 -22 -78 -21 -40 1 -78 5 -84 9 -20 12 -14 126 7 126 3 0 17 -9
31 -20z m493 -3 c12 -4 17 -17 17 -43 0 -21 -3 -34 -7 -30 -8 7 -9 12 -12 38
-1 12 -15 2 -17 -13 -1 -5 -2 -13 -3 -17 -1 -8 -16 -12 -55 -13 -23 0 -36 12
-18 18 6 3 12 12 12 21 0 13 -7 9 -25 -12 -14 -16 -25 -27 -25 -24 0 3 -19 2
-42 -3 -35 -6 -45 -5 -55 9 -8 9 -13 11 -13 4 0 -19 -17 -14 -23 7 -6 26 3 71
15 71 6 0 8 -6 5 -14 -7 -17 2 -28 17 -19 5 4 26 8 46 10 19 2 37 8 38 13 5
15 22 12 22 -3 0 -18 72 -9 84 10 5 9 11 11 15 6 3 -5 14 -12 24 -16z m47 -4
c1 -24 2 -25 11 -10 5 9 16 17 24 17 17 0 30 -42 21 -66 -6 -15 -8 -15 -31 0
-27 18 -39 21 -30 7 3 -5 1 -12 -4 -15 -9 -6 -20 81 -12 90 12 11 21 1 21 -23z
m130 16 c0 -5 8 -9 18 -8 9 1 32 1 50 0 29 -1 32 -4 32 -31 0 -23 -6 -33 -22
-39 -30 -11 -38 -6 -38 25 0 13 -4 24 -10 24 -5 0 -10 -11 -10 -25 0 -14 -4
-25 -10 -25 -5 0 -10 11 -10 25 0 14 -4 25 -10 25 -5 0 -10 -13 -10 -29 0 -24
-3 -28 -20 -24 -20 5 -28 23 -10 23 17 0 11 40 -7 47 -15 6 -14 8 7 14 38 11
50 10 50 -2z m168 -44 c0 -48 -21 -72 -48 -55 -12 7 -9 11 10 19 24 9 24 10 3
10 -19 1 -23 7 -23 30 0 29 10 39 42 40 13 1 16 -8 16 -44z m230 -97 c-3 -7
-13 -15 -24 -17 -16 -3 -17 -1 -5 13 16 19 34 21 29 4z m-313 -9 c10 -14 1
-21 -19 -13 -9 3 -13 10 -10 15 7 12 21 11 29 -2z m175 -10 c0 -5 -4 -9 -10
-9 -5 0 -10 7 -10 16 0 8 5 12 10 9 6 -3 10 -10 10 -16z m-50 -9 c0 -5 -4 -10
-10 -10 -5 0 -10 5 -10 10 0 6 5 10 10 10 6 0 10 -4 10 -10z"/>
<path d="M4081 4964 c0 -11 3 -14 6 -6 3 7 2 16 -1 19 -3 4 -6 -2 -5 -13z"/>
<path d="M4241 4944 c0 -11 3 -14 6 -6 3 7 2 16 -1 19 -3 4 -6 -2 -5 -13z"/>
<path d="M4060 4911 l-25 -7 28 -6 c19 -4 27 -1 27 8 0 8 -1 14 -2 13 -2 -1
-14 -4 -28 -8z"/>
<path d="M3985 4900 c-3 -5 -4 -10 -1 -10 2 0 12 -3 20 -6 12 -5 15 -2 10 10
-7 18 -20 21 -29 6z"/>
<path d="M4185 4880 c26 -11 45 -12 45 -2 0 4 -15 8 -33 9 -26 1 -28 0 -12 -7z"/>
<path d="M4234 4869 c-3 -6 -16 -8 -29 -5 -15 4 -25 1 -29 -10 -5 -13 0 -15
27 -9 l32 6 -27 -21 c-17 -13 -28 -31 -28 -45 0 -13 -6 -25 -12 -28 -7 -2 0
-2 15 0 26 5 27 3 16 -14 -9 -15 -9 -24 0 -39 11 -17 12 -17 8 7 -2 14 2 30 9
36 15 15 25 6 17 -15 -4 -10 -2 -13 5 -8 12 7 47 -8 69 -30 7 -7 13 -29 13
-49 0 -29 -3 -36 -15 -32 -8 4 9 -26 37 -65 95 -134 100 -192 24 -272 -59 -63
-113 -86 -204 -86 -82 0 -132 19 -191 74 -26 24 -30 25 -18 8 18 -28 67 -62
117 -83 44 -17 152 -18 204 0 80 28 166 139 166 217 0 16 -20 70 -45 120 -49
97 -55 132 -27 157 24 22 54 21 83 -2 23 -18 23 -20 6 -38 -23 -27 -21 -52 8
-106 28 -50 41 -126 31 -180 -4 -19 -24 -62 -45 -94 -32 -50 -50 -66 -102 -92
-71 -35 -100 -41 -78 -15 11 14 9 15 -27 7 -21 -4 -70 -8 -109 -7 l-70 1 40
-13 40 -12 -36 -1 c-56 -1 -134 28 -180 67 -91 78 -116 213 -60 326 31 63 31
89 0 102 -20 9 -20 10 1 31 32 35 70 41 92 13 27 -33 22 -65 -22 -160 -42 -89
-47 -126 -26 -175 12 -28 12 -26 8 30 -3 57 -1 64 45 141 42 70 48 86 45 123
-3 34 0 47 19 67 12 13 28 24 35 24 7 0 18 9 24 20 6 11 19 20 30 20 12 0 20
8 22 22 2 17 -5 27 -31 40 -19 10 -36 16 -39 14 -2 -3 10 -12 27 -21 39 -20
40 -42 1 -50 -16 -4 -30 -11 -30 -15 0 -5 -19 -22 -43 -39 -30 -20 -48 -27
-58 -20 -8 5 -28 9 -45 9 -55 0 -112 -77 -69 -94 23 -8 18 -38 -17 -108 -53
-102 -40 -203 36 -286 42 -46 143 -102 184 -102 12 0 31 -9 42 -20 25 -25 140
-30 140 -6 0 8 14 18 33 21 51 12 125 53 172 96 94 87 111 197 50 319 -40 79
-42 95 -17 109 16 9 16 12 2 38 -24 43 -64 58 -111 43 -37 -13 -40 -12 -85 23
-26 21 -55 37 -65 37 -32 0 -32 21 0 50 17 16 31 36 31 44 0 19 -6 20 -16 5z
m4 -736 c-10 -2 -26 -2 -35 0 -10 3 -2 5 17 5 19 0 27 -2 18 -5z m-28 -43 c0
-5 -16 -10 -36 -10 -21 0 -33 4 -29 10 3 6 19 10 36 10 16 0 29 -4 29 -10z"/>
<path d="M4126 4855 c-3 -8 -1 -15 4 -15 6 0 10 7 10 15 0 8 -2 15 -4 15 -2 0
-6 -7 -10 -15z"/>
<path d="M4121 4721 c-6 -11 -7 -22 -2 -25 5 -3 11 4 14 16 8 30 1 35 -12 9z"/>
<path d="M4156 4723 c-12 -12 -6 -33 9 -33 8 0 15 6 15 14 0 17 -14 28 -24 19z"/>
<path d="M4180 4649 c0 -7 -10 -9 -27 -5 -26 6 -27 5 -9 -8 14 -11 24 -12 37
-5 20 10 26 29 9 29 -5 0 -10 -5 -10 -11z"/>
<path d="M4420 4577 c0 -4 9 -25 19 -45 28 -56 36 -139 17 -184 -9 -21 -12
-38 -7 -38 26 0 39 106 20 173 -10 37 -49 111 -49 94z"/>
<path d="M3880 4513 c-17 -37 -24 -142 -12 -173 7 -19 9 -9 5 40 -3 44 0 79
11 110 17 50 16 64 -4 23z"/>
<path d="M4100 4468 c0 -20 1 -21 20 -3 11 10 20 20 20 22 0 1 -9 3 -20 3 -14
0 -20 -7 -20 -22z"/>
<path d="M4140 4465 c-22 -23 -22 -25 -4 -27 61 -5 104 9 104 32 0 15 -7 20
-26 20 -17 0 -23 -4 -18 -12 6 -10 4 -10 -7 0 -18 17 -22 16 -49 -13z"/>
<path d="M4251 4458 c1 -13 -3 -34 -8 -48 -6 -14 -18 -42 -26 -62 -20 -47 -6
-50 22 -5 11 18 29 43 40 55 12 14 17 31 13 45 -10 39 -45 51 -41 15z"/>
<path d="M4057 4463 c-13 -12 -7 -23 13 -23 13 0 18 5 14 15 -7 16 -17 19 -27
8z"/>
<path d="M4050 4421 c0 -12 71 -103 77 -98 6 7 -37 90 -51 99 -15 10 -26 10
-26 -1z"/>
<path d="M4162 4423 c-36 -3 -52 -8 -49 -16 2 -7 15 -42 28 -79 13 -38 27 -68
30 -68 6 0 59 147 59 163 0 4 -3 6 -7 5 -5 -1 -32 -3 -61 -5z"/>
<path d="M4475 3950 c-4 -6 -3 -85 0 -176 7 -144 10 -165 24 -162 13 3 16 18
16 81 0 71 2 80 25 97 51 40 81 2 78 -100 -1 -61 0 -65 22 -68 22 -4 23 -2 16
44 -3 26 -6 64 -6 85 0 53 -29 83 -73 73 -18 -3 -37 -10 -43 -15 -17 -14 -24
12 -24 87 0 49 -3 64 -14 64 -8 0 -18 -5 -21 -10z"/>
<path d="M3201 3934 c0 -11 3 -14 6 -6 3 7 2 16 -1 19 -3 4 -6 -2 -5 -13z"/>
<path d="M3271 3934 c0 -11 3 -14 6 -6 3 7 2 16 -1 19 -3 4 -6 -2 -5 -13z"/>
<path d="M4130 3935 c-11 -13 -10 -14 4 -9 9 3 16 10 16 15 0 13 -6 11 -20 -6z"/>
<path d="M3515 3920 c-3 -5 -1 -10 4 -10 6 0 11 5 11 10 0 6 -2 10 -4 10 -3 0
-8 -4 -11 -10z"/>
<path d="M3720 3910 c0 -12 4 -19 9 -16 4 3 18 -34 30 -82 13 -48 25 -94 29
-102 3 -8 11 -35 16 -60 9 -36 16 -46 35 -48 21 -3 23 -1 17 20 -3 12 -18 66
-31 118 -47 179 -49 185 -79 188 -21 3 -26 -1 -26 -18z"/>
<path d="M3940 3765 l0 -165 26 0 c22 0 25 3 20 23 -3 12 -6 86 -6 165 0 135
-1 142 -20 142 -19 0 -20 -7 -20 -165z"/>
<path d="M3322 3750 l2 -170 24 0 23 0 -2 153 c-3 175 -5 187 -30 187 -17 0
-18 -12 -17 -170z"/>
<path d="M4734 3909 c-10 -17 13 -36 27 -22 12 12 4 33 -11 33 -5 0 -12 -5
-16 -11z"/>
<path d="M3700 3825 c-7 -30 -11 -57 -8 -60 3 -3 10 20 17 51 7 30 11 57 9 60
-3 2 -11 -21 -18 -51z"/>
<path d="M4884 3806 c-28 -28 -34 -42 -34 -76 0 -52 13 -76 50 -95 46 -24 87
-19 121 14 16 16 29 35 29 42 0 7 -16 -4 -35 -24 -29 -30 -39 -34 -62 -28 -14
4 -36 19 -46 33 -17 23 -19 34 -11 78 7 41 15 55 37 68 28 16 29 16 48 -7 11
-13 18 -30 15 -38 -4 -9 3 -13 20 -13 22 0 24 3 19 23 -10 34 -43 57 -82 57
-26 0 -43 -8 -69 -34z"/>
<path d="M4420 3819 c0 -5 5 -7 10 -4 6 3 10 8 10 11 0 2 -4 4 -10 4 -5 0 -10
-5 -10 -11z"/>
<path d="M4736 3821 c-3 -4 -2 -51 1 -104 5 -86 8 -97 24 -97 17 0 19 9 19 99
0 90 -2 99 -20 104 -11 3 -22 2 -24 -2z"/>
<path d="M4272 3808 c-30 -30 -8 -71 59 -107 45 -24 57 -46 41 -71 -10 -16
-10 -20 2 -20 22 0 38 26 34 56 -2 22 -16 35 -61 62 -45 26 -57 38 -55 54 4
30 33 30 67 2 16 -13 32 -24 35 -24 12 0 5 21 -14 40 -23 23 -88 28 -108 8z"/>
<path d="M4013 3789 c-9 -9 -6 -17 8 -33 11 -11 39 -49 61 -84 42 -62 70 -81
104 -68 12 4 -4 28 -68 100 -46 52 -85 95 -88 95 -4 1 -11 -4 -17 -10z"/>
<path d="M3396 3772 c-15 -18 -15 -20 5 -38 12 -10 39 -44 60 -75 39 -59 54
-69 95 -69 22 0 19 7 -42 78 -36 42 -71 87 -77 100 -12 27 -19 27 -41 4z"/>
<path d="M3682 3730 c0 -14 2 -19 5 -12 2 6 2 18 0 25 -3 6 -5 1 -5 -13z"/>
<path d="M3662 3677 c-11 -23 -22 -91 -13 -81 6 6 30 98 27 101 -2 2 -8 -7
-14 -20z"/>
<path d="M4262 3678 c-7 -7 -12 -18 -12 -24 0 -19 50 -54 74 -53 15 0 16 2 6
6 -21 9 -40 29 -40 45 0 25 -15 39 -28 26z"/>
<path d="M4432 3535 c0 -16 2 -22 5 -12 2 9 2 23 0 30 -3 6 -5 -1 -5 -18z"/>
<path d="M3366 3525 c-3 -8 -1 -15 4 -15 6 0 10 7 10 15 0 8 -2 15 -4 15 -2 0
-6 -7 -10 -15z"/>
<path d="M3260 3511 c0 -6 4 -13 10 -16 6 -3 7 1 4 9 -7 18 -14 21 -14 7z"/>
<path d="M3161 3484 c0 -11 3 -14 6 -6 3 7 2 16 -1 19 -3 4 -6 -2 -5 -13z"/>
<path d="M4280 3423 c0 -10 -3 -28 -6 -40 -4 -14 -2 -23 5 -23 6 0 11 8 11 17
0 15 2 14 15 -3 19 -26 19 -1 0 36 -18 34 -25 38 -25 13z"/>
<path d="M4338 3428 c-6 -18 3 -68 13 -68 5 0 9 18 9 40 0 37 -13 55 -22 28z"/>
<path d="M4379 3403 c-4 -41 -3 -43 23 -43 17 0 28 -6 31 -17 4 -17 5 -17 6 0
1 11 9 17 25 17 36 0 38 13 11 50 -19 25 -25 29 -25 16 0 -11 8 -25 17 -32 10
-7 15 -16 11 -20 -4 -4 -14 -1 -23 6 -11 9 -19 9 -28 2 -18 -16 -35 -2 -39 33
-3 26 -4 25 -9 -12z"/>
<path d="M3988 3390 c-2 -22 0 -40 4 -40 5 0 8 18 8 40 0 22 -2 40 -4 40 -2 0
-6 -18 -8 -40z"/>
<path d="M4087 3407 c-9 -35 6 -57 39 -57 26 0 31 25 14 65 -7 16 -9 12 -9
-18 -1 -48 -24 -45 -31 4 l-6 34 -7 -28z"/>
<path d="M4194 3393 c2 -40 15 -50 43 -33 17 10 17 10 -2 8 -16 -2 -21 4 -23
30 -4 44 -21 41 -18 -5z"/>
<path d="M3923 3385 c0 -22 2 -30 4 -17 2 12 2 30 0 40 -3 9 -5 -1 -4 -23z"/>
<path d="M3961 3404 c0 -11 3 -14 6 -6 3 7 2 16 -1 19 -3 4 -6 -2 -5 -13z"/>
<path d="M4058 3385 c-2 -19 0 -35 4 -35 4 0 8 16 8 35 0 19 -2 35 -4 35 -2 0
-6 -16 -8 -35z"/>
<path d="M4432 3225 c0 -16 2 -22 5 -12 2 9 2 23 0 30 -3 6 -5 -1 -5 -18z"/>
<path d="M3650 3220 c0 -5 5 -10 11 -10 5 0 7 5 4 10 -3 6 -8 10 -11 10 -2 0
-4 -4 -4 -10z"/>
<path d="M5181 3054 c0 -11 3 -14 6 -6 3 7 2 16 -1 19 -3 4 -6 -2 -5 -13z"/>
<path d="M5111 2784 c0 -11 3 -14 6 -6 3 7 2 16 -1 19 -3 4 -6 -2 -5 -13z"/>
<path d="M5063 2705 c-35 -15 -56 -46 -59 -87 -2 -39 9 -35 25 7 14 41 36 55
87 57 46 2 64 -20 64 -79 0 -32 4 -43 15 -43 8 0 15 7 15 16 0 8 4 13 9 9 5
-3 12 -1 15 4 3 5 -1 11 -9 15 -8 3 -15 14 -15 23 0 29 -28 62 -67 78 -42 18
-40 18 -80 0z"/>
<path d="M4821 2689 c-48 -14 -72 -41 -78 -87 -11 -84 45 -139 127 -126 95 15
119 146 37 202 -37 24 -37 24 -86 11z m65 -31 c4 -6 -2 -18 -12 -26 -13 -10
-15 -16 -6 -19 16 -6 15 -21 -3 -39 -12 -12 -12 -19 -2 -34 9 -16 9 -23 -5
-36 -22 -23 -40 -8 -37 30 2 17 -1 37 -5 45 -5 7 -4 23 2 34 6 12 13 30 16 40
6 19 41 23 52 5z"/>
<path d="M5054 2649 c-13 -21 12 -26 41 -8 l30 19 -32 0 c-17 0 -35 -5 -39
-11z"/>
<path d="M5152 2600 c0 -14 2 -19 5 -12 2 6 2 18 0 25 -3 6 -5 1 -5 -13z"/>
<path d="M5200 2479 c0 -5 5 -7 10 -4 6 3 10 8 10 11 0 2 -4 4 -10 4 -5 0 -10
-5 -10 -11z"/>
<path d="M4733 2224 c-8 -20 13 -42 27 -28 12 12 3 44 -11 44 -5 0 -12 -7 -16
-16z"/>
<path d="M4860 2124 c-13 -13 -19 -24 -13 -24 7 0 15 5 19 11 5 8 9 8 14 -1 5
-7 8 -2 8 14 0 14 -1 26 -2 25 0 0 -12 -11 -26 -25z"/>
<path d="M4901 2130 c1 -8 5 -26 9 -40 l8 -25 1 25 c0 14 -4 32 -9 40 -9 13
-10 13 -9 0z"/>
<path d="M4940 2100 c-8 -5 -11 -12 -8 -16 4 -3 14 1 23 10 18 17 9 21 -15 6z"/>
<path d="M5060 2100 c-18 -12 -2 -12 25 0 13 6 15 9 5 9 -8 0 -22 -4 -30 -9z"/>
<path d="M4748 2083 c7 -3 16 -2 19 1 4 3 -2 6 -13 5 -11 0 -14 -3 -6 -6z"/>
<path d="M4320 2024 c0 -8 5 -12 10 -9 6 3 10 10 10 16 0 5 -4 9 -10 9 -5 0
-10 -7 -10 -16z"/>
<path d="M4416 2033 c-3 -3 -3 -9 -1 -13 6 -9 45 -1 45 9 0 8 -36 12 -44 4z"/>
<path d="M4280 2020 c0 -5 5 -10 10 -10 6 0 10 5 10 10 0 6 -4 10 -10 10 -5 0
-10 -4 -10 -10z"/>
<path d="M4710 1978 c0 -7 11 -18 24 -24 21 -10 25 -9 29 7 3 10 2 20 -1 23
-11 11 -52 6 -52 -6z"/>
<path d="M4980 1980 c-8 -5 -11 -12 -7 -16 4 -4 13 -2 19 4 15 15 7 24 -12 12z"/>
<path d="M4791 1964 c0 -11 3 -14 6 -6 3 7 2 16 -1 19 -3 4 -6 -2 -5 -13z"/>
<path d="M4340 2210 c0 -5 5 -10 10 -10 6 0 10 5 10 10 0 6 -4 10 -10 10 -5 0
-10 -4 -10 -10z"/>
<path d="M4040 2230 c0 -5 5 -10 10 -10 6 0 10 5 10 10 0 6 -4 10 -10 10 -5 0
-10 -4 -10 -10z"/>
<path d="M4215 2241 c-3 -5 -1 -12 5 -16 5 -3 10 1 10 9 0 18 -6 21 -15 7z"/>
<path d="M4275 2240 c-3 -5 1 -10 10 -10 9 0 13 5 10 10 -3 6 -8 10 -10 10 -2
0 -7 -4 -10 -10z"/>
<path d="M3686 2231 c-4 -7 -5 -15 -2 -18 9 -9 19 4 14 18 -4 11 -6 11 -12 0z"/>
<path d="M3860 2215 c0 -16 6 -25 15 -25 9 0 15 9 15 25 0 16 -6 25 -15 25 -9
0 -15 -9 -15 -25z"/>
<path d="M3820 2031 c0 -5 5 -13 10 -16 6 -3 10 -2 10 4 0 5 -4 13 -10 16 -5
3 -10 2 -10 -4z"/>
<path d="M3680 2010 c0 -5 5 -10 10 -10 6 0 10 5 10 10 0 6 -4 10 -10 10 -5 0
-10 -4 -10 -10z"/>
<path d="M4110 2025 c0 -8 5 -15 10 -15 6 0 10 7 10 15 0 8 -4 15 -10 15 -5 0
-10 -7 -10 -15z"/>
<path d="M4180 2025 c0 -8 5 -15 10 -15 6 0 10 7 10 15 0 8 -4 15 -10 15 -5 0
-10 -7 -10 -15z"/>
<path d="M5422 5340 c0 -19 2 -27 5 -17 2 9 2 25 0 35 -3 9 -5 1 -5 -18z"/>
<path d="M1070 5320 c0 -23 10 -26 28 -8 18 18 15 28 -8 28 -13 0 -20 -7 -20
-20z"/>
<path d="M1120 5320 c0 -5 5 -10 10 -10 6 0 10 5 10 10 0 6 -4 10 -10 10 -5 0
-10 -4 -10 -10z"/>
<path d="M5423 5255 c0 -22 2 -30 4 -17 2 12 2 30 0 40 -3 9 -5 -1 -4 -23z"/>
<path d="M1076 5255 c-9 -24 -8 -45 3 -45 14 0 22 30 13 47 -8 13 -10 13 -16
-2z"/>
<path d="M900 5060 c-25 -25 -26 -37 -2 -35 28 2 62 24 62 40 0 22 -37 18 -60
-5z"/>
<path d="M5233 4980 c0 -36 2 -50 4 -32 2 17 2 47 0 65 -2 17 -4 3 -4 -33z"/>
<path d="M768 4928 c-29 -29 -72 -68 -95 -87 -24 -19 -43 -42 -43 -51 0 -9
-18 -33 -40 -54 -22 -20 -40 -44 -40 -52 0 -9 -16 -35 -35 -58 -19 -24 -35
-50 -35 -58 0 -7 -25 -39 -55 -68 -65 -64 -72 -76 -89 -139 -11 -44 -11 -48
10 -64 28 -21 43 -21 72 -1 26 18 29 49 5 63 -17 9 -17 10 1 17 19 7 19 8 0
15 -17 7 -17 8 4 8 12 1 22 6 22 11 0 6 8 13 18 17 38 14 92 59 92 78 0 10 17
34 37 51 33 29 36 35 26 56 -9 20 -8 26 8 36 10 7 19 19 19 27 0 7 12 20 28
27 18 9 29 23 32 43 3 17 12 31 20 33 51 9 99 47 93 73 -4 13 7 32 31 60 30
32 35 43 25 55 -22 27 -56 15 -111 -38z"/>
<path d="M8546 4947 c-17 -31 -17 -35 -2 -65 17 -32 30 -38 54 -23 9 5 12 25
10 62 -3 46 -6 54 -24 57 -14 2 -26 -7 -38 -31z"/>
<path d="M6665 4419 c-16 -10 -26 -19 -20 -19 5 0 -1 -7 -13 -16 -12 -8 -22
-24 -22 -35 0 -11 -4 -17 -10 -14 -5 3 -10 3 -10 -2 0 -4 22 -21 47 -38 29
-18 50 -40 53 -54 7 -29 49 -44 95 -35 50 10 95 35 95 53 0 9 10 27 23 41 34
37 40 60 21 81 -10 11 -23 19 -31 19 -7 0 -13 6 -13 14 0 31 -168 35 -215 5z"/>
<path d="M2850 4384 c0 -8 5 -12 10 -9 6 3 10 10 10 16 0 5 -4 9 -10 9 -5 0
-10 -7 -10 -16z"/>
<path d="M7483 4358 c-26 -12 -36 -44 -22 -71 6 -10 8 -28 5 -40 -8 -32 12
-47 60 -47 49 0 73 25 69 70 -3 30 -21 76 -32 83 -21 12 -60 14 -80 5z"/>
<path d="M5252 4300 c0 -14 2 -19 5 -12 2 6 2 18 0 25 -3 6 -5 1 -5 -13z"/>
<path d="M2855 4237 c-11 -9 -14 -16 -7 -21 6 -3 13 -2 17 4 4 6 11 8 16 5 5
-3 6 1 3 9 -7 19 -6 19 -29 3z"/>
<path d="M123 4114 c-51 -52 -93 -103 -93 -113 0 -10 -7 -24 -15 -31 -9 -7
-15 -29 -15 -51 l0 -38 97 6 c54 3 107 10 117 16 18 9 17 12 -17 43 -36 33
-47 66 -27 79 14 9 13 45 -2 45 -6 0 -3 9 7 20 10 11 26 20 35 20 20 0 60 41
60 61 0 20 -20 39 -39 38 -9 0 -58 -43 -108 -95z"/>
<path d="M5431 4184 c0 -11 3 -14 6 -6 3 7 2 16 -1 19 -3 4 -6 -2 -5 -13z"/>
<path d="M5432 4135 c0 -16 2 -22 5 -12 2 9 2 23 0 30 -3 6 -5 -1 -5 -18z"/>
<path d="M2858 4092 c-20 -8 -11 -26 15 -28 10 -1 17 5 17 17 0 20 -5 22 -32
11z"/>
<path d="M5431 4043 c0 -30 3 -53 9 -53 11 0 11 31 0 75 -7 26 -8 22 -9 -22z"/>
<path d="M6053 4073 c9 -2 25 -2 35 0 9 3 1 5 -18 5 -19 0 -27 -2 -17 -5z"/>
<path d="M5341 3980 c0 -33 1 -34 11 -12 8 17 8 26 0 34 -9 9 -12 4 -11 -22z"/>
<path d="M9515 3990 c-33 -5 -127 -12 -210 -16 -82 -3 -160 -11 -173 -15 -13
-5 -41 -5 -66 1 -28 6 -94 6 -182 0 -140 -9 -297 -14 -784 -26 -236 -5 -446
-10 -752 -17 -53 -2 -100 -6 -104 -9 -3 -4 -12 -4 -20 -1 -8 3 -14 0 -14 -6 0
-22 47 -40 127 -50 89 -11 129 -30 144 -68 15 -40 10 -66 -21 -102 -28 -33
-31 -34 -102 -33 -192 3 -308 63 -339 174 -6 24 -13 48 -15 55 -2 9 -12 9 -38
1 -31 -10 -35 -15 -30 -35 6 -23 -32 -163 -45 -163 -9 0 -29 -49 -40 -100 -10
-45 -50 -89 -81 -90 -20 -1 -50 -24 -50 -39 0 -6 -4 -11 -10 -11 -5 0 -10 -5
-10 -10 0 -6 -10 -24 -22 -41 l-23 -30 24 -18 24 -19 -34 -15 c-19 -8 -70 -20
-113 -26 -44 -6 -84 -15 -90 -20 -29 -22 -325 -56 -398 -45 -46 6 -498 6 -560
0 -34 -4 -39 -2 -44 22 -11 52 -14 46 -9 -18 3 -36 6 -198 6 -360 1 -162 4
-321 7 -352 l4 -58 102 0 c154 0 346 -12 346 -22 0 -4 -9 -8 -20 -8 -11 0 -20
-4 -20 -10 0 -9 29 -15 58 -11 8 1 22 -5 32 -14 10 -9 23 -14 28 -11 15 9 82
-23 82 -39 0 -8 7 -15 15 -15 8 0 15 -6 15 -12 0 -9 4 -8 10 2 7 11 10 2 10
-33 0 -29 4 -46 10 -42 5 3 36 2 67 -4 32 -5 79 -12 105 -16 85 -10 243 -27
258 -27 37 0 137 14 155 22 11 5 29 10 39 12 37 6 41 30 24 140 -10 62 -15
140 -13 195 4 95 22 210 35 228 4 6 11 29 15 53 4 23 11 40 15 37 5 -3 15 14
22 37 14 47 16 51 70 109 40 42 63 51 53 20 -6 -21 4 -53 15 -46 4 3 11 -10
14 -28 6 -31 25 -210 26 -234 0 -7 8 -13 18 -13 9 0 23 -13 30 -30 8 -17 18
-28 23 -24 5 3 9 -2 9 -10 0 -12 10 -16 39 -16 22 0 41 4 43 9 2 5 39 11 83
12 l79 2 24 -99 c39 -169 46 -183 101 -212 20 -10 72 -12 238 -8 117 3 217 7
221 10 5 3 73 6 153 7 79 2 150 7 157 13 8 6 26 9 41 8 21 -2 35 7 60 38 20
25 40 40 54 40 13 0 27 4 33 9 5 6 32 11 61 12 l52 3 7 43 c3 24 4 60 1 80 -4
24 1 57 15 97 16 47 21 90 24 188 3 153 12 187 58 212 38 20 78 19 271 -4 104
-13 132 -26 137 -63 2 -12 11 -23 21 -25 10 -2 30 -15 44 -28 17 -16 30 -21
36 -15 6 6 8 56 5 119 l-4 109 38 16 c21 10 45 17 53 17 8 0 15 4 15 9 0 12
48 23 70 16 10 -3 29 -23 42 -43 22 -35 23 -46 24 -242 0 -113 3 -238 7 -277
4 -40 11 -121 17 -180 16 -175 16 -179 -31 -226 l-40 -42 -77 1 c-107 2 -304
-8 -296 -15 3 -3 35 -13 70 -22 57 -14 68 -14 92 -1 37 19 148 34 198 27 41
-6 44 -10 35 -57 0 -4 -52 -9 -113 -11 -83 -2 -64 -3 67 -5 99 -1 197 1 218 4
l37 7 0 913 c0 725 -3 914 -12 913 -7 -1 -40 -5 -73 -9z m-315 -319 c0 -5 36
-12 80 -16 69 -6 80 -10 80 -26 0 -15 -8 -19 -42 -21 l-43 -1 39 -4 c37 -4 76
-28 56 -35 -5 -2 -10 -38 -11 -80 -1 -43 -5 -75 -9 -73 -5 3 -10 -1 -13 -9 -4
-11 -34 -14 -134 -15 -70 -1 -148 -4 -173 -7 -25 -3 -70 -2 -100 3 -53 8 -140
-2 -167 -20 -6 -4 -42 -3 -80 2 -37 5 -104 7 -148 5 -98 -4 -235 5 -235 16 0
5 15 6 34 3 19 -3 36 -1 40 6 5 7 -4 11 -24 11 -39 0 -36 22 4 26 40 4 41 8 7
43 -26 26 -29 35 -21 51 6 11 19 20 30 20 10 0 22 5 25 10 3 6 16 10 28 10 22
0 57 31 57 50 0 6 18 10 40 10 22 0 40 5 40 10 0 16 84 12 106 -5 11 -8 14
-15 7 -15 -25 0 -12 -20 13 -20 41 0 54 -22 56 -97 1 -48 3 -56 5 -25 3 28 9
42 19 42 9 0 14 11 14 33 1 29 2 30 14 15 17 -23 86 -25 86 -3 0 11 11 15 40
15 33 0 40 3 40 20 0 17 7 20 40 20 22 0 40 -4 40 -10 0 -5 18 -10 40 -10 22
0 40 5 40 10 0 6 -18 10 -40 10 -29 0 -40 4 -40 15 0 19 76 21 83 3 2 -9 12
-3 28 14 24 27 49 37 49 19z m350 -221 c0 -5 -7 -10 -15 -10 -8 0 -15 5 -15
10 0 6 7 10 15 10 8 0 15 -4 15 -10z m-1252 -21 c-12 -7 -24 -7 -35 0 -15 9
-12 10 17 10 29 0 32 -1 18 -10z m1139 5 c-3 -3 -12 -4 -19 -1 -8 3 -5 6 6 6
11 1 17 -2 13 -5z m-1177 -44 c0 -5 -4 -10 -10 -10 -5 0 -10 5 -10 10 0 6 5
10 10 10 6 0 10 -4 10 -10z m1031 -39 c-11 -7 -9 -10 10 -13 26 -3 29 -21 5
-26 -16 -4 -58 33 -48 42 3 3 15 6 26 6 16 0 18 -2 7 -9z m-1204 -217 c19 -5
21 -10 12 -25 -7 -15 -6 -28 6 -52 29 -56 55 -139 61 -195 3 -31 10 -66 15
-79 18 -47 10 -96 -21 -133 -26 -31 -31 -34 -49 -22 -12 6 -27 12 -34 12 -16
0 -48 34 -67 73 -7 15 -17 27 -22 27 -5 0 -13 11 -18 24 -8 22 -12 24 -40 16
-32 -9 -60 -4 -60 10 0 4 -11 11 -25 14 -18 5 -25 13 -25 31 0 13 -9 33 -21
44 -28 26 -18 65 14 55 35 -10 49 -26 44 -50 -3 -17 2 -24 19 -28 13 -4 34
-17 48 -31 30 -30 38 -31 60 -6 12 13 18 41 21 97 4 81 12 162 21 202 4 22 21
27 61 16z m-661 -88 c16 -17 19 -36 4 -36 -15 0 -12 -40 5 -56 23 -24 18 -51
-11 -58 -16 -4 -29 -17 -36 -36 -13 -39 -24 -38 -32 3 -12 55 0 178 18 189 17
12 36 9 52 -6z m-1426 -616 c0 -5 -2 -10 -4 -10 -3 0 -8 5 -11 10 -3 6 -1 10
4 10 6 0 11 -4 11 -10z"/>
<path d="M8791 3483 c0 -23 -6 -43 -13 -45 -7 -3 -6 -7 5 -11 9 -3 17 -2 17 3
0 6 20 10 45 10 26 0 59 7 76 15 16 9 33 13 38 11 5 -3 14 1 22 10 10 12 9 18
-4 32 -16 15 -17 15 -17 -7 0 -20 -3 -22 -22 -16 -13 4 -48 7 -80 6 -47 -2
-57 1 -61 16 -3 10 -5 -1 -6 -24z"/>
<path d="M9020 3505 c-14 -17 2 -45 26 -45 23 0 27 21 6 40 -18 17 -22 17 -32
5z"/>
<path d="M9092 3498 c3 -22 8 -23 96 -26 80 -2 92 -1 92 14 0 14 -10 15 -80 9
-70 -6 -80 -5 -80 9 0 9 -7 16 -16 16 -10 0 -14 -7 -12 -22z"/>
<path d="M9300 3505 c-22 -26 7 -46 39 -26 12 8 12 12 2 25 -17 20 -25 20 -41
1z"/>
<path d="M5382 3970 c0 -14 2 -19 5 -12 2 6 2 18 0 25 -3 6 -5 1 -5 -13z"/>
<path d="M2857 3956 c-23 -17 -22 -36 2 -36 11 0 22 -6 24 -12 3 -7 6 1 6 19
1 38 -8 46 -32 29z"/>
<path d="M5434 3810 c3 -69 5 -206 5 -304 1 -99 4 -176 9 -172 11 11 2 579
-10 591 -6 6 -8 -34 -4 -115z"/>
<path d="M2315 3867 c-29 -11 -140 -84 -167 -110 -7 -7 -29 -22 -48 -33 -32
-18 -79 -51 -183 -131 -23 -17 -45 -32 -48 -32 -21 -3 -169 -97 -212 -136 -76
-69 -133 -106 -172 -112 -20 -3 -50 -20 -71 -39 -19 -19 -41 -34 -47 -34 -7 0
-30 -17 -53 -37 -161 -149 -156 -146 -207 -148 -26 -2 -49 1 -52 5 -6 10 -45
1 -45 -11 0 -5 6 -9 13 -9 8 0 7 -3 -3 -9 -8 -6 -18 -7 -22 -5 -4 3 -13 -7
-18 -21 -5 -14 -14 -24 -19 -20 -5 3 -13 0 -17 -6 -3 -6 -1 -15 7 -20 11 -6
10 -11 -4 -27 -9 -10 -17 -26 -17 -35 0 -11 -9 -17 -25 -18 -14 -1 -35 -2 -47
-2 -19 -1 -25 6 -35 45 -15 60 -15 61 -69 97 -44 30 -48 31 -134 26 -53 -3
-92 -1 -95 5 -8 13 -48 13 -62 -1 -8 -8 -14 -5 -23 12 -12 22 -13 22 -26 4
-12 -17 -14 -17 -14 -2 0 13 -9 17 -40 17 -22 0 -40 -4 -40 -10 0 -5 6 -10 14
-10 15 0 26 -61 26 -141 0 -40 4 -51 23 -63 20 -12 204 -51 284 -60 51 -5 85
-39 90 -86 1 -14 6 -75 10 -136 9 -121 16 -138 70 -161 44 -18 294 -17 346 1
68 25 74 36 82 149 9 139 19 175 53 188 33 13 193 12 207 -2 13 -13 15 -71 3
-86 -5 -7 -7 -17 -3 -23 3 -5 2 -10 -3 -10 -6 0 -13 -16 -16 -35 -4 -22 -13
-35 -22 -35 -8 0 -13 -4 -9 -10 3 -5 1 -18 -5 -30 -5 -11 -14 -28 -19 -39 -13
-24 -17 -193 -6 -211 5 -8 12 -50 15 -94 4 -45 9 -88 11 -96 3 -12 -14 -16
-96 -21 -55 -3 240 -3 655 -1 415 3 757 7 760 9 2 2 5 31 6 64 2 43 -1 59 -9
56 -7 -2 -14 -16 -17 -32 -3 -15 -14 -33 -25 -39 -11 -6 -22 -13 -25 -16 -9
-9 -86 -26 -98 -22 -7 2 -12 11 -12 20 0 10 -7 25 -14 35 -10 13 -11 29 -4 65
5 26 11 163 12 305 l3 258 24 25 c20 20 31 23 57 18 20 -4 32 -12 32 -23 0 -9
9 -22 20 -29 11 -7 20 -22 21 -35 0 -12 3 -16 6 -10 3 9 10 10 24 3 18 -10 19
-7 18 48 -1 33 2 65 5 71 4 6 4 11 -1 11 -12 0 -14 322 -1 337 7 9 7 13 -1 13
-7 0 -11 23 -10 63 0 47 3 57 10 42 6 -14 8 5 4 59 -3 43 -5 111 -5 151 0 60
-4 76 -22 97 -45 50 -396 279 -426 277 -9 -1 -30 -6 -47 -12z"/>
<path d="M5380 3809 c0 -5 5 -7 10 -4 6 3 10 8 10 11 0 2 -4 4 -10 4 -5 0 -10
-5 -10 -11z"/>
<path d="M2857 3796 c-21 -16 -22 -27 -2 -20 20 8 19 -6 -2 -21 -16 -12 -14
-12 10 -8 27 5 35 25 19 50 -5 8 -11 8 -25 -1z"/>
<path d="M5278 3803 c7 -3 16 -2 19 1 4 3 -2 6 -13 5 -11 0 -14 -3 -6 -6z"/>
<path d="M5387 3694 c-10 -10 -9 -54 2 -54 5 0 14 7 21 16 11 12 11 18 -1 30
-9 8 -18 11 -22 8z"/>
<path d="M5350 3673 c0 -13 5 -23 10 -23 13 0 13 11 0 30 -8 12 -10 11 -10 -7z"/>
<path d="M2841 3619 c-1 -25 2 -27 37 -27 20 0 31 3 24 5 -6 3 -10 8 -8 12 3
4 0 13 -5 21 -7 12 -10 11 -15 -7 -4 -13 -10 -23 -14 -23 -5 0 -11 10 -13 23
-4 20 -4 19 -6 -4z"/>
<path d="M5351 3529 c-1 -30 3 -38 21 -42 27 -7 26 -8 32 26 3 19 0 27 -10 27
-8 0 -14 -8 -14 -17 -1 -12 -6 -7 -15 12 l-13 30 -1 -36z"/>
<path d="M2840 3500 c0 -14 -3 -36 -6 -50 -5 -23 -4 -23 9 -8 13 16 15 16 30
0 21 -20 43 -3 33 25 -6 15 -8 15 -16 3 -10 -16 -10 -16 -14 18 -2 12 1 22 6
22 4 0 8 3 8 8 0 4 -11 7 -25 7 -20 0 -25 -5 -25 -25z"/>
<path d="M5287 3523 c-4 -3 -7 -15 -7 -26 0 -15 3 -17 13 -8 10 8 17 7 25 -1
9 -9 12 -6 12 15 0 20 -5 27 -18 27 -10 0 -22 -3 -25 -7z"/>
<path d="M3018 3443 c7 -3 16 -2 19 1 4 3 -2 6 -13 5 -11 0 -14 -3 -6 -6z"/>
<path d="M5351 3371 c1 -28 14 -46 33 -46 14 0 19 8 21 31 2 28 0 31 -26 31
-20 0 -29 -5 -28 -16z"/>
<path d="M2869 3349 c-12 -8 -6 -13 12 -11 3 1 4 -14 2 -33 -2 -20 1 -35 7
-35 5 0 10 4 10 8 0 4 29 6 65 4 62 -4 65 -3 65 18 0 21 -4 22 -40 17 -31 -4
-47 0 -74 18 -22 15 -38 20 -47 14z"/>
<path d="M5423 3305 c0 -33 2 -45 4 -27 2 18 2 45 0 60 -2 15 -4 0 -4 -33z"/>
<path d="M2830 3310 c0 -25 4 -39 10 -35 6 3 10 19 10 35 0 16 -4 32 -10 35
-6 4 -10 -10 -10 -35z"/>
<path d="M0 2676 l0 -624 113 -5 c61 -4 166 -3 232 2 103 7 109 8 46 9 -71 2
-73 3 -67 25 9 30 14 50 15 61 1 5 7 3 15 -3 11 -9 13 -6 11 21 -2 18 -3 41
-4 50 -1 21 -37 59 -73 77 -41 21 -59 53 -49 88 7 25 5 531 -2 575 -2 10 -14
29 -27 43 -22 24 -31 26 -90 23 -39 -2 -65 1 -65 7 0 6 9 36 19 67 18 53 19
59 4 75 -9 10 -21 38 -28 63 -12 47 -26 70 -41 70 -5 0 -9 -273 -9 -624z"/>
<path d="M5313 3243 c-18 -7 -16 -43 2 -43 9 0 15 9 15 25 0 14 -1 25 -2 24
-2 0 -9 -3 -15 -6z"/>
<path d="M5361 3193 c1 -32 3 -50 6 -40 2 10 12 16 21 15 9 -2 18 5 20 16 3
14 0 17 -13 13 -9 -4 -14 -3 -10 3 3 6 2 10 -4 10 -6 0 -8 6 -5 14 3 8 1 17
-5 21 -7 4 -11 -13 -10 -52z"/>
<path d="M2837 3189 c-7 -44 -12 -514 -8 -748 1 -93 11 -69 12 30 1 51 5 87
12 91 9 5 9 10 -1 20 -18 18 -16 117 3 124 8 4 12 10 9 15 -3 5 0 9 6 9 6 0
13 -13 16 -30 4 -16 10 -27 15 -24 5 3 7 9 4 13 -2 5 7 9 20 9 27 0 28 -3 16
-32 -8 -20 -71 -32 -71 -13 0 6 -3 7 -7 3 -5 -4 -1 -13 7 -20 8 -6 21 -21 28
-34 10 -18 10 -22 -2 -22 -10 0 -14 -10 -14 -30 1 -39 18 -50 19 -13 1 16 3
21 6 11 2 -9 10 -15 18 -12 9 4 13 -3 12 -23 -2 -33 -16 -46 -34 -31 -10 8
-13 -1 -12 -43 0 -30 3 -48 6 -41 2 6 12 12 21 12 15 0 15 2 2 10 -13 8 -12
10 3 10 12 0 17 -8 17 -30 0 -28 -8 -35 -37 -31 -23 3 -14 -19 12 -31 14 -6
25 -15 25 -20 0 -12 -24 -10 -38 4 -11 11 -14 2 -12 -39 1 -5 12 -7 25 -5 23
3 25 0 25 -33 0 -34 -2 -37 -23 -33 -22 4 -23 1 -24 -44 -1 -43 2 -48 21 -48
45 0 50 -16 17 -50 -17 -18 -31 -29 -32 -24 -2 16 -17 -40 -18 -67 -1 -23 2
-26 24 -21 18 3 27 -1 32 -14 9 -27 23 -34 64 -34 35 0 81 32 62 43 -11 7 -28
-4 -36 -23 -3 -8 -6 0 -6 18 -1 29 2 33 19 27 24 -8 27 12 5 41 -19 26 -20 58
0 50 11 -4 15 2 15 24 0 22 -4 28 -16 23 -8 -3 -13 -12 -10 -19 3 -8 1 -14 -4
-14 -19 0 -10 32 14 51 26 20 26 59 0 59 -7 0 -16 15 -20 34 -7 40 3 66 18 45
5 -9 6 -4 2 14 -3 15 -2 27 3 27 5 0 9 9 9 20 0 13 -7 20 -18 20 -25 0 -22 19
5 30 19 7 19 9 3 9 -16 1 -17 6 -11 34 13 61 14 141 2 155 -6 8 -20 18 -32 23
-19 8 -19 8 3 15 15 4 21 12 18 21 -3 8 -6 36 -6 63 0 43 -2 48 -20 43 -11 -3
-20 0 -20 6 0 6 -9 11 -21 11 -11 0 -17 5 -14 10 4 6 12 10 18 8 24 -4 56 13
51 27 -4 10 -12 11 -30 5 -18 -7 -24 -6 -24 5 0 9 6 12 17 8 10 -4 14 -2 10 4
-4 6 0 13 8 17 18 7 20 53 3 59 -7 2 -24 -3 -36 -11 -15 -10 -26 -12 -30 -5
-12 16 -44 24 -57 13 -10 -8 -15 -6 -20 9 -3 12 -3 26 1 33 4 7 7 25 6 41 -3
40 8 53 23 25 8 -15 9 -27 2 -36 -16 -21 4 -29 64 -24 l56 4 -10 44 c-9 39
-14 44 -44 50 -18 3 -47 4 -63 2 -29 -4 -30 -3 -30 31 l0 36 55 0 c41 -1 54 3
51 12 -5 11 13 18 37 14 4 0 7 3 7 9 0 11 -45 24 -73 22 -10 0 -22 9 -26 20
-6 17 -10 18 -16 8 -7 -11 -10 -10 -16 6 -7 19 -8 19 -8 0 -1 -19 -1 -19 -15
-1 -12 17 -14 16 -19 -16z m50 -34 c12 -27 4 -39 -21 -29 -17 7 -19 14 -10 38
9 22 17 20 31 -9z m63 -175 c0 -5 -4 -10 -10 -10 -5 0 -10 5 -10 10 0 6 5 10
10 10 6 0 10 -4 10 -10z m-54 -150 c8 0 12 5 9 10 -3 6 3 10 15 10 14 0 19 4
14 13 -5 9 -4 9 5 1 9 -8 10 -21 3 -45 -6 -19 -11 -29 -11 -22 -1 6 -14 10
-31 9 -16 -1 -32 3 -34 8 -3 7 -5 6 -5 -1 -1 -7 8 -17 19 -23 16 -9 18 -15 10
-30 -6 -11 -20 -20 -31 -20 -19 0 -20 4 -13 57 8 63 27 97 32 57 2 -13 10 -24
18 -24z m101 -151 c16 -16 5 -39 -18 -39 -12 0 -19 7 -19 18 0 31 17 41 37 21z
m-37 -93 c0 -14 -27 -42 -34 -35 -2 2 0 14 5 27 9 24 29 30 29 8z m30 -56 c0
-5 -5 -10 -11 -10 -5 0 -7 5 -4 10 3 6 8 10 11 10 2 0 4 -4 4 -10z m10 -40 c0
-5 -9 -10 -20 -10 -11 0 -20 5 -20 10 0 6 9 10 20 10 11 0 20 -4 20 -10z m-2
-103 c2 -12 -3 -17 -17 -17 -15 0 -21 6 -21 21 0 25 33 22 38 -4z m2 -127 c0
-5 -6 -10 -12 -10 -10 0 -9 -3 1 -9 17 -11 5 -31 -19 -31 -13 0 -18 7 -17 23
0 12 6 25 12 29 15 11 35 10 35 -2z m-60 -99 c0 -5 -7 -11 -15 -15 -9 -3 -15
0 -15 9 0 8 7 15 15 15 8 0 15 -4 15 -9z m110 -1 c0 -5 -5 -10 -11 -10 -5 0
-7 5 -4 10 3 6 8 10 11 10 2 0 4 -4 4 -10z m-59 -49 c6 10 9 6 9 -12 0 -15 -6
-29 -13 -32 -10 -4 -14 4 -14 26 0 18 2 26 5 18 4 -11 6 -11 13 0z m-26 -81
c4 -6 -7 -10 -27 -10 -25 0 -29 3 -18 10 19 13 37 13 45 0z m35 0 c0 -5 -4
-10 -10 -10 -5 0 -10 5 -10 10 0 6 5 10 10 10 6 0 10 -4 10 -10z m-50 -24 c0
-3 -4 -8 -10 -11 -5 -3 -10 -1 -10 4 0 6 5 11 10 11 6 0 10 -2 10 -4z m57 -63
c2 -6 0 -13 -4 -16 -12 -7 -53 11 -53 23 0 14 53 7 57 -7z"/>
<path d="M5295 3170 c3 -5 13 -10 21 -10 8 0 14 5 14 10 0 6 -9 10 -21 10 -11
0 -17 -4 -14 -10z"/>
<path d="M1034 3145 c4 -11 2 -22 -6 -27 -9 -5 -6 -8 9 -8 16 0 20 5 16 20 -3
11 -10 23 -16 27 -7 4 -8 0 -3 -12z"/>
<path d="M5422 3120 c0 -14 2 -19 5 -12 2 6 2 18 0 25 -3 6 -5 1 -5 -13z"/>
<path d="M310 3121 c0 -17 18 -21 24 -6 3 9 0 15 -9 15 -8 0 -15 -4 -15 -9z"/>
<path d="M2995 3120 c-3 -5 -1 -10 4 -10 6 0 11 5 11 10 0 6 -2 10 -4 10 -3 0
-8 -4 -11 -10z"/>
<path d="M5390 3077 c-8 -7 -16 -25 -17 -42 -2 -24 -1 -26 6 -10 7 18 8 18 18
1 9 -16 11 -14 15 18 5 42 0 49 -22 33z"/>
<path d="M5421 3013 c-1 -17 4 -35 9 -38 11 -7 11 9 0 45 -8 24 -8 24 -9 -7z"/>
<path d="M5405 2941 c-3 -10 -3 -25 0 -34 4 -8 1 -18 -4 -22 -6 -3 -9 -11 -6
-16 9 -14 32 -11 39 7 3 8 2 12 -4 9 -10 -6 -15 20 -12 58 2 23 -5 22 -13 -2z"/>
<path d="M5320 2911 c0 -25 4 -31 21 -31 16 0 20 5 17 27 -2 17 -10 29 -20 31
-14 3 -18 -3 -18 -27z"/>
<path d="M5327 2863 c-13 -12 -7 -23 13 -23 11 0 20 7 20 15 0 15 -21 21 -33
8z"/>
<path d="M5340 2786 c0 -20 -5 -26 -22 -26 -29 0 -18 -9 15 -12 29 -2 38 -18
11 -18 -11 0 -14 -6 -8 -22 8 -29 11 -31 23 -24 14 9 9 118 -6 124 -8 2 -13
-6 -13 -22z"/>
<path d="M5401 2771 c-1 -24 2 -32 9 -25 7 7 7 19 1 35 -9 23 -10 22 -10 -10z"/>
<path d="M5315 2780 c3 -5 8 -10 11 -10 2 0 4 5 4 10 0 6 -5 10 -11 10 -5 0
-7 -4 -4 -10z"/>
<path d="M5422 2635 c0 -16 2 -22 5 -12 2 9 2 23 0 30 -3 6 -5 -1 -5 -18z"/>
<path d="M5340 2615 c0 -8 7 -15 15 -15 8 0 15 7 15 15 0 8 -7 15 -15 15 -8 0
-15 -7 -15 -15z"/>
<path d="M5345 2570 c-3 -5 3 -10 14 -10 12 0 21 5 21 10 0 6 -6 10 -14 10 -8
0 -18 -4 -21 -10z"/>
<path d="M5345 2539 c-4 -6 -4 -13 -1 -16 8 -8 36 5 36 17 0 13 -27 13 -35 -1z"/>
<path d="M2860 2495 c0 -5 5 -17 10 -25 5 -8 10 -10 10 -5 0 6 -5 17 -10 25
-5 8 -10 11 -10 5z"/>
<path d="M5347 2479 c-4 -16 -11 -20 -24 -15 -14 6 -13 3 5 -14 19 -18 24 -19
37 -7 10 11 11 17 2 26 -8 8 -8 11 1 11 7 0 12 5 12 10 0 19 -28 10 -33 -11z"/>
<path d="M6986 2370 c-4 -52 -12 -117 -17 -144 -6 -33 -6 -53 1 -61 8 -9 7
-15 -2 -18 -8 -3 -5 -6 7 -7 l20 -1 -20 -9 c-17 -7 -16 -9 10 -10 17 -1 38 -3
48 -5 15 -3 16 -1 5 13 -10 12 -10 14 0 8 6 -4 12 -2 12 3 0 6 -5 11 -10 11
-8 0 -8 4 -1 13 6 6 22 27 37 44 15 19 42 38 65 44 21 7 39 14 39 17 0 12 -37
31 -60 32 -41 1 -79 46 -82 97 -1 11 -7 19 -14 16 -7 -2 -16 8 -21 24 -8 23
-11 12 -17 -67z"/>
<path d="M5340 2410 c0 -5 5 -10 11 -10 5 0 7 5 4 10 -3 6 -8 10 -11 10 -2 0
-4 -4 -4 -10z"/>
<path d="M5345 2370 c3 -5 8 -10 11 -10 2 0 4 5 4 10 0 6 -5 10 -11 10 -5 0
-7 -4 -4 -10z"/>
<path d="M2829 2345 c-3 -11 -6 -45 -6 -75 l-1 -55 9 65 c9 64 7 103 -2 65z"/>
<path d="M2856 2335 c4 -8 10 -15 15 -15 4 0 6 7 3 15 -4 8 -10 15 -15 15 -4
0 -6 -7 -3 -15z"/>
<path d="M6038 2313 c7 -3 16 -2 19 1 4 3 -2 6 -13 5 -11 0 -14 -3 -6 -6z"/>
<path d="M5343 2295 c0 -8 4 -12 9 -9 4 3 8 9 8 15 0 5 -4 9 -8 9 -5 0 -9 -7
-9 -15z"/>
<path d="M5760 2277 c-41 -4 -77 -12 -80 -16 -5 -7 -99 -20 -177 -24 l-33 -1
0 -71 0 -70 237 2 c253 3 368 11 323 23 -16 4 -24 12 -22 22 1 9 -2 19 -8 23
-5 3 -7 0 -4 -9 4 -10 0 -13 -13 -10 -19 5 -57 40 -116 104 l-32 36 -75 -9z"/>
<path d="M5315 2260 c-3 -5 -2 -10 4 -10 5 0 13 5 16 10 3 6 2 10 -4 10 -5 0
-13 -4 -16 -10z"/>
<path d="M5350 2218 c0 -4 7 -8 15 -8 8 0 15 4 15 8 0 5 -7 9 -15 9 -8 0 -15
-4 -15 -9z"/>
<path d="M8014 2222 c-6 -4 -15 -21 -18 -38 -7 -29 -5 -32 25 -38 47 -9 99 -7
99 4 0 6 -4 10 -10 10 -5 0 -10 6 -10 14 0 16 -46 56 -64 56 -6 0 -16 -4 -22
-8z"/>
<path d="M2831 2174 c0 -11 3 -14 6 -6 3 7 2 16 -1 19 -3 4 -6 -2 -5 -13z"/>
<path d="M2851 2185 c1 -22 16 -48 22 -38 3 5 0 19 -8 29 -8 10 -14 15 -14 9z"/>
<path d="M9085 2160 l-40 -7 40 -1 c22 -1 47 3 55 8 18 12 10 12 -55 0z"/>
<path d="M9008 2153 c6 -2 18 -2 25 0 6 3 1 5 -13 5 -14 0 -19 -2 -12 -5z"/>
<path d="M5331 2103 c-1 -13 4 -23 9 -23 6 0 9 -5 8 -12 -2 -6 5 -14 15 -16
11 -2 17 3 17 14 0 10 -3 15 -6 11 -7 -7 -28 12 -37 33 -3 10 -6 7 -6 -7z"/>
<path d="M2810 2040 c0 -5 5 -10 11 -10 5 0 7 5 4 10 -3 6 -8 10 -11 10 -2 0
-4 -4 -4 -10z"/>
<path d="M2862 1980 c0 -14 2 -19 5 -12 2 6 2 18 0 25 -3 6 -5 1 -5 -13z"/>
<path d="M603 1959 c-18 -5 -33 -12 -33 -15 0 -9 53 5 65 17 10 10 11 10 -32
-2z"/>
<path d="M7525 1940 c-3 -6 1 -7 9 -4 18 7 21 14 7 14 -6 0 -13 -4 -16 -10z"/>
<path d="M7120 1925 c0 -9 9 -15 21 -15 18 0 19 2 9 15 -7 8 -16 15 -21 15 -5
0 -9 -7 -9 -15z"/>
<path d="M7576 1931 c-7 -11 17 -21 47 -21 12 0 34 -7 50 -14 15 -8 27 -10 27
-5 0 19 -115 56 -124 40z"/>
<path d="M7490 1900 c-20 -6 -14 -8 28 -9 33 -1 51 3 47 9 -7 12 -39 12 -75 0z"/>
<path d="M998 1873 c7 -3 16 -2 19 1 4 3 -2 6 -13 5 -11 0 -14 -3 -6 -6z"/>
<path d="M2812 1820 c0 -14 2 -19 5 -12 2 6 2 18 0 25 -3 6 -5 1 -5 -13z"/>
<path d="M808 1793 c6 -2 18 -2 25 0 6 3 1 5 -13 5 -14 0 -19 -2 -12 -5z"/>
<path d="M2820 1774 c0 -12 7 -27 15 -34 19 -16 19 -10 0 26 -13 25 -15 26
-15 8z"/>
<path d="M364 1768 c-3 -4 23 -7 58 -7 66 1 62 6 -10 11 -24 2 -46 0 -48 -4z"/>
<path d="M88 1763 c6 -2 18 -2 25 0 6 3 1 5 -13 5 -14 0 -19 -2 -12 -5z"/>
<path d="M2470 1760 c0 -5 7 -7 15 -4 8 4 15 8 15 10 0 2 -7 4 -15 4 -8 0 -15
-4 -15 -10z"/>
<path d="M1663 1753 c-13 -2 -23 -9 -23 -14 0 -12 2 -12 41 6 33 14 27 17 -18
8z"/>
<path d="M848 1733 c7 -3 16 -2 19 1 4 3 -2 6 -13 5 -11 0 -14 -3 -6 -6z"/>
<path d="M528 1723 c12 -2 30 -2 40 0 9 3 -1 5 -23 4 -22 0 -30 -2 -17 -4z"/>
<path d="M618 1723 c7 -3 16 -2 19 1 4 3 -2 6 -13 5 -11 0 -14 -3 -6 -6z"/>
<path d="M1905 1719 c-4 -6 -5 -12 -2 -15 2 -3 7 2 10 11 7 17 1 20 -8 4z"/>
<path d="M110 1710 c-8 -5 -11 -12 -7 -16 4 -4 13 -2 19 4 15 15 7 24 -12 12z"/>
<path d="M144 1690 c-12 -5 -25 -13 -29 -19 -8 -14 18 -14 31 -1 5 5 31 11 57
13 26 3 51 7 54 11 10 9 -89 6 -113 -4z"/>
<path d="M288 1693 c7 -3 16 -2 19 1 4 3 -2 6 -13 5 -11 0 -14 -3 -6 -6z"/>
<path d="M650 1690 c0 -5 5 -10 10 -10 6 0 10 5 10 10 0 6 -4 10 -10 10 -5 0
-10 -4 -10 -10z"/>
<path d="M390 1652 c0 -10 60 -25 68 -17 8 8 0 12 -35 20 -19 4 -33 3 -33 -3z"/>
<path d="M558 1648 c9 -9 15 -9 24 0 9 9 7 12 -12 12 -19 0 -21 -3 -12 -12z"/>
<path d="M225 1630 c-16 -7 -17 -9 -3 -9 9 -1 20 4 23 9 7 11 7 11 -20 0z"/>
<path d="M477 1623 c-13 -12 -7 -23 11 -22 10 0 12 3 4 6 -6 2 -10 9 -6 14 6
10 0 12 -9 2z"/>
<path d="M953 1613 c9 -2 23 -2 30 0 6 3 -1 5 -18 5 -16 0 -22 -2 -12 -5z"/>
<path d="M9388 1593 c7 -3 16 -2 19 1 4 3 -2 6 -13 5 -11 0 -14 -3 -6 -6z"/>
<path d="M567 1579 c7 -7 15 -10 18 -7 3 3 -2 9 -12 12 -14 6 -15 5 -6 -5z"/>
<path d="M698 1583 c7 -3 16 -2 19 1 4 3 -2 6 -13 5 -11 0 -14 -3 -6 -6z"/>
<path d="M160 1560 c0 -5 5 -10 10 -10 6 0 10 5 10 10 0 6 -4 10 -10 10 -5 0
-10 -4 -10 -10z"/>
<path d="M460 1545 c-7 -8 -8 -15 -2 -15 5 0 15 7 22 15 7 8 8 15 2 15 -5 0
-15 -7 -22 -15z"/>
<path d="M945 1540 c-7 -12 2 -12 30 0 19 8 19 9 -2 9 -12 1 -25 -3 -28 -9z"/>
<path d="M568 1513 c12 -2 30 -2 40 0 9 3 -1 5 -23 4 -22 0 -30 -2 -17 -4z"/>
<path d="M715 1510 c3 -5 10 -10 16 -10 5 0 9 5 9 10 0 6 -7 10 -16 10 -8 0
-12 -4 -9 -10z"/>
<path d="M1035 1510 c-19 -8 -19 -9 3 -9 12 -1 22 4 22 9 0 6 -1 10 -2 9 -2 0
-12 -4 -23 -9z"/>
<path d="M35 1500 c4 -6 11 -8 16 -5 14 9 11 15 -7 15 -8 0 -12 -5 -9 -10z"/>
<path d="M1388 1503 c6 -2 18 -2 25 0 6 3 1 5 -13 5 -14 0 -19 -2 -12 -5z"/>
<path d="M1470 1495 l-25 -14 26 -1 c15 0 32 7 39 15 17 20 -5 20 -40 0z"/>
<path d="M1 1464 c0 -11 3 -14 6 -6 3 7 2 16 -1 19 -3 4 -6 -2 -5 -13z"/>
<path d="M440 1471 c0 -6 -17 -12 -37 -14 -36 -3 -36 -4 8 -5 25 -1 49 2 55 7
5 5 18 11 29 14 11 3 4 5 -17 6 -21 0 -38 -3 -38 -8z"/>
<path d="M130 1460 c0 -11 48 -25 57 -16 4 3 -1 6 -10 6 -9 0 -17 5 -17 10 0
6 -7 10 -15 10 -8 0 -15 -4 -15 -10z"/>
<path d="M918 1463 c-10 -2 -18 -8 -18 -13 0 -10 38 -1 46 11 5 9 1 10 -28 2z"/>
<path d="M208 1453 c7 -3 16 -2 19 1 4 3 -2 6 -13 5 -11 0 -14 -3 -6 -6z"/>
<path d="M263 1453 c9 -2 23 -2 30 0 6 3 -1 5 -18 5 -16 0 -22 -2 -12 -5z"/>
<path d="M5372 1448 c-7 -7 -52 -14 -103 -16 -53 -3 -86 -8 -78 -13 21 -13 3
-22 -20 -10 -29 16 -69 20 -216 20 -235 1 -853 -12 -887 -18 -5 0 -8 -10 -8
-21 0 -17 -7 -20 -45 -20 -51 0 -57 6 -20 20 14 5 25 15 25 21 0 6 -7 8 -16 5
-9 -3 -22 -6 -30 -6 -8 0 -14 -7 -14 -15 0 -14 -3 -14 -24 0 -26 17 -49 18
-323 8 -90 -3 -160 -9 -157 -14 3 -5 0 -9 -5 -9 -6 0 -11 5 -11 10 0 6 -35 10
-85 10 -94 0 -235 -18 -235 -30 0 -5 20 -16 45 -27 25 -10 45 -21 45 -25 0 -5
-31 -8 -70 -8 -40 0 -70 4 -70 10 0 6 9 10 20 10 11 0 20 5 20 10 0 6 -8 10
-17 10 -15 0 -15 1 1 13 16 12 5 14 -80 16 -92 2 -100 0 -112 -20 -11 -18 -12
-23 -1 -30 8 -4 11 -11 7 -14 -7 -8 27 -45 42 -45 17 0 11 28 -7 33 -10 3 -6
4 10 4 17 -1 26 -6 23 -14 -3 -7 -1 -15 5 -18 5 -4 7 -11 4 -16 -4 -5 -1 -9 4
-9 6 0 11 8 11 18 0 12 3 13 8 5 4 -7 24 -15 42 -19 33 -5 34 -5 16 10 -11 9
-16 16 -10 17 5 0 19 2 32 5 14 2 21 0 17 -6 -3 -5 -1 -10 4 -10 6 0 11 8 11
18 0 13 2 14 9 3 6 -9 18 -11 35 -7 15 4 26 2 26 -3 0 -6 7 -8 15 -5 8 4 15
13 15 21 0 11 9 14 34 11 19 -2 32 0 30 4 -3 4 13 8 35 8 23 0 41 -4 41 -9 0
-5 -9 -7 -21 -4 -21 6 -39 -10 -39 -33 0 -12 48 -12 67 -1 6 4 25 2 43 -3 40
-11 48 -7 29 16 -13 16 -11 17 25 11 22 -4 44 -13 48 -22 10 -17 48 -21 48 -5
0 6 12 10 27 10 25 0 26 -1 8 -14 -17 -12 -16 -14 18 -25 20 -7 41 -10 46 -7
5 4 40 8 78 11 104 7 163 16 163 24 0 10 -132 3 -139 -7 -4 -4 -33 -8 -66 -9
-43 -2 -54 0 -40 6 11 5 35 10 53 10 17 1 32 5 32 9 0 12 -70 41 -76 31 -3 -5
-12 -9 -21 -9 -12 0 -13 3 -3 14 9 12 40 15 143 14 73 -1 143 -5 156 -10 26
-10 43 -1 22 11 -12 8 30 11 184 15 33 0 64 6 68 11 6 7 10 6 13 -1 3 -6 16
-9 29 -6 20 3 22 7 12 17 -9 9 -40 12 -103 10 -54 -2 -81 0 -69 5 17 7 17 9 3
9 -10 1 -18 6 -18 12 0 6 9 8 23 3 12 -4 64 -6 116 -5 58 1 97 -2 101 -9 4 -6
14 -8 23 -4 9 3 14 10 11 15 -3 5 0 9 5 9 6 0 11 -4 11 -10 0 -11 190 -11 205
0 13 10 65 1 65 -12 0 -5 15 -6 34 -2 20 3 42 1 53 -5 14 -9 7 -11 -37 -10
-30 1 -63 -2 -73 -6 -9 -4 -26 -5 -37 -2 -11 3 -20 2 -20 -2 0 -10 137 -29
183 -26 27 3 34 0 30 -11 -4 -10 -18 -12 -54 -9 -43 4 -49 3 -49 -15 0 -10 -6
-22 -12 -27 -20 -13 -151 -10 -166 4 -11 11 -99 17 -88 5 3 -2 1 -13 -4 -23
-7 -12 -6 -19 3 -22 6 -3 1 -6 -12 -6 -20 -1 -22 1 -10 15 10 13 10 17 -2 25
-19 12 -31 11 -53 -6 -11 -8 -31 -15 -45 -15 -25 1 -25 1 -7 15 19 15 19 15
-2 15 -12 0 -22 4 -22 9 0 5 -20 14 -44 20 -52 13 -70 13 -41 1 16 -7 12 -9
-20 -11 -22 -2 -51 -2 -65 -1 -18 1 -21 -1 -11 -7 11 -7 9 -10 -8 -16 -11 -3
-25 -4 -30 0 -6 3 -33 7 -60 9 -39 3 -51 0 -51 -11 0 -10 12 -13 48 -12 26 1
62 -1 80 -5 21 -5 32 -4 32 3 0 6 18 11 41 11 29 0 38 3 33 13 -6 10 -4 10 7
0 7 -7 26 -13 42 -13 16 0 35 -7 43 -15 10 -9 34 -15 66 -15 28 0 48 -3 45 -7
-4 -3 -28 -6 -54 -5 l-48 1 30 -14 c37 -18 27 -18 -33 -3 -26 6 -52 19 -59 27
-15 21 -50 2 -45 -24 3 -14 -1 -16 -15 -10 -39 16 -72 23 -78 17 -3 -4 -10 0
-16 8 -8 13 -13 10 -32 -12 -23 -28 -52 -37 -59 -17 -5 16 -140 22 -150 7 -6
-11 -8 -10 -8 0 0 9 -21 11 -87 7 -49 -3 -100 -8 -116 -11 -19 -4 -29 -1 -33
10 -3 9 -16 16 -28 16 -24 -1 -59 -24 -49 -33 3 -4 -3 -7 -14 -7 -16 0 -20 5
-16 20 3 11 9 20 14 20 5 0 9 4 9 9 0 5 -18 5 -42 -1 -24 -5 -63 -7 -88 -4
-25 3 -37 2 -27 -2 17 -7 17 -9 4 -20 -10 -9 -31 -11 -66 -6 -27 3 -58 3 -68
-1 -16 -6 -16 -8 5 -16 13 -5 21 -13 18 -18 -10 -16 24 -34 64 -34 22 0 40 -3
40 -8 0 -11 -47 -20 -131 -23 -41 -2 -85 -7 -99 -10 -21 -6 -563 -25 -785 -29
-74 -1 -1307 12 -1685 18 -124 2 -246 4 -271 4 -25 0 -59 5 -75 11 -16 7 -67
14 -114 16 -47 2 -100 7 -117 10 l-33 5 0 -241 0 -241 38 7 c20 4 67 8 104 7
101 0 124 -30 69 -92 -16 -18 -34 -30 -40 -26 -6 3 -11 1 -11 -6 0 -8 -4 -8
-15 1 -12 10 -18 10 -30 0 -10 -9 -15 -9 -15 -1 0 19 -4 25 -35 51 -72 61 -65
89 -65 -269 l0 -321 3163 0 c3099 0 3162 0 3174 19 7 11 29 25 50 31 21 7 42
16 48 21 12 12 45 11 45 -1 0 -5 -4 -10 -10 -10 -19 0 -10 -21 14 -30 13 -5
27 -14 31 -19 4 -8 368 -11 1197 -11 1185 0 1192 0 1171 20 -12 10 -24 28 -28
40 -3 11 -12 20 -20 20 -10 0 -11 5 -2 25 14 29 22 31 31 10 4 -13 9 -13 25
-3 15 9 23 9 34 -1 9 -7 18 -8 21 -2 3 5 0 12 -6 14 -20 8 10 26 33 20 12 -4
27 3 38 16 10 11 29 21 42 21 43 0 69 12 69 30 0 11 -9 20 -22 23 l-23 4 23 2
c12 0 22 6 22 11 0 19 80 11 102 -10 12 -11 19 -20 15 -20 -3 0 3 -19 13 -43
11 -23 20 -55 20 -72 0 -23 3 -26 10 -15 7 12 9 9 8 -10 -1 -14 -1 -37 0 -52
l2 -28 155 0 155 0 0 605 0 605 -62 -1 c-35 -1 -107 -4 -161 -8 -53 -3 -97 -2
-97 2 0 5 -12 6 -27 3 -55 -12 -467 -30 -933 -42 -242 -6 -476 -13 -565 -18
-139 -8 -852 -9 -864 -2 -8 5 -16 4 -20 -2 -5 -8 -313 -21 -566 -24 -124 -2
-359 -2 -750 0 -258 0 -494 1 -524 1 -63 0 -66 16 -7 36 22 8 43 20 47 27 10
16 -16 32 -37 24 -9 -3 -12 -1 -9 4 3 6 20 10 37 10 21 0 31 -6 35 -19 4 -15
17 -20 66 -23 45 -4 64 -1 70 8 4 8 20 14 35 15 15 0 21 3 15 6 -22 8 -14 23
12 23 16 0 25 6 25 15 0 8 6 15 13 16 19 1 -26 18 -48 18 -18 0 -18 -1 3 -11
31 -16 27 -31 -7 -23 -23 5 -29 2 -34 -14 -3 -12 -12 -21 -21 -21 -9 0 -16 -4
-16 -10 0 -15 -26 -12 -40 5 -15 18 -55 21 -44 4 4 -7 1 -10 -7 -7 -8 3 -15
12 -17 21 -3 14 5 17 47 17 27 0 52 3 55 8 2 4 -13 6 -33 4 -30 -3 -44 2 -66
22 -25 23 -26 26 -8 26 11 0 23 -3 27 -7 14 -14 46 -13 46 2 0 8 8 15 18 15 9
0 34 3 55 6 21 4 37 3 35 -2 -2 -5 2 -10 7 -12 6 -2 13 7 17 20 3 13 6 17 7
11 1 -16 21 -17 21 -2 0 22 33 37 61 29 18 -6 34 -3 47 6 11 7 41 15 66 16 25
0 46 5 46 11 0 5 -20 7 -45 4 -41 -4 -49 -1 -81 29 -41 39 -37 37 -52 22z
m-672 -38 c0 -5 -4 -10 -10 -10 -5 0 -10 5 -10 10 0 6 5 10 10 10 6 0 10 -4
10 -10z m150 -4 c0 -3 -4 -8 -10 -11 -5 -3 -10 -1 -10 4 0 6 5 11 10 11 6 0
10 -2 10 -4z m-83 -12 c-3 -3 -12 -4 -19 -1 -8 3 -5 6 6 6 11 1 17 -2 13 -5z
m-1220 -21 c-9 -9 -19 -14 -23 -11 -10 10 6 28 24 28 15 0 15 -1 -1 -17z m76
10 c-7 -2 -19 -2 -25 0 -7 3 -2 5 12 5 14 0 19 -2 13 -5z m210 0 c-7 -2 -21
-2 -30 0 -10 3 -4 5 12 5 17 0 24 -2 18 -5z m1314 1 c-3 -3 -12 -4 -19 -1 -8
3 -5 6 6 6 11 1 17 -2 13 -5z m-1892 -14 c3 -5 -1 -10 -9 -10 -9 0 -16 5 -16
10 0 6 4 10 9 10 6 0 13 -4 16 -10z m195 0 c15 -10 13 -11 -30 -15 -14 -1 -43
-5 -65 -9 -29 -6 -36 -5 -25 3 8 6 11 11 5 12 -5 0 -1 4 10 9 27 12 87 12 105
0z m305 0 c24 -5 26 -8 13 -14 -9 -4 -26 -2 -38 4 -16 9 -25 9 -33 1 -13 -13
-30 -15 -23 -2 4 5 0 12 -6 14 -20 8 53 6 87 -3z m1131 -2 c4 -7 3 -8 -4 -4
-8 4 -10 2 -6 -7 6 -16 -18 -29 -53 -30 -27 -1 -32 17 -6 21 41 7 49 12 33 22
-12 8 -11 10 7 10 12 0 25 -5 29 -12z m137 5 c-7 -2 -21 -2 -30 0 -10 3 -4 5
12 5 17 0 24 -2 18 -5z m150 -10 c-7 -2 -19 -2 -25 0 -7 3 -2 5 12 5 14 0 19
-2 13 -5z m-1676 -9 c-3 -3 -12 -4 -19 -1 -8 3 -5 6 6 6 11 1 17 -2 13 -5z
m158 -4 c-3 -5 -11 -10 -16 -10 -6 0 -7 5 -4 10 3 6 11 10 16 10 6 0 7 -4 4
-10z m1448 3 c-7 -2 -21 -2 -30 0 -10 3 -4 5 12 5 17 0 24 -2 18 -5z m-193
-12 c0 -5 3 -18 7 -28 6 -16 5 -16 -10 -4 -19 15 -23 41 -7 41 6 0 10 -4 10
-9z m120 -31 c0 -16 -4 -30 -10 -30 -5 0 -10 4 -10 10 0 5 -7 7 -15 4 -8 -4
-15 -1 -15 5 0 6 7 11 15 11 8 0 15 7 15 15 0 8 5 15 10 15 6 0 10 -13 10 -30z
m40 14 c0 -2 -7 -4 -15 -4 -8 0 -15 4 -15 10 0 5 7 7 15 4 8 -4 15 -8 15 -10z
m-1603 0 c-3 -3 -12 -4 -19 -1 -8 3 -5 6 6 6 11 1 17 -2 13 -5z m-52 -15 c4
-6 5 -13 2 -16 -8 -7 -47 7 -47 18 0 13 37 11 45 -2z m165 -8 c0 -5 -13 -14
-30 -20 -16 -5 -30 -6 -30 -1 0 7 23 18 58 29 1 1 2 -3 2 -8z m-546 -17 c3 -8
2 -12 -4 -9 -6 3 -10 10 -10 16 0 14 7 11 14 -7z m1866 -4 c-24 -4 -54 -5 -65
-2 -19 6 -18 6 4 12 13 3 42 3 65 1 l41 -5 -45 -6z m-1237 3 c-7 -2 -21 -2
-30 0 -10 3 -4 5 12 5 17 0 24 -2 18 -5z m1027 -13 c0 -5 -5 -10 -11 -10 -5 0
-7 5 -4 10 3 6 8 10 11 10 2 0 4 -4 4 -10z m390 -10 c0 -5 -5 -10 -11 -10 -5
0 -7 5 -4 10 3 6 8 10 11 10 2 0 4 -4 4 -10z m-550 -14 c0 -11 -19 -15 -25 -6
-3 5 1 10 9 10 9 0 16 -2 16 -4z m-63 -12 c-3 -3 -12 -4 -19 -1 -8 3 -5 6 6 6
11 1 17 -2 13 -5z m-250 -30 c-3 -3 -12 -4 -19 -1 -8 3 -5 6 6 6 11 1 17 -2
13 -5z m-834 -21 c-13 -2 -33 -2 -45 0 -13 2 -3 4 22 4 25 0 35 -2 23 -4z
m314 -19 c-3 -3 -12 -4 -19 -1 -8 3 -5 6 6 6 11 1 17 -2 13 -5z m771 -11 c-10
-2 -28 -2 -40 0 -13 2 -5 4 17 4 22 1 32 -1 23 -4z m-388 -14 c0 -6 7 -9 15
-5 8 3 15 2 15 -3 0 -10 -126 -21 -162 -14 -16 3 -28 10 -28 15 0 6 11 7 28 3
15 -5 36 -7 47 -7 11 1 30 2 43 2 12 0 22 5 22 10 0 6 5 10 10 10 6 0 10 -5
10 -11z m-238 -11 c-5 -5 -25 -9 -45 -10 -20 -1 -37 -5 -37 -10 0 -4 -21 -8
-46 -8 -39 0 -45 2 -34 14 13 16 37 21 118 22 29 0 49 -3 44 -8z m415 6 c-3
-3 -12 -4 -19 -1 -8 3 -5 6 6 6 11 1 17 -2 13 -5z m2666 -11 c-7 -2 -21 -2
-30 0 -10 3 -4 5 12 5 17 0 24 -2 18 -5z m-2560 -10 c-13 -2 -33 -2 -45 0 -13
2 -3 4 22 4 25 0 35 -2 23 -4z m115 0 c-10 -2 -28 -2 -40 0 -13 2 -5 4 17 4
22 1 32 -1 23 -4z m-4355 -10 c-7 -2 -19 -2 -25 0 -7 3 -2 5 12 5 14 0 19 -2
13 -5z m834 -39 c-3 -3 -12 -4 -19 -1 -8 3 -5 6 6 6 11 1 17 -2 13 -5z m7983
-292 c12 -5 16 -27 19 -83 4 -107 -18 -150 -97 -185 -56 -26 -60 -26 -240 -21
-100 2 -185 1 -187 -3 -3 -4 -21 -11 -41 -14 -19 -4 -41 -9 -49 -12 -7 -3 -29
9 -48 26 -27 23 -36 40 -40 73 -3 23 -13 68 -22 101 -14 49 -14 60 -3 67 10 7
10 9 1 9 -7 0 -13 4 -13 9 0 10 162 20 440 27 113 3 207 8 209 10 7 6 54 3 71
-4z m-8052 -118 c18 -5 22 -13 22 -46 0 -30 -7 -45 -30 -68 -39 -38 -62 -43
-162 -36 -46 4 -100 7 -120 7 -21 0 -38 4 -38 10 0 8 -5 7 -15 -1 -24 -20 -77
-18 -83 2 -2 10 -7 18 -11 18 -14 0 -40 58 -34 78 3 15 1 22 -8 22 -11 0 -11
2 1 10 16 10 440 14 478 4z m267 -13 c19 -8 19 -8 0 -19 -11 -6 -19 -14 -17
-19 2 -4 -1 -9 -7 -11 -6 -2 -11 8 -11 21 0 16 -7 27 -17 30 -12 3 -9 5 7 5
14 0 34 -3 45 -7z m499 -17 c15 -9 26 -20 26 -24 0 -4 -21 -22 -48 -38 -46
-30 -49 -31 -166 -29 -85 1 -121 6 -124 15 -2 6 -10 12 -18 12 -8 0 -14 9 -14
19 0 11 -11 28 -25 39 -18 14 -22 22 -13 26 7 3 90 4 185 2 139 -4 177 -8 197
-22z m682 -251 c-10 -10 -19 5 -10 18 6 11 8 11 12 0 2 -7 1 -15 -2 -18z
m-222 9 c14 -23 -16 -33 -105 -37 -98 -3 -148 8 -116 27 10 5 22 6 27 3 6 -3
10 -1 10 4 0 13 176 15 184 3z m-366 -9 c-4 -12 5 -15 24 -8 23 9 53 2 47 -10
-2 -5 -16 -9 -31 -9 -16 1 -28 -2 -28 -7 0 -10 -31 -12 -53 -3 -24 9 -8 44 19
44 13 0 23 -3 22 -7z m122 -7 c0 -2 -7 -6 -15 -10 -8 -3 -15 -1 -15 4 0 6 7
10 15 10 8 0 15 -2 15 -4z m6850 -206 c0 -13 -7 -20 -18 -20 -28 0 -34 11 -14
26 24 19 32 17 32 -6z"/>
<path d="M328 1443 c6 -2 18 -2 25 0 6 3 1 5 -13 5 -14 0 -19 -2 -12 -5z"/>
<path d="M565 1440 c3 -5 8 -10 11 -10 2 0 4 5 4 10 0 6 -5 10 -11 10 -5 0 -7
-4 -4 -10z"/>
<path d="M2455 1440 c3 -5 10 -10 16 -10 5 0 9 5 9 10 0 6 -7 10 -16 10 -8 0
-12 -4 -9 -10z"/>
<path d="M18 1433 c6 -2 18 -2 25 0 6 3 1 5 -13 5 -14 0 -19 -2 -12 -5z"/>
<path d="M705 1429 c-16 -6 -14 -8 13 -8 33 -1 41 4 20 12 -7 2 -22 1 -33 -4z"/>
<path d="M5583 1403 c9 -2 23 -2 30 0 6 3 -1 5 -18 5 -16 0 -22 -2 -12 -5z"/>
<path d="M366 1385 c-3 -8 5 -15 20 -18 15 -2 24 0 24 8 0 17 -38 26 -44 10z"/>
<path d="M212 1385 c10 -11 88 -21 99 -14 11 7 9 9 -6 10 -11 1 -37 3 -59 5
-21 1 -37 1 -34 -1z"/>
<path d="M460 1386 c0 -2 7 -7 16 -10 8 -3 12 -2 9 4 -6 10 -25 14 -25 6z"/>
<path d="M618 1383 c7 -3 16 -2 19 1 4 3 -2 6 -13 5 -11 0 -14 -3 -6 -6z"/>
<path d="M104 1373 c7 -7 77 -5 85 3 2 2 -17 4 -44 4 -27 0 -45 -3 -41 -7z"/>
<path d="M530 1360 c-13 -8 -12 -10 3 -10 9 0 17 5 17 10 0 12 -1 12 -20 0z"/>
<path d="M4396 1338 c-7 -29 5 -41 35 -35 22 4 22 4 -3 6 -20 1 -26 5 -22 16
4 11 21 15 58 15 36 0 47 3 36 10 -8 5 -34 10 -56 10 -35 0 -43 -4 -48 -22z"/>
<path d="M7468 1353 c7 -3 16 -2 19 1 4 3 -2 6 -13 5 -11 0 -14 -3 -6 -6z"/>
<path d="M575 1330 c-3 -5 3 -10 15 -10 12 0 18 5 15 10 -3 6 -10 10 -15 10
-5 0 -12 -4 -15 -10z"/>
<path d="M7375 1330 c-3 -5 1 -10 9 -10 9 0 16 5 16 10 0 6 -4 10 -9 10 -6 0
-13 -4 -16 -10z"/>
<path d="M3905 1310 c-4 -6 3 -10 14 -10 25 0 27 6 6 13 -8 4 -17 2 -20 -3z"/>
<path d="M5320 1300 c-9 -17 -8 -20 10 -20 12 0 19 4 15 9 -3 6 14 14 37 19
l43 10 -47 1 c-38 1 -49 -3 -58 -19z"/>
<path d="M130 1300 c0 -5 5 -10 10 -10 6 0 10 5 10 10 0 6 -4 10 -10 10 -5 0
-10 -4 -10 -10z"/>
<path d="M4010 1300 c-12 -8 -10 -10 8 -10 13 0 20 4 17 10 -7 12 -6 12 -25 0z"/>
<path d="M4305 1300 c28 -12 55 -12 55 0 0 6 -17 10 -37 9 -31 0 -34 -2 -18
-9z"/>
<path d="M3800 1290 c0 -5 4 -10 9 -10 6 0 13 5 16 10 3 6 -1 10 -9 10 -9 0
-16 -4 -16 -10z"/>
<path d="M4578 1283 c12 -2 32 -2 45 0 12 2 2 4 -23 4 -25 0 -35 -2 -22 -4z"/>
<path d="M5228 1283 c7 -3 16 -2 19 1 4 3 -2 6 -13 5 -11 0 -14 -3 -6 -6z"/>
<path d="M1363 1273 c9 -2 23 -2 30 0 6 3 -1 5 -18 5 -16 0 -22 -2 -12 -5z"/>
<path d="M3249 1269 c16 -6 28 -6 35 1 7 7 -1 10 -24 9 -33 0 -34 -1 -11 -10z"/>
<path d="M3112 1244 c-7 -8 -8 -14 -3 -14 10 0 25 19 20 25 -2 1 -10 -3 -17
-11z"/>
<path d="M7563 1253 c9 -2 23 -2 30 0 6 3 -1 5 -18 5 -16 0 -22 -2 -12 -5z"/>
<path d="M2978 1233 c7 -3 16 -2 19 1 4 3 -2 6 -13 5 -11 0 -14 -3 -6 -6z"/>
<path d="M3200 1230 c0 -5 5 -10 10 -10 6 0 10 5 10 10 0 6 -4 10 -10 10 -5 0
-10 -4 -10 -10z"/>
<path d="M5978 1203 c7 -3 16 -2 19 1 4 3 -2 6 -13 5 -11 0 -14 -3 -6 -6z"/>
<path d="M95 1190 c3 -5 11 -10 16 -10 6 0 7 5 4 10 -3 6 -11 10 -16 10 -6 0
-7 -4 -4 -10z"/>
<path d="M3010 1188 c0 -5 14 -8 30 -8 44 0 37 -20 -7 -21 -32 -1 -34 -2 -14
-8 14 -4 39 -5 57 -3 25 3 31 8 27 22 -4 13 -17 19 -49 22 -24 2 -44 0 -44 -4z"/>
<path d="M3160 1145 c0 -8 5 -15 10 -15 6 0 10 7 10 15 0 8 -4 15 -10 15 -5 0
-10 -7 -10 -15z"/>
</g>
</svg>
