<?xml version="1.0" standalone="no"?>
<!DOCTYPE svg PUBLIC "-//W3C//DTD SVG 20010904//EN"
 "http://www.w3.org/TR/2001/REC-SVG-20010904/DTD/svg10.dtd">
<svg version="1.0" xmlns="http://www.w3.org/2000/svg"
 width="1200.000000pt" height="1600.000000pt" viewBox="0 0 1200.000000 1600.000000"
 preserveAspectRatio="xMidYMid meet">

<g transform="translate(0.000000,1600.000000) scale(0.100000,-0.100000)"
fill="#000000" stroke="none">
<path d="M0 14721 l0 -319 33 -11 c17 -6 68 -19 112 -30 161 -39 837 -212
1195 -306 315 -83 426 -113 680 -185 140 -39 329 -91 420 -115 91 -24 215 -59
275 -78 61 -19 191 -56 290 -82 297 -77 403 -109 430 -129 18 -13 18 -38 6
-622 -6 -335 -16 -766 -21 -959 -5 -192 -12 -602 -15 -910 -4 -308 -11 -584
-16 -612 -6 -29 -18 -61 -27 -70 -9 -9 -17 -20 -17 -25 0 -4 -13 -22 -29 -39
-23 -24 -29 -39 -28 -68 3 -39 -14 -65 -55 -89 -37 -20 -75 -14 -113 18 -19
16 -38 30 -42 30 -5 0 -8 10 -8 23 0 13 -13 31 -32 44 -27 19 -42 22 -117 19
-85 -2 -87 -3 -125 -40 -37 -38 -37 -38 -16 -53 14 -10 18 -19 12 -26 -5 -7
-13 -26 -16 -44 -6 -25 -4 -32 11 -36 12 -3 10 -5 -8 -6 -28 -1 -55 -24 -45
-39 2 -4 -10 -16 -28 -26 -33 -17 -35 -17 -62 1 -16 10 -39 28 -53 41 -13 12
-31 22 -39 22 -8 0 -39 25 -68 55 -30 30 -61 55 -69 55 -15 0 -38 -38 -48 -81
-9 -36 -44 -78 -76 -91 -14 -6 -75 -10 -136 -9 -95 1 -114 -1 -140 -19 -41
-27 -156 -27 -139 1 3 5 -8 8 -24 7 -29 -2 -82 24 -82 41 0 5 -16 19 -36 30
-31 19 -35 25 -29 50 5 24 2 32 -14 41 -20 10 -21 8 -21 -29 0 -22 5 -43 10
-46 16 -10 -8 -35 -32 -35 -25 0 -50 14 -90 50 -39 36 -64 41 -196 43 l-101 2
-33 -32 c-41 -40 -98 -47 -98 -12 0 11 -4 18 -9 14 -5 -3 -12 -1 -15 4 -4 5
-2 12 3 16 6 3 7 13 4 22 -4 10 -2 14 4 10 15 -10 45 28 41 52 -2 11 4 26 13
33 9 7 19 28 23 46 5 32 5 33 -27 31 -17 -1 -36 -1 -42 1 -24 6 -35 -2 -51
-35 -9 -20 -26 -41 -38 -48 -11 -7 -21 -16 -22 -22 -3 -50 -19 -117 -30 -126
-16 -13 -151 -39 -207 -39 -21 0 -55 9 -75 19 -21 11 -60 22 -87 26 -28 4 -64
11 -80 16 -30 9 -30 10 -29 71 2 99 -9 126 -59 138 -87 22 -167 75 -167 110 0
10 -6 22 -12 27 -30 19 -129 44 -195 50 l-73 6 0 -623 c0 -590 1 -622 17 -609
10 8 25 23 35 34 17 20 18 19 59 -28 52 -61 85 -77 153 -77 44 0 60 -5 85 -26
31 -26 31 -27 31 -122 -1 -54 -5 -117 -10 -142 -5 -25 -12 -108 -16 -185 -9
-184 -13 -180 176 -189 74 -4 214 -14 310 -23 96 -9 234 -17 305 -18 72 -1
150 -6 175 -13 25 -6 61 -14 80 -17 22 -3 42 -16 54 -32 19 -25 19 -35 7 -227
-6 -111 -9 -222 -5 -248 5 -33 3 -48 -5 -48 -6 0 -11 -6 -11 -14 0 -7 -9 -16
-21 -19 -19 -5 -20 -7 -5 -36 25 -47 76 -81 123 -81 44 0 69 -17 162 -107 24
-24 47 -43 52 -43 5 0 9 -6 9 -12 0 -7 16 -24 35 -37 34 -23 36 -23 147 -12
62 7 165 21 228 32 186 33 288 36 357 11 66 -23 125 -33 140 -24 6 4 12 34 14
67 l4 60 -40 13 c-22 7 -69 13 -105 13 -160 -1 -294 61 -249 115 7 9 30 25 52
36 33 16 44 18 65 8 14 -6 63 -14 109 -17 l83 -6 0 67 c0 64 -1 67 -32 86 -19
12 -42 18 -55 15 -12 -3 -23 -1 -25 5 -2 5 -34 17 -73 26 -124 28 -129 41 -50
120 52 53 58 56 93 51 82 -14 422 -26 422 -16 0 4 -19 10 -42 14 -24 3 -65 10
-93 15 -200 34 -204 34 -242 21 -34 -13 -38 -12 -55 9 -47 57 -37 97 44 181
57 59 69 67 133 83 39 10 84 27 100 36 23 14 36 16 55 8 31 -13 374 -13 415
-1 l30 9 -4 277 c-3 242 -2 277 12 282 19 8 84 -26 115 -59 62 -68 101 -235
82 -364 -5 -39 -7 -77 -4 -85 6 -17 47 -27 113 -27 59 -1 126 -19 174 -47 47
-29 65 -29 94 -2 l22 22 7 -42 c4 -23 13 -49 21 -56 30 -31 -36 -192 -98 -238
-17 -12 -37 -34 -45 -49 -8 -16 -21 -28 -29 -28 -23 0 -19 -5 36 -57 80 -75
81 -78 18 -134 -30 -27 -64 -49 -76 -49 -41 0 -41 -46 0 -52 28 -4 36 -38 9
-38 -10 0 -22 -3 -25 -7 -10 -9 13 -33 32 -33 24 0 91 -48 91 -65 0 -29 -51
-50 -134 -55 l-81 -5 -3 -54 c-5 -89 0 -97 60 -106 29 -4 78 -9 108 -10 52 -3
162 -40 254 -86 21 -10 57 -22 80 -25 22 -4 48 -12 56 -19 8 -7 42 -25 75 -40
33 -15 74 -33 92 -41 17 -8 38 -14 46 -14 8 0 20 -7 27 -15 7 -8 16 -15 21
-15 31 0 173 -122 246 -212 67 -82 94 -192 112 -459 5 -70 11 -131 15 -137 4
-7 16 -5 36 6 16 9 32 14 35 10 10 -10 -24 -179 -41 -202 -10 -15 -14 -55 -14
-161 0 -77 4 -146 9 -154 12 -18 18 30 26 194 3 66 10 140 16 165 14 67 27
156 34 240 4 41 11 93 16 115 4 22 9 67 9 100 0 33 5 89 12 125 6 36 11 76 10
90 -1 14 3 34 8 45 59 132 95 193 148 249 46 49 152 117 217 141 28 11 53 23
56 28 4 5 11 7 17 4 11 -8 91 22 111 41 9 9 25 12 43 8 16 -3 27 -2 24 3 -8
12 45 22 144 26 59 2 105 11 150 28 57 21 65 27 63 48 l-3 24 10 -22 c8 -20
17 -23 64 -23 76 0 106 13 106 45 l0 26 -147 -4 c-82 -3 -119 -2 -83 2 85 8
65 20 -27 16 -66 -3 -73 -1 -73 16 0 10 7 19 15 19 7 0 18 7 22 15 9 15 32 18
238 30 39 2 72 4 75 4 3 1 6 26 7 57 1 31 3 57 5 60 3 2 38 5 79 7 l74 2 -2
-62 c-1 -36 3 -63 8 -63 6 0 7 -5 4 -10 -3 -6 -17 -10 -30 -10 -13 0 -27 -5
-30 -10 -3 -6 4 -10 17 -10 13 0 32 -7 42 -15 28 -21 169 -21 186 0 15 18 91
20 122 4 11 -6 45 -12 75 -13 45 -1 56 3 66 19 6 11 12 25 12 30 0 17 87 24
117 9 15 -8 34 -14 43 -14 10 0 14 -5 11 -12 -3 -7 -9 -20 -12 -29 -8 -22 -47
-29 -165 -29 -98 0 -99 0 -99 -24 0 -34 16 -43 100 -50 96 -9 225 -29 370 -56
320 -59 445 -106 541 -202 99 -99 141 -184 187 -382 17 -70 20 -77 34 -63 22
23 36 116 16 109 -5 -1 -8 5 -8 13 0 8 5 15 11 15 5 0 8 4 4 9 -3 6 3 14 12
20 14 8 15 13 5 19 -17 12 -5 92 14 92 8 0 14 6 14 14 0 7 14 27 30 45 17 17
28 35 26 40 -5 7 34 31 49 31 10 0 -1 -24 -23 -48 -12 -14 -20 -27 -18 -29 3
-3 21 14 42 36 20 23 63 56 95 74 33 19 57 36 55 38 -3 3 3 5 12 5 9 1 78 17
152 37 74 20 172 41 217 48 46 7 80 15 77 18 -9 9 124 32 214 38 55 3 82 8 81
16 -1 7 -1 24 0 40 1 31 21 38 21 7 0 -28 20 -25 21 3 2 26 5 57 7 75 1 9 16
12 50 10 l47 -3 -3 -72 -3 -72 60 -12 c34 -7 61 -16 61 -20 0 -4 -9 -5 -20 -2
-21 6 -49 -17 -55 -44 -2 -10 -6 -25 -10 -34 -5 -12 6 -18 50 -28 60 -14 66
-20 19 -22 -46 -2 -64 -9 -64 -25 0 -8 8 -14 18 -14 16 -1 16 -1 0 -11 -21
-12 -24 -39 -4 -39 8 0 16 -4 18 -9 2 -4 14 -12 27 -16 16 -5 21 -4 17 4 -4 6
4 15 19 21 25 9 26 13 19 57 -4 27 -12 51 -18 55 -7 4 -4 9 7 14 20 7 24 72 4
80 -21 8 -18 44 4 44 17 0 19 8 19 82 l0 81 -292 -5 c-161 -3 -282 -3 -268 -1
48 9 48 26 0 20 -25 -3 -54 -2 -64 2 -18 7 -16 10 15 25 19 10 63 19 99 21 36
2 100 7 143 11 l77 6 1 42 c1 22 1 44 0 48 -1 9 66 28 97 28 23 0 24 -3 20
-55 -3 -51 -2 -55 20 -55 12 0 22 -4 22 -10 0 -6 -28 -10 -62 -10 -35 0 -70
-5 -78 -10 -10 -6 -3 -8 23 -3 24 4 37 2 37 -6 0 -6 19 -11 48 -11 34 0 43 -3
32 -10 -10 -7 12 -10 73 -9 60 1 90 5 93 13 5 14 113 10 129 -5 5 -5 47 -9 95
-9 47 0 92 -5 100 -10 10 -7 -33 -10 -130 -10 l-145 0 3 -85 3 -86 47 6 c26 4
71 6 100 5 l52 -1 0 63 c0 44 3 58 10 48 7 -12 34 -15 137 -15 70 1 146 5 167
9 30 7 42 6 50 -5 6 -8 29 -28 51 -44 49 -37 69 -57 90 -88 15 -23 15 -25 -7
-31 -13 -3 -34 -6 -48 -7 -14 0 18 -13 70 -28 129 -37 218 -82 285 -143 65
-59 98 -112 131 -209 33 -98 30 -110 -6 -20 -16 41 -33 77 -37 80 -4 3 -15 19
-23 36 -9 16 -26 35 -39 41 -12 7 -31 26 -42 43 -13 22 -25 30 -41 28 -13 -1
-22 3 -21 9 1 7 -5 10 -15 7 -24 -6 -75 14 -67 27 3 5 -1 10 -9 10 -27 0 -18
-26 18 -51 110 -79 150 -191 161 -455 3 -77 12 -249 20 -384 8 -135 16 -335
17 -446 3 -216 7 -234 54 -234 15 0 24 -6 24 -15 0 -8 6 -15 14 -15 19 0 39
-26 40 -52 0 -12 6 -23 11 -25 19 -6 -15 556 -44 742 -6 33 -17 105 -25 160
-17 110 -39 216 -60 285 -30 99 -41 154 -62 301 -3 19 -7 40 -9 47 -10 27 21
4 55 -41 46 -60 61 -115 70 -257 5 -63 17 -162 28 -220 11 -58 27 -141 36
-185 8 -44 24 -125 35 -179 39 -185 63 -493 57 -731 -2 -82 -2 -142 1 -132 12
46 23 6 24 -90 2 -106 2 -105 11 52 5 88 7 238 6 333 -3 147 -1 172 12 172 8
0 53 -7 100 -16 115 -21 193 -34 270 -44 36 -5 94 -13 130 -18 36 -5 97 -17
135 -25 86 -20 294 -57 315 -57 8 0 58 -13 110 -29 141 -43 202 -60 253 -70
l47 -8 0 2936 0 2937 -162 48 c-311 93 -728 222 -813 251 -22 8 -112 35 -200
60 -88 26 -200 59 -250 75 -49 15 -227 69 -395 120 -347 105 -731 222 -1030
315 -113 35 -261 80 -330 100 -127 36 -295 88 -565 176 -140 45 -338 104 -615
184 -63 18 -155 45 -205 60 -132 39 -675 196 -710 205 -16 4 -174 52 -350 105
-176 54 -372 114 -435 133 -63 19 -149 45 -190 58 -41 12 -151 46 -245 74 -93
28 -219 66 -280 85 -60 18 -164 50 -230 70 -173 53 -523 163 -570 179 -22 8
-107 35 -190 61 -82 26 -240 75 -350 110 -110 35 -294 91 -410 125 -276 81
-726 217 -795 240 -30 11 -147 47 -260 80 -113 33 -248 74 -300 90 -52 16
-189 56 -304 90 -115 34 -213 63 -217 66 -4 2 -56 17 -116 33 -100 27 -279 78
-543 153 -58 16 -190 54 -295 83 -104 29 -244 68 -310 88 -110 33 -316 87
-329 87 -3 0 -6 -144 -6 -319z m3962 -1397 c106 -30 220 -62 252 -70 33 -8
123 -33 200 -55 77 -22 192 -54 255 -70 64 -17 152 -42 196 -55 44 -14 87 -27
95 -29 70 -15 189 -49 211 -61 40 -20 51 -47 44 -107 -5 -46 -18 -1808 -15
-2045 2 -128 -2 -132 -131 -132 -89 0 -102 -2 -136 -26 -21 -14 -51 -28 -67
-31 -16 -4 -35 -17 -44 -32 -8 -14 -30 -34 -49 -44 -35 -17 -35 -17 -57 6 -14
15 -34 24 -55 25 -19 0 -38 5 -43 10 -11 11 -7 59 5 54 4 -2 18 3 31 11 20 14
27 14 51 1 30 -15 71 -10 79 11 3 8 13 11 25 8 16 -4 21 -1 21 15 0 12 5 24
10 27 32 20 -10 69 -67 78 -31 5 -51 1 -91 -18 -28 -14 -56 -34 -62 -45 -17
-31 -60 -48 -97 -38 -18 4 -35 13 -38 18 -3 6 -28 10 -55 10 -27 0 -52 5 -55
10 -9 14 -67 12 -85 -3 -9 -7 -26 -26 -38 -43 -37 -54 -166 -88 -194 -52 -13
17 -32 21 -78 19 -31 -1 -59 -50 -37 -66 28 -21 26 -42 -5 -71 l-31 -27 36
-21 c41 -23 45 -34 20 -43 -10 -3 -26 -14 -36 -25 -17 -17 -17 -18 0 -18 15 0
16 -2 3 -10 -17 -11 -63 -13 -74 -3 -3 4 -16 8 -27 10 -12 2 -33 12 -48 22
-14 10 -37 21 -51 24 -20 5 -29 17 -40 54 -25 80 -18 1105 16 2590 6 264 7
271 28 281 30 15 17 17 228 -44z m1626 -448 c48 -14 132 -37 187 -51 55 -15
143 -40 195 -55 123 -36 233 -65 345 -91 50 -11 122 -29 160 -39 271 -72 423
-112 760 -196 252 -63 452 -118 476 -132 54 -31 53 -11 57 -660 4 -521 2 -609
-11 -640 -31 -77 -41 -122 -29 -134 14 -14 16 -54 3 -63 -5 -3 -7 -21 -4 -39
4 -28 1 -36 -16 -45 -11 -7 -21 -10 -22 -9 0 2 -2 14 -3 26 -3 26 -21 42 -48
42 -11 0 -18 8 -18 20 0 30 0 30 -73 -31 -36 -30 -38 -31 -62 -15 -27 18 -34
61 -12 69 6 3 2 6 -10 6 -27 1 -30 19 -5 37 16 12 16 13 0 14 -9 0 -20 -4 -23
-10 -10 -17 -45 -12 -39 5 4 8 2 15 -4 15 -5 0 -12 13 -15 29 -6 26 -10 29
-39 26 -18 -2 -46 -10 -63 -19 -16 -9 -47 -19 -67 -22 -45 -8 -54 -35 -35
-109 l14 -50 -46 -55 c-25 -30 -54 -61 -63 -68 -32 -23 -48 -44 -43 -52 3 -5
1 -20 -4 -33 -7 -19 -6 -28 5 -37 18 -16 18 -29 -3 -52 -24 -27 -68 -23 -105
11 -31 28 -33 34 -33 95 0 47 -5 71 -17 85 -31 36 -40 64 -35 102 3 22 1 41
-4 44 -4 3 -6 12 -2 20 3 10 -1 15 -12 15 -12 0 -15 5 -10 20 9 27 -15 79 -40
87 -46 14 -60 74 -22 94 12 7 26 18 30 25 4 8 17 14 27 14 24 0 24 5 5 60 -8
23 -15 75 -15 115 0 70 -2 74 -31 100 -27 22 -40 26 -88 24 -31 -1 -69 -9 -86
-17 -16 -8 -38 -19 -47 -23 -12 -6 -18 -4 -20 8 -2 12 -15 18 -48 20 -52 3
-60 -6 -60 -64 0 -60 -6 -70 -71 -114 -58 -39 -59 -40 -59 -88 0 -31 5 -53 15
-61 41 -34 4 -66 -84 -73 -77 -6 -94 0 -88 32 3 14 -1 37 -8 51 -8 14 -14 37
-15 52 0 19 -11 35 -37 55 -31 24 -49 29 -132 35 -87 7 -100 5 -141 -15 -33
-16 -45 -28 -46 -45 -1 -13 -6 -28 -13 -35 -18 -18 -13 -37 10 -37 34 0 85
-29 98 -56 15 -33 17 -28 -30 -79 -39 -42 -49 -74 -14 -45 11 9 15 10 15 0 0
-19 -43 -49 -71 -50 -14 0 -45 14 -67 30 -33 23 -52 30 -89 30 -43 0 -50 3
-71 34 -13 19 -35 67 -50 108 l-27 73 -1 670 c-1 369 0 769 3 891 6 234 4 224
51 243 2 0 42 -10 90 -23z m2658 -707 c104 -28 227 -62 274 -76 47 -14 141
-40 210 -59 99 -27 130 -40 151 -63 l26 -28 7 -389 c3 -214 9 -589 12 -834 8
-554 10 -541 -120 -541 -58 0 -99 16 -130 50 -25 28 -40 27 -111 -9 -38 -19
-76 -30 -105 -31 -40 0 -103 -17 -72 -18 9 -1 7 -8 -6 -21 -17 -19 -22 -19
-48 -8 -38 17 -63 47 -64 76 0 27 24 78 53 109 11 13 17 26 14 30 -4 3 0 17 8
30 15 22 14 23 -7 23 -33 0 -48 13 -57 46 -8 30 3 56 42 99 10 11 17 31 15 45
-3 28 -2 28 -160 15 -58 -5 -87 -13 -113 -31 -46 -31 -51 -30 -72 9 -22 40
-30 341 -32 1109 -1 396 2 507 12 511 33 14 99 3 273 -44z m1014 -288 c36 -10
139 -40 230 -66 91 -26 179 -51 195 -55 17 -5 161 -45 320 -90 160 -45 314
-88 344 -96 214 -57 293 -84 311 -106 21 -25 22 -33 25 -233 1 -77 4 -248 6
-380 4 -223 3 -242 -15 -272 -15 -25 -17 -35 -8 -46 7 -8 12 -25 11 -38 -4
-119 -14 -179 -30 -179 -5 0 -9 -11 -9 -25 0 -14 5 -25 10 -25 18 0 10 -14
-30 -58 -22 -24 -40 -47 -40 -51 0 -5 -20 -12 -44 -15 -48 -7 -83 -34 -92 -70
-3 -14 -18 -29 -35 -36 -36 -15 -38 -33 -3 -24 19 5 25 4 20 -5 -4 -6 -20 -11
-36 -11 -18 0 -42 -11 -62 -29 -48 -41 -71 -51 -121 -51 -47 0 -91 -25 -102
-59 -5 -18 28 -88 48 -102 5 -4 6 -25 2 -48 -8 -51 -59 -91 -116 -91 -69 0
-134 -41 -107 -68 18 -18 -20 -62 -55 -62 -17 0 -52 -14 -81 -32 -45 -29 -58
-33 -121 -32 -38 0 -105 6 -148 13 -53 9 -82 10 -89 3 -11 -11 -8 -12 69 -32
25 -6 51 -22 63 -37 23 -30 98 -56 164 -57 34 -1 42 3 56 29 25 45 109 47 149
4 l19 -21 19 21 c22 26 82 44 142 42 51 0 84 -26 103 -76 8 -23 16 -31 28 -28
10 3 23 -6 34 -22 18 -28 40 -25 31 5 -4 12 5 26 27 45 29 25 33 25 44 10 7
-9 16 -16 21 -16 4 0 7 -7 5 -15 -2 -9 6 -14 22 -14 23 0 25 -2 15 -27 -5 -14
-8 -32 -5 -38 8 -22 -61 -42 -163 -49 -18 -1 -36 -6 -39 -12 -4 -5 -24 -17
-45 -27 -32 -14 -37 -20 -27 -32 6 -8 8 -19 4 -26 -4 -7 -8 -26 -10 -43 -2
-26 3 -33 29 -46 23 -11 33 -23 35 -42 2 -16 8 -28 13 -28 12 0 12 -47 -1 -55
-5 -3 -10 -15 -10 -26 0 -33 -30 -67 -68 -80 -20 -6 -41 -15 -47 -20 -5 -5
-23 -9 -40 -9 -23 0 -40 -9 -62 -32 -41 -45 -140 -136 -169 -154 -12 -9 -30
-34 -39 -57 -9 -23 -27 -50 -39 -59 -23 -16 -23 -16 -41 40 -9 31 -24 68 -31
82 -13 23 -14 22 -8 -25 3 -27 8 -62 10 -77 8 -39 -12 -35 -33 6 -10 19 -31
55 -47 81 -16 26 -33 68 -37 93 -7 36 -18 55 -46 80 -44 37 -167 102 -195 102
-11 0 -29 5 -41 11 -35 19 -169 12 -234 -12 -57 -22 -134 -84 -175 -142 -21
-29 -17 -50 4 -29 7 7 22 12 35 12 35 0 103 -31 103 -47 0 -9 6 -12 19 -8 16
5 19 -3 24 -75 7 -83 -3 -117 -45 -162 -10 -10 -18 -24 -18 -32 0 -20 -38 -46
-59 -39 -14 4 -14 3 0 -6 19 -13 219 -34 279 -29 l45 3 3 85 c4 99 -11 196
-39 259 -13 30 -16 48 -9 55 7 7 10 6 10 -2 0 -6 6 -9 14 -6 8 3 17 1 21 -5 3
-6 15 -11 26 -11 23 0 75 -70 103 -138 22 -56 26 -169 7 -225 l-13 -37 62 -68
c74 -79 95 -119 86 -157 -5 -20 -11 -25 -24 -20 -9 4 -56 10 -103 13 -73 4
-87 2 -92 -12 -5 -13 0 -16 26 -17 32 -1 32 -1 -7 -10 -22 -5 -46 -15 -54 -22
-12 -10 -11 -12 9 -17 15 -4 25 -14 27 -28 3 -16 10 -22 28 -22 14 0 23 -4 20
-9 -5 -8 90 -22 161 -25 12 -1 24 -4 28 -8 4 -3 -75 -4 -174 -1 -154 5 -359
-2 -688 -22 -79 -5 -102 10 -30 20 170 22 177 24 82 19 -49 -3 -103 -7 -120
-10 -56 -8 -62 9 -17 54 41 41 43 41 132 48 49 4 90 10 90 13 0 3 37 6 83 7
148 2 310 18 315 32 3 9 -30 12 -142 12 -141 0 -148 1 -209 30 -74 35 -98 37
-120 12 -15 -17 -15 -18 4 -19 10 -1 17 2 14 8 -4 5 2 9 12 9 33 0 59 -11 70
-29 10 -16 7 -18 -33 -17 -24 1 -45 -3 -47 -7 -1 -5 -10 -5 -20 -2 -9 4 -15
11 -12 15 10 17 -29 20 -44 4 -9 -9 -11 -14 -6 -11 6 3 17 2 25 -3 9 -6 1 -12
-29 -20 -50 -13 -58 -9 -91 54 -39 78 -15 179 50 205 50 20 90 23 107 9 15
-12 15 -11 5 9 -7 12 -12 24 -12 27 0 10 36 6 47 -5 17 -17 52 6 46 31 -6 23
-41 27 -49 5 -9 -23 -54 -19 -54 5 0 15 9 21 39 26 25 4 42 13 44 23 3 11 5 8
6 -6 1 -25 2 -26 25 -17 14 5 11 11 -14 35 -36 35 -63 38 -58 8 2 -17 -3 -22
-24 -25 -32 -3 -37 15 -12 40 10 11 34 16 69 16 56 0 69 7 59 34 -5 13 -9 14
-20 5 -8 -6 -27 -9 -44 -7 -20 3 -30 0 -30 -9 0 -23 -38 -14 -59 15 -12 15
-24 32 -28 37 -23 29 -46 71 -58 103 l-14 37 0 -30 c-1 -34 27 -84 70 -127 21
-21 29 -38 28 -61 -2 -27 -2 -28 -6 -7 -8 46 -22 44 -34 -4 -11 -44 -29 -63
-29 -30 0 8 -4 12 -10 9 -6 -4 -10 6 -11 22 -1 25 -2 24 -11 -9 -6 -21 -16
-38 -23 -38 -15 0 -28 27 -19 41 3 5 0 9 -5 9 -18 0 -13 38 5 42 13 2 12 6 -6
23 l-23 20 5 -22 c4 -13 2 -26 -3 -29 -5 -3 -9 -18 -9 -33 0 -32 -33 -60 -62
-53 -19 4 -25 22 -8 22 5 0 8 35 8 83 -2 72 1 89 27 142 40 82 158 198 252
248 40 21 74 46 78 56 3 10 14 26 25 36 18 17 19 16 26 -9 3 -14 10 -26 15
-26 5 0 31 16 58 35 40 29 57 35 101 35 48 0 120 -23 120 -39 0 -4 8 -7 18 -8
10 -1 59 -13 110 -28 81 -23 94 -25 107 -12 8 8 33 23 55 34 33 15 40 23 40
48 1 42 34 110 62 129 12 8 45 16 71 17 43 3 51 -1 72 -27 27 -34 40 -83 25
-98 -5 -5 -10 -17 -10 -26 0 -9 -15 -21 -32 -28 -26 -10 -30 -14 -18 -22 24
-15 2 -25 -24 -11 -42 23 -85 -6 -54 -37 9 -9 7 -16 -7 -32 -16 -18 -16 -20
-1 -26 10 -4 25 1 37 12 19 17 21 17 58 -4 56 -32 127 -30 166 4 29 25 30 29
30 109 0 72 -3 85 -17 89 -14 3 -18 14 -18 45 0 23 -4 41 -10 41 -5 0 -10 6
-10 13 0 15 -56 51 -95 61 -16 4 -48 16 -72 27 -23 10 -62 19 -86 19 -45 0
-146 -26 -148 -38 -1 -4 -3 -16 -5 -27 -2 -11 -5 -30 -7 -43 -4 -24 -141 -156
-174 -166 -10 -3 -31 -2 -48 2 -45 12 -54 51 -54 245 -1 185 5 215 56 257 49
41 65 73 55 111 -7 28 -14 35 -48 43 -44 10 -50 16 -64 67 -15 56 2 295 23
316 14 15 14 19 0 55 -10 26 -14 54 -10 83 4 28 2 45 -5 47 -19 7 -22 109 -3
148 31 66 46 90 57 90 7 0 6 -5 -2 -15 -19 -23 6 -47 44 -43 27 3 31 7 34 34
3 27 -5 39 -48 80 -29 27 -58 53 -66 57 -36 21 -47 77 -51 262 -1 99 -8 386
-13 638 -8 348 -8 462 1 473 16 19 71 17 149 -5z m1700 -481 c19 -6 121 -33
225 -61 283 -75 293 -78 315 -115 17 -27 20 -50 20 -156 0 -176 -16 -208 -101
-208 -38 0 -148 -76 -155 -107 -4 -13 -4 -32 -1 -42 2 -10 2 -23 -2 -28 -9
-14 -152 -63 -183 -63 -21 0 -128 -55 -128 -66 0 -1 10 0 23 3 22 5 22 5 2
-10 -20 -15 -39 -21 -61 -18 -19 2 -52 121 -58 206 -3 44 -7 210 -8 368 -3
312 -3 307 52 307 14 0 41 -5 60 -10z m-4394 -110 c-5 -28 -4 -30 14 -20 29
15 27 -14 -2 -34 -28 -20 -44 -21 -28 -1 10 12 10 15 -3 15 -9 0 -21 -9 -27
-20 -14 -27 -27 -25 -34 5 -8 33 10 70 28 56 9 -8 18 -5 32 9 26 26 27 25 20
-10z m5281 -135 c64 -19 113 -58 113 -90 0 -13 5 -25 12 -27 15 -5 -54 -48
-78 -48 -26 0 -100 -27 -130 -47 -21 -13 -29 -14 -49 -3 -30 16 -35 35 -35
142 0 59 4 88 13 92 18 8 95 -1 154 -19z m-5710 -266 c-2 -22 -54 -21 -60 1
-3 11 5 15 29 16 25 0 32 -4 31 -17z m-289 -104 c-3 -20 -52 -45 -64 -32 -4 3
-4 17 0 31 5 21 12 25 36 23 24 -2 30 -6 28 -22z m1835 -145 c23 -27 22 -29
-18 -46 -49 -20 -68 -19 -60 6 4 11 2 20 -4 20 -19 0 -12 15 12 26 34 17 51
16 70 -6z m-4768 -509 c3 -5 0 -13 -6 -16 -5 -4 -8 -13 -5 -21 3 -9 -1 -14
-12 -15 -10 0 -12 -3 -4 -6 21 -8 13 -32 -13 -39 -34 -8 -48 -2 -50 25 -1 17
6 26 27 33 17 6 28 17 28 29 0 20 24 26 35 10z m-1240 -181 c3 -5 -1 -10 -9
-10 -8 0 -18 5 -21 10 -3 6 1 10 9 10 8 0 18 -4 21 -10z m-277 -133 c-2 -24
-11 -35 -41 -50 -21 -11 -41 -26 -44 -33 -3 -8 -9 -14 -15 -14 -5 0 -6 5 -3
10 3 6 -1 13 -9 16 -17 7 -23 64 -7 64 5 0 22 13 37 29 24 26 30 28 56 19 25
-9 29 -15 26 -41z m1757 -259 c22 -17 31 -19 46 -10 30 19 42 15 84 -28 28
-29 56 -46 95 -57 154 -44 339 -177 448 -324 23 -30 58 -91 79 -135 33 -70 38
-89 40 -164 1 -47 5 -107 8 -135 8 -59 -7 -105 -36 -112 -14 -4 -19 -12 -16
-23 6 -23 -8 -45 -22 -36 -14 9 -15 43 -1 51 21 13 -18 125 -44 125 -8 0 -28
11 -44 25 -17 14 -35 25 -40 25 -6 0 -25 -21 -43 -47 -47 -69 -59 -82 -75 -76
-9 3 -14 22 -14 57 0 48 -22 195 -36 244 -10 33 21 28 48 -8 12 -16 28 -30 35
-30 19 0 46 67 39 96 -15 59 -194 210 -298 250 -24 10 -47 21 -53 25 -22 17
-137 39 -201 39 -72 0 -179 -24 -205 -47 -8 -7 -20 -13 -26 -13 -6 0 -21 -11
-34 -25 -13 -13 -33 -25 -43 -25 -18 0 -16 -4 10 -32 17 -18 43 -52 59 -76 32
-49 33 -67 14 -257 l-12 -110 -51 -49 c-28 -26 -69 -57 -91 -67 -46 -21 -159
-26 -199 -7 -35 15 -66 71 -77 136 -4 30 -10 57 -12 59 -3 2 -22 7 -42 10 -28
4 -36 3 -31 -5 4 -7 3 -12 -3 -12 -5 0 -12 6 -15 13 -4 6 -4 -2 -2 -18 5 -35
-7 -64 -19 -46 -5 9 -10 9 -21 0 -8 -6 -14 -8 -14 -3 0 4 -6 -1 -14 -11 -12
-17 -15 -18 -30 -3 -9 9 -16 24 -16 34 0 16 -2 15 -20 -4 -11 -12 -20 -30 -20
-40 0 -11 -6 -25 -13 -31 -11 -9 -17 -3 -27 28 -26 80 8 223 87 369 59 108
104 165 189 234 124 101 298 177 448 194 39 5 67 15 86 30 56 48 104 55 145
22z m4182 -202 c28 -1 42 -45 19 -58 -9 -5 -16 -18 -16 -30 0 -14 -5 -18 -16
-14 -45 17 -64 18 -64 2 0 -9 -4 -16 -10 -16 -5 0 -10 -7 -10 -15 0 -15 -16
-19 -54 -15 -10 1 -15 -3 -12 -8 4 -6 -2 -8 -14 -5 -22 6 -22 6 -14 27 4 11
13 14 29 10 18 -4 27 0 40 20 10 14 26 26 36 26 15 0 18 5 13 24 -8 33 13 70
34 60 9 -4 27 -8 39 -8z m-1024 -217 c12 -6 31 -19 42 -29 11 -10 61 -29 112
-43 130 -37 209 -77 295 -151 102 -87 200 -236 169 -256 -8 -5 -9 -14 -2 -33
6 -14 7 -42 4 -62 -4 -27 -2 -39 11 -48 20 -15 31 -85 17 -106 -8 -12 -12 -13
-25 -1 -12 9 -15 22 -10 46 5 29 4 32 -14 27 -15 -4 -25 5 -43 38 -30 54 -56
67 -36 18 12 -30 11 -37 -6 -64 -10 -16 -30 -48 -43 -70 l-23 -40 -1 60 c0 81
-24 178 -62 250 -30 57 -30 59 -7 44 13 -9 38 -34 54 -57 17 -22 35 -39 42
-37 6 2 13 0 15 -5 2 -5 4 19 5 53 l2 62 -79 76 c-73 70 -85 77 -177 109 -175
61 -291 43 -442 -70 -39 -29 -71 -54 -71 -55 0 -2 9 -1 20 2 29 8 95 -24 111
-53 7 -13 21 -24 32 -24 19 0 20 -5 14 -127 -5 -137 -11 -163 -34 -163 -8 0
-31 -18 -51 -41 -35 -39 -40 -41 -79 -35 -42 5 -58 -1 -45 -19 8 -11 134 -19
307 -20 l120 0 3 117 c1 69 -4 159 -13 219 -8 57 -12 106 -7 111 4 4 18 1 32
-7 14 -8 32 -17 40 -21 52 -24 88 -95 110 -214 9 -47 8 -80 0 -133 -13 -76 -9
-87 39 -87 23 0 127 -58 157 -87 14 -14 18 -13 47 15 27 25 35 28 55 19 26
-12 29 -27 6 -27 -12 0 -15 -6 -10 -26 9 -34 -31 -117 -79 -166 -34 -36 -38
-37 -63 -24 -29 15 -207 37 -230 29 -8 -4 -11 -14 -8 -29 5 -17 1 -24 -14 -29
-23 -7 -27 -35 -5 -35 9 0 15 -9 15 -25 0 -15 6 -25 14 -25 7 0 19 -7 26 -15
8 -10 31 -15 71 -15 52 0 60 3 78 28 14 20 17 32 10 39 -6 6 -9 21 -7 34 4 33
61 40 78 10 6 -12 15 -21 19 -21 5 0 23 -13 40 -29 30 -28 30 -30 16 -59 -13
-25 -23 -31 -63 -36 -26 -4 -76 -4 -112 0 -161 15 -190 16 -190 6 0 -6 10 -12
23 -14 20 -3 22 -9 25 -70 3 -75 3 -75 -78 -81 l-35 -2 -3 80 c-2 48 -8 83
-15 87 -14 10 -214 1 -307 -13 -35 -6 -81 -7 -101 -4 -21 4 -81 1 -134 -5 -53
-6 -99 -9 -103 -6 -12 12 11 21 86 33 l77 12 -107 -5 c-60 -3 -108 -1 -108 3
1 4 22 31 48 60 l47 52 125 10 c219 18 320 21 320 11 0 -6 -8 -18 -19 -29 -19
-19 -71 -27 -246 -37 -50 -2 -104 -9 -120 -14 -21 -7 9 -8 100 -5 161 7 275
-2 275 -21 0 -11 21 -14 89 -14 50 0 92 4 95 8 3 4 0 26 -6 48 -11 41 -12 65
-6 99 3 19 -3 20 -97 20 -75 0 -99 -3 -98 -12 3 -15 -14 -18 -19 -4 -7 21
-303 8 -339 -15 -6 -3 -16 0 -21 7 -8 11 -9 11 -5 -2 6 -17 -28 -43 -44 -34
-5 4 -23 30 -39 58 -22 39 -30 65 -30 103 0 59 14 76 103 120 31 15 57 35 58
44 0 8 0 39 -1 68 -1 46 1 52 19 52 34 0 33 19 -1 22 -28 3 -33 7 -32 28 1 25
-24 53 -38 44 -5 -3 -8 -14 -8 -25 0 -10 -4 -19 -10 -19 -5 0 -10 15 -10 33 0
24 -3 28 -10 17 -5 -8 -10 -32 -10 -52 0 -42 -16 -50 -30 -15 l-9 22 -7 -22
c-3 -13 -10 -20 -15 -17 -5 3 -7 10 -4 15 4 5 1 9 -4 9 -6 0 -11 -8 -11 -17 0
-27 -21 0 -30 39 l-7 33 -7 -36 c-6 -27 -15 -38 -39 -47 -17 -6 -33 -10 -35
-7 -3 3 0 29 6 57 6 29 17 85 23 125 16 109 102 238 219 328 67 52 95 66 200
105 46 16 89 39 97 50 34 48 135 75 186 49z m3997 -49 c-19 -13 -30 -13 -30 0
0 6 10 10 23 10 18 0 19 -2 7 -10z m-766 -537 c24 -35 47 -60 54 -57 7 2 10 0
7 -5 -3 -5 0 -13 6 -16 23 -15 26 -50 7 -95 -12 -28 -15 -46 -9 -48 6 -2 11
-8 11 -13 0 -4 -7 -6 -15 -2 -9 3 -22 -2 -29 -12 -11 -15 -12 -10 -8 37 5 69
-16 144 -62 221 -49 82 -16 73 38 -10z m-5644 -78 c0 -15 -6 -25 -14 -25 -19
0 -27 25 -13 39 18 18 27 13 27 -14z m3044 -111 c7 -19 -2 -37 -15 -29 -12 8
-12 45 0 45 5 0 12 -7 15 -16z m-1330 -94 c5 -49 4 -61 -5 -47 -14 24 -25 136
-11 122 5 -5 12 -39 16 -75z m1322 4 c-5 -13 -10 -14 -18 -6 -6 6 -8 18 -4 28
5 13 10 14 18 6 6 -6 8 -18 4 -28z m1556 -33 c-5 -3 -12 -13 -15 -21 -3 -9 -6
-5 -6 11 -1 31 22 59 27 33 2 -9 0 -19 -6 -23z m-1230 -51 c4 -28 2 -30 -24
-28 -23 2 -28 7 -28 30 0 23 4 28 24 28 19 0 25 -6 28 -30z m-1232 -180 c0 -5
-7 -10 -16 -10 -8 0 -12 5 -9 10 3 6 10 10 16 10 5 0 9 -4 9 -10z m635 -20 c4
-6 -5 -10 -20 -10 -15 0 -24 4 -20 10 3 6 12 10 20 10 8 0 17 -4 20 -10z
m2775 -60 c0 -5 -7 -10 -15 -10 -8 0 -15 5 -15 10 0 6 7 10 15 10 8 0 15 -4
15 -10z m127 -16 c14 -15 30 -23 38 -20 26 10 61 -13 60 -39 -2 -31 -32 -75
-52 -75 -12 0 -9 6 11 25 31 29 33 46 6 63 -16 10 -20 10 -18 0 2 -9 -7 -12
-25 -10 -15 2 -43 -1 -62 -7 -21 -6 -35 -6 -35 0 0 5 8 9 18 9 13 0 14 2 3 9
-11 7 -10 11 5 20 14 8 15 10 4 11 -8 0 -21 9 -28 20 -11 18 -10 20 19 20 21
0 40 -9 56 -26z m-100 -10 c-3 -3 -12 -4 -19 -1 -8 3 -5 6 6 6 11 1 17 -2 13
-5z m-5231 -76 c44 -28 81 -55 82 -60 2 -4 12 -8 22 -8 9 0 23 -7 30 -15 7 -8
18 -15 25 -15 6 0 38 -19 71 -42 107 -75 454 -308 459 -308 3 0 28 -16 55 -35
27 -19 53 -35 57 -35 5 0 18 -8 30 -18 l22 -17 -54 -57 c-40 -42 -59 -56 -72
-51 -18 6 -120 78 -138 98 -5 6 -35 26 -65 45 -30 19 -69 45 -86 59 -18 15
-81 57 -140 95 -60 38 -143 94 -184 125 -41 31 -109 76 -150 101 -89 54 -124
98 -109 138 11 29 35 52 55 52 6 0 47 -23 90 -52z m5702 -26 c38 -36 41 -42
35 -78 -7 -45 -16 -55 -60 -73 -62 -25 -80 -4 -74 85 1 18 -2 35 -8 39 -25 15
-11 43 27 53 20 5 38 10 38 11 1 1 20 -16 42 -37z m-3255 11 c3 -5 7 -37 8
-73 3 -54 1 -65 -13 -68 -14 -3 -17 8 -20 65 -4 71 -2 83 12 83 5 0 11 -3 13
-7z m118 -46 c-15 -15 -24 -2 -16 24 7 20 8 21 17 5 7 -12 7 -21 -1 -29z
m-798 15 c-2 -10 5 -28 16 -41 19 -21 19 -51 1 -51 -11 0 -40 29 -40 39 0 24
14 71 20 71 5 0 6 -8 3 -18z m3357 -41 c0 -58 -1 -59 -31 -65 -76 -15 -79 -13
-79 59 l0 65 55 0 55 0 0 -59z m131 37 c0 -13 2 -42 4 -65 2 -32 0 -43 -11
-43 -9 0 -14 12 -15 38 0 20 -2 46 -4 56 -4 22 2 36 16 36 5 0 9 -10 10 -22z
m-7858 5 c-13 -2 -35 -2 -50 0 -16 2 -5 4 22 4 28 0 40 -2 28 -4z m7252 -21
c-2 -9 -4 -20 -4 -24 -2 -14 -21 -8 -27 7 -7 17 14 48 26 40 5 -3 7 -13 5 -23z
m-78 -54 c-2 -13 -4 -3 -4 22 0 25 2 35 4 23 2 -13 2 -33 0 -45z m792 -39 c41
-14 40 -29 -3 -29 -18 0 -49 -2 -67 -5 -29 -4 -30 -3 -9 4 17 6 20 9 8 10 -37
2 -15 25 28 30 6 0 25 -4 43 -10z m-183 -164 c-1 -16 -5 -32 -11 -35 -11 -5
-17 98 -7 115 8 12 18 -38 18 -80z m-486 66 c0 -6 -4 -13 -10 -16 -5 -3 -10 1
-10 9 0 9 5 16 10 16 6 0 10 -4 10 -9z m-181 -113 c0 -10 -3 -18 -9 -18 -5 0
-9 21 -9 48 1 42 2 44 9 17 4 -16 8 -38 9 -47z m1459 -64 c26 -7 29 -24 5 -25
-15 0 -15 -2 2 -9 16 -7 17 -9 3 -9 -9 -1 -30 10 -45 24 -25 22 -26 24 -8 25
11 0 30 -3 43 -6z m-1038 -45 c0 -5 -7 -9 -15 -9 -9 0 -12 6 -9 15 6 15 24 11
24 -6z m-1030 -63 c0 -2 -9 -6 -20 -9 -11 -3 -20 -1 -20 4 0 5 9 9 20 9 11 0
20 -2 20 -4z m-55 -26 c-3 -5 -14 -10 -23 -10 -15 0 -15 2 -2 10 20 13 33 13
25 0z m2355 -1275 c-7 -8 -20 -14 -29 -14 -13 1 -13 2 2 6 9 2 17 9 17 14 0 5
5 9 11 9 8 0 8 -5 -1 -15z m177 -57 c-3 -8 -6 -5 -6 6 -1 11 2 17 5 13 3 -3 4
-12 1 -19z"/>
<path d="M7577 10933 c-11 -23 -1 -48 21 -48 12 0 27 -7 32 -15 7 -11 12 -12
21 -3 6 6 17 9 24 6 19 -7 6 38 -14 54 -18 14 -78 17 -84 6z"/>
<path d="M8547 10539 c-22 -13 -50 -67 -43 -85 8 -20 50 -18 68 4 9 9 18 34
22 55 6 31 4 37 -11 37 -10 0 -26 -5 -36 -11z"/>
<path d="M10498 10153 c7 -3 16 -2 19 1 4 3 -2 6 -13 5 -11 0 -14 -3 -6 -6z"/>
<path d="M9078 8913 c7 -3 16 -2 19 1 4 3 -2 6 -13 5 -11 0 -14 -3 -6 -6z"/>
<path d="M9651 8610 c12 -22 24 -38 26 -36 4 4 -37 76 -44 76 -2 0 6 -18 18
-40z"/>
<path d="M8655 8390 c-3 -5 -1 -10 4 -10 6 0 11 5 11 10 0 6 -2 10 -4 10 -3 0
-8 -4 -11 -10z"/>
<path d="M8893 8273 c9 -2 23 -2 30 0 6 3 -1 5 -18 5 -16 0 -22 -2 -12 -5z"/>
<path d="M8970 8079 c0 -5 5 -7 10 -4 6 3 10 8 10 11 0 2 -4 4 -10 4 -5 0 -10
-5 -10 -11z"/>
<path d="M8815 8000 c3 -5 11 -10 16 -10 6 0 7 5 4 10 -3 6 -11 10 -16 10 -6
0 -7 -4 -4 -10z"/>
<path d="M9062 7929 c-24 -14 -59 -20 -135 -24 -105 -6 -248 -22 -255 -29 -13
-13 58 -15 219 -7 100 6 186 8 191 5 16 -10 7 -23 -19 -27 -16 -2 23 -5 85 -6
93 -1 112 1 112 14 0 8 -4 15 -10 15 -5 0 -10 9 -10 20 0 11 -7 23 -15 26 -12
5 -13 10 -4 20 19 23 -117 18 -159 -7z m13 -19 c-3 -5 -13 -10 -21 -10 -8 0
-12 5 -9 10 3 6 13 10 21 10 8 0 12 -4 9 -10z"/>
<path d="M6260 9090 c0 -5 7 -10 16 -10 8 0 12 5 9 10 -3 6 -10 10 -16 10 -5
0 -9 -4 -9 -10z"/>
<path d="M5660 8611 c0 -6 5 -13 10 -16 6 -3 10 1 10 9 0 9 -4 16 -10 16 -5 0
-10 -4 -10 -9z"/>
<path d="M5952 8533 c-10 -4 -9 -8 5 -19 16 -12 16 -13 1 -14 -13 0 -16 -8
-15 -35 2 -29 6 -35 25 -35 13 0 22 -6 22 -15 0 -24 19 -17 26 10 4 16 0 34
-10 50 -9 13 -16 33 -16 45 0 20 -12 24 -38 13z"/>
<path d="M5938 8358 c-3 -37 -3 -39 22 -33 22 6 40 21 40 35 0 15 -21 34 -38
35 -16 1 -21 -6 -24 -37z"/>
<path d="M6720 7872 c0 -5 10 -12 23 -16 35 -9 77 -7 77 4 0 6 -12 10 -27 10
-16 0 -38 3 -50 6 -13 4 -23 2 -23 -4z"/>
<path d="M1326 10368 c-25 -43 -86 -98 -109 -98 -10 0 -17 -5 -15 -12 7 -21
22 -19 52 7 16 14 42 25 57 25 15 0 31 5 34 11 17 26 104 -21 105 -58 0 -28
20 -21 36 12 17 36 17 36 -10 58 -15 12 -49 34 -76 48 -27 14 -47 29 -43 33 3
3 2 6 -3 6 -5 0 -18 -15 -28 -32z"/>
<path d="M893 10223 c-7 -3 -13 -11 -13 -19 0 -8 6 -14 13 -14 6 0 21 -18 31
-40 19 -39 46 -57 66 -45 18 11 10 35 -15 41 -24 6 -39 30 -33 54 3 14 -31 29
-49 23z"/>
<path d="M0 8161 l0 -178 106 -6 c140 -7 224 1 232 22 3 9 12 22 19 29 7 7 13
22 13 32 0 10 23 36 50 58 l50 40 164 -3 c91 -2 173 -6 183 -9 10 -3 26 -19
35 -34 14 -24 15 -43 8 -137 -17 -214 -30 -431 -30 -508 0 -85 -17 -131 -55
-144 -11 -4 -101 -8 -200 -9 -99 -1 -261 -4 -360 -8 -99 -3 -188 -6 -197 -6
-13 0 -18 -8 -18 -25 l0 -25 238 -2 c130 0 424 -1 652 -2 413 -1 415 -1 450
21 l35 23 -45 0 c-59 0 -202 17 -265 32 -63 14 -74 29 -64 82 5 22 13 101 18
174 6 77 17 144 25 161 21 39 31 149 17 185 -8 21 -8 32 0 42 6 7 8 21 5 32
-12 35 72 172 105 172 5 0 24 14 44 31 61 54 26 69 -173 74 -285 8 -550 24
-872 55 -58 6 -120 10 -137 10 l-33 0 0 -179z"/>
<path d="M2912 8174 c-26 -18 -29 -39 -7 -48 25 -9 34 -48 19 -78 -20 -38 -18
-85 4 -97 15 -9 15 -12 2 -21 -8 -5 -25 -10 -37 -10 -16 0 -21 -4 -17 -15 3
-8 1 -37 -6 -65 -10 -42 -10 -54 3 -73 10 -15 12 -29 7 -38 -6 -9 -3 -25 9
-45 18 -30 18 -31 -4 -50 -18 -16 -21 -29 -21 -89 l1 -70 42 -6 c23 -3 48 -11
56 -18 9 -7 40 -15 70 -18 66 -7 66 -6 68 117 1 70 5 88 20 100 16 12 20 35
25 131 5 83 4 118 -5 123 -16 10 -14 43 4 50 17 6 20 54 5 105 -8 27 -6 38 5
51 21 23 19 57 -4 70 -32 17 -213 13 -239 -6z"/>
<path d="M3301 8152 c-6 -11 -11 -30 -11 -42 0 -12 -7 -29 -16 -37 -23 -24
-10 -63 36 -103 22 -20 40 -38 40 -42 0 -3 -13 -11 -29 -16 -27 -10 -28 -12
-23 -60 8 -85 -3 -119 -46 -141 l-37 -19 28 -11 c16 -6 32 -11 35 -11 4 0 18
-8 32 -17 38 -26 88 -27 138 -2 24 13 48 31 54 42 5 10 29 28 53 38 43 19 53
36 60 104 4 37 -101 51 -137 18 -12 -10 -18 -12 -18 -4 0 7 -25 23 -54 37 -69
32 -65 49 13 57 32 2 73 12 91 22 30 16 32 19 27 57 -3 23 -11 44 -17 48 -7 4
10 13 39 20 51 12 67 33 33 44 -9 3 -46 6 -82 7 -36 1 -70 6 -77 11 -6 5 -36
12 -66 15 -48 5 -56 3 -66 -15z m179 -57 c14 -16 6 -35 -15 -35 -16 0 -55 30
-55 42 0 14 57 8 70 -7z m0 -365 c0 -5 -2 -10 -4 -10 -3 0 -8 5 -11 10 -3 6
-1 10 4 10 6 0 11 -4 11 -10z"/>
<path d="M6740 7620 c0 -5 21 -9 48 -9 42 1 44 2 17 9 -44 11 -65 11 -65 0z"/>
<path d="M3234 7606 c-3 -7 -4 -42 -2 -77 l3 -64 85 -1 c137 -2 138 -2 146 63
4 33 3 63 -3 72 -13 20 -83 22 -90 3 -4 -10 -10 -10 -29 3 -29 19 -103 20
-110 1z"/>
<path d="M8723 7613 c9 -2 25 -2 35 0 9 3 1 5 -18 5 -19 0 -27 -2 -17 -5z"/>
<path d="M6260 7581 c-19 -5 -25 -14 -25 -36 l0 -29 68 -1 c73 -1 91 8 85 47
-3 20 -9 23 -53 25 -27 1 -61 -2 -75 -6z"/>
<path d="M6482 7558 c3 -32 4 -33 48 -33 43 0 45 1 45 30 0 29 -2 30 -48 33
l-48 3 3 -33z"/>
<path d="M6085 7570 c3 -5 13 -10 21 -10 8 0 14 5 14 10 0 6 -9 10 -21 10 -11
0 -17 -4 -14 -10z"/>
<path d="M6256 7481 c15 -15 114 -18 114 -3 0 8 -19 12 -62 12 -37 0 -58 -4
-52 -9z"/>
<path d="M8930 7450 c0 -5 7 -10 16 -10 8 0 12 5 9 10 -3 6 -10 10 -16 10 -5
0 -9 -4 -9 -10z"/>
<path d="M5608 7443 c6 -2 18 -2 25 0 6 3 1 5 -13 5 -14 0 -19 -2 -12 -5z"/>
<path d="M6690 7404 c0 -26 4 -43 10 -39 5 3 26 -1 46 -10 20 -8 44 -15 52
-15 15 0 15 2 1 15 -8 9 -31 24 -50 34 -19 10 -35 27 -37 40 -6 39 -22 21 -22
-25z"/>
<path d="M5990 7431 c0 -11 26 -22 34 -14 12 12 5 23 -14 23 -11 0 -20 -4 -20
-9z"/>
<path d="M6053 7427 c-10 -15 -32 -29 -110 -69 -111 -57 -65 -64 74 -11 47 18
76 35 84 50 7 13 10 25 7 28 -12 12 -48 13 -55 2z"/>
<path d="M6372 7431 c-1 -9 -10 -11 -26 -7 -31 8 -56 -2 -56 -21 0 -8 -7 -21
-15 -29 -22 -23 -19 -33 20 -51 19 -9 35 -20 35 -23 0 -4 -18 -14 -41 -23 -30
-12 -40 -21 -37 -34 2 -14 14 -19 52 -21 64 -4 101 5 88 21 -5 7 -10 25 -10
40 0 15 -7 36 -16 46 -16 18 -16 20 -1 28 12 7 15 20 12 49 -2 21 -4 33 -5 25z"/>
<path d="M9334 7393 c-21 -3 -34 -11 -37 -24 -7 -25 13 -35 88 -42 42 -4 51
-3 32 3 -16 5 -35 17 -42 27 -12 15 -12 20 2 31 18 13 19 13 -43 5z"/>
<path d="M2981 7382 c-17 -6 -60 -53 -61 -66 0 -13 32 -35 51 -36 22 0 34 -31
17 -42 -7 -4 -22 -8 -33 -8 -33 -1 -43 -13 -37 -48 3 -24 12 -36 29 -43 29
-11 103 -12 119 -1 15 9 12 134 -2 139 -6 2 -20 10 -30 18 -16 12 -17 17 -6
34 6 12 12 25 12 29 0 13 -43 30 -59 24z"/>
<path d="M8720 7381 c-38 -5 -29 -7 53 -12 54 -4 103 -11 108 -16 14 -14 -24
-41 -116 -84 -38 -18 -71 -36 -73 -41 -2 -4 -10 -8 -18 -8 -12 0 -12 -2 -2
-14 7 -7 22 -12 33 -11 100 14 182 29 190 35 13 9 75 30 75 25 0 -2 -4 -15
-10 -29 -7 -20 -6 -24 5 -19 8 3 15 16 15 30 0 14 4 22 10 18 6 -4 8 -11 5
-16 -4 -5 -1 -9 4 -9 6 0 11 11 11 24 0 20 -6 24 -39 30 -47 7 -51 12 -53 65
l-1 41 -76 -2 c-42 0 -96 -4 -121 -7z m10 -151 c-8 -5 -19 -10 -25 -10 -5 0
-3 5 5 10 8 5 20 10 25 10 6 0 3 -5 -5 -10z"/>
<path d="M9643 7383 c9 -2 25 -2 35 0 9 3 1 5 -18 5 -19 0 -27 -2 -17 -5z"/>
<path d="M5525 7363 c-72 -10 -225 -57 -285 -86 -84 -41 -190 -149 -230 -233
-17 -34 -37 -94 -46 -135 -43 -198 -56 -261 -70 -349 -9 -52 -17 -104 -19
-115 -30 -188 -57 -537 -44 -573 5 -13 9 -42 10 -65 l1 -42 10 33 c6 17 15 32
21 32 5 0 7 -7 4 -15 -4 -8 4 -22 18 -33 16 -13 21 -22 14 -29 -6 -6 -7 -13
-2 -16 12 -7 53 10 53 22 0 6 12 8 29 5 42 -9 51 16 51 148 0 62 5 196 10 298
6 102 12 253 15 335 3 83 10 211 14 285 8 126 11 140 45 210 37 76 71 120 91
120 7 0 32 11 56 23 24 13 69 32 99 42 104 33 251 107 248 124 -3 17 -38 22
-93 14z"/>
<path d="M8608 7363 c12 -2 32 -2 45 0 12 2 2 4 -23 4 -25 0 -35 -2 -22 -4z"/>
<path d="M8990 7355 l-35 -13 31 -1 c20 -1 34 5 38 14 3 8 4 15 3 14 -1 0 -18
-7 -37 -14z"/>
<path d="M9725 7363 c-52 -7 -59 -11 -45 -28 16 -19 31 -19 24 0 -5 13 8 15
82 15 48 0 85 2 83 4 -7 6 -113 13 -144 9z"/>
<path d="M8686 7336 c5 -12 -28 -40 -66 -58 -8 -4 -10 -7 -4 -7 16 -1 82 27
88 38 8 12 -3 41 -15 41 -4 0 -6 -6 -3 -14z"/>
<path d="M9888 7343 c6 -2 18 -2 25 0 6 3 1 5 -13 5 -14 0 -19 -2 -12 -5z"/>
<path d="M8395 7303 c-116 -16 -245 -71 -289 -123 -27 -33 -34 -60 -15 -60 14
0 77 38 103 62 11 10 28 18 39 18 10 0 31 6 45 14 15 7 52 21 82 30 144 45
163 77 35 59z"/>
<path d="M3672 7288 c5 -15 149 -78 193 -85 l30 -5 -37 28 c-21 15 -38 31 -38
36 0 13 -70 40 -87 34 -8 -4 -11 -11 -7 -18 5 -7 -4 -5 -19 5 -31 20 -40 21
-35 5z"/>
<path d="M7461 7243 c30 -32 65 -72 77 -90 41 -59 65 -173 82 -393 28 -375 42
-592 49 -762 9 -202 14 -218 66 -218 14 0 37 -7 50 -16 25 -16 25 -16 39 18 8
18 13 49 12 68 -3 37 8 70 24 70 6 0 10 -12 10 -27 0 -16 4 -34 9 -41 17 -27
20 18 16 225 -2 142 0 194 6 163 16 -81 38 -272 49 -425 12 -174 19 -225 32
-225 5 0 6 5 3 10 -3 6 -8 119 -11 253 -5 237 -16 468 -31 617 -8 75 -8 75
-20 40 -7 -19 -19 -75 -26 -125 l-12 -90 -18 135 c-33 241 -100 537 -132 580
-6 8 -17 28 -23 43 -21 49 -85 118 -105 113 -12 -3 -25 7 -42 34 -34 53 -94
100 -129 100 l-29 0 54 -57z"/>
<path d="M9580 7280 c0 -6 5 -8 10 -5 6 3 10 1 10 -5 0 -7 -6 -10 -12 -7 -15
5 -68 -23 -68 -36 0 -4 10 -3 21 4 12 6 24 7 28 3 3 -5 29 -9 56 -9 28 0 52
-3 55 -6 9 -13 63 -14 67 -2 3 7 -3 9 -17 6 -18 -5 -51 20 -62 46 -5 13 -88
23 -88 11z"/>
<path d="M9694 7256 c11 -9 28 -16 37 -16 10 0 26 -2 36 -5 10 -3 5 1 -12 9
-16 7 -41 17 -55 20 -24 7 -24 6 -6 -8z"/>
<path d="M9280 7220 c0 -11 5 -20 10 -20 6 0 10 -11 10 -24 0 -33 17 -42 25
-14 l7 21 18 -23 c16 -21 22 -22 51 -14 42 12 47 29 12 42 -27 10 -26 10 17
12 25 1 38 4 30 7 -8 3 -17 9 -20 13 -3 5 -40 11 -82 14 -74 6 -78 5 -78 -14z
m138 -7 c-10 -2 -28 -2 -40 0 -13 2 -5 4 17 4 22 1 32 -1 23 -4z"/>
<path d="M9463 7223 c9 -2 23 -2 30 0 6 3 -1 5 -18 5 -16 0 -22 -2 -12 -5z"/>
<path d="M9858 7213 c7 -3 16 -2 19 1 4 3 -2 6 -13 5 -11 0 -14 -3 -6 -6z"/>
<path d="M8830 7200 c-13 -9 -13 -10 0 -9 8 0 24 4 35 9 l20 9 -20 0 c-11 0
-27 -4 -35 -9z"/>
<path d="M9768 7203 c6 -2 18 -2 25 0 6 3 1 5 -13 5 -14 0 -19 -2 -12 -5z"/>
<path d="M1450 7169 c-78 -54 -174 -159 -213 -234 -61 -121 -114 -256 -140
-360 -33 -129 -80 -391 -92 -510 -23 -222 -23 -229 -4 -256 10 -15 20 -55 24
-95 l7 -69 44 -1 c24 -1 51 -7 59 -14 12 -10 20 -9 39 4 21 13 25 26 30 83 23
252 120 981 144 1078 36 146 97 269 169 342 18 18 33 39 33 48 0 25 -51 17
-100 -16z"/>
<path d="M3905 7190 c3 -5 8 -10 11 -10 2 0 4 5 4 10 0 6 -5 10 -11 10 -5 0
-7 -4 -4 -10z"/>
<path d="M10005 7170 c3 -5 13 -10 21 -10 8 0 19 -10 24 -22 5 -13 9 -17 9
-10 1 9 8 11 21 7 35 -11 22 14 -16 30 -42 17 -68 20 -59 5z"/>
<path d="M10100 7122 c0 -4 15 -16 33 -27 32 -18 32 -18 17 1 -24 31 -50 45
-50 26z"/>
<path d="M4470 6922 c1 -10 8 -35 16 -57 38 -102 43 -236 34 -865 -3 -173 -2
-327 2 -341 10 -33 53 -44 105 -26 33 11 38 17 50 67 13 57 21 709 9 729 -4 5
-11 55 -16 110 -11 119 -50 247 -96 317 -37 57 -50 69 -81 77 -17 4 -23 1 -23
-11z"/>
<path d="M7883 6890 c0 -25 2 -35 4 -22 2 12 2 32 0 45 -2 12 -4 2 -4 -23z"/>
<path d="M9191 6826 c-7 -8 -14 -27 -15 -42 -3 -24 -8 -27 -40 -30 -21 -1 -39
-4 -41 -6 -5 -4 92 -77 112 -85 17 -7 17 -23 -1 -23 -8 0 -21 -6 -28 -13 -36
-34 -66 -45 -106 -40 -29 4 -49 1 -67 -11 -28 -18 -33 -51 -10 -64 14 -7 12
-17 -15 -73 -34 -72 -37 -107 -15 -168 27 -78 97 -140 179 -162 23 -6 46 -17
52 -24 16 -21 113 -30 120 -11 3 8 20 18 37 22 18 3 52 17 77 29 122 62 157
178 92 300 -28 52 -30 61 -17 71 23 17 18 40 -12 64 -22 17 -37 21 -69 16 -35
-4 -45 -1 -73 24 -18 17 -35 30 -39 30 -4 0 -14 4 -22 10 -12 7 -9 13 14 35
20 18 25 30 18 37 -6 6 -8 25 -5 44 9 53 -17 84 -71 84 -25 0 -48 -6 -55 -14z
m98 -22 l21 -27 -29 -28 c-16 -15 -27 -30 -24 -32 3 -3 -3 -4 -14 -2 -10 2
-21 4 -25 4 -13 2 -36 55 -30 71 16 48 69 55 101 14z m-98 -74 c10 -6 19 -17
19 -25 0 -11 11 -15 38 -15 33 -1 35 -2 19 -14 -11 -9 -15 -20 -11 -31 5 -13
3 -16 -7 -13 -8 3 -13 12 -11 20 1 8 -9 20 -24 26 -14 7 -22 17 -19 22 3 5 0
7 -8 5 -7 -3 -22 3 -32 15 -17 18 -17 20 -1 20 10 0 26 -5 37 -10z m19 -131
c0 -6 -4 -7 -10 -4 -5 3 -10 11 -10 16 0 6 5 7 10 4 6 -3 10 -11 10 -16z m54
12 c4 -5 -3 -7 -14 -4 -23 6 -26 13 -6 13 8 0 17 -4 20 -9z m55 -21 c10 0 27
-11 40 -23 17 -19 20 -29 13 -48 -7 -19 -1 -36 33 -89 53 -83 62 -118 39 -161
-44 -85 -147 -121 -259 -90 -67 19 -135 96 -135 153 0 13 20 57 44 98 37 64
42 78 33 99 -10 20 -8 27 16 47 34 29 43 30 59 4 12 -19 13 -19 25 3 l12 22 1
-22 c0 -27 17 -31 23 -5 4 15 6 14 12 -4 4 -14 17 -24 35 -26 16 -2 27 -1 24
4 -3 4 -14 8 -25 8 -15 0 -19 7 -18 33 1 17 3 24 6 15 2 -10 12 -18 22 -18z
m-231 -59 c2 -20 -8 -53 -27 -93 -36 -72 -39 -114 -11 -169 40 -78 149 -128
252 -116 63 8 105 32 141 83 45 64 45 99 2 186 -43 89 -45 132 -5 135 14 2 34
-4 45 -13 19 -14 19 -16 3 -25 -10 -6 -18 -19 -18 -31 0 -18 -2 -19 -16 -7
-13 11 -12 5 4 -27 37 -73 46 -125 28 -169 -19 -44 -19 -45 -7 -45 19 0 34 62
28 118 -3 35 -2 49 3 37 14 -32 11 -124 -4 -153 -8 -15 -29 -41 -48 -59 -34
-32 -114 -70 -125 -59 -4 3 -1 6 5 6 7 0 12 3 12 8 0 4 -40 7 -89 7 -49 0 -87
-3 -84 -7 11 -19 -36 -5 -79 22 -92 58 -135 154 -109 242 17 54 21 44 9 -18
-8 -40 -7 -58 6 -89 20 -47 32 -40 16 10 -15 45 -6 109 20 153 25 41 25 50 1
28 -19 -17 -19 -17 -14 5 4 15 0 26 -13 36 -18 14 -18 15 4 33 33 27 66 13 70
-29z m139 -407 c-3 -3 -12 -4 -19 -1 -8 3 -5 6 6 6 11 1 17 -2 13 -5z m46 -41
c-7 -2 -21 -2 -30 0 -10 3 -4 5 12 5 17 0 24 -2 18 -5z"/>
<path d="M9166 6551 c-4 -5 3 -7 14 -4 23 6 26 13 6 13 -8 0 -17 -4 -20 -9z"/>
<path d="M9193 6538 c-38 -10 -45 -23 -9 -14 14 3 36 1 50 -5 20 -9 29 -9 40
0 12 10 22 10 47 -3 37 -19 39 -19 39 -7 0 15 -59 34 -89 28 -15 -3 -32 -2
-37 2 -5 5 -24 4 -41 -1z"/>
<path d="M9190 6401 c0 -5 -8 -8 -17 -7 -41 3 -11 -72 60 -148 l22 -24 26 27
c43 46 79 99 79 119 0 10 -11 24 -25 30 -30 14 -145 16 -145 3z m18 -52 c-1
-31 -1 -31 -14 -8 -9 18 -9 26 -1 31 7 4 13 8 14 8 1 0 1 -14 1 -31z m112 11
c0 -5 -4 -10 -10 -10 -5 0 -10 5 -10 10 0 6 5 10 10 10 6 0 10 -4 10 -10z
m-33 -6 c-3 -3 -12 -4 -19 -1 -8 3 -5 6 6 6 11 1 17 -2 13 -5z"/>
<path d="M10303 6550 c0 -41 2 -58 4 -37 2 20 2 54 0 75 -2 20 -4 3 -4 -38z"/>
<path d="M6468 6503 c-18 -40 -45 -62 -70 -55 -15 3 -19 1 -16 -9 2 -8 17 -15
32 -17 20 -3 26 -8 22 -19 -3 -8 -6 -23 -6 -34 0 -12 -5 -16 -15 -13 -8 4 -15
14 -15 23 0 9 -19 26 -43 39 -44 24 -45 25 19 -27 8 -6 9 -24 4 -53 -9 -46 -3
-69 11 -47 6 10 9 11 9 2 0 -7 9 -13 19 -13 11 0 22 6 24 13 4 10 6 10 6 0 1
-7 6 -13 12 -13 7 0 9 10 5 25 -6 24 7 35 19 15 3 -5 14 -10 24 -10 31 0 54
-36 48 -74 -4 -28 2 -45 31 -93 20 -32 39 -60 43 -63 12 -9 29 -87 23 -104 -3
-9 -1 -16 4 -16 16 0 25 38 17 78 -4 21 -22 64 -41 98 -37 66 -43 113 -18 138
20 21 37 20 65 -3 23 -19 23 -20 6 -39 -20 -22 -19 -71 2 -142 6 -19 11 -53
11 -74 0 -22 2 -37 5 -34 7 7 9 90 2 118 -4 15 0 11 9 -10 11 -24 15 -55 12
-100 -3 -54 -9 -73 -36 -113 -40 -57 -95 -94 -154 -103 -41 -6 -42 -6 -23 11
20 16 20 16 -5 10 -49 -14 -110 -17 -140 -7 -18 7 -30 7 -30 2 0 -12 28 -19
95 -24 28 -2 7 -2 -47 0 -87 3 -101 6 -146 34 -63 38 -108 104 -117 170 -8 55
0 106 18 117 36 23 42 100 11 134 -16 18 -16 20 1 39 23 25 45 25 73 0 30 -28
28 -54 -13 -139 -38 -80 -43 -120 -20 -175 17 -41 30 -50 15 -10 -21 55 -9
104 49 203 24 39 29 58 24 85 -4 25 0 44 12 63 l18 28 -26 -17 c-20 -14 -31
-15 -56 -7 -37 13 -79 -4 -100 -42 -13 -24 -13 -28 2 -44 22 -22 22 -23 -13
-97 -49 -104 -37 -192 39 -280 32 -37 110 -80 168 -92 17 -4 37 -14 44 -22 15
-19 115 -19 126 0 4 7 26 19 48 26 184 58 267 229 185 379 -32 57 -38 97 -17
104 9 3 9 11 2 32 -14 40 -74 64 -111 45 -22 -12 -28 -11 -69 18 -25 17 -51
29 -59 26 -9 -3 -17 5 -24 25 -9 26 -8 30 13 35 26 7 41 34 26 49 -5 5 -7 25
-4 43 7 41 -3 44 -19 7z m-41 -169 c-3 -3 -12 -4 -19 -1 -8 3 -5 6 6 6 11 1
17 -2 13 -5z m33 -614 c0 -5 -9 -10 -20 -10 -11 0 -20 5 -20 10 0 6 9 10 20
10 11 0 20 -4 20 -10z"/>
<path d="M6252 6478 c3 -7 13 -15 22 -16 12 -3 17 1 14 10 -3 7 -13 15 -22 16
-12 3 -17 -1 -14 -10z"/>
<path d="M6330 6480 c20 -13 33 -13 25 0 -3 6 -14 10 -23 10 -15 0 -15 -2 -2
-10z"/>
<path d="M10313 6360 c0 -25 2 -35 4 -22 2 12 2 32 0 45 -2 12 -4 2 -4 -23z"/>
<path d="M2680 6366 c0 -13 20 -26 41 -26 14 0 1 18 -22 30 -15 8 -19 7 -19
-4z"/>
<path d="M2923 6352 c-39 -19 -46 -57 -12 -67 29 -10 51 15 47 52 l-3 30 -32
-15z"/>
<path d="M6330 6335 c-7 -9 -10 -18 -7 -21 10 -11 37 5 37 21 0 19 -14 19 -30
0z"/>
<path d="M2845 6310 c3 -5 8 -10 11 -10 2 0 4 5 4 10 0 6 -5 10 -11 10 -5 0
-7 -4 -4 -10z"/>
<path d="M6396 6233 c7 -7 19 -13 27 -13 8 0 19 6 25 13 8 10 2 12 -27 12 -31
0 -35 -2 -25 -12z"/>
<path d="M6481 6246 c2 -2 15 -9 29 -15 24 -11 24 -11 6 3 -16 13 -49 24 -35
12z"/>
<path d="M878 6234 c-13 -12 -500 -63 -770 -80 l-108 -7 0 -245 0 -245 48 7
c26 3 128 11 227 16 99 6 191 13 204 16 14 3 97 9 184 14 111 6 163 12 172 22
13 15 28 73 50 203 9 50 23 119 30 155 8 36 17 84 20 108 7 41 6 42 -22 42
-17 0 -32 -3 -35 -6z"/>
<path d="M2826 6215 c-18 -27 -21 -63 -6 -85 9 -13 11 -13 20 0 7 12 12 12 22
2 30 -30 38 3 13 61 -20 47 -30 52 -49 22z"/>
<path d="M2900 6226 c0 -8 5 -18 10 -21 6 -3 10 1 10 9 0 8 -4 18 -10 21 -5 3
-10 -1 -10 -9z"/>
<path d="M2880 6204 c0 -12 35 -64 43 -64 10 0 -1 39 -15 58 -11 12 -28 17
-28 6z"/>
<path d="M2768 6194 c-11 -10 3 -34 19 -34 8 0 13 7 11 17 -3 18 -20 27 -30
17z"/>
<path d="M2960 6186 c0 -9 5 -16 10 -16 6 0 10 4 10 9 0 6 -4 13 -10 16 -5 3
-10 -1 -10 -9z"/>
<path d="M2624 6112 c23 -45 20 -87 -13 -151 -59 -116 -50 -135 19 -40 58 80
68 105 59 152 -8 45 -14 53 -52 63 l-29 7 16 -31z"/>
<path d="M3040 6094 c0 -24 -4 -44 -10 -44 -18 0 -11 -16 55 -115 59 -88 69
-112 69 -167 0 -9 3 -15 8 -12 17 11 7 89 -19 148 -15 33 -30 63 -34 66 -4 3
-12 24 -19 47 -10 31 -10 49 -1 74 15 44 15 44 -19 45 -29 1 -30 0 -30 -42z"/>
<path d="M6350 6083 c-41 -20 -45 -40 -15 -84 14 -22 41 -56 60 -76 35 -37 35
-37 54 -17 82 89 118 174 73 174 -10 0 -22 3 -26 8 -12 11 -120 8 -146 -5z
m154 -31 c2 -4 0 -14 -5 -22 -8 -13 -10 -13 -18 0 -10 15 -6 30 9 30 5 0 11
-4 14 -8z m-121 -22 c-3 -11 -9 -20 -14 -20 -4 0 -13 9 -19 20 -9 17 -8 20 14
20 19 0 23 -4 19 -20z"/>
<path d="M2490 6072 c0 -5 9 -19 20 -32 24 -28 21 -43 -28 -124 -31 -49 -37
-70 -40 -127 -4 -60 0 -77 23 -125 45 -92 134 -160 239 -184 26 -6 61 -20 77
-33 29 -21 31 -21 43 -4 14 18 52 25 41 7 -11 -18 51 -11 69 8 9 11 35 24 57
31 60 18 160 70 192 100 16 14 42 52 59 85 41 81 43 160 5 236 -15 30 -24 46
-21 35 18 -57 24 -102 18 -125 -6 -21 -9 -17 -16 28 -9 57 -53 162 -69 162 -5
0 1 -21 15 -47 32 -64 39 -104 37 -195 -2 -97 -11 -121 -64 -171 -85 -80 -158
-108 -192 -73 -11 11 -24 12 -55 5 -54 -12 -110 -5 -154 19 -5 3 -6 -5 -3 -18
6 -21 4 -22 -36 -17 -97 13 -186 89 -212 181 -25 87 -17 168 23 230 36 56 40
85 15 127 -16 27 -43 40 -43 21z"/>
<path d="M3201 6059 c-25 -27 -25 -27 -5 -59 l15 -25 -5 30 c-3 19 2 36 11 48
24 26 8 32 -16 6z"/>
<path d="M6140 6014 c0 -21 5 -46 11 -54 7 -11 8 -1 3 35 -8 62 -14 70 -14 19z"/>
<path d="M8550 5855 c0 -128 1 -135 20 -135 19 0 20 7 20 135 0 128 -1 135
-20 135 -19 0 -20 -7 -20 -135z"/>
<path d="M8694 5958 l-19 -23 23 19 c12 11 22 21 22 23 0 8 -8 2 -26 -19z"/>
<path d="M8875 5944 c-3 -20 -4 -39 -1 -42 3 -3 6 4 6 16 0 41 17 22 33 -38
22 -76 22 -73 -12 -68 -17 2 -28 1 -25 -4 3 -4 18 -8 34 -8 25 0 29 -5 41 -50
10 -38 17 -50 32 -50 14 0 18 5 14 18 -2 9 -20 72 -38 140 -30 108 -36 122
-55 122 -17 0 -23 -8 -29 -36z"/>
<path d="M9060 5841 c0 -135 1 -141 20 -141 20 0 20 5 18 137 -3 122 -5 138
-20 141 -16 3 -18 -9 -18 -137z"/>
<path d="M9215 5959 c-11 -17 1 -21 15 -4 8 9 8 15 2 15 -6 0 -14 -5 -17 -11z"/>
<path d="M9501 5825 c0 -119 3 -135 17 -135 14 0 17 11 16 68 -1 37 -2 97 -3
135 -1 53 -4 67 -16 67 -13 0 -15 -21 -14 -135z"/>
<path d="M9712 5908 c5 -15 28 -18 29 -3 0 6 -7 12 -17 13 -10 3 -15 -1 -12
-10z"/>
<path d="M2860 5893 c-30 -2 -62 -6 -70 -10 -18 -7 -27 -10 -40 -12 -19 -2
-31 -40 -19 -62 20 -39 80 -114 105 -133 25 -18 25 -18 40 3 9 12 38 47 65 78
37 42 49 64 47 83 -2 14 -8 24 -14 23 -7 -1 -20 7 -29 17 -10 11 -21 19 -24
18 -3 -1 -31 -3 -61 -5z m-63 -44 c5 -5 8 -21 5 -35 -4 -23 -5 -23 -18 -7 -25
33 -14 69 13 42z m153 -19 c0 -21 -15 -27 -25 -10 -7 12 2 30 16 30 5 0 9 -9
9 -20z"/>
<path d="M6230 5893 c0 -12 28 -38 34 -32 2 2 -5 13 -15 23 -11 11 -19 15 -19
9z"/>
<path d="M8618 5873 c-16 -18 -16 -21 13 -53 16 -19 39 -50 52 -68 12 -18 32
-35 45 -38 25 -7 43 3 26 14 -14 10 -110 135 -115 151 -3 9 -9 8 -21 -6z"/>
<path d="M6550 5841 c-38 -22 -57 -26 -122 -26 -52 0 -70 -3 -55 -8 51 -20
199 15 222 53 8 13 8 13 -45 -19z"/>
<path d="M9125 5849 c-11 -16 104 -159 127 -159 25 0 24 2 -47 93 -62 78 -69
84 -80 66z"/>
<path d="M9330 5839 c-12 -21 -9 -25 75 -93 25 -20 28 -26 16 -40 -21 -25 -50
-19 -69 14 -18 32 -32 39 -32 16 0 -18 47 -56 69 -56 28 0 62 30 59 53 -2 11
-23 35 -48 52 -25 17 -45 38 -45 46 0 23 32 22 54 -2 11 -12 24 -20 27 -16 4
4 -1 16 -11 27 -25 27 -81 27 -95 -1z"/>
<path d="M9573 5849 c-29 -11 -30 -19 -2 -12 33 9 49 -21 49 -94 0 -49 3 -63
15 -63 12 0 15 12 14 53 -3 104 -23 136 -76 116z"/>
<path d="M9836 5829 c-21 -16 -26 -29 -26 -63 0 -23 7 -51 15 -63 18 -26 76
-40 102 -24 15 9 13 10 -10 5 -44 -10 -78 27 -75 83 2 51 29 84 56 67 9 -6 18
-21 20 -33 3 -22 26 -29 37 -11 9 15 -41 60 -68 60 -13 0 -36 -9 -51 -21z"/>
<path d="M9710 5760 c0 -73 2 -80 20 -80 18 0 20 7 20 80 0 73 -2 80 -20 80
-18 0 -20 -7 -20 -80z"/>
<path d="M8840 5810 c0 -5 5 -10 10 -10 6 0 10 5 10 10 0 6 -4 10 -10 10 -5 0
-10 -4 -10 -10z"/>
<path d="M2510 5757 c0 -14 5 -29 10 -32 7 -4 8 3 4 22 -9 38 -14 42 -14 10z"/>
<path d="M2562 5760 c0 -14 2 -19 5 -12 2 6 2 18 0 25 -3 6 -5 1 -5 -13z"/>
<path d="M4770 5654 c0 -67 4 -103 10 -99 6 3 10 50 10 106 0 59 -4 99 -10 99
-6 0 -10 -42 -10 -106z"/>
<path d="M590 5584 c-224 -13 -475 -31 -547 -40 l-43 -5 0 -214 0 -214 73 5
c93 7 263 22 402 35 155 16 153 16 228 17 82 2 79 -1 97 162 19 180 23 251 14
259 -5 4 -106 2 -224 -5z m-461 -208 c52 -35 79 -42 205 -51 72 -5 86 -13 86
-53 0 -31 -34 -42 -133 -42 -93 0 -185 13 -228 32 -46 20 -68 116 -31 137 28
17 48 13 101 -23z"/>
<path d="M6716 5582 c-2 -4 -2 -74 1 -155 5 -115 9 -147 20 -147 11 0 13 28
11 152 -2 104 -7 153 -15 155 -6 2 -14 0 -17 -5z"/>
<path d="M6227 5574 c-4 -4 -7 -74 -7 -156 0 -125 2 -150 15 -155 9 -3 18 -3
21 -1 2 3 5 70 5 149 0 106 -4 146 -14 156 -7 7 -16 10 -20 7z"/>
<path d="M6023 5553 c3 -10 16 -52 28 -93 12 -41 25 -84 30 -95 4 -11 13 -39
19 -62 8 -33 15 -43 31 -43 16 0 19 4 14 18 -4 9 -22 71 -40 137 -42 153 -43
155 -67 155 -15 0 -19 -5 -15 -17z"/>
<path d="M5648 5553 c-2 -5 -2 -75 0 -156 3 -130 5 -148 20 -145 13 3 16 16
15 81 -1 42 -1 111 -2 152 -1 58 -4 75 -15 75 -8 0 -16 -3 -18 -7z"/>
<path d="M6955 5550 c-4 -6 -3 -16 3 -22 6 -6 12 -6 17 2 4 6 3 16 -3 22 -6 6
-12 6 -17 -2z"/>
<path d="M9040 5532 c0 -18 4 -32 9 -32 5 0 7 12 5 27 -7 39 -14 42 -14 5z"/>
<path d="M9071 5544 c0 -11 3 -14 6 -6 3 7 2 16 -1 19 -3 4 -6 -2 -5 -13z"/>
<path d="M9090 5530 c0 -16 5 -30 10 -30 6 0 10 14 10 30 0 17 -4 30 -10 30
-5 0 -10 -13 -10 -30z"/>
<path d="M9150 5524 c0 -21 4 -33 10 -29 6 4 7 12 3 18 -3 7 3 3 15 -7 l22
-19 -6 34 c-8 39 -14 50 -14 26 0 -9 -5 -17 -11 -17 -6 0 -9 7 -5 15 3 8 1 15
-4 15 -6 0 -10 -16 -10 -36z"/>
<path d="M9274 5531 c0 -21 7 -36 16 -38 10 -3 11 -2 3 4 -6 4 -13 22 -16 38
-4 27 -5 27 -3 -4z"/>
<path d="M9337 5553 c-3 -5 3 -22 14 -39 10 -16 19 -22 19 -14 -1 23 -26 64
-33 53z"/>
<path d="M9210 5520 c0 -16 5 -30 10 -30 6 0 10 14 10 30 0 17 -4 30 -10 30
-5 0 -10 -13 -10 -30z"/>
<path d="M9392 5520 c0 -19 2 -27 5 -17 2 9 2 25 0 35 -3 9 -5 1 -5 -18z"/>
<path d="M9422 5520 c0 -19 2 -27 5 -17 2 9 2 25 0 35 -3 9 -5 1 -5 -18z"/>
<path d="M10495 5540 c-3 -5 -1 -18 4 -27 9 -16 10 -14 11 10 0 28 -5 34 -15
17z"/>
<path d="M9480 5533 c1 -14 30 -48 30 -34 0 7 -7 19 -15 27 -8 9 -15 12 -15 7z"/>
<path d="M6836 5433 c7 -21 13 -64 14 -95 0 -47 3 -58 16 -58 15 0 16 10 11
74 -6 79 -19 116 -41 116 -11 0 -11 -6 0 -37z"/>
<path d="M6956 5453 c-9 -31 8 -166 22 -171 10 -3 12 17 10 89 -2 59 -7 94
-15 96 -6 2 -14 -4 -17 -14z"/>
<path d="M7184 5454 c3 -9 6 -22 6 -30 0 -8 7 -14 15 -14 18 0 19 14 5 41 -13
23 -35 26 -26 3z"/>
<path d="M7076 5438 c-36 -51 -4 -149 47 -147 12 0 16 3 9 6 -27 10 -43 62
-36 113 7 55 3 61 -20 28z"/>
<path d="M6291 5437 c-9 -11 1 -29 49 -88 64 -79 80 -92 97 -81 7 5 -14 37
-56 89 -83 102 -76 96 -90 80z"/>
<path d="M6610 5441 c0 -5 7 -14 15 -21 12 -10 15 -10 15 3 0 8 -7 17 -15 21
-8 3 -15 2 -15 -3z"/>
<path d="M6522 5418 c2 -15 22 -35 56 -57 40 -26 52 -40 52 -59 0 -21 2 -22
15 -12 8 7 15 18 15 25 0 15 -52 61 -78 69 -10 4 -25 18 -32 31 -17 31 -32 32
-28 3z"/>
<path d="M5712 5416 c6 -29 122 -166 140 -166 10 0 18 3 18 6 0 15 -134 174
-147 174 -8 0 -13 -6 -11 -14z"/>
<path d="M6520 5305 c0 -8 9 -19 20 -25 18 -10 19 -9 8 15 -12 27 -28 33 -28
10z"/>
<path d="M10570 5289 c0 -16 4 -28 9 -25 8 5 3 56 -5 56 -2 0 -4 -14 -4 -31z"/>
<path d="M1867 5273 c-12 -11 -8 -351 4 -358 6 -4 12 -5 14 -3 2 2 7 80 11
173 6 144 5 172 -8 183 -8 6 -18 9 -21 5z"/>
<path d="M2333 5253 c3 -16 17 -68 31 -118 13 -49 32 -117 40 -149 18 -67 30
-86 46 -70 13 13 -64 321 -87 346 -23 26 -36 22 -30 -9z"/>
<path d="M2576 5264 c-10 -26 -7 -342 3 -349 5 -3 12 -1 15 4 9 14 20 306 12
335 -7 29 -21 34 -30 10z"/>
<path d="M3188 5113 c-2 -93 -1 -172 3 -177 22 -27 29 15 29 175 0 139 -3 169
-14 169 -12 0 -15 -32 -18 -167z"/>
<path d="M3346 5049 c2 -55 6 -105 10 -110 26 -43 35 131 9 181 -9 17 -17 30
-20 30 -2 0 -2 -45 1 -101z"/>
<path d="M3485 5117 c-3 -12 -5 -56 -3 -97 2 -59 6 -75 18 -75 12 0 16 16 18
75 3 81 -3 120 -18 120 -5 0 -12 -10 -15 -23z"/>
<path d="M3790 5116 c0 -9 5 -16 10 -16 6 0 10 4 10 9 0 6 -4 13 -10 16 -5 3
-10 -1 -10 -9z"/>
<path d="M1940 5102 c0 -23 137 -192 155 -192 20 0 19 24 -1 41 -9 7 -29 33
-46 58 -35 52 -88 111 -100 111 -4 0 -8 -8 -8 -18z"/>
<path d="M2650 5108 c0 -25 147 -201 161 -192 17 10 9 30 -28 71 -21 23 -53
62 -72 87 -32 44 -61 60 -61 34z"/>
<path d="M3625 5087 c-22 -54 2 -127 42 -127 11 0 10 5 -3 25 -12 18 -15 39
-12 69 7 63 -7 80 -27 33z"/>
<path d="M2947 5094 c-12 -12 6 -34 51 -60 26 -15 57 -39 69 -53 11 -14 24
-23 28 -19 13 13 -17 49 -65 79 -26 16 -51 36 -54 44 -6 16 -18 19 -29 9z"/>
<path d="M6592 5070 c0 -19 2 -27 5 -17 2 9 2 25 0 35 -3 9 -5 1 -5 -18z"/>
<path d="M6330 5060 c0 -5 5 -10 10 -10 6 0 10 5 10 10 0 6 -4 10 -10 10 -5 0
-10 -4 -10 -10z"/>
<path d="M8320 4853 c2 -23 177 -83 240 -82 27 0 15 6 -50 24 -47 13 -107 33
-133 44 -54 23 -57 24 -57 14z"/>
<path d="M9278 4713 c6 -2 18 -2 25 0 6 3 1 5 -13 5 -14 0 -19 -2 -12 -5z"/>
<path d="M9328 4713 c6 -2 18 -2 25 0 6 3 1 5 -13 5 -14 0 -19 -2 -12 -5z"/>
<path d="M9408 4713 c6 -2 18 -2 25 0 6 3 1 5 -13 5 -14 0 -19 -2 -12 -5z"/>
<path d="M9498 4708 c-13 -3 51 -6 142 -5 174 0 168 5 -12 9 -59 2 -118 0
-130 -4z"/>
<path d="M9848 4713 c7 -3 16 -2 19 1 4 3 -2 6 -13 5 -11 0 -14 -3 -6 -6z"/>
<path d="M7931 4684 c0 -11 3 -14 6 -6 3 7 2 16 -1 19 -3 4 -6 -2 -5 -13z"/>
<path d="M10520 4593 c-18 -43 -39 -89 -47 -101 -8 -13 -13 -26 -11 -28 8 -7
87 140 94 174 11 53 -2 37 -36 -45z"/>
<path d="M7955 4635 c7 -36 85 -167 125 -212 30 -34 68 -58 77 -49 6 6 -22 44
-92 125 -27 31 -65 82 -83 112 -27 44 -32 48 -27 24z"/>
<path d="M8908 4600 c-13 -3 -25 -15 -27 -25 -5 -26 -32 -45 -53 -39 -10 3
-26 1 -35 -5 -22 -13 -11 -15 61 -11 30 1 46 -2 42 -8 -3 -5 1 -12 8 -15 9 -4
17 1 19 11 3 12 5 9 6 -7 1 -16 5 -21 16 -17 27 10 16 -3 -16 -20 -26 -13 -33
-14 -40 -2 -7 10 -9 10 -9 -3 0 -17 29 -60 30 -44 1 6 5 1 10 -10 8 -17 9 -16
9 9 1 24 3 27 16 16 9 -7 13 -22 10 -34 -3 -12 -2 -15 1 -7 5 11 8 11 15 0 7
-11 9 -11 9 3 0 9 6 19 13 21 6 3 3 6 -8 7 -18 1 -18 2 3 11 15 6 30 5 43 -1
13 -7 19 -7 19 0 0 5 4 10 9 10 4 0 6 -12 3 -27 -5 -25 -3 -26 10 -15 13 10
17 10 21 0 4 -9 6 -7 6 4 1 14 6 15 36 7 20 -6 44 -8 53 -5 10 3 42 0 72 -8
30 -8 59 -12 64 -9 5 4 6 1 2 -5 -4 -7 -2 -12 3 -12 6 0 10 -5 9 -12 -2 -6 6
-13 17 -15 16 -3 17 -2 5 6 -11 8 -12 11 -2 11 7 0 11 4 7 9 -10 17 15 23 30
7 9 -8 23 -12 31 -9 13 5 13 8 2 15 -9 7 -8 8 5 4 10 -3 21 -6 23 -6 3 0 2 -5
-2 -12 -5 -8 0 -9 14 -6 13 4 22 1 22 -5 0 -7 7 -4 14 6 11 14 18 16 42 7 23
-9 31 -8 40 5 13 17 59 18 82 2 8 -6 12 -5 12 3 0 9 12 10 43 6 72 -10 226
-19 241 -13 10 4 12 15 7 38 -5 26 -13 35 -38 41 -18 5 -35 13 -38 18 -3 6
-21 10 -40 10 -19 0 -40 6 -47 14 -10 10 -18 11 -37 2 -18 -8 -25 -8 -28 1 -3
7 -29 17 -59 24 -30 7 -54 16 -54 20 0 8 -30 16 -100 25 -25 4 -52 7 -60 9
-72 11 -126 15 -260 20 -264 10 -278 10 -302 5z m68 -88 c1 -7 0 -8 -3 -2 -2
5 -9 8 -14 4 -5 -3 -9 0 -9 6 0 15 23 7 26 -8z m88 -18 c12 -5 13 -10 5 -26
-9 -17 -13 -18 -20 -7 -9 15 -12 39 -5 39 2 0 11 -3 20 -6z"/>
<path d="M8388 4575 c-50 -10 -98 -39 -86 -50 2 -3 22 0 43 6 22 6 58 13 80
15 64 6 193 28 199 34 4 5 -77 3 -124 -2 -8 -1 -24 1 -35 4 -11 3 -45 0 -77
-7z"/>
<path d="M8830 4580 c-12 -8 -9 -10 13 -10 15 0 27 5 27 10 0 13 -20 13 -40 0z"/>
<path d="M8658 4533 c7 -3 16 -2 19 1 4 3 -2 6 -13 5 -11 0 -14 -3 -6 -6z"/>
<path d="M10271 4464 c-22 -26 -41 -52 -41 -58 0 -6 14 5 30 24 17 19 37 43
46 53 9 10 14 21 11 23 -2 3 -23 -16 -46 -42z"/>
<path d="M8513 4463 c9 -2 25 -2 35 0 9 3 1 5 -18 5 -19 0 -27 -2 -17 -5z"/>
<path d="M5581 4455 c7 -6 223 -44 228 -39 5 5 -8 8 -110 28 -87 16 -126 20
-118 11z"/>
<path d="M7025 4430 c-18 -8 -18 -9 5 -9 14 0 32 4 40 9 12 8 12 10 -5 9 -11
0 -29 -4 -40 -9z"/>
<path d="M8841 4424 c0 -11 3 -14 6 -6 3 7 2 16 -1 19 -3 4 -6 -2 -5 -13z"/>
<path d="M10395 4430 c-3 -5 -1 -10 4 -10 6 0 11 5 11 10 0 6 -2 10 -4 10 -3
0 -8 -4 -11 -10z"/>
<path d="M7711 4374 c-12 -19 -21 -38 -21 -40 0 -3 -21 -30 -47 -60 -55 -65
-111 -100 -175 -109 -45 -7 -47 -6 -62 24 -9 17 -22 31 -30 31 -7 0 -34 11
-60 25 -26 14 -59 25 -74 25 -15 0 -45 5 -67 12 -22 6 -51 10 -64 10 -13 -1
-29 2 -36 8 -7 5 -35 11 -63 12 -29 2 -52 6 -52 11 0 4 -63 6 -141 4 -77 -2
-142 0 -145 4 -2 5 -11 6 -19 3 -8 -4 -13 -10 -10 -14 3 -5 -3 -15 -13 -22
-22 -15 -25 -48 -5 -48 16 0 17 -12 1 -28 -8 -8 -2 -19 27 -46 32 -28 37 -37
27 -48 -6 -8 -9 -18 -5 -21 3 -4 8 -21 10 -39 4 -40 20 -60 42 -50 26 12 44 8
78 -16 36 -26 65 -28 86 -7 13 12 17 12 27 1 9 -11 32 -13 108 -9 53 3 101 9
107 14 5 5 25 9 45 9 19 0 49 9 66 19 64 39 173 36 157 -5 -9 -25 43 -16 78
14 43 35 97 95 129 141 14 20 40 56 59 81 18 25 42 65 53 90 11 25 22 48 25
53 2 4 0 7 -5 7 -6 0 -19 -16 -31 -36z"/>
<path d="M8873 4395 c-3 -9 -3 -18 -1 -21 3 -3 8 4 11 16 6 23 -1 27 -10 5z"/>
<path d="M7821 4288 c-12 -35 -25 -72 -28 -83 -5 -19 -5 -19 10 1 24 32 58
127 48 137 -4 4 -18 -20 -30 -55z"/>
<path d="M4929 4244 c10 -35 74 -161 96 -189 12 -15 18 -17 24 -7 5 9 15 1 34
-27 15 -22 50 -59 79 -81 51 -41 52 -41 125 -38 40 2 73 6 73 11 0 4 -7 7 -15
7 -27 0 -139 51 -165 75 -14 13 -37 27 -51 30 -15 4 -39 20 -54 35 -16 16 -32
27 -37 24 -5 -3 -15 10 -22 28 -13 31 -79 144 -90 156 -3 2 -2 -8 3 -24z"/>
<path d="M5754 4044 c-35 -24 -39 -25 -110 -13 -78 12 -124 7 -124 -15 0 -18
51 -30 90 -21 26 6 30 4 30 -14 0 -22 14 -28 25 -11 3 6 14 10 23 10 11 -1 6
-7 -13 -17 -40 -22 -67 -23 -72 -4 -3 13 -13 16 -39 13 -18 -2 -31 -8 -28 -14
3 -5 0 -15 -6 -23 -8 -10 -9 -15 -2 -15 6 0 14 5 17 10 5 8 11 7 21 -1 8 -6
23 -9 34 -6 11 3 23 1 26 -5 4 -7 61 -8 168 -3 207 9 218 11 228 29 5 9 16 16
25 16 13 0 13 3 3 15 -10 12 -10 15 4 15 9 0 16 5 16 10 0 16 -30 12 -36 -5
-4 -8 -12 -15 -20 -15 -8 0 -14 -4 -14 -10 0 -5 -12 -10 -27 -10 l-28 1 23 18
c40 34 22 71 -34 71 -18 0 -35 4 -38 8 -3 5 -28 9 -55 10 -38 1 -59 -5 -87
-24z"/>
<path d="M5708 4043 c7 -3 16 -2 19 1 4 3 -2 6 -13 5 -11 0 -14 -3 -6 -6z"/>
<path d="M5418 3903 c7 -3 16 -2 19 1 4 3 -2 6 -13 5 -11 0 -14 -3 -6 -6z"/>
<path d="M912 3828 c-7 -7 -12 -22 -12 -35 0 -18 6 -23 25 -23 18 0 28 -8 36
-27 6 -16 15 -36 20 -45 11 -22 1 -23 -38 -3 -17 9 -33 25 -36 36 -7 26 -27
16 -27 -13 0 -16 -5 -19 -21 -15 -20 5 -21 3 -16 -29 8 -48 51 -140 84 -179
16 -17 34 -40 41 -51 14 -22 17 -29 -32 79 -14 32 -26 62 -26 67 0 17 18 11
35 -12 17 -23 17 -23 10 9 -5 27 -4 32 9 27 10 -4 19 3 27 20 18 38 54 35 76
-6 9 -18 16 -36 15 -40 -2 -10 123 -129 195 -185 119 -92 159 -113 276 -138
98 -22 210 -15 259 15 18 11 51 20 73 20 47 1 176 23 192 33 7 4 100 8 207 9
118 0 196 5 196 11 0 5 11 6 26 3 14 -4 109 -7 212 -7 126 0 216 -5 277 -16
102 -18 134 -21 331 -27 110 -4 153 -10 195 -25 74 -29 97 -27 136 11 28 27
47 34 116 46 45 8 118 15 162 16 44 1 87 5 95 11 8 5 29 15 45 21 39 13 165
96 165 108 0 5 8 15 17 22 40 28 3 21 -57 -12 -114 -62 -148 -75 -212 -81 -55
-5 -65 -3 -81 15 -10 10 -19 37 -21 58 -4 43 -46 89 -93 100 -15 4 -36 16 -47
26 -11 10 -30 18 -42 18 -12 0 -27 7 -34 15 -22 27 -91 52 -175 64 -44 6 -233
16 -420 21 -187 6 -439 17 -560 25 -122 9 -361 16 -538 16 -299 0 -319 -1
-355 -20 -20 -11 -57 -22 -82 -25 -110 -13 -130 -19 -159 -47 -17 -16 -34 -29
-38 -29 -4 0 -16 -9 -28 -20 -21 -20 -37 -26 -97 -37 -23 -4 -42 10 -148 116
-66 67 -126 121 -133 121 -7 0 -18 -5 -25 -12z"/>
<path d="M3513 3803 c15 -2 39 -2 55 0 15 2 2 4 -28 4 -30 0 -43 -2 -27 -4z"/>
<path d="M3448 3793 c7 -3 16 -2 19 1 4 3 -2 6 -13 5 -11 0 -14 -3 -6 -6z"/>
<path d="M1037 3523 c-2 -5 0 -21 4 -38 3 -16 7 -22 8 -12 0 10 5 16 10 13 5
-3 7 -15 4 -26 -3 -11 -1 -20 5 -20 6 0 15 -15 22 -32 13 -40 43 -63 93 -72
34 -6 37 -5 37 17 0 18 -19 40 -69 83 -39 32 -70 65 -70 72 -1 9 -8 11 -22 7
-15 -5 -19 -4 -15 4 4 6 5 11 2 11 -3 0 -7 -3 -9 -7z"/>
<path d="M1070 3370 c25 -35 71 -73 79 -64 3 3 -2 10 -12 15 -9 6 -17 17 -17
25 0 8 -5 12 -10 9 -6 -3 -14 5 -20 19 -5 14 -17 26 -25 26 -14 0 -13 -5 5
-30z"/>
<path d="M1423 3188 c-4 -44 69 -63 112 -30 23 18 23 19 3 31 -11 7 -41 15
-66 18 -45 5 -48 4 -49 -19z"/>
<path d="M3835 3150 c3 -5 8 -10 11 -10 2 0 4 5 4 10 0 6 -5 10 -11 10 -5 0
-7 -4 -4 -10z"/>
<path d="M8625 1863 c-48 -10 -50 -14 -20 -33 17 -11 57 -23 90 -26 43 -5 54
-9 40 -15 -15 -5 -8 -8 23 -8 24 -1 52 -6 63 -11 10 -6 47 -13 82 -17 l63 -5
-4 40 c-3 26 -10 43 -20 47 -10 4 -73 11 -142 15 -69 5 -132 11 -140 13 -8 3
-24 3 -35 0z m121 -31 c-10 -2 -22 0 -28 6 -6 6 0 7 19 4 21 -5 23 -7 9 -10z"/>
<path d="M9105 1819 c-19 -20 -19 -20 9 -44 16 -14 39 -25 52 -25 13 0 26 -4
29 -10 3 -5 25 -10 48 -10 38 0 39 1 21 15 -17 13 -17 14 -1 15 21 0 25 50 3
50 -7 0 -19 7 -26 15 -19 23 -110 19 -135 -6z"/>
</g>
</svg>
