<?xml version="1.0" standalone="no"?>
<!DOCTYPE svg PUBLIC "-//W3C//DTD SVG 20010904//EN"
 "http://www.w3.org/TR/2001/REC-SVG-20010904/DTD/svg10.dtd">
<svg version="1.0" xmlns="http://www.w3.org/2000/svg"
 width="752.000000pt" height="1013.000000pt" viewBox="0 0 752.000000 1013.000000"
 preserveAspectRatio="xMidYMid meet">

<g transform="translate(0.000000,1013.000000) scale(0.100000,-0.100000)"
fill="#000000" stroke="none">
<path d="M407 9763 c-4 -3 -7 -703 -7 -1555 l0 -1548 1620 0 1620 0 6 27 c9
33 -2 3059 -11 3073 -7 11 -3217 15 -3228 3z m3213 -1548 l0 -1535 -1605 0
-1606 0 3 1535 2 1535 1603 0 1603 0 0 -1535z"/>
<path d="M1888 9278 c-14 -11 -16 -58 -21 -341 -5 -295 -3 -329 12 -348 18
-22 84 -36 125 -25 l26 6 0 348 c0 257 -3 351 -12 360 -16 16 -110 15 -130 0z"/>
<path d="M1204 8855 c-11 -28 10 -38 37 -16 13 11 19 20 12 21 -6 0 -18 3 -27
6 -10 4 -18 0 -22 -11z"/>
<path d="M2610 8618 c0 -15 -5 -39 -10 -54 -11 -29 -6 -44 10 -28 21 21 29 72
14 91 -12 17 -13 16 -14 -9z"/>
<path d="M1843 8523 c9 -2 23 -2 30 0 6 3 -1 5 -18 5 -16 0 -22 -2 -12 -5z"/>
<path d="M1745 8500 c4 -6 27 -10 53 -11 26 -1 58 -5 72 -9 19 -6 8 -9 -42
-10 -105 -4 -106 -4 -99 -67 l6 -48 79 -7 c97 -9 117 -16 51 -18 -27 -1 -61
-5 -75 -10 -21 -6 -17 -9 30 -16 30 -4 47 -10 38 -12 -28 -6 -21 -22 10 -24
75 -5 93 -4 98 3 3 5 -1 9 -8 9 -9 0 -9 3 2 10 8 5 50 10 93 10 59 0 78 3 74
13 -3 8 -25 11 -73 10 -38 -2 -85 1 -104 6 -28 7 -15 9 63 10 125 1 137 7 137
70 0 26 -3 51 -7 55 -4 4 -8 15 -8 24 0 15 -21 17 -198 19 -123 1 -195 -1
-192 -7z m335 -30 c-36 -12 -98 -12 -105 0 -4 6 19 10 62 9 49 -1 61 -3 43 -9z"/>
<path d="M1616 8437 c2 -59 3 -64 15 -44 10 18 3 77 -9 77 -4 0 -7 -15 -6 -33z"/>
<path d="M724 8425 c-7 -18 3 -35 21 -35 21 0 28 19 15 35 -16 19 -29 19 -36
0z"/>
<path d="M3107 8278 c-26 -27 -54 -48 -62 -48 -21 0 -75 -28 -75 -39 0 -19 38
-41 67 -37 41 4 53 13 53 39 0 40 15 51 63 48 41 -2 45 0 49 23 4 22 2 26 -18
26 -13 0 -24 7 -26 18 -4 13 -14 7 -51 -30z"/>
<path d="M2040 8281 c-33 -4 -40 -8 -27 -13 40 -17 133 -6 121 13 -6 10 -22
10 -94 0z"/>
<path d="M1925 8220 c-8 -13 20 -24 40 -16 8 3 15 10 15 16 0 13 -47 13 -55 0z"/>
<path d="M1933 8131 c3 -15 1 -33 -6 -40 -8 -8 -2 -11 25 -11 27 0 38 5 43 19
7 24 -22 61 -48 61 -16 0 -18 -5 -14 -29z"/>
<path d="M1362 8063 c4 -16 2 -19 -13 -16 -11 3 -19 0 -19 -5 0 -24 -39 -34
-70 -19 -37 19 -51 5 -39 -39 7 -25 14 -31 34 -31 14 0 25 3 25 8 0 5 6 9 13
9 7 0 17 10 22 22 6 12 18 23 28 24 36 5 45 13 40 34 -3 11 -10 23 -16 27 -6
4 -8 -2 -5 -14z"/>
<path d="M1390 8070 c0 -11 14 -11 50 0 22 7 21 8 -12 9 -21 1 -38 -3 -38 -9z"/>
<path d="M930 7971 c0 -21 5 -31 16 -31 11 0 14 8 12 27 -4 39 -28 42 -28 4z"/>
<path d="M1563 7988 c2 -7 10 -13 17 -13 7 0 15 6 18 13 2 7 -5 12 -18 12 -13
0 -20 -5 -17 -12z"/>
<path d="M1669 7966 c-17 -17 -162 -29 -269 -23 -23 2 -25 -1 -25 -43 0 -25
-4 -51 -8 -57 -4 -7 -2 -23 4 -35 7 -13 13 -43 14 -68 1 -25 5 -56 8 -70 6
-25 14 -154 26 -415 l6 -140 575 0 575 0 7 205 c3 113 12 291 18 397 7 105 9
199 6 210 -6 17 -28 18 -446 18 -330 1 -443 4 -452 13 -12 12 -31 16 -39 8z
m334 -391 c-3 -9 -8 -14 -10 -11 -3 3 -2 9 2 15 9 16 15 13 8 -4z m-96 -237
c-3 -7 -5 -2 -5 12 0 14 2 19 5 13 2 -7 2 -19 0 -25z"/>
<path d="M1183 7858 c7 -18 21 -34 31 -36 14 -3 16 1 10 25 -7 29 -20 43 -42
43 -9 0 -9 -7 1 -32z"/>
<path d="M1316 7814 c-8 -22 -1 -28 19 -17 14 8 14 11 2 22 -12 9 -16 8 -21
-5z"/>
<path d="M4837 7415 c-8 -87 -3 -105 28 -105 27 0 45 41 45 99 0 61 -9 78 -39
79 -28 1 -28 0 -34 -73z"/>
<path d="M4448 6413 c12 -2 30 -2 40 0 9 3 -1 5 -23 4 -22 0 -30 -2 -17 -4z"/>
<path d="M4964 6403 c-25 -5 -37 -27 -58 -113 -9 -36 -22 -85 -28 -110 -19
-71 -14 -189 7 -169 2 3 11 48 19 101 8 55 27 124 44 164 16 38 32 77 35 87 4
9 11 17 16 17 5 0 11 7 15 15 5 15 -5 17 -50 8z"/>
<path d="M4350 6173 c0 -24 5 -43 10 -43 13 0 13 50 0 70 -7 11 -10 4 -10 -27z"/>
<path d="M5418 6156 c-10 -13 -13 -28 -8 -36 6 -9 12 -6 25 14 22 34 7 54 -17
22z"/>
<path d="M6670 6160 c0 -5 5 -10 11 -10 5 0 7 5 4 10 -3 6 -8 10 -11 10 -2 0
-4 -4 -4 -10z"/>
<path d="M4364 5973 c-6 -5 -14 -55 -18 -113 -8 -123 -47 -406 -62 -454 -5
-15 -8 -16 -13 -5 -8 15 3 433 14 512 4 36 3 47 -8 47 -11 0 -15 -29 -21 -127
-3 -71 -10 -189 -16 -263 -5 -74 -12 -196 -15 -270 -5 -130 -5 -133 10 -95 9
22 19 67 22 99 5 46 8 55 14 38 8 -21 7 -56 -5 -237 -3 -38 -8 -140 -11 -225
-4 -85 -11 -207 -16 -270 -28 -342 -28 -366 -1 -406 8 -12 119 -4 272 19 l85
13 -4 199 c-2 110 -8 205 -13 212 -6 7 -7 35 -3 65 3 29 5 143 5 253 -1 110 3
274 9 365 28 425 32 515 27 536 -10 39 -114 101 -183 108 -32 4 -63 3 -69 -1z"/>
<path d="M5337 5963 c-14 -13 -6 -33 12 -33 14 0 18 5 14 20 -5 21 -15 25 -26
13z"/>
<path d="M6161 5951 c-29 -29 -26 -43 6 -39 18 2 29 10 31 22 6 31 -14 40 -37
17z"/>
<path d="M6326 5934 c-9 -8 -16 -22 -16 -30 0 -17 31 -19 48 -2 17 17 15 48
-2 48 -8 0 -22 -7 -30 -16z"/>
<path d="M5286 5832 c-19 -64 -15 -84 19 -106 43 -28 97 -30 128 -6 48 38 33
82 -41 114 -24 11 -48 28 -53 38 -17 32 -35 19 -53 -40z"/>
<path d="M6837 5863 c-4 -3 -4 -23 -1 -44 6 -34 3 -42 -26 -70 -24 -24 -34
-46 -41 -87 -5 -31 -7 -58 -5 -60 12 -11 66 31 71 56 3 15 10 43 15 62 8 31
14 103 11 138 -1 13 -14 16 -24 5z"/>
<path d="M1841 5846 c-12 -14 -12 -26 -2 -72 7 -30 19 -58 26 -60 7 -3 16 -17
19 -30 4 -16 13 -24 24 -22 13 2 18 -5 20 -31 2 -19 12 -41 24 -51 17 -14 19
-20 9 -38 -18 -34 -47 -24 -52 18 -5 35 -46 40 -58 8 -5 -13 -5 -28 0 -33 5
-7 -3 -10 -27 -7 -19 2 -37 8 -40 13 -3 5 -19 9 -36 9 -24 0 -29 3 -24 18 4
10 -1 7 -13 -8 -26 -32 -19 -40 37 -40 128 -2 286 -45 235 -64 -16 -7 -16 -9
5 -20 30 -16 207 2 242 26 14 9 40 19 58 23 26 5 32 11 32 33 0 15 -4 33 -9
41 -5 8 -5 24 -1 35 10 24 70 247 70 259 0 10 -192 -4 -207 -15 -8 -7 -23 -7
-41 0 -38 13 -46 7 -66 -53 -9 -27 -26 -66 -39 -85 l-22 -35 -3 45 c-2 25 -7
49 -13 55 -19 19 -8 43 26 59 19 9 35 18 35 19 0 1 -24 3 -52 4 -29 1 -73 5
-98 9 -36 5 -49 3 -59 -10z m72 -20 c15 -15 12 -62 -5 -72 -5 -3 -16 0 -25 8
-9 7 -18 12 -20 11 -4 -4 -4 3 2 22 3 8 7 22 10 30 6 19 19 19 38 1z m283 -33
c7 -10 14 -24 14 -32 0 -20 -26 4 -33 29 -6 25 2 26 19 3z m-226 -3 c0 -5 -5
-10 -11 -10 -5 0 -7 5 -4 10 3 6 8 10 11 10 2 0 4 -4 4 -10z"/>
<path d="M4849 5779 c0 -19 -3 -45 -5 -59 -9 -56 -15 -528 -6 -570 9 -45 9
-45 17 -15 5 17 3 95 -3 180 -9 102 -9 169 -3 207 11 66 16 276 7 285 -3 4 -6
-9 -7 -28z"/>
<path d="M6309 5714 c-10 -12 -10 -18 2 -29 12 -12 20 -12 54 0 23 8 32 14 20
15 -11 0 -30 7 -42 15 -18 13 -22 13 -34 -1z"/>
<path d="M6464 5666 c-40 -39 -42 -96 -3 -96 28 0 52 43 44 79 -9 40 -16 43
-41 17z"/>
<path d="M5160 5585 c-14 -37 -14 -38 21 -58 37 -21 47 -16 31 16 -6 12 -12
31 -14 41 -5 30 -27 31 -38 1z"/>
<path d="M6001 5596 c-12 -14 -5 -46 10 -46 12 0 31 39 24 50 -9 14 -21 12
-34 -4z"/>
<path d="M7218 5499 c-20 -11 -24 -44 -7 -55 6 -3 21 3 32 15 19 18 20 23 7
35 -11 11 -20 12 -32 5z"/>
<path d="M6200 5487 c-18 -9 -25 -21 -25 -42 0 -43 21 -37 51 13 27 45 20 52
-26 29z"/>
<path d="M1890 5421 c-8 -5 -26 -12 -40 -15 -19 -6 -21 -5 -10 3 8 6 11 11 7
11 -14 0 -75 -28 -81 -38 -9 -15 32 -100 55 -112 11 -6 24 -22 29 -35 7 -17
14 -22 30 -18 32 8 62 53 58 85 -3 16 0 28 5 28 6 0 7 3 3 8 -4 4 -18 -6 -31
-23 -27 -33 -43 -29 -23 7 7 12 13 34 14 48 1 14 4 33 9 43 8 18 -1 21 -25 8z"/>
<path d="M6540 5395 c-8 -15 -22 -25 -35 -25 -35 0 -77 -48 -73 -84 l3 -31 67
0 c40 0 72 -5 79 -12 9 -9 16 -10 26 -2 19 17 16 47 -7 59 -15 8 -20 21 -20
50 0 21 -5 42 -10 45 -6 4 -8 11 -5 16 4 5 2 9 -3 9 -5 0 -15 -11 -22 -25z"/>
<path d="M5879 5361 c-9 -32 -9 -44 0 -55 15 -18 -8 -68 -43 -91 -18 -12 -26
-31 -35 -86 -17 -90 -7 -104 43 -59 19 18 36 42 38 54 2 16 11 22 36 24 24 2
32 8 32 23 0 24 31 25 65 3 23 -15 26 -14 69 15 24 17 53 31 63 31 23 1 63 34
63 52 0 17 -28 34 -88 54 -26 9 -60 27 -75 40 -22 18 -41 24 -77 24 -27 0 -55
3 -64 6 -11 4 -18 -5 -27 -35z"/>
<path d="M2265 5380 c-3 -5 -1 -10 4 -10 6 0 11 5 11 10 0 6 -2 10 -4 10 -3 0
-8 -4 -11 -10z"/>
<path d="M1676 5335 c-3 -8 -1 -15 4 -15 6 0 10 7 10 15 0 8 -2 15 -4 15 -2 0
-6 -7 -10 -15z"/>
<path d="M6285 5330 c3 -5 13 -10 21 -10 8 0 12 5 9 10 -3 6 -13 10 -21 10 -8
0 -12 -4 -9 -10z"/>
<path d="M1135 5290 c3 -5 1 -10 -4 -10 -20 0 -11 -16 20 -34 17 -10 28 -24
25 -31 -7 -18 66 -85 92 -85 23 0 26 4 36 52 5 21 -1 33 -25 57 -33 34 -59 40
-59 15 0 -11 -5 -14 -16 -10 -9 3 -18 6 -20 6 -3 0 -9 11 -14 25 -5 14 -17 25
-25 25 -9 0 -13 -4 -10 -10z"/>
<path d="M1734 5283 c-22 -69 -23 -69 -89 -52 -22 6 -48 10 -59 10 -10 0 -16
3 -12 6 7 8 -13 33 -26 33 -7 0 -7 -4 -1 -12 6 -7 10 -37 10 -67 l1 -53 -39 6
c-43 7 -47 2 -22 -26 23 -26 10 -32 -26 -14 -29 16 -31 15 -64 -14 -49 -43
-61 -76 -45 -126 l13 -39 73 -9 c64 -7 75 -6 86 9 14 20 12 103 -4 119 -23 23
-8 25 23 3 54 -41 80 -50 130 -48 26 1 85 -6 131 -15 47 -9 95 -14 108 -11 14
4 60 41 104 82 43 42 70 73 59 69 -24 -8 -262 -14 -287 -7 -22 5 -24 23 -4 23
23 0 28 17 11 34 -9 9 -23 36 -31 61 -18 51 -32 64 -40 38z"/>
<path d="M2601 5244 c-30 -8 -56 -16 -58 -18 -2 -1 61 -6 139 -9 79 -4 161 -9
183 -13 35 -5 38 -4 20 7 -11 7 -31 14 -45 16 -86 10 -157 21 -170 26 -8 3
-40 -1 -69 -9z"/>
<path d="M4207 5098 c-9 -37 -17 -104 -33 -283 -24 -279 -33 -365 -47 -457 -7
-49 -10 -88 -5 -88 12 0 30 107 48 300 5 52 16 151 25 220 26 209 33 396 12
308z"/>
<path d="M6455 5090 c-3 -5 1 -10 10 -10 9 0 13 5 10 10 -3 6 -8 10 -10 10 -2
0 -7 -4 -10 -10z"/>
<path d="M5836 5033 c-7 -16 9 -33 29 -32 6 0 5 3 -2 5 -7 3 -10 11 -7 19 3 7
1 16 -4 19 -6 3 -13 -2 -16 -11z"/>
<path d="M6590 5025 c0 -8 5 -15 10 -15 6 0 10 7 10 15 0 8 -4 15 -10 15 -5 0
-10 -7 -10 -15z"/>
<path d="M5933 4993 c-21 -8 -14 -39 11 -51 20 -9 27 -7 41 8 29 32 -8 61 -52
43z"/>
<path d="M2027 4983 c-4 -3 -7 -11 -7 -17 0 -6 5 -5 12 2 6 6 9 14 7 17 -3 3
-9 2 -12 -2z"/>
<path d="M4834 4893 c-11 -90 -11 -256 0 -430 7 -113 12 -143 24 -148 9 -3 22
0 29 8 11 11 11 41 3 167 -6 85 -15 183 -20 216 -6 34 -10 102 -10 152 0 50
-4 93 -9 97 -5 3 -13 -25 -17 -62z"/>
<path d="M1963 4940 c-32 -7 -74 -35 -120 -79 -12 -12 -27 -21 -32 -21 -5 0
-22 -11 -38 -24 -15 -13 -39 -27 -53 -31 -14 -4 -31 -12 -39 -18 -7 -7 -50
-24 -95 -38 -66 -22 -75 -28 -47 -28 49 -1 146 26 215 61 53 27 197 120 249
161 33 27 21 32 -40 17z"/>
<path d="M1590 4898 c-20 -34 -18 -48 7 -48 10 0 13 -6 9 -16 -5 -14 -1 -16
32 -12 37 5 172 75 172 89 0 8 -88 19 -153 19 -43 0 -49 -3 -67 -32z"/>
<path d="M6483 4877 c-39 -43 -47 -68 -32 -101 12 -26 33 -34 44 -16 3 6 17
10 30 10 36 0 55 10 55 30 0 10 7 26 16 34 14 15 14 16 -3 16 -22 1 -47 19
-56 43 -9 25 -20 21 -54 -16z"/>
<path d="M2017 4864 c-7 -8 4 -37 17 -46 14 -10 46 -10 45 0 0 11 -56 52 -62
46z"/>
<path d="M6635 4861 c-2 -4 0 -12 4 -19 7 -12 51 -5 51 8 0 10 -49 19 -55 11z"/>
<path d="M4638 4844 c-5 -4 -8 -28 -8 -53 1 -36 3 -42 11 -28 11 19 8 93 -3
81z"/>
<path d="M6580 4768 c0 -7 4 -19 8 -26 7 -10 12 -8 26 7 15 17 15 19 1 25 -25
9 -35 7 -35 -6z"/>
<path d="M6891 4741 c-39 -35 -52 -89 -26 -115 22 -22 13 -44 -22 -52 -46 -11
-73 -32 -73 -59 0 -13 -8 -40 -17 -60 -10 -22 -13 -39 -7 -44 5 -5 42 -11 82
-14 62 -5 74 -3 79 11 9 24 22 30 53 25 37 -5 43 7 29 62 -10 40 -9 48 7 66
11 13 19 40 22 77 4 61 -4 75 -69 116 -24 15 -27 15 -58 -13z m-51 -277 c0 -8
-7 -14 -15 -14 -15 0 -21 21 -9 33 10 9 24 -2 24 -19z"/>
<path d="M2551 4617 c-18 -52 -32 -107 -32 -123 -1 -16 -2 -126 -3 -244 -1
-182 2 -223 17 -265 20 -58 22 -106 5 -123 -9 -9 -8 -15 5 -24 10 -7 19 -22
21 -33 9 -45 108 -420 113 -428 3 -5 9 -23 13 -41 5 -17 17 -61 28 -98 14 -51
16 -68 7 -68 -7 0 -16 8 -20 17 -5 14 -10 10 -25 -22 l-18 -40 -1 38 c-1 26
-5 36 -13 31 -8 -5 -9 1 -5 22 3 17 1 36 -4 44 -8 11 -8 8 -3 -10 3 -14 4 -22
0 -19 -6 6 -35 121 -56 224 -6 28 -15 66 -20 85 -18 69 -39 166 -46 213 -3 26
-9 45 -12 42 -10 -10 -1 -155 13 -220 87 -397 127 -528 156 -509 6 3 8 13 5
21 -3 8 0 23 7 33 13 18 14 18 39 -5 14 -13 34 -46 44 -72 9 -26 21 -53 25
-58 5 -6 37 -69 73 -140 68 -136 125 -240 154 -284 10 -14 24 -39 32 -55 29
-58 48 -47 82 49 15 40 16 55 7 78 -6 15 -15 27 -19 27 -11 0 -114 158 -191
294 -38 67 -74 128 -79 136 -15 23 -105 210 -119 250 -7 19 -17 44 -21 55 -5
11 -14 38 -21 60 -6 22 -15 45 -19 50 -3 6 -12 28 -18 50 -6 22 -17 58 -24 80
-6 22 -11 44 -10 48 1 5 -2 25 -7 45 -23 87 -32 129 -35 167 -2 22 -7 60 -10
85 -11 71 -14 122 -21 325 -6 188 -5 191 23 293 16 56 26 105 22 107 -5 3 -22
-37 -39 -88z"/>
<path d="M6437 4703 c-13 -12 -7 -33 8 -33 8 0 15 9 15 20 0 20 -11 26 -23 13z"/>
<path d="M4633 4643 c-7 -30 -13 -121 -12 -215 0 -156 10 -238 29 -238 17 0
23 114 11 209 -7 53 -13 141 -14 196 l-2 100 -12 -52z"/>
<path d="M2037 4617 c-11 -17 -29 -27 -56 -32 -21 -3 -47 -12 -57 -20 -16 -11
-16 -17 -6 -39 10 -23 17 -26 62 -26 45 0 55 4 81 32 34 37 36 57 11 88 l-18
22 -17 -25z"/>
<path d="M7088 4589 c-15 -9 0 -60 19 -66 16 -6 53 33 53 55 0 14 -8 19 -30
19 -16 0 -35 -4 -42 -8z"/>
<path d="M6240 4546 c0 -9 5 -16 10 -16 6 0 10 4 10 9 0 6 -4 13 -10 16 -5 3
-10 -1 -10 -9z"/>
<path d="M6368 4543 c-19 -22 -27 -46 -30 -96 -2 -31 -8 -42 -30 -53 -33 -17
-70 -18 -86 -2 -9 9 -16 8 -30 -5 -13 -12 -37 -17 -78 -17 -65 0 -92 -15 -112
-64 -14 -32 -7 -112 12 -135 6 -8 15 -28 21 -45 6 -20 18 -32 31 -34 21 -3 22
0 17 61 -5 57 -2 71 22 115 19 35 37 54 58 61 38 14 74 14 82 1 18 -29 126 -2
167 42 20 22 35 28 68 28 49 0 80 -14 80 -38 1 -57 114 -100 139 -53 6 10 8
21 5 24 -3 3 -2 11 2 18 4 7 9 23 10 35 3 26 -28 36 -121 38 -66 1 -63 -3 -53
78 3 21 3 40 1 42 -7 7 -83 -73 -83 -87 0 -21 -22 -37 -52 -37 -15 0 -28 2
-28 5 0 8 23 47 39 67 18 23 7 68 -18 68 -10 0 -25 -8 -33 -17z"/>
<path d="M7036 4413 c5 -30 3 -43 -5 -43 -8 0 -7 -5 3 -15 18 -18 56 -20 56
-2 0 6 6 24 14 39 13 25 13 27 -13 34 -14 4 -30 8 -36 8 -5 1 -13 6 -18 11 -4
6 -4 -9 -1 -32z"/>
<path d="M2060 4275 c-25 -13 -62 -27 -83 -30 -28 -5 -44 -16 -62 -43 -14 -20
-25 -43 -25 -52 0 -8 -16 -40 -35 -70 -34 -52 -35 -57 -35 -155 0 -143 -34
-514 -60 -663 -6 -34 -10 -79 -10 -100 2 -73 -18 -297 -28 -327 -6 -16 -13
-68 -15 -115 -5 -84 -5 -85 8 -35 20 82 48 237 51 285 8 164 18 260 26 252 5
-5 8 -26 7 -48 -5 -122 0 -178 15 -186 9 -5 16 -23 17 -41 1 -30 1 -31 8 -7
l8 25 5 -25 c5 -26 8 -22 23 25 3 10 16 15 37 14 l33 -1 -30 -13 c-16 -7 -31
-19 -31 -27 -1 -7 -2 -19 -3 -25 0 -7 -8 -13 -17 -13 -9 0 -14 -6 -11 -13 5
-13 0 -45 -28 -177 -9 -41 -17 -82 -19 -90 -1 -9 -6 -22 -11 -30 -5 -8 -8 -27
-6 -42 1 -16 -4 -41 -12 -58 -12 -23 -13 -37 -5 -62 6 -18 13 -39 15 -47 3
-10 11 -7 33 14 19 18 36 26 49 22 11 -3 25 1 32 9 6 8 19 14 28 14 21 -1 55
-46 41 -55 -6 -4 -8 -16 -4 -28 4 -12 6 -61 5 -109 l-1 -87 35 -7 c20 -3 52
-4 72 -1 41 7 77 39 61 55 -6 6 -4 21 7 43 13 25 15 37 6 50 -6 10 -7 21 -2
24 12 7 11 77 -1 92 -7 8 -3 16 12 25 26 16 73 95 65 108 -3 5 -10 46 -15 90
-9 82 0 138 20 125 6 -4 10 7 10 27 1 27 2 30 11 16 5 -10 9 -26 7 -35 -2 -11
8 -22 25 -31 30 -14 36 -32 11 -32 -12 0 -15 -11 -13 -56 2 -44 -1 -59 -14
-69 -13 -9 -16 -21 -11 -49 3 -21 1 -43 -5 -50 -13 -15 -6 -183 8 -234 5 -17
7 -41 4 -52 -5 -20 -2 -21 38 -18 l44 3 -3 80 c-2 44 -8 84 -13 89 -5 6 -9 34
-9 62 0 29 -4 56 -10 59 -15 9 -12 45 5 51 8 4 15 13 15 21 0 8 -7 21 -15 29
-8 9 -15 29 -15 45 l0 29 35 -22 c27 -18 34 -28 30 -43 -4 -11 -7 -27 -7 -35
0 -8 -5 -20 -9 -26 -13 -16 -14 -95 -2 -102 6 -4 13 -32 16 -62 3 -30 11 -79
18 -107 11 -47 16 -53 38 -53 55 0 56 8 27 131 -15 63 -30 129 -33 147 -9 54
-22 46 -17 -10 3 -38 2 -47 -5 -33 -13 28 -13 95 0 95 5 0 7 5 3 12 -5 7 -9
42 -10 78 -4 132 -13 216 -24 245 -6 17 -16 80 -20 140 -10 131 -35 406 -50
560 -6 61 -15 166 -20 235 -7 107 -12 134 -38 190 -16 36 -39 97 -51 137 -12
40 -26 75 -31 78 -6 3 -10 17 -10 31 0 27 -16 64 -28 64 -4 -1 -27 -12 -52
-25z m-253 -967 c-2 -13 -4 -5 -4 17 -1 22 1 32 4 23 2 -10 2 -28 0 -40z m-20
-50 c-3 -8 -6 -5 -6 6 -1 11 2 17 5 13 3 -3 4 -12 1 -19z m30 -30 c-2 -13 -4
-5 -4 17 -1 22 1 32 4 23 2 -10 2 -28 0 -40z m488 -332 c-4 -35 -2 -51 7 -57
7 -4 10 -10 7 -13 -14 -14 -27 16 -34 79 -7 64 -6 68 10 55 14 -11 16 -24 10
-64z m-355 49 c0 -8 -4 -15 -10 -15 -5 0 -10 7 -10 15 0 8 5 15 10 15 6 0 10
-7 10 -15z m220 -44 c0 -23 -16 -36 -25 -21 -9 14 1 40 15 40 5 0 10 -9 10
-19z m0 -117 c0 -26 -17 -33 -26 -9 -8 20 3 48 16 40 5 -3 10 -17 10 -31z m60
15 c0 -5 -4 -9 -10 -9 -5 0 -10 7 -10 16 0 8 5 12 10 9 6 -3 10 -10 10 -16z
m189 -496 c1 -13 -3 -23 -9 -23 -5 0 -10 19 -9 43 0 32 2 37 9 22 5 -11 9 -30
9 -42z"/>
<path d="M4880 4259 c0 -5 5 -7 10 -4 6 3 10 8 10 11 0 2 -4 4 -10 4 -5 0 -10
-5 -10 -11z"/>
<path d="M6115 4193 c-30 -45 -31 -55 -7 -76 21 -19 32 -13 32 18 0 12 9 30
20 40 24 22 26 41 4 49 -22 9 -21 10 -49 -31z"/>
<path d="M7474 4169 c-7 -12 12 -29 34 -29 6 0 12 9 12 20 0 22 -34 28 -46 9z"/>
<path d="M5810 4109 c-41 -21 -86 -52 -100 -68 -14 -16 -38 -31 -55 -34 -81
-13 -182 -40 -203 -53 l-22 -15 22 -32 c13 -17 33 -40 46 -50 12 -10 22 -25
22 -33 0 -8 9 -14 21 -14 12 0 34 -13 49 -30 37 -40 105 -43 145 -6 15 14 24
30 20 36 -3 5 -3 19 0 30 9 27 55 28 55 1 0 -11 -4 -23 -10 -26 -5 -3 -10 -17
-10 -30 0 -27 46 -69 67 -60 18 6 73 -22 73 -38 -1 -29 -18 -40 -54 -34 -48 8
-66 -11 -66 -69 0 -32 6 -50 22 -66 39 -39 34 -56 -17 -64 -25 -3 -48 -10 -51
-15 -3 -5 -20 2 -38 16 -18 14 -42 25 -53 25 -12 0 -28 11 -37 25 -9 14 -25
25 -36 25 -29 0 -49 26 -44 58 6 36 -8 48 -66 57 -43 6 -47 4 -83 -33 -41 -42
-46 -42 -139 -17 -33 9 -46 -12 -28 -45 14 -26 0 -47 -47 -67 -56 -23 -37 -43
41 -43 23 0 50 -6 61 -14 11 -7 36 -16 56 -20 42 -7 89 -40 89 -62 0 -16 14
-18 39 -4 14 7 30 4 60 -11 41 -20 50 -32 31 -44 -12 -7 -3 -94 10 -108 4 -4
19 -3 33 4 22 10 34 8 79 -14 74 -35 85 -38 112 -25 21 9 36 5 101 -27 85 -41
95 -39 95 22 0 33 10 108 36 263 8 47 14 110 13 140 l0 55 -17 -38 c-10 -21
-21 -35 -25 -31 -4 4 -7 2 -7 -4 0 -7 -7 -12 -14 -12 -24 0 -66 -45 -66 -71 0
-18 3 -20 12 -11 7 7 27 12 45 12 l33 0 0 -55 c0 -41 -4 -55 -14 -55 -8 0 -18
5 -21 10 -3 6 -16 10 -28 10 -12 0 -29 5 -37 10 -12 8 -13 13 -2 30 7 11 9 20
5 20 -7 0 -10 55 -4 63 2 1 5 13 7 27 3 13 11 28 19 33 9 5 15 23 15 45 0 43
27 88 64 107 22 12 27 12 34 -2 8 -13 10 -11 15 9 6 23 27 190 27 216 0 7 11
23 24 35 l24 23 -18 39 -18 40 -1 -36 c-1 -27 -30 -109 -46 -127 -1 -2 -29 6
-61 18 -38 13 -70 18 -91 14 -32 -6 -46 7 -22 21 6 4 8 13 5 21 -3 8 -1 14 4
14 6 0 10 25 10 55 0 41 5 61 19 77 23 24 17 48 -13 47 -11 -1 -55 -19 -96
-40z m-97 -792 c8 -22 93 -58 120 -52 19 5 29 1 41 -16 9 -13 16 -32 16 -43 0
-17 -5 -18 -46 -12 -25 3 -60 13 -77 21 -18 8 -52 21 -77 28 -35 10 -46 18
-48 37 -6 37 58 71 71 37z"/>
<path d="M5011 4081 c-17 -18 -31 -38 -31 -45 0 -22 51 -50 95 -52 22 -2 61
-5 87 -8 l48 -5 -5 35 c-6 47 -13 57 -40 52 -14 -3 -26 2 -33 12 -6 10 -21 20
-34 22 -13 3 -31 9 -40 13 -12 5 -26 -3 -47 -24z"/>
<path d="M4057 4037 c3 -12 10 -28 16 -34 11 -15 53 -17 62 -3 13 21 54 10 67
-17 9 -20 22 -29 43 -31 52 -5 55 -8 45 -43 -6 -21 -6 -39 2 -53 6 -11 12 -39
12 -60 1 -29 5 -40 18 -42 22 -3 51 -32 66 -67 18 -43 15 -47 -32 -47 -25 0
-48 -5 -51 -10 -3 -6 -23 -8 -43 -5 -20 2 -60 7 -88 10 -28 2 -67 12 -87 20
-20 8 -48 15 -62 15 -15 0 -35 5 -46 11 -16 8 -25 7 -39 -6 -33 -30 -28 -56
20 -106 76 -79 180 -114 313 -107 104 6 173 34 190 78 6 16 15 30 19 30 15 0
8 37 -12 60 -26 30 -11 60 31 60 27 0 30 3 28 28 -1 15 1 44 6 65 11 58 -1
104 -30 111 -30 8 -33 36 -5 54 23 14 26 44 6 61 -16 13 -63 5 -91 -15 -19
-15 -19 -16 -1 -29 10 -7 15 -18 11 -24 -9 -16 -25 -13 -25 5 0 8 -6 21 -13
28 -20 21 -134 56 -180 56 -24 0 -48 5 -54 11 -7 7 -32 13 -56 15 -42 3 -45 2
-40 -19z"/>
<path d="M5342 4053 c-7 -3 -32 -23 -54 -44 -23 -21 -45 -39 -50 -39 -5 0 -25
-17 -44 -37 l-34 -38 -31 18 c-34 19 -59 22 -59 7 0 -17 -3 -25 -17 -39 -12
-11 -11 -17 2 -38 23 -35 16 -78 -13 -79 -13 -1 -35 -12 -48 -26 -24 -23 -24
-25 -18 -157 7 -128 8 -133 31 -142 39 -15 51 -11 67 23 18 36 20 64 6 73 -21
13 -9 42 23 56 24 11 35 24 46 58 11 34 21 46 47 57 19 8 34 21 34 28 0 8 13
17 29 21 24 5 30 12 33 38 2 25 8 33 29 37 21 4 25 9 19 24 -10 30 0 63 23 73
20 9 22 17 19 72 -4 60 -9 67 -40 54z"/>
<path d="M6430 4050 c0 -7 9 -14 20 -17 23 -6 28 -33 6 -33 -22 0 -26 -27 -7
-44 42 -38 131 -60 256 -62 129 -2 242 9 258 25 7 7 -2 22 -28 46 -40 36 -42
37 -75 37 -40 0 -43 -1 -29 -18 10 -13 10 -17 -2 -25 -23 -15 -44 -5 -44 21 0
22 -6 26 -60 37 -33 6 -98 17 -145 23 -47 6 -100 13 -117 16 -21 3 -33 1 -33
-6z"/>
<path d="M3600 4005 c0 -9 6 -12 15 -9 8 4 15 10 15 15 0 5 -7 9 -15 9 -8 0
-15 -7 -15 -15z"/>
<path d="M5373 3814 c-9 -4 -9 -9 -2 -17 5 -7 16 -21 23 -31 10 -14 20 -17 40
-12 29 7 44 32 29 47 -12 12 -73 20 -90 13z"/>
<path d="M4005 3303 c-37 -5 -85 -23 -85 -32 0 -11 71 -39 130 -50 30 -6 109
-12 174 -13 130 -3 158 8 84 34 -24 9 -74 27 -113 42 -66 25 -112 29 -190 19z"/>
<path d="M5291 3252 c-11 -20 -144 -89 -181 -94 -16 -2 -24 2 -22 10 4 21 -26
82 -41 82 -8 0 -17 -9 -20 -20 -6 -24 2 -60 14 -60 5 0 15 -24 24 -54 16 -53
63 -116 88 -116 6 0 28 5 48 10 21 6 66 12 100 14 35 2 91 12 123 21 56 16 62
16 88 1 21 -13 40 -15 79 -10 l52 7 -34 17 c-19 9 -58 20 -88 23 -32 4 -75 19
-107 37 -30 16 -61 30 -70 30 -12 0 -14 7 -9 33 4 17 12 38 17 45 7 8 7 17 -2
27 -17 20 -47 19 -59 -3z"/>
<path d="M5365 3229 c-5 -14 -1 -25 12 -34 23 -18 25 -18 47 -2 13 10 16 20
12 35 -10 30 -62 31 -71 1z"/>
<path d="M2660 3034 c0 -8 5 -12 10 -9 6 4 8 11 5 16 -9 14 -15 11 -15 -7z"/>
<path d="M5740 3020 c-13 -8 -13 -11 1 -25 13 -14 17 -14 27 -2 16 19 -7 40
-28 27z"/>
<path d="M2730 2980 c0 -20 -2 -22 -11 -10 -8 11 -9 4 -6 -30 5 -50 73 -231
91 -242 38 -25 34 8 -15 109 -22 47 -38 90 -35 96 2 7 8 2 11 -10 4 -13 11
-23 16 -23 5 0 9 -6 9 -14 0 -8 13 -43 30 -78 38 -81 39 -62 1 31 -54 130 -90
199 -91 171z"/>
<path d="M5936 2942 c-3 -4 -1 -25 4 -46 5 -21 7 -56 5 -78 -3 -33 -1 -38 10
-28 8 7 20 8 27 4 18 -12 121 -14 138 -4 12 8 9 15 -20 37 -19 15 -57 48 -83
75 -45 46 -70 58 -81 40z m74 -112 c0 -5 -4 -10 -10 -10 -5 0 -10 5 -10 10 0
6 5 10 10 10 6 0 10 -4 10 -10z"/>
<path d="M7225 2870 c-9 -15 20 -57 44 -65 24 -7 61 10 61 30 0 33 -88 62
-105 35z"/>
<path d="M6200 2762 c0 -5 9 -17 20 -27 16 -14 20 -15 20 -4 0 16 -19 39 -32
39 -4 0 -8 -4 -8 -8z"/>
<path d="M6547 2731 c35 -16 213 -26 213 -12 0 7 -24 11 -69 11 -37 0 -90 2
-117 5 -37 4 -44 3 -27 -4z"/>
<path d="M7114 2705 c-4 -14 -3 -29 0 -33 9 -8 26 18 26 41 0 26 -19 20 -26
-8z"/>
<path d="M6708 2673 c-27 -7 -21 -23 7 -23 14 0 25 4 25 9 0 13 -12 18 -32 14z"/>
<path d="M6813 2625 c-23 -14 -63 -28 -90 -31 -26 -4 -55 -10 -63 -15 -15 -8
-13 -9 60 -35 12 -5 12 -8 -4 -20 -24 -17 -52 -10 -87 22 -14 13 -28 22 -32
18 -12 -12 6 -35 50 -65 l45 -31 21 20 c12 11 36 27 52 35 27 15 28 16 8 17
-13 0 -23 4 -23 10 0 12 53 40 77 40 32 0 48 16 37 39 -9 21 -9 21 -51 -4z"/>
<path d="M2830 2629 c0 -14 34 -103 84 -221 9 -21 22 -38 29 -38 18 0 39 37
26 46 -6 3 -8 13 -5 21 3 8 2 12 -2 9 -5 -3 -23 28 -41 69 -18 41 -37 72 -42
69 -5 -3 -6 2 -3 11 4 9 2 15 -4 13 -6 -2 -18 6 -26 17 -13 17 -15 17 -16 4z"/>
<path d="M6057 2625 c-7 -16 1 -45 12 -45 17 1 33 19 29 36 -4 24 -33 30 -41
9z"/>
<path d="M2900 2611 c0 -5 5 -13 10 -16 6 -3 10 -2 10 4 0 5 -4 13 -10 16 -5
3 -10 2 -10 -4z"/>
<path d="M1665 2528 c-20 -65 -32 -187 -14 -148 12 28 41 191 34 198 -2 2 -11
-20 -20 -50z"/>
<path d="M2920 2574 c0 -5 6 -18 14 -29 7 -11 17 -31 21 -45 7 -23 28 -50 38
-50 6 0 -51 112 -64 125 -6 5 -9 5 -9 -1z"/>
<path d="M6873 2561 c-19 -30 5 -72 37 -69 14 2 25 9 25 18 0 9 -10 16 -25 17
-14 0 -29 1 -34 2 -6 1 -1 7 10 15 13 10 16 18 9 25 -7 7 -14 5 -22 -8z"/>
<path d="M6040 2555 c0 -8 5 -15 10 -15 6 0 10 7 10 15 0 8 -4 15 -10 15 -5 0
-10 -7 -10 -15z"/>
<path d="M6805 2550 c-3 -6 1 -7 9 -4 18 7 21 14 7 14 -6 0 -13 -4 -16 -10z"/>
<path d="M6370 2539 c0 -5 5 -7 10 -4 6 3 10 8 10 11 0 2 -4 4 -10 4 -5 0 -10
-5 -10 -11z"/>
<path d="M5860 2513 c0 -22 2 -25 10 -13 13 20 13 40 0 40 -5 0 -10 -12 -10
-27z"/>
<path d="M6451 2504 c-24 -24 -51 -69 -51 -85 0 -22 28 -6 43 25 33 71 73 62
115 -25 19 -39 29 -48 58 -53 19 -4 38 -4 43 -1 16 9 23 63 11 85 -14 27 -84
59 -127 60 -17 0 -35 5 -38 10 -10 15 -28 10 -54 -16z m192 -69 c26 -19 18
-49 -14 -53 -26 -3 -38 15 -39 56 0 16 30 15 53 -3z"/>
<path d="M6027 2504 c-14 -14 -7 -25 13 -22 12 2 21 8 21 13 0 12 -24 18 -34
9z"/>
<path d="M6087 2481 c6 -22 53 -36 53 -15 0 13 -30 34 -48 34 -6 0 -8 -9 -5
-19z"/>
<path d="M6785 2476 c-19 -14 -19 -15 -2 -33 9 -11 17 -26 17 -33 0 -11 3 -11
12 -2 20 20 54 14 82 -14 l26 -27 0 27 c0 30 -20 56 -43 56 -8 0 -22 9 -32 20
-21 24 -34 25 -60 6z"/>
<path d="M2990 2430 c0 -5 5 -10 10 -10 6 0 10 5 10 10 0 6 -4 10 -10 10 -5 0
-10 -4 -10 -10z"/>
<path d="M5867 2427 c-11 -29 -9 -53 4 -40 6 6 9 21 7 34 -3 21 -4 22 -11 6z"/>
<path d="M3077 2413 c-4 -3 -7 -11 -7 -17 0 -6 5 -5 12 2 6 6 9 14 7 17 -3 3
-9 2 -12 -2z"/>
<path d="M6340 2410 c0 -5 5 -10 10 -10 6 0 10 5 10 10 0 6 -4 10 -10 10 -5 0
-10 -4 -10 -10z"/>
<path d="M6037 2403 c-17 -17 -5 -33 25 -33 17 0 40 -7 50 -17 17 -15 18 -15
18 11 0 19 -7 29 -26 36 -29 12 -58 13 -67 3z"/>
<path d="M6720 2377 c0 -20 22 -47 39 -47 6 0 11 9 11 19 0 11 2 26 6 34 4 11
-3 14 -25 13 -23 -1 -31 -6 -31 -19z"/>
<path d="M1730 2348 c0 -12 1 -19 3 -17 1 2 9 12 16 22 12 14 11 17 -3 17 -10
0 -16 -8 -16 -22z"/>
<path d="M6450 2363 c0 -4 8 -17 16 -28 15 -20 16 -20 12 4 -3 22 -28 44 -28
24z"/>
<path d="M1631 2334 c0 -11 3 -14 6 -6 3 7 2 16 -1 19 -3 4 -6 -2 -5 -13z"/>
<path d="M3253 2328 c-22 -11 -39 -38 -24 -38 4 0 18 11 31 25 26 27 25 29 -7
13z"/>
<path d="M6355 2330 c-3 -6 1 -7 9 -4 18 7 21 14 7 14 -6 0 -13 -4 -16 -10z"/>
<path d="M6790 2335 c0 -5 5 -17 10 -25 5 -8 10 -10 10 -5 0 6 -5 17 -10 25
-5 8 -10 11 -10 5z"/>
<path d="M6718 2291 c-13 -11 -19 -24 -15 -34 9 -23 27 -21 59 6 l27 22 -25
12 c-20 9 -28 8 -46 -6z"/>
<path d="M4060 2289 c0 -5 5 -7 10 -4 6 3 10 8 10 11 0 2 -4 4 -10 4 -5 0 -10
-5 -10 -11z"/>
<path d="M3180 2275 c-11 -13 -10 -14 4 -9 9 3 16 10 16 15 0 13 -6 11 -20 -6z"/>
<path d="M3834 2275 c8 -8 21 -15 28 -15 8 1 6 6 -6 15 -26 20 -42 19 -22 0z"/>
<path d="M6570 2275 c-9 -11 -4 -18 29 -35 l41 -21 12 26 c10 21 9 28 -2 35
-9 6 -17 4 -22 -3 -6 -9 -12 -9 -27 0 -15 10 -22 9 -31 -2z"/>
<path d="M3905 2260 c-17 -6 -14 -10 26 -29 60 -28 149 -34 149 -9 0 18 -13
24 -75 33 -22 3 -49 8 -60 10 -11 2 -29 0 -40 -5z"/>
<path d="M6725 2210 c-8 -13 5 -13 25 0 13 8 13 10 -2 10 -9 0 -20 -4 -23 -10z"/>
<path d="M6600 2180 c0 -5 5 -10 10 -10 6 0 10 5 10 10 0 6 -4 10 -10 10 -5 0
-10 -4 -10 -10z"/>
<path d="M1965 2110 c-82 -3 -145 -8 -140 -11 33 -21 156 -31 312 -26 161 6
203 11 203 26 0 9 -106 16 -160 10 -14 -2 -34 -1 -45 2 -11 2 -87 2 -170 -1z"/>
<path d="M2338 2053 c6 -2 18 -2 25 0 6 3 1 5 -13 5 -14 0 -19 -2 -12 -5z"/>
<path d="M6050 2046 c6 -8 18 -12 26 -9 22 8 16 18 -12 21 -22 2 -24 0 -14
-12z"/>
<path d="M6315 1960 c3 -5 11 -10 16 -10 6 0 7 5 4 10 -3 6 -11 10 -16 10 -6
0 -7 -4 -4 -10z"/>
<path d="M6550 1955 c0 -9 6 -18 14 -21 8 -3 16 -18 20 -35 3 -16 10 -29 15
-29 15 0 24 70 10 86 -16 19 -59 18 -59 -1z"/>
<path d="M6670 1951 c-11 -22 0 -34 24 -25 18 7 18 7 10 28 -8 21 -21 20 -34
-3z"/>
<path d="M1588 1903 c7 -3 16 -2 19 1 4 3 -2 6 -13 5 -11 0 -14 -3 -6 -6z"/>
<path d="M6668 1863 c-6 -11 39 -56 45 -46 3 5 -5 19 -18 31 -13 12 -25 19
-27 15z"/>
<path d="M6320 1775 c0 -8 -9 -29 -20 -47 -24 -40 -24 -44 -4 -52 24 -9 51 25
57 72 4 37 3 42 -14 42 -10 0 -19 -7 -19 -15z"/>
<path d="M6421 1767 c-25 -27 -27 -37 -6 -37 8 0 15 7 15 15 0 7 7 18 16 23
10 5 12 12 7 15 -6 4 -20 -4 -32 -16z"/>
<path d="M6455 1743 c-3 -10 -2 -19 4 -21 7 -2 6 -10 -1 -22 -7 -11 -9 -23 -5
-27 12 -12 27 18 27 55 0 34 -14 43 -25 15z"/>
<path d="M6810 1746 c0 -9 5 -16 10 -16 6 0 10 4 10 9 0 6 -4 13 -10 16 -5 3
-10 -1 -10 -9z"/>
<path d="M6670 1736 c0 -8 -13 -17 -31 -21 -25 -6 -30 -11 -27 -33 6 -57 80
-27 76 30 -2 30 -18 51 -18 24z"/>
<path d="M6720 1726 c0 -15 48 -28 56 -15 9 15 -6 29 -32 29 -14 0 -24 -6 -24
-14z"/>
<path d="M6013 1719 c-13 -13 -4 -61 11 -56 13 4 21 67 9 67 -5 0 -14 -5 -20
-11z"/>
<path d="M6810 1703 c0 -6 -3 -18 -6 -27 -3 -9 -2 -16 4 -16 15 0 21 25 11 41
-5 9 -9 9 -9 2z"/>
<path d="M6755 1600 c3 -5 10 -10 16 -10 5 0 9 5 9 10 0 6 -7 10 -16 10 -8 0
-12 -4 -9 -10z"/>
</g>
</svg>
