<?xml version="1.0" standalone="no"?>
<!DOCTYPE svg PUBLIC "-//W3C//DTD SVG 20010904//EN"
 "http://www.w3.org/TR/2001/REC-SVG-20010904/DTD/svg10.dtd">
<svg version="1.0" xmlns="http://www.w3.org/2000/svg"
 width="573.000000pt" height="741.000000pt" viewBox="0 0 573.000000 741.000000"
 preserveAspectRatio="xMidYMid meet">

<g transform="translate(0.000000,741.000000) scale(0.100000,-0.100000)"
fill="#000000" stroke="none">
<path d="M0 6278 c1 -1211 -1 -1168 49 -1168 28 0 27 16 -6 54 l-26 31 30 3
c17 2 59 -4 94 -13 35 -9 117 -22 182 -30 65 -7 123 -17 130 -24 6 -6 28 -11
48 -11 49 0 57 -14 22 -37 -60 -38 -169 -122 -194 -149 -15 -16 -41 -49 -58
-74 -18 -25 -35 -43 -38 -42 -7 4 -23 -19 -23 -33 0 -5 4 -3 10 5 5 8 12 11
16 7 4 -4 2 -13 -4 -19 -7 -7 -12 -17 -12 -22 0 -6 5 -4 10 4 7 12 10 12 10 1
0 -16 41 -61 55 -61 6 0 3 4 -5 10 -8 5 -12 12 -8 15 3 3 13 -1 22 -10 16 -16
87 -17 103 -2 11 12 25 8 18 -5 -4 -7 1 -4 9 6 10 12 16 15 16 7 0 -7 6 -11
14 -8 7 3 21 -4 30 -15 16 -19 15 -21 -20 -61 -20 -23 -44 -49 -53 -58 -76
-76 -211 -255 -211 -280 0 -6 -6 -17 -14 -23 -7 -6 -23 -38 -35 -71 -39 -104
-39 -104 -42 -65 l-2 35 -8 -40 c-7 -37 -7 -36 -3 10 2 28 6 61 8 75 2 14 4
34 5 45 1 17 3 18 11 5 8 -13 10 -13 10 2 0 10 53 84 118 165 148 185 205 263
193 263 -8 0 -36 -30 -171 -180 -22 -25 -40 -50 -40 -56 0 -14 -30 -27 -39
-18 -3 3 5 15 18 25 18 15 21 23 13 31 -9 9 -12 8 -12 -5 0 -9 -4 -17 -10 -17
-5 0 -10 5 -10 10 0 6 -5 10 -11 10 -8 0 -7 -5 1 -15 10 -13 10 -19 -2 -33
-20 -24 -53 -91 -62 -127 -6 -25 -9 -27 -17 -13 -5 9 -10 28 -11 41 -1 14 -5
24 -9 22 -3 -3 -12 8 -18 23 -12 25 -14 26 -26 9 -12 -17 -14 -17 -29 5 -16
22 -16 18 -14 -74 2 -54 6 -98 10 -98 5 0 8 -6 8 -13 0 -7 9 -18 20 -25 18
-11 22 -10 30 10 8 22 9 21 9 -7 1 -25 -3 -31 -23 -33 -14 -1 -27 5 -30 14
-10 27 -26 4 -26 -37 0 -21 3 -38 8 -36 4 1 7 -2 7 -8 0 -5 -4 -9 -8 -7 -4 1
-6 -66 -5 -150 1 -84 4 -145 6 -135 2 9 8 14 14 11 7 -4 8 -2 4 4 -4 7 -3 19
1 27 6 10 9 -1 11 -33 1 -33 -1 -43 -8 -32 -6 9 -10 10 -10 3 0 -6 6 -18 14
-26 18 -17 4 -42 -18 -34 -10 4 -16 1 -16 -8 0 -7 10 -15 23 -17 15 -2 23 -11
25 -28 2 -18 0 -21 -6 -11 -6 7 -16 11 -23 9 -9 -3 -7 -10 7 -24 11 -11 26
-35 34 -54 7 -19 21 -53 31 -75 9 -22 20 -62 24 -90 8 -49 90 -267 135 -355
12 -25 51 -87 86 -138 43 -63 58 -92 47 -90 -10 2 -22 13 -28 24 -6 11 -16 19
-23 16 -6 -2 -12 1 -12 7 0 5 -9 9 -20 8 -12 -1 -20 -8 -20 -18 0 -14 -9 -17
-45 -16 -31 2 -44 6 -40 15 2 6 -2 12 -10 12 -8 0 -15 5 -15 10 0 12 -53 1
-58 -12 -7 -18 -22 -7 -22 16 0 29 -10 38 -30 26 -12 -7 -12 -12 2 -27 9 -10
19 -33 23 -50 3 -18 10 -32 13 -31 12 2 42 -14 42 -23 0 -5 -7 -9 -15 -9 -8 0
-15 5 -15 11 0 5 -5 7 -10 4 -13 -8 -42 14 -34 26 3 5 -2 9 -11 9 -10 0 -13 4
-8 13 13 21 13 47 0 48 -6 0 -20 2 -29 4 -21 4 -24 -15 -6 -33 10 -10 10 -15
-2 -23 -12 -8 -12 -9 4 -7 11 2 21 -5 27 -19 8 -23 -4 -33 -16 -13 -4 6 -11 8
-16 5 -12 -8 -12 -48 0 -60 5 -6 12 -26 15 -45 l6 -35 -14 30 c-12 27 -14 -10
-15 -317 -1 -331 0 -350 19 -388 11 -22 20 -43 19 -47 -3 -21 2 -33 15 -33 8
0 21 -9 29 -21 11 -15 16 -17 20 -7 4 10 6 9 6 -2 1 -8 10 -32 21 -53 22 -40
25 -57 11 -57 -5 0 -17 19 -27 43 -10 24 -28 50 -40 60 -21 16 -22 16 -16 -5
3 -14 1 -19 -6 -14 -7 4 -12 13 -12 19 0 7 -9 30 -19 52 l-19 40 0 -170 c-1
-105 3 -174 10 -182 7 -9 7 -13 -1 -13 -8 0 -11 -199 -11 -740 0 -630 2 -740
14 -747 8 -4 28 -36 46 -70 18 -38 37 -63 46 -63 12 0 15 6 9 23 -4 12 -7 31
-6 41 0 11 -9 30 -20 44 -10 14 -19 35 -19 48 0 12 -4 26 -10 29 -18 11 -11
26 11 23 21 -3 49 -60 49 -100 0 -11 8 -18 19 -18 18 0 39 -45 27 -58 -15 -14
35 -31 95 -32 58 0 67 2 72 20 7 26 37 26 37 0 0 -18 7 -20 64 -20 42 0 66 4
70 13 5 10 7 10 12 0 4 -10 49 -13 175 -13 93 0 169 2 169 5 0 16 -26 55 -37
55 -18 0 -16 10 4 27 13 10 15 16 6 19 -18 8 -16 34 2 34 9 0 20 -11 25 -25 5
-14 18 -28 27 -31 10 -3 26 -10 35 -15 10 -5 24 -9 31 -9 9 0 12 -9 9 -30 l-4
-30 560 0 c510 0 562 2 570 16 5 9 15 14 21 10 6 -4 9 -12 6 -17 -4 -5 11 -9
33 -9 37 0 38 1 34 30 -5 38 3 38 23 0 l16 -30 297 0 c256 0 301 2 320 16 21
14 25 14 47 0 19 -13 52 -16 153 -16 125 0 130 1 135 22 4 13 1 26 -6 31 -7 5
-3 7 13 5 20 -2 25 -8 23 -31 -2 -26 0 -27 52 -27 43 0 53 3 51 16 -2 25 24
29 31 5 l5 -21 1194 0 1194 0 0 664 c0 522 -3 665 -12 669 -10 4 -10 6 -1 6 9
1 12 73 12 303 0 268 -1 304 -16 320 -16 18 -16 18 0 12 15 -5 17 4 17 94 0
76 -4 104 -15 116 -19 18 -19 27 -2 20 11 -4 14 11 16 65 2 59 -1 70 -16 74
-17 4 -17 5 0 6 14 1 17 10 17 49 -1 49 0 48 -72 103 -35 25 -35 34 -3 37 24
2 30 -6 26 -35 -1 -7 2 -13 8 -13 5 0 17 -7 25 -16 14 -14 16 218 16 2461 l0
2475 -247 -2 -246 -3 -38 -110 c-20 -60 -76 -225 -123 -365 -48 -140 -91 -264
-96 -275 -5 -11 -22 -60 -39 -110 -16 -49 -48 -139 -71 -200 -22 -60 -63 -175
-91 -255 -27 -80 -63 -179 -79 -220 -16 -41 -58 -154 -94 -250 -35 -96 -83
-222 -105 -280 -23 -58 -39 -111 -36 -119 3 -7 0 -20 -6 -28 -17 -20 32 -68
95 -92 28 -11 101 -45 161 -75 61 -31 120 -56 133 -56 50 0 92 -36 92 -78 -1
-15 -2 -15 -13 -2 -14 18 -100 60 -122 60 -9 0 -31 6 -50 14 -19 8 -67 17
-107 20 -68 5 -206 44 -232 65 -6 5 -38 19 -71 32 -33 12 -64 25 -70 29 -24
17 -278 65 -294 56 -6 -4 -16 2 -23 14 -15 24 -24 25 -32 5 -3 -8 0 -14 7 -12
8 1 11 -10 10 -35 -2 -36 -1 -37 55 -57 141 -51 274 -107 277 -116 14 -48 16
-50 25 -35 7 10 10 11 10 3 0 -8 14 -13 35 -13 27 0 35 -4 35 -18 0 -13 -15
-24 -50 -36 -31 -11 -62 -32 -83 -56 -17 -20 -50 -47 -72 -58 -22 -11 -55 -32
-74 -46 -19 -14 -39 -26 -43 -26 -11 0 -10 88 1 95 23 13 -17 68 -137 186
-141 139 -273 248 -432 355 -123 83 -230 148 -235 143 -2 -2 27 -24 63 -49 92
-62 359 -258 401 -293 18 -15 44 -32 57 -37 13 -5 25 -17 26 -27 0 -10 2 -23
2 -30 1 -7 15 -26 31 -44 39 -42 14 -28 -55 32 -189 161 -584 419 -643 419
-22 0 -56 16 -47 22 31 20 52 27 67 22 17 -5 17 -5 1 6 -17 11 -14 45 3 34 5
-3 7 -10 4 -15 -4 -5 0 -9 8 -9 10 0 13 7 10 19 -3 10 0 22 6 25 6 4 11 14 11
22 0 17 43 75 169 228 69 84 81 104 76 125 -3 14 -13 31 -21 36 -84 54 -118
74 -122 70 -11 -10 31 -56 73 -80 32 -20 45 -33 44 -48 -1 -14 -3 -16 -5 -7
-3 9 -13 20 -23 25 -88 48 -92 49 -101 36 -6 -11 -13 -8 -32 14 -22 25 -26 26
-46 14 -12 -8 -22 -22 -22 -31 0 -10 -4 -18 -10 -18 -5 0 -10 10 -10 23 -1 15
-26 44 -81 92 -44 38 -87 72 -95 75 -12 5 -9 9 11 18 31 14 32 14 120 -71 70
-68 70 -38 0 33 l-58 58 37 33 c34 29 37 36 34 77 -3 46 -30 79 -46 57 -12
-17 -86 -49 -106 -46 -10 1 -28 -6 -40 -17 -11 -10 -43 -34 -71 -52 -64 -43
-67 -49 -44 -78 10 -14 19 -31 19 -38 0 -8 7 -14 15 -14 8 0 15 -7 15 -15 0
-32 -38 -9 -59 37 -21 44 -43 45 -124 8 -57 -26 -67 -34 -67 -55 0 -34 49 -81
94 -89 35 -7 97 17 150 57 21 15 66 11 66 -7 0 -6 13 -25 28 -41 15 -17 23
-24 18 -15 -5 8 20 -15 56 -52 37 -36 74 -68 84 -70 11 -2 37 18 70 52 91 95
71 46 -35 -86 -56 -70 -107 -137 -111 -150 -9 -24 -30 -33 -30 -14 0 6 -5 10
-12 10 -9 0 -9 -3 0 -12 16 -16 15 -28 -2 -28 -7 0 -24 -16 -37 -35 -24 -35
-57 -49 -45 -20 5 13 2 13 -19 -1 -24 -16 -29 -26 -26 -51 1 -7 -2 -13 -6 -13
-4 0 -14 -4 -22 -9 -11 -7 -10 -13 8 -32 25 -27 27 -41 5 -32 -17 6 -44 -21
-97 -96 -32 -46 -52 -43 -21 3 20 32 9 34 -17 4 -10 -13 -18 -18 -19 -11 0 6
5 15 11 19 6 3 17 20 24 37 11 26 10 33 -1 45 -12 11 -18 9 -42 -18 -15 -18
-35 -46 -44 -63 -10 -17 -21 -33 -25 -36 -5 -3 -17 -19 -27 -34 -9 -16 -20
-26 -23 -23 -7 7 -32 -27 -58 -76 -10 -20 -23 -34 -27 -32 -5 3 -6 9 -3 14 3
4 -2 14 -11 21 -13 10 -19 10 -36 0 -19 -12 -20 -11 -14 6 6 14 4 15 -5 6 -6
-6 -19 -9 -28 -6 -24 7 30 -35 62 -48 27 -12 36 -33 17 -44 -26 -16 -8 -27 35
-22 47 7 71 -8 41 -25 -9 -5 -16 -16 -16 -24 0 -8 -23 -39 -50 -68 -39 -41
-47 -55 -35 -59 23 -9 18 -42 -12 -90 l-28 -42 -3 33 c-2 17 -5 32 -6 32 -19
0 -80 -45 -132 -96 -67 -67 -83 -74 -108 -49 -12 13 -13 20 -3 42 10 23 8 28
-18 49 -33 26 -132 77 -235 120 -43 18 -87 28 -130 29 -36 2 -105 15 -155 28
-66 19 -130 28 -240 34 -211 11 -449 8 -520 -7 -68 -14 -314 -93 -362 -115
-39 -19 -41 -19 -60 0 -18 19 -13 27 21 29 13 0 24 5 23 9 -1 5 14 14 33 21
77 29 180 84 160 87 -43 5 -75 -3 -149 -37 -55 -25 -80 -42 -77 -51 4 -8 -3
-13 -18 -13 -25 0 -136 -77 -159 -111 -14 -20 -27 -16 -27 9 0 20 34 50 103
92 31 18 52 37 46 40 -21 14 50 52 276 148 77 33 164 72 194 87 29 15 88 40
130 56 67 25 72 28 41 29 -78 1 -292 -81 -390 -150 -14 -9 -41 -25 -60 -34
l-35 -17 25 21 c34 28 165 99 280 151 52 24 97 46 100 49 16 18 250 68 401 85
l55 7 23 136 c30 180 32 187 42 171 7 -11 11 -11 21 -1 8 8 9 15 3 20 -6 4
-11 20 -10 36 0 25 7 32 42 48 22 10 59 19 82 20 29 1 41 6 41 17 0 8 10 71
22 139 24 139 23 137 122 149 l48 6 -28 13 c-16 7 -25 13 -20 13 12 1 -57 47
-83 56 -12 3 -21 13 -21 21 0 8 -8 17 -17 21 -10 3 -36 22 -58 42 -22 20 -53
45 -68 57 l-29 20 20 24 20 25 67 -34 c37 -19 81 -49 99 -67 37 -38 51 -41 83
-19 27 19 33 67 16 124 -8 25 -16 53 -18 61 -9 41 -38 136 -45 145 -4 6 -10
24 -13 42 -4 17 -15 51 -26 75 -26 56 -68 159 -92 227 -30 80 -75 166 -108
203 -15 18 -37 51 -49 73 -39 78 -89 105 -190 105 -40 0 -62 6 -90 25 -30 21
-49 25 -104 25 -101 0 -241 -34 -310 -75 -14 -9 -24 -38 -27 -81 -2 -18 -91
-52 -182 -68 -180 -32 -225 -38 -254 -31 -16 4 -45 9 -64 12 -23 4 -29 8 -20
14 9 5 -20 9 -72 9 -65 0 -90 4 -99 15 -7 8 -21 15 -31 15 -25 0 -31 14 -14
36 8 10 15 34 15 52 0 46 23 95 55 120 l28 22 -62 0 -61 0 0 -1132z m1145
1030 c31 -14 32 -34 3 -44 -47 -16 -54 -17 -111 -18 -72 -2 -80 3 -56 32 31
38 113 54 164 30z m208 -70 l42 -23 -39 -3 c-31 -3 -44 2 -65 22 l-26 26 23 0
c13 0 42 -10 65 -22z m1817 -1368 c0 -5 -4 -10 -10 -10 -5 0 -10 5 -10 10 0 6
5 10 10 10 6 0 10 -4 10 -10z m0 -317 c0 -7 -7 -13 -15 -13 -8 0 -15 6 -15 13
0 8 7 14 15 14 8 0 15 -6 15 -14z m-114 -318 c37 -19 73 -40 81 -46 10 -9 13
-8 13 1 0 7 17 -4 37 -24 26 -25 39 -32 45 -23 7 11 9 10 12 -12 0 -5 5 -13
10 -18 5 -5 6 -3 2 5 -4 6 -4 12 -1 12 8 0 152 -101 180 -127 11 -10 47 -38
80 -63 33 -24 73 -56 89 -70 46 -39 269 -262 296 -295 52 -63 167 -212 203
-263 58 -81 45 -81 -16 1 -29 38 -57 49 -57 21 0 -8 -4 -12 -10 -9 -5 3 -10 3
-10 -2 -2 -39 -15 -95 -30 -130 -17 -39 -17 -42 -2 -55 34 -27 135 -70 242
-104 12 -4 12 -7 1 -13 -9 -6 -10 -11 -2 -15 6 -4 11 -2 11 3 0 6 11 10 25 9
22 -2 42 -33 93 -150 2 -4 -9 -1 -25 7 -15 8 -34 15 -40 15 -7 0 -13 5 -13 12
0 9 -3 9 -11 1 -7 -7 -23 -8 -47 -2 -54 12 -126 11 -140 -3 -7 -7 -12 -8 -12
-3 0 5 -7 -1 -16 -13 -8 -12 -45 -36 -81 -52 -42 -19 -63 -34 -60 -42 28 -67
32 -70 155 -128 67 -32 122 -61 122 -63 0 -2 -33 6 -72 19 -40 12 -107 30
-148 39 -41 10 -84 25 -95 36 -11 10 -39 25 -62 33 -57 20 -93 45 -93 65 -1
10 -6 7 -15 -10 -11 -20 -28 -30 -65 -39 -62 -15 -69 -28 -77 -145 -4 -58 -1
-92 10 -125 l15 -45 -44 -43 c-41 -41 -43 -45 -29 -65 8 -12 39 -39 67 -59 48
-35 50 -38 26 -38 -31 0 -47 -19 -27 -31 84 -53 98 -58 107 -42 6 10 16 14 27
10 15 -6 15 -9 1 -22 -8 -8 -21 -15 -30 -15 -8 0 -18 -5 -22 -12 -5 -7 -1 -9
13 -6 16 4 19 2 16 -13 -3 -11 -9 -19 -14 -19 -5 0 -9 -4 -9 -10 0 -5 7 -7 15
-4 8 4 15 12 15 20 0 10 6 11 26 4 34 -13 55 -35 44 -46 -6 -6 9 -32 37 -67
34 -42 49 -54 59 -46 8 7 14 7 19 -1 7 -12 25 -4 25 12 0 6 -13 8 -30 6 -22
-3 -30 0 -30 10 0 8 -12 30 -26 49 -20 27 -22 34 -10 39 15 6 66 -22 66 -37 0
-13 44 -11 57 2 8 8 13 8 17 0 4 -6 0 -11 -8 -11 -19 0 -21 -24 -3 -39 10 -8
19 -7 33 4 10 8 14 15 7 15 -7 0 -15 16 -19 36 -5 29 -10 34 -28 32 -11 -2
-20 -9 -18 -16 4 -19 -13 -14 -38 13 l-24 25 50 -6 c39 -5 57 -15 89 -45 l41
-39 79 21 c100 27 435 41 435 18 0 -8 6 -5 15 7 15 18 15 17 13 -17 -3 -34 1
-40 47 -71 28 -19 49 -40 47 -46 -3 -18 30 -15 82 8 l46 19 0 93 c0 123 -26
348 -50 423 -87 282 -142 431 -248 674 -53 118 -60 130 -191 323 -62 93 -76
119 -66 128 10 8 30 -13 89 -95 42 -58 76 -107 76 -110 0 -2 13 -24 30 -48 34
-50 149 -278 181 -358 35 -89 115 -339 133 -414 13 -59 28 -148 51 -300 2 -16
5 -79 6 -138 2 -127 12 -164 46 -164 35 0 80 -21 169 -79 44 -28 107 -63 140
-76 89 -37 231 -129 306 -200 79 -74 90 -99 53 -116 -37 -17 -45 -15 -45 10 0
12 -3 18 -7 15 -3 -4 -44 30 -90 74 -51 48 -103 89 -131 101 -26 11 -71 30
-100 44 -29 13 -56 24 -59 24 -4 0 -57 25 -119 56 -102 51 -117 55 -175 54
-35 -1 -84 0 -109 1 -70 5 -200 3 -260 -4 -30 -3 -99 -8 -152 -12 -54 -3 -115
-12 -135 -20 -21 -8 -72 -23 -114 -34 -128 -33 -228 -71 -257 -98 -7 -7 -18
-13 -23 -13 -32 0 132 123 264 197 20 11 20 12 -7 19 -15 3 -37 2 -49 -4 -19
-9 -19 -11 -4 -11 10 -1 15 -6 12 -11 -3 -6 -17 -7 -30 -4 -16 4 -37 -1 -60
-15 -38 -22 -46 -19 -15 7 11 10 23 31 26 49 6 28 4 31 -14 27 -11 -3 -19 -11
-18 -17 3 -30 -20 -15 -32 20 -21 63 -31 68 -130 65 l-88 -3 -22 40 c-34 61
-76 92 -114 84 -21 -4 -29 -3 -24 5 3 6 2 13 -4 17 -7 4 -7 12 0 26 9 16 7 19
-11 19 -14 0 -19 -5 -16 -15 9 -21 -5 -26 -47 -14 -31 9 -35 13 -25 25 13 16
49 19 49 3 0 -5 4 -8 9 -5 4 3 16 58 26 123 14 89 17 154 13 272 l-5 156 58 0
c47 0 62 4 79 23 17 18 18 22 5 22 -9 0 -24 -4 -33 -9 -9 -5 -39 -11 -65 -13
-44 -5 -49 -3 -58 19 -11 31 -30 146 -24 151 3 3 23 -7 45 -22 22 -14 40 -22
40 -18 0 12 -29 37 -67 56 -21 11 -35 26 -38 44 -38 182 -169 444 -313 627
-82 103 -212 227 -297 280 -78 50 -76 45 -48 94 2 2 11 -2 20 -10 16 -13 17
-12 5 3 -8 9 -9 19 -4 22 6 3 12 0 15 -8 4 -10 18 -11 64 -5 32 4 135 6 228 3
94 -3 200 -5 238 -4 80 2 86 -6 58 -72 -13 -32 -19 -71 -21 -139 -2 -116 -4
-129 -17 -154 -6 -11 -13 -61 -16 -112 -5 -89 -5 -92 19 -108 46 -30 70 2 89
122 4 23 13 44 22 47 12 5 14 15 8 49 -4 23 -7 52 -6 65 0 12 1 32 2 45 0 12
7 47 16 79 15 54 15 58 -5 90 -26 42 -29 66 -12 101 15 31 8 39 -74 84 -37 21
-41 21 -58 6 -28 -25 -127 -11 -217 32 -75 36 -131 43 -160 21 -10 -8 -15 -8
-18 1 -2 7 -11 9 -19 6 -23 -9 -16 11 16 42 16 16 42 46 56 67 15 21 33 38 40
38 7 0 43 -16 80 -35z m-370 -34 c-11 -17 -29 -13 -22 5 3 8 2 12 -4 9 -11 -7
-14 8 -3 19 10 10 37 -20 29 -33z m184 5 c0 -3 -4 -8 -10 -11 -5 -3 -10 -1
-10 4 0 6 5 11 10 11 6 0 10 -2 10 -4z m1704 -26 c6 -6 6 -10 1 -10 -6 0 -3
-5 5 -10 13 -8 13 -10 -2 -10 -9 0 -20 5 -23 10 -4 6 -10 8 -15 5 -12 -7 -50
12 -50 25 0 11 72 2 84 -10z m-1754 -19 c-15 -30 -30 -35 -17 -6 7 14 16 25
20 25 4 0 3 -9 -3 -19z m1343 -47 c8 -8 -25 -44 -35 -38 -16 10 -8 44 10 44
10 0 21 -3 25 -6z m-1410 -44 c-22 -37 -83 -98 -83 -83 0 11 88 113 97 113 2
0 -4 -14 -14 -30z m1677 -75 c0 -29 -4 -35 -21 -35 -15 0 -19 4 -15 16 3 9 6
24 6 35 0 10 7 19 15 19 10 0 15 -11 15 -35z m-3236 -83 c3 -5 -20 -20 -50
-35 -64 -32 -72 -20 -11 17 46 28 53 30 61 18z m-284 -11 c0 -8 -53 -25 -77
-24 -7 0 -13 -3 -13 -7 0 -5 -21 -19 -47 -32 -25 -13 -86 -62 -135 -109 -84
-81 -119 -100 -83 -45 9 14 14 30 10 36 -4 6 3 10 17 10 13 0 44 19 73 45 28
25 66 55 85 66 27 15 29 18 10 13 -52 -12 -89 -28 -84 -35 2 -4 -4 -5 -13 -3
-10 3 -48 -11 -86 -29 -37 -19 -62 -28 -56 -21 21 26 174 86 319 125 79 21 80
21 80 10z m560 -47 c0 -2 -9 0 -20 6 -11 6 -20 13 -20 16 0 2 9 0 20 -6 11 -6
20 -13 20 -16z m-474 -53 c-18 -19 -24 -31 -16 -36 8 -5 8 -11 0 -19 -6 -8 -8
-51 -5 -117 6 -129 8 -139 16 -139 4 0 10 -20 13 -45 4 -25 13 -50 20 -57 6
-7 29 -60 49 -117 39 -108 91 -205 135 -253 26 -28 27 -28 166 -30 78 -1 123
-3 101 -5 -22 -2 -46 -11 -52 -20 -15 -20 -17 -91 -4 -126 9 -22 1 -37 -60
-119 -64 -85 -69 -96 -63 -128 8 -47 7 -46 66 -53 53 -7 98 -31 106 -58 5 -12
3 -12 -11 0 -11 8 -44 13 -93 14 -68 0 -77 2 -84 22 -14 36 -35 45 -110 49
-98 5 -117 -6 -125 -70 -6 -52 8 -112 45 -184 42 -81 77 -96 208 -88 83 5 118
19 192 75 82 63 98 121 54 208 -26 51 -26 53 -8 71 11 11 33 36 49 56 30 36
32 37 131 47 101 10 212 34 225 48 4 5 19 32 34 61 32 62 30 125 -4 154 -22
17 -28 38 -11 38 6 0 10 8 10 18 0 12 22 26 76 47 92 36 163 99 199 177 14 29
25 58 25 63 0 6 16 24 37 40 20 17 52 45 71 63 l35 33 26 -23 c32 -28 82 -80
126 -134 24 -28 32 -46 29 -61 -7 -24 35 -86 68 -104 18 -10 19 -8 13 13 -5
15 3 9 24 -19 17 -24 31 -47 31 -53 0 -5 3 -10 8 -10 4 0 12 -10 17 -23 13
-26 54 -105 66 -127 38 -66 61 -118 87 -200 54 -172 63 -207 69 -276 3 -38 10
-74 15 -81 5 -7 7 -21 3 -33 -4 -12 -1 -28 6 -36 18 -22 4 -295 -21 -407 -18
-81 -18 -92 -4 -118 29 -58 113 -86 167 -57 66 34 187 177 187 219 0 10 5 21
10 24 6 3 10 -3 10 -15 0 -12 10 -51 23 -87 30 -88 56 -102 159 -85 39 7 72
11 74 10 1 -2 -16 -24 -39 -50 -23 -26 -60 -72 -82 -103 -22 -31 -46 -62 -52
-70 -7 -7 -13 -25 -13 -40 0 -27 25 -85 38 -85 4 0 17 -8 29 -18 21 -16 22
-19 8 -57 -19 -53 -19 -214 0 -303 19 -95 58 -193 107 -277 44 -74 166 -225
218 -268 35 -30 38 -41 9 -32 -44 14 -279 26 -279 14 0 -15 -47 -10 -60 6 -17
21 -37 19 -43 -4 -3 -11 -17 -22 -36 -26 -17 -4 -31 -11 -31 -17 0 -6 -7 -7
-15 -4 -9 3 -18 -1 -21 -9 -8 -21 -23 -19 -45 7 -16 18 -19 18 -19 4 0 -9 7
-19 15 -22 21 -9 19 -54 -2 -56 -10 0 -22 -2 -28 -3 -5 -2 -16 -3 -22 -4 -20
-2 -15 -21 5 -21 10 0 19 -7 19 -15 0 -8 -9 -15 -19 -15 -10 0 -18 4 -18 9 0
5 -14 11 -32 13 -29 5 -30 4 -12 -9 16 -11 17 -15 5 -23 -12 -7 -12 -11 -2
-24 18 -21 9 -20 -34 4 -45 25 -45 25 -39 -5 2 -14 2 -25 -1 -25 -4 0 -30 23
-59 50 -45 42 -55 48 -60 34 -4 -10 -1 -22 5 -28 9 -8 10 -6 6 9 -6 19 -6 19
6 1 7 -10 29 -35 50 -56 30 -29 37 -42 32 -61 -5 -19 0 -28 25 -42 17 -10 27
-23 24 -29 -4 -5 -9 -6 -13 -2 -3 5 -15 14 -26 20 -11 6 -24 20 -30 32 -5 12
-18 25 -28 28 -9 3 -15 10 -11 15 3 5 -5 22 -17 37 -13 16 -20 20 -16 9 14
-39 -16 -9 -44 42 -15 30 -33 57 -40 61 -6 4 -8 16 -5 28 5 15 1 21 -20 26
-17 5 -24 12 -20 21 4 10 -1 15 -14 15 -11 0 -20 -6 -20 -12 0 -9 -4 -8 -10 2
-14 22 -12 33 5 26 24 -9 17 10 -9 27 -21 14 -25 14 -30 2 -7 -20 -19 -19 -47
6 -20 17 -21 22 -9 31 13 8 12 9 -2 5 -19 -7 -29 5 -48 53 -15 39 -41 80 -162
255 -61 88 -121 156 -226 261 l-143 141 58 23 c125 50 147 61 132 72 -10 7 -8
8 8 3 22 -6 52 6 87 38 11 9 25 17 30 17 20 0 39 18 32 29 -8 12 -56 -6 -56
-21 0 -5 -4 -6 -10 -3 -5 3 -10 1 -10 -5 0 -6 -5 -8 -10 -5 -6 4 -9 1 -8 -7 2
-9 -5 -12 -22 -10 -20 2 -22 1 -10 -8 13 -9 12 -11 -5 -8 -27 3 -96 -21 -90
-32 3 -4 -4 -6 -15 -3 -11 3 -20 0 -20 -6 0 -6 -9 -11 -20 -11 -11 0 -20 -3
-20 -8 0 -9 -74 -42 -95 -42 -8 0 -15 -4 -15 -10 0 -5 -17 -12 -37 -16 -21 -4
-51 -13 -68 -20 -16 -6 -52 -15 -79 -19 -57 -9 -44 -22 19 -20 25 1 42 -2 39
-7 -3 -5 1 -8 9 -6 15 3 67 -45 67 -62 0 -4 13 -20 30 -33 17 -14 30 -30 30
-35 0 -15 36 -43 45 -35 4 5 5 3 1 -4 -7 -12 16 -58 39 -78 6 -5 20 -26 32
-45 12 -19 30 -44 41 -56 11 -11 31 -38 45 -60 13 -21 35 -50 47 -64 44 -49
97 -125 110 -158 16 -41 5 -51 -46 -47 -30 3 -32 2 -21 -16 6 -10 17 -19 24
-19 7 0 13 -7 13 -15 0 -8 -2 -15 -5 -15 -7 0 -65 58 -65 66 0 8 -63 88 -72
92 -5 2 -8 10 -8 17 0 7 -3 15 -7 17 -5 2 -21 23 -38 48 -16 25 -33 50 -38 55
-32 42 -47 56 -55 51 -15 -9 -73 79 -60 92 7 7 5 19 -8 41 -10 17 -22 31 -25
31 -4 0 -10 8 -13 18 -3 9 -20 25 -36 34 -17 10 -33 25 -37 35 -9 23 -33 42
-56 43 -10 0 -34 16 -53 35 -22 23 -42 34 -52 31 -29 -10 -37 -6 -37 16 0 12
-7 22 -17 24 -10 1 -18 -4 -18 -13 0 -8 -7 -13 -17 -11 -9 2 -16 6 -15 11 7
23 -40 48 -114 61 -43 8 -92 19 -107 25 -49 19 -53 11 -12 -24 43 -38 28 -51
-18 -15 -14 11 -29 20 -35 20 -5 0 -29 11 -53 23 -24 13 -57 27 -74 31 -16 4
-37 13 -45 20 -8 6 -33 18 -55 25 -133 44 -340 153 -446 233 -20 16 -45 28
-56 28 -27 0 -52 28 -35 39 9 5 7 13 -8 26 -11 10 -18 25 -15 32 2 8 0 11 -5
8 -6 -3 -10 0 -10 8 0 8 6 17 13 20 9 3 12 16 9 35 -3 23 1 33 17 41 30 17 26
34 -19 75 -22 20 -34 36 -27 36 7 0 17 -4 22 -9 6 -6 37 -19 70 -29 33 -11 89
-31 125 -45 147 -58 203 -77 207 -74 2 3 -11 10 -29 17 -65 26 -189 90 -204
105 -9 8 -20 16 -25 16 -5 1 -14 2 -19 3 -6 0 -14 6 -18 12 -4 6 -15 13 -24
17 -10 3 -18 11 -18 17 0 7 6 8 18 1 14 -7 29 -3 62 15 35 20 52 24 84 19 30
-5 37 -3 26 4 -36 25 -141 50 -231 54 -103 5 -116 10 -196 68 -96 72 -171 202
-246 429 -49 147 -65 230 -47 230 7 0 9 -8 4 -22 -3 -13 -3 -20 1 -16 5 4 7
65 6 135 -1 71 3 148 8 173 23 108 49 201 61 215 7 8 9 23 5 32 -8 22 -6 29 7
25 5 -1 12 7 15 18 3 11 9 20 14 20 5 0 9 6 9 13 0 18 27 53 35 45 4 -3 -1
-21 -10 -39 -15 -29 -15 -31 -1 -26 9 4 16 3 16 -2 0 -5 -8 -11 -19 -14 -27
-7 -55 -104 -53 -186 3 -160 11 -241 31 -315 22 -81 39 -107 54 -80 14 24 27
6 27 -37 0 -22 5 -50 12 -62 7 -12 12 -29 13 -37 1 -8 2 -23 3 -32 1 -10 8
-18 16 -18 18 0 46 -43 46 -70 0 -13 4 -18 11 -14 6 3 8 17 4 33 -4 14 -9 35
-11 46 -15 79 -56 273 -61 285 -4 8 -7 24 -9 35 -1 11 -5 35 -9 53 -7 28 -5
32 14 32 12 0 21 -6 21 -15 0 -8 5 -15 10 -15 6 0 10 -11 10 -24 0 -52 18 -33
25 27 11 97 20 106 78 82 12 -5 17 -2 17 9 0 9 -4 16 -9 16 -5 0 -11 9 -14 20
-4 14 -10 18 -23 13 -13 -5 -16 -3 -11 10 4 10 2 17 -5 17 -7 0 -9 18 -6 51 4
35 1 55 -8 64 -29 29 -10 175 22 175 7 0 15 17 18 38 7 38 18 73 41 127 7 17
19 47 26 68 7 20 17 37 21 37 4 0 7 3 6 8 -3 15 14 42 24 36 5 -3 4 -12 -3
-20 -10 -12 -9 -13 5 -8 11 4 16 14 13 26 -4 14 -1 18 8 14 7 -2 21 5 32 16
18 21 18 21 -2 15 -13 -5 -7 4 15 23 19 16 43 32 53 35 9 4 17 11 17 16 0 6 5
7 10 4 6 -3 10 -2 10 3 0 5 8 12 18 15 9 3 34 12 55 21 45 20 49 13 6 -9 -17
-9 -29 -19 -26 -22 3 -2 15 0 26 7 18 9 21 8 21 -10 0 -12 -10 -25 -24 -31
-31 -15 -40 -46 -15 -52 11 -3 19 -11 18 -19 0 -10 -2 -10 -6 0 -2 6 -16 12
-29 12 -14 0 -23 4 -19 9 3 5 1 12 -4 15 -5 4 -12 2 -15 -3 -4 -5 -2 -12 3
-15 4 -3 11 -24 15 -46 5 -34 10 -40 31 -40 19 0 25 5 26 23 1 21 1 21 10 -3
6 -20 8 -15 6 23 -1 26 1 47 5 47 5 0 8 -17 9 -37 0 -36 1 -35 18 22 29 99 33
117 21 110 -5 -3 -10 -1 -10 5 0 7 7 9 15 6 9 -3 18 1 21 9 4 8 10 12 15 9 5
-3 9 0 9 7 0 7 3 9 7 6 3 -4 -6 -20 -21 -36z m1485 -31 c-12 -27 -21 -55 -21
-62 0 -18 40 -60 114 -118 77 -61 176 -171 206 -230 34 -67 143 -229 151 -224
11 6 23 -14 78 -124 74 -146 149 -362 163 -465 5 -39 -17 -29 -33 15 -9 24
-21 57 -28 73 -7 17 -22 57 -33 90 -11 33 -36 93 -54 134 -19 41 -33 79 -32
85 3 17 -27 80 -46 95 -9 8 -36 46 -58 85 -43 75 -165 244 -197 273 -10 10
-79 65 -154 123 -121 93 -136 108 -131 130 3 13 14 30 25 38 11 8 18 20 15 28
-3 8 7 39 22 69 33 65 43 54 13 -15z m-2111 36 c0 -2 -7 -7 -16 -10 -8 -3 -12
-2 -9 4 6 10 25 14 25 6z m40 -5 c0 -5 -7 -12 -16 -15 -14 -5 -15 -4 -4 9 14
17 20 19 20 6z m-100 -36 c-7 -8 -17 -15 -23 -15 -6 0 -2 7 9 15 25 19 30 19
14 0z m640 5 c0 -5 -4 -10 -9 -10 -6 0 -13 5 -16 10 -3 6 1 10 9 10 9 0 16 -4
16 -10z m962 -65 c37 -7 79 -21 95 -30 l28 -16 -30 6 c-75 16 -280 16 -335 1
-50 -14 -56 -13 -67 1 -18 23 -16 32 5 27 9 -2 46 2 82 10 84 19 139 19 222 1z
m152 -37 c18 -25 16 -31 -7 -23 -16 7 -31 45 -17 45 5 0 16 -10 24 -22z
m-1519 -38 c3 -5 1 -10 -4 -10 -6 0 -11 5 -11 10 0 6 2 10 4 10 3 0 8 -4 11
-10z m-34 -53 c-17 -17 -24 -1 -10 25 12 21 14 21 17 4 2 -10 -1 -23 -7 -29z
m3719 23 c0 -5 -4 -10 -10 -10 -5 0 -10 5 -10 10 0 6 5 10 10 10 6 0 10 -4 10
-10z m-3750 -50 c0 -5 -8 -10 -17 -10 -15 0 -16 2 -3 10 19 12 20 12 20 0z
m1619 -3 c-2 -1 -13 -9 -24 -17 -19 -14 -19 -14 -6 3 7 9 18 17 24 17 6 0 8
-1 6 -3z m-1661 -44 c-9 -10 -13 -24 -10 -32 3 -10 0 -12 -12 -8 -8 3 -15 3
-15 -1 3 -19 -3 -46 -8 -34 -2 6 -8 10 -13 7 -19 -12 -1 27 25 55 30 32 59 43
33 13z m1547 -84 c-93 -117 -268 -329 -272 -329 -10 0 26 53 82 120 33 41 82
103 108 137 54 70 139 164 145 159 2 -2 -27 -42 -63 -87z m-1621 59 c-4 -7
-19 -28 -32 -46 -21 -28 -23 -34 -11 -50 13 -15 12 -16 -3 -3 -16 12 -18 11
-18 -2 0 -9 -10 -23 -21 -31 -13 -9 -19 -21 -16 -30 4 -10 1 -13 -9 -9 -7 3
-14 7 -14 10 0 9 80 125 103 151 23 24 32 29 21 10z m18 -72 c7 4 8 2 4 -5 -9
-13 -26 -5 -25 12 0 9 2 8 6 -1 2 -6 10 -9 15 -6z m-22 -27 c0 -14 -17 -10
-23 5 -4 10 -1 13 9 9 7 -3 14 -9 14 -14z m100 13 c0 -4 -6 -16 -13 -27 -7
-11 -14 -51 -16 -90 -3 -77 -9 -96 -23 -71 -13 23 -19 96 -7 96 5 0 9 7 9 16
0 22 30 84 41 84 5 0 9 -3 9 -8z m-378 -41 c7 11 8 9 4 -4 -3 -11 -3 -24 1
-30 4 -7 8 -19 8 -29 1 -14 -2 -13 -22 5 -14 14 -23 34 -23 52 1 26 2 28 11
11 9 -15 13 -16 21 -5z m2788 -46 c0 -8 -4 -15 -10 -15 -5 0 -10 7 -10 15 0 8
5 15 10 15 6 0 10 -7 10 -15z m1490 -20 c0 -5 -5 -3 -10 5 -5 8 -10 20 -10 25
0 6 5 3 10 -5 5 -8 10 -19 10 -25z m-4122 0 c-3 -3 -9 2 -12 12 -6 14 -5 15 5
6 7 -7 10 -15 7 -18z m-31 -43 c-10 -10 -17 -26 -17 -35 0 -9 -4 -18 -9 -22
-6 -3 -6 6 -1 24 11 39 19 51 32 51 6 0 4 -8 -5 -18z m37 -18 c3 -8 2 -12 -4
-9 -6 3 -10 10 -10 16 0 14 7 11 14 -7z m4193 -52 c17 -41 -1 -42 -21 0 -19
37 -20 41 -4 36 7 -3 18 -19 25 -36z m-1467 -10 c0 -10 16 -45 36 -78 101
-166 179 -368 215 -557 16 -86 29 -245 29 -359 0 -17 5 -28 14 -28 7 0 19 -7
26 -15 10 -12 10 -18 0 -30 -12 -14 -15 -14 -31 1 -16 15 -18 12 -24 -43 -11
-90 -25 -151 -17 -73 10 105 3 376 -13 495 -16 111 -45 222 -92 350 -28 75
-127 280 -148 305 -21 26 -26 50 -10 50 8 0 15 -8 15 -18z m-2788 -1 c7 10 8
8 3 -6 -5 -11 -12 -51 -17 -90 -5 -38 -13 -74 -19 -80 -7 -7 -8 3 -4 30 3 22
8 67 12 100 3 33 8 54 11 46 4 -11 6 -11 14 0z m4058 -74 c0 -12 0 -11 -24 28
l-17 30 20 -24 c12 -13 21 -28 21 -34z m-4186 -107 c12 0 17 -25 41 -235 11
-88 55 -255 84 -320 60 -132 92 -197 107 -214 10 -11 19 -33 21 -48 2 -15 22
-65 43 -110 43 -90 45 -93 31 -93 -15 0 -95 117 -140 205 -47 93 -91 218 -116
327 -10 43 -21 75 -26 73 -10 -7 -31 94 -35 170 -8 156 -17 235 -29 235 -8 0
-10 11 -6 33 5 31 6 31 9 5 2 -16 9 -28 16 -28z m79 -260 c7 -54 7 -55 -8 -23
-17 38 -32 267 -19 309 6 21 10 -6 15 -101 3 -71 9 -155 12 -185z m1516 291
c-8 -11 -69 -88 -136 -173 -129 -163 -218 -263 -210 -237 6 19 216 290 262
339 19 19 45 47 59 63 29 31 45 36 25 8z m241 -15 c0 -2 -7 -7 -16 -10 -8 -3
-12 -2 -9 4 6 10 25 14 25 6z m-1490 -31 c0 -8 0 -18 1 -22 0 -4 -4 -9 -10
-11 -6 -2 -11 8 -11 22 0 14 5 26 10 26 6 0 10 -7 10 -15z m1191 -82 c-61 -80
-131 -160 -114 -133 15 24 165 210 170 210 2 0 -23 -35 -56 -77z m-1444 15
c-3 -7 -5 -2 -5 12 0 14 2 19 5 13 2 -7 2 -19 0 -25z m0 -70 c-3 -8 -6 -5 -6
6 -1 11 2 17 5 13 3 -3 4 -12 1 -19z m3975 -27 c56 -12 85 -29 91 -53 6 -22 4
-22 -48 -4 -22 8 -65 22 -96 30 -33 9 -60 23 -63 32 -7 18 8 17 116 -5z m748
-26 c16 -19 1 -19 -24 0 -16 12 -17 15 -4 15 8 0 21 -7 28 -15z m-4713 -32
c-3 -10 -5 -4 -5 12 0 17 2 24 5 18 2 -7 2 -21 0 -30z m4103 -23 c8 -5 11 -10
5 -10 -5 0 -17 5 -25 10 -8 5 -10 10 -5 10 6 0 17 -5 25 -10z m478 -35 c-3 -3
-9 2 -12 12 -6 14 -5 15 5 6 7 -7 10 -15 7 -18z m86 -36 c-3 -5 0 -9 7 -9 7 0
10 -2 7 -5 -2 -3 -19 0 -37 6 -21 8 -29 14 -21 19 16 10 52 1 44 -11z m-349
-48 c-10 -16 -25 -3 -25 22 0 20 1 20 16 5 9 -9 13 -21 9 -27z m450 19 c3 -5
1 -10 -4 -10 -6 0 -11 5 -11 10 0 6 2 10 4 10 3 0 8 -4 11 -10z m-79 -25 c10
-8 25 -15 32 -15 12 0 135 -57 172 -79 15 -9 138 -72 197 -100 17 -9 42 -34
54 -56 12 -22 46 -64 76 -93 29 -28 56 -64 59 -78 6 -22 8 -24 16 -10 15 27
25 19 48 -41 13 -32 28 -64 33 -70 7 -9 5 -13 -6 -13 -9 0 -24 10 -34 23 -19
24 -64 43 -60 25 4 -17 -65 -17 -91 0 -14 9 -31 17 -38 18 -7 1 -28 14 -47 28
-22 17 -57 30 -98 37 -35 6 -75 18 -89 28 -14 9 -47 26 -75 38 -186 81 -205
92 -205 116 0 23 4 25 61 29 68 5 89 21 89 69 0 22 -14 40 -67 85 -38 31 -69
61 -71 65 -6 14 22 10 44 -6z m-1449 -157 c-3 -7 -5 -2 -5 12 0 14 2 19 5 13
2 -7 2 -19 0 -25z m1128 -15 c3 -19 4 -38 1 -41 -3 -3 -6 0 -6 7 0 7 -4 10 -9
7 -4 -3 -6 6 -3 19 3 18 0 25 -11 25 -26 0 -27 15 -2 16 19 2 24 -5 30 -33z
m19 -75 c3 -13 6 -34 6 -47 0 -36 -16 -13 -23 32 -6 40 7 52 17 15z m26 -173
c0 -8 -4 -15 -10 -15 -5 0 -10 7 -10 15 0 8 5 15 10 15 6 0 10 -7 10 -15z
m1115 -53 c-3 -3 -11 0 -18 7 -9 10 -8 11 6 5 10 -3 15 -9 12 -12z m-1118 -29
c-3 -10 -5 -4 -5 12 0 17 2 24 5 18 2 -7 2 -21 0 -30z m-759 8 c33 -28 28 -54
-6 -32 -7 4 -12 14 -10 22 2 10 -7 14 -37 12 -37 -2 -38 -1 -10 6 17 5 33 9
36 10 3 0 16 -7 27 -18z m-601 -58 c-2 -16 -4 -5 -4 22 0 28 2 40 4 28 2 -13
2 -35 0 -50z m2273 12 c0 -10 -9 -15 -27 -14 -16 0 -39 -3 -52 -7 -18 -5 -23
-4 -19 7 4 12 37 23 86 28 6 0 12 -6 12 -14z m-4780 -122 c0 -10 -4 -14 -8 -8
-4 6 -11 13 -16 18 -5 4 -2 7 7 7 10 0 17 -8 17 -17z m4865 -11 c-3 -3 -11 0
-18 7 -9 10 -8 11 6 5 10 -3 15 -9 12 -12z m-5412 -27 c-3 -9 -8 -14 -10 -11
-3 3 -2 9 2 15 9 16 15 13 8 -4z m3647 -51 c-18 -21 -24 -10 -9 18 8 14 14 18
17 10 2 -7 -2 -19 -8 -28z m-3620 6 c0 -5 -4 -10 -10 -10 -5 0 -10 5 -10 10 0
6 5 10 10 10 6 0 10 -4 10 -10z m97 -36 c2 -6 -8 -14 -22 -16 -28 -6 -27 -6
-19 17 7 17 35 17 41 -1z m2920 -51 c-3 -10 -5 -4 -5 12 0 17 2 24 5 18 2 -7
2 -21 0 -30z m-3123 -9 c8 -32 2 -41 -18 -25 -14 12 -11 51 4 51 4 0 11 -12
14 -26z m66 9 c0 -15 -2 -16 -10 -3 -8 12 -10 10 -10 -9 0 -24 0 -24 -15 -5
-20 27 -19 34 10 34 17 0 25 -5 25 -17z m416 -75 c35 -34 64 -66 64 -71 0 -5
-21 -7 -47 -4 -27 3 -39 3 -28 0 11 -3 31 -14 45 -25 l25 -19 -45 5 c-25 2
-51 5 -57 5 -7 1 -13 8 -13 16 0 19 -37 39 -42 23 -3 -7 -13 -2 -27 13 -12 13
-20 17 -16 9 4 -11 -1 -16 -14 -16 -12 0 -17 5 -13 15 4 10 1 12 -7 6 -10 -6
-11 -2 -6 15 5 16 4 20 -5 15 -8 -5 -10 -20 -6 -44 l5 -36 -19 25 c-11 14 -20
33 -20 43 0 10 -7 20 -15 23 -8 4 -13 10 -10 15 3 4 12 6 20 3 8 -3 22 1 30
10 11 10 25 14 41 10 15 -4 24 -2 24 6 0 8 9 10 24 6 14 -3 28 -2 31 4 10 16
13 13 81 -52z m2590 6 c-3 -8 -10 -14 -16 -14 -14 0 -13 26 3 51 12 20 12 20
15 -1 2 -12 1 -28 -2 -36z m2453 26 c24 -17 41 -30 37 -30 -9 0 -96 51 -96 56
0 10 18 2 59 -26z m61 -2 c0 -6 -6 -5 -15 2 -8 7 -15 14 -15 16 0 2 7 1 15 -2
8 -4 15 -11 15 -16z m-1557 -15 c-7 -2 -19 -2 -25 0 -7 3 -2 5 12 5 14 0 19
-2 13 -5z m1463 -35 l29 -33 -32 29 c-31 28 -38 36 -30 36 2 0 16 -15 33 -32z
m-1931 -18 c3 -6 -9 -29 -28 -53 -19 -23 -56 -75 -82 -115 -46 -69 -49 -72
-67 -55 -31 28 -10 67 96 173 60 61 70 68 81 50z m646 0 c22 -12 26 -32 4 -24
-9 4 -15 0 -15 -7 0 -18 -20 10 -20 29 0 15 6 15 31 2z m96 4 c-3 -3 -12 -4
-19 -1 -8 3 -5 6 6 6 11 1 17 -2 13 -5z m173 -3 c0 -5 8 -12 18 -14 12 -3 11
-5 -6 -6 -13 -1 -20 -5 -17 -11 4 -6 15 -8 26 -5 11 4 19 2 19 -4 0 -14 -25
-14 -48 -1 -43 23 -92 41 -99 37 -5 -3 -15 -2 -23 4 -10 6 10 9 58 9 39 0 72
-4 72 -9z m95 -11 c3 -5 -1 -10 -9 -10 -8 0 -18 5 -21 10 -3 6 1 10 9 10 8 0
18 -4 21 -10z m-359 -110 c10 -19 45 -84 79 -145 35 -60 69 -123 78 -140 10
-20 23 -30 38 -30 20 0 23 -4 21 -28 -4 -32 27 -73 66 -88 12 -5 22 -13 22
-19 0 -7 -8 -5 -21 4 -18 12 -26 13 -61 0 -65 -23 -139 -14 -98 11 6 4 8 10 5
15 -8 13 21 19 62 14 31 -4 35 -3 21 6 -10 6 -18 22 -18 36 0 14 -4 23 -8 20
-13 -8 -252 422 -252 450 0 10 40 -54 66 -106z m-123 3 c90 -161 177 -336 177
-355 0 -10 -4 -18 -10 -18 -5 0 -10 6 -10 13 0 6 -25 23 -55 36 -30 13 -55 30
-55 38 0 10 -6 12 -19 8 -23 -7 -381 162 -381 180 0 7 8 19 19 29 14 13 24 14
45 6 38 -14 50 -12 32 5 -8 8 -21 15 -28 15 -10 0 -10 3 2 9 8 6 18 7 24 4 5
-3 6 -1 3 4 -8 13 17 35 71 62 l42 22 63 -52 c34 -29 70 -68 80 -88 10 -20 25
-43 34 -51 11 -10 10 -4 -5 20 -11 19 -20 37 -20 40 2 15 -44 90 -52 85 -6 -3
-7 1 -4 9 4 11 0 16 -13 16 -10 0 -25 6 -31 12 -10 10 -8 16 10 30 13 10 24
18 25 18 1 0 26 -44 56 -97z m251 87 c14 -5 26 -16 26 -25 0 -14 -3 -14 -25 1
-19 12 -31 14 -52 6 -17 -6 -21 -11 -11 -11 10 -1 25 -12 34 -26 9 -14 26 -25
37 -25 11 0 17 -3 14 -6 -9 -9 23 -62 41 -69 10 -3 12 1 7 16 -6 18 -5 19 13
10 14 -8 21 -8 24 0 2 7 12 7 31 0 21 -8 26 -8 21 0 -3 6 0 16 7 21 11 8 10 9
-3 5 -9 -3 -22 1 -28 9 -7 8 -20 14 -29 15 -10 0 -11 2 -3 6 21 8 13 23 -14
23 -15 0 -23 4 -19 10 4 6 1 17 -5 25 -9 11 -9 15 -1 15 6 0 11 -4 11 -10 0
-5 15 -16 34 -25 19 -9 37 -23 40 -31 3 -8 13 -14 22 -14 20 0 16 -43 -10
-104 -14 -34 -17 -36 -31 -23 -16 17 -21 42 -6 32 5 -3 12 -1 15 4 4 5 -2 8
-11 6 -10 -1 -23 1 -28 6 -7 5 -11 0 -12 -12 -1 -11 2 -17 8 -14 10 7 13 -18
3 -28 -3 -3 -16 -2 -29 3 -13 5 -25 6 -28 3 -9 -8 19 -33 37 -33 8 0 20 -8 25
-17 9 -16 10 -16 11 -1 0 9 -6 18 -12 21 -7 2 -10 7 -7 11 9 10 39 -4 39 -18
-2 -24 -36 -81 -50 -82 -8 0 -10 1 -3 3 39 14 8 63 -54 84 -28 9 -32 13 -22
25 9 11 8 14 -5 14 -9 0 -16 -6 -16 -12 0 -7 -14 2 -30 21 -17 18 -30 39 -30
45 0 8 3 8 8 0 4 -5 16 -10 27 -11 11 0 29 -4 39 -8 15 -6 17 -5 11 5 -6 10
-4 12 8 7 14 -5 15 -3 5 18 -6 13 -15 22 -19 19 -5 -3 -9 0 -9 5 0 6 -5 11
-12 11 -6 0 -20 8 -31 18 -15 12 -21 14 -24 5 -8 -24 -31 -13 -53 25 -12 20
-19 34 -14 29 4 -4 17 -1 29 7 38 25 73 30 109 16z m1116 -11 c11 -19 10 -20
-10 -9 -11 6 -18 15 -15 21 9 13 13 11 25 -12z m-1850 7 c0 -2 -7 -7 -16 -10
-8 -3 -12 -2 -9 4 6 10 25 14 25 6z m2025 -7 c11 -16 1 -19 -13 -3 -7 8 -8 14
-3 14 5 0 13 -5 16 -11z m-5230 -19 c3 -5 1 -10 -4 -10 -6 0 -11 5 -11 10 0 6
2 10 4 10 3 0 8 -4 11 -10z m4342 -38 c1 -28 0 -32 -7 -17 -8 19 -9 19 -9 -3
-1 -17 8 -27 35 -38 19 -8 33 -20 31 -27 -2 -7 3 -20 11 -30 15 -16 14 -17 -4
-11 -30 11 -94 64 -94 79 0 12 28 85 33 85 1 0 3 -17 4 -38z m92 -11 c-14 -4
-79 28 -79 40 0 5 21 -1 46 -13 25 -13 40 -24 33 -27z m721 39 c0 -13 -28 -25
-38 -16 -3 4 0 11 8 16 20 13 30 12 30 0z m-565 -166 c44 -39 55 -53 41 -54
-11 0 -17 3 -13 6 3 3 -15 24 -41 45 -26 22 -65 55 -86 74 -21 19 -44 35 -50
35 -6 0 -4 5 4 10 11 7 24 1 50 -26 19 -20 62 -60 95 -90z m-715 97 c0 -6 -4
-13 -10 -16 -5 -3 -10 1 -10 9 0 9 5 16 10 16 6 0 10 -4 10 -9z m-3535 -89
c-6 -6 -53 28 -59 44 -3 8 10 2 29 -13 19 -15 32 -29 30 -31z m4861 42 c18
-14 18 -14 -6 -3 -31 14 -36 19 -24 19 6 0 19 -7 30 -16z m-594 -19 c16 -14
25 -25 19 -25 -12 0 -69 49 -57 50 4 0 21 -11 38 -25z m-371 -76 c-16 -46 -32
-93 -36 -104 -3 -11 3 -4 14 15 11 19 20 43 21 52 0 27 34 40 56 22 18 -15 18
-15 -7 -10 -17 4 -29 1 -32 -7 -3 -8 6 -12 25 -13 28 -1 57 -27 58 -52 0 -9
-7 -9 -30 3 -16 9 -30 20 -30 25 0 6 -9 10 -20 10 -13 0 -18 -5 -14 -14 3 -9
12 -12 21 -9 11 4 14 2 11 -8 -3 -8 -13 -13 -22 -13 -9 1 -16 -4 -16 -12 0 -8
9 -14 19 -14 28 0 37 -21 16 -37 -15 -10 -15 -13 -4 -13 8 0 19 4 25 8 5 4 34
16 64 27 30 10 57 21 60 24 7 9 214 91 228 91 7 0 12 -5 12 -11 0 -5 10 -3 22
5 30 21 48 20 48 -3 0 -14 -26 -29 -107 -63 -342 -144 -434 -181 -439 -175
-12 12 7 25 73 52 138 55 323 138 318 143 -6 6 -79 -20 -155 -55 -92 -42 -132
-54 -166 -47 -19 3 -34 1 -39 -5 -3 -6 -11 -9 -16 -6 -5 4 -9 -3 -9 -14 0 -12
-4 -21 -10 -21 -13 0 -13 16 0 41 7 13 7 19 0 19 -5 0 -10 -6 -10 -13 0 -7 -7
-22 -15 -33 -13 -17 13 58 81 239 37 95 40 78 5 -24z m63 76 c3 -8 12 -15 21
-15 8 0 15 -6 15 -14 0 -7 11 -21 25 -30 14 -9 25 -23 25 -31 0 -8 9 -19 20
-25 11 -6 20 -8 20 -4 0 4 8 0 18 -8 9 -9 24 -18 32 -21 8 -3 1 -6 -17 -6 -24
-1 -31 3 -27 13 4 11 0 13 -14 9 -27 -7 -140 93 -141 125 -1 25 14 30 23 7z
m171 -5 c3 -5 -4 -6 -15 -3 -11 3 -22 9 -25 13 -3 5 4 6 15 3 11 -3 22 -9 25
-13z m-385 -110 c-18 -44 -37 -83 -42 -87 -6 -3 -9 -2 -7 4 32 77 75 170 78
168 2 -3 -11 -40 -29 -85z m-796 68 c-4 -7 -18 -29 -30 -48 -20 -33 -20 -36
-4 -37 29 -2 330 -155 324 -164 -3 -5 1 -6 9 -4 13 6 133 -49 172 -78 19 -14
17 -16 -35 -30 -30 -9 -64 -18 -75 -21 -11 -3 16 -2 60 0 44 3 88 8 98 10 15
5 36 -20 25 -31 -2 -2 -109 -13 -238 -25 -129 -11 -265 -23 -302 -27 -44 -4
-68 -2 -68 4 0 17 18 21 166 34 77 8 130 15 120 17 -11 2 -85 -1 -165 -8 -136
-11 -146 -11 -158 6 -7 10 -13 29 -13 43 l1 26 17 -27 c19 -31 49 -39 37 -10
-21 52 -28 123 -19 176 6 31 9 56 7 56 -1 0 -9 -15 -17 -32 -19 -44 -20 -21
-1 33 18 52 76 149 88 149 4 0 5 -6 1 -12z m-2844 -18 c12 0 82 -42 77 -46 -2
-2 -30 9 -62 25 -36 17 -53 30 -45 33 8 3 17 1 18 -3 2 -5 8 -9 12 -9z m3544
-30 c9 0 16 -4 16 -10 0 -5 -4 -10 -8 -10 -19 0 -70 31 -76 46 -4 11 1 10 23
-5 16 -12 36 -21 45 -21z m445 18 l14 -23 -24 20 c-13 11 -26 21 -28 22 -2 2
2 3 10 3 8 0 20 -10 28 -22z m81 7 c11 -13 10 -14 -4 -9 -9 3 -16 10 -16 15 0
13 6 11 20 -6z m507 -33 c40 -60 65 -112 91 -187 21 -61 42 -153 42 -182 0
-37 -18 6 -34 79 -10 43 -23 81 -30 85 -7 5 -21 23 -31 41 -11 17 -23 32 -27
32 -4 0 -8 5 -8 12 0 6 -19 41 -42 76 -40 62 -41 65 -23 78 10 8 21 14 24 14
3 0 20 -21 38 -48z m-327 19 c0 -5 -7 -12 -16 -15 -24 -9 -28 -7 -14 9 14 17
30 20 30 6z m-1158 -56 c62 -31 122 -65 135 -76 12 -12 26 -18 31 -15 6 3 12
2 14 -3 1 -5 32 -23 67 -40 34 -18 61 -35 58 -38 -3 -3 -12 -1 -19 3 -7 5 -15
9 -18 9 -17 2 -212 104 -200 105 13 0 13 1 0 10 -20 13 -33 13 -25 0 3 -6 -1
-7 -9 -4 -9 3 -14 10 -11 14 3 5 -8 11 -25 15 -16 4 -30 11 -30 15 0 5 -7 7
-15 4 -8 -4 -15 -1 -15 5 0 6 -6 11 -13 11 -8 0 -22 9 -32 20 -10 11 -15 20
-12 20 3 0 57 -25 119 -55z m-3792 9 c0 -8 -6 -11 -15 -8 -8 4 -15 9 -15 13 0
4 7 8 15 8 8 0 15 -6 15 -13z m457 -10 c-7 -7 -37 7 -37 17 0 6 9 5 21 -1 11
-7 19 -14 16 -16z m3833 22 c0 -3 -4 -8 -10 -11 -5 -3 -10 -1 -10 4 0 6 5 11
10 11 6 0 10 -2 10 -4z m-4200 -26 c0 -17 -2 -19 -14 -8 -14 13 -12 28 5 28 5
0 9 -9 9 -20z m4154 -15 c9 -14 12 -25 7 -25 -5 0 -16 11 -25 25 -9 14 -12 25
-7 25 5 0 16 -11 25 -25z m843 -58 c72 -107 127 -281 107 -339 -7 -18 -9 -11
-15 36 -6 54 -11 63 -50 97 -24 21 -40 39 -35 39 6 0 22 -12 38 -27 15 -14 30
-24 33 -22 8 8 -44 142 -65 169 -11 14 -25 37 -31 52 -6 14 -17 29 -25 32 -8
3 -14 10 -14 16 0 22 17 7 57 -53z m408 52 c11 -17 -1 -21 -15 -4 -8 9 -8 15
-2 15 6 0 14 -5 17 -11z m-5435 -3 c0 -3 -4 -8 -10 -11 -5 -3 -10 -1 -10 4 0
6 5 11 10 11 6 0 10 -2 10 -4z m187 -92 c-5 -6 -47 78 -47 92 1 5 12 -13 26
-39 14 -27 23 -51 21 -53z m3 61 c0 -5 -5 -3 -10 5 -5 8 -10 20 -10 25 0 6 5
3 10 -5 5 -8 10 -19 10 -25z m30 2 c0 -5 -4 -5 -10 -2 -5 3 -10 14 -10 23 0
15 2 15 10 2 5 -8 10 -19 10 -23z m-170 19 c0 -3 -4 -8 -10 -11 -5 -3 -10 -1
-10 4 0 6 5 11 10 11 6 0 10 -2 10 -4z m75 -6 c3 -5 1 -10 -4 -10 -6 0 -11 5
-11 10 0 6 2 10 4 10 3 0 8 -4 11 -10z m-49 -56 c6 -45 14 -58 15 -23 0 19 4
14 19 -21 10 -25 19 -56 20 -70 0 -14 7 -34 15 -44 8 -11 15 -27 15 -35 -1 -9
-8 -2 -17 14 -9 17 -19 32 -22 35 -3 3 -16 25 -29 50 -40 77 -16 -4 29 -99 22
-46 38 -86 35 -88 -3 -3 -10 6 -15 20 -6 15 -21 29 -34 32 -13 4 -32 21 -43
38 -18 30 -19 31 -22 10 -2 -13 -8 -23 -14 -23 -5 0 -8 7 -4 15 3 8 0 18 -7
22 -25 15 -57 71 -51 87 8 21 34 2 34 -25 0 -21 32 -57 38 -41 2 6 -5 26 -14
44 -16 30 -16 32 0 19 25 -21 27 -10 6 34 -11 22 -19 46 -20 53 0 6 -5 12 -12
12 -6 0 -9 2 -6 5 12 13 38 -9 48 -41 7 -19 16 -32 21 -28 6 3 1 20 -11 38
-24 40 -25 50 -5 42 8 -3 15 0 15 6 0 25 12 -2 16 -38z m4144 42 c0 -3 -4 -8
-10 -11 -5 -3 -10 -1 -10 4 0 6 5 11 10 11 6 0 10 -2 10 -4z m300 -6 c12 -8
11 -10 -7 -10 -13 0 -23 5 -23 10 0 13 11 13 30 0z m-4520 -64 c-1 -20 -30 27
-30 48 0 18 3 16 15 -8 8 -15 15 -33 15 -40z m-59 45 c8 -1 29 -48 29 -64 0
-7 -9 3 -20 21 -11 17 -27 32 -35 32 -8 0 -15 4 -15 9 0 5 8 8 18 6 9 -2 20
-4 23 -4z m5019 4 c0 -2 -8 -9 -18 -14 -14 -8 -19 -6 -19 5 0 7 9 14 19 14 10
0 18 -2 18 -5z m445 -5 c3 -5 2 -10 -4 -10 -5 0 -13 5 -16 10 -3 6 -2 10 4 10
5 0 13 -4 16 -10z m-5255 -10 c0 -5 -2 -10 -4 -10 -3 0 -8 5 -11 10 -3 6 -1
10 4 10 6 0 11 -4 11 -10z m73 -10 c3 -11 1 -18 -4 -14 -5 3 -9 12 -9 20 0 20
7 17 13 -6z m102 10 c3 -5 1 -10 -4 -10 -6 0 -11 5 -11 10 0 6 2 10 4 10 3 0
8 -4 11 -10z m-165 -102 c0 -10 3 -18 8 -18 7 0 42 -72 42 -86 0 -3 8 -18 18
-32 21 -30 34 -72 23 -72 -4 0 -13 17 -20 38 -8 20 -17 42 -22 48 -22 28 -76
143 -82 174 l-6 35 19 -35 c10 -19 19 -43 20 -52z m4714 61 c14 -11 31 -30 37
-42 9 -17 4 -15 -22 9 -19 17 -43 36 -54 42 -16 9 -17 11 -4 12 9 0 28 -9 43
-21z m46 6 c7 -9 8 -15 2 -15 -5 0 -12 7 -16 15 -3 8 -4 15 -2 15 2 0 9 -7 16
-15z m-4690 -39 c0 5 9 10 19 10 15 0 17 -3 9 -13 -6 -7 -14 -10 -19 -7 -5 3
-9 0 -9 -7 0 -8 -6 -6 -18 4 -10 10 -24 17 -30 17 -6 0 -9 7 -5 16 5 13 9 12
29 -7 13 -12 24 -18 24 -13z m4600 30 c0 -3 -4 -8 -10 -11 -5 -3 -10 -1 -10 4
0 6 5 11 10 11 6 0 10 -2 10 -4z m-3430 -27 c0 -6 -4 -7 -10 -4 -5 3 -10 11
-10 16 0 6 5 7 10 4 6 -3 10 -11 10 -16z m3649 -5 c14 -12 -19 -1 -35 12 -18
14 -18 14 6 3 14 -6 27 -13 29 -15z m-968 4 c2 -24 -3 -43 -13 -53 -8 -7 -9
-5 -5 6 3 9 1 21 -5 27 -11 11 -3 32 13 32 5 0 10 -6 10 -12z m683 1 c-2 -4 6
-15 18 -23 l22 -16 -27 0 c-15 0 -27 5 -27 10 0 6 -9 10 -20 10 -25 0 -27 17
-2 22 28 6 41 5 36 -3z m-4939 -21 c6 -13 16 -24 23 -24 25 -3 27 -6 7 -13
-20 -8 -34 4 -48 42 -9 25 7 21 18 -5z m1013 -97 c28 -60 52 -112 52 -116 0
-5 10 -22 23 -39 30 -41 67 -105 67 -117 0 -18 -17 -8 -29 17 -6 15 -14 24
-18 21 -3 -4 0 -13 6 -21 7 -8 10 -19 7 -24 -3 -5 1 -28 8 -53 7 -24 11 -63 8
-87 l-4 -43 -26 38 c-14 21 -29 40 -32 43 -9 6 -50 91 -50 102 0 4 -25 52 -55
107 -30 55 -55 108 -55 118 0 10 -7 29 -16 42 -14 19 -14 25 -3 32 8 5 18 4
23 -1 20 -20 28 -9 22 31 -6 39 -2 59 12 59 4 0 31 -49 60 -109z m3522 84 c0
-14 -4 -25 -10 -25 -11 0 -14 33 -3 43 11 11 13 8 13 -18z m-4444 3 c4 -7 3
-8 -4 -4 -7 4 -12 2 -12 -4 0 -6 -5 -8 -10 -5 -11 7 -4 25 10 25 5 0 12 -5 16
-12z m323 -58 c24 -50 18 -67 -10 -30 -10 14 -23 30 -28 36 -6 7 -7 15 -3 18
3 4 0 11 -7 15 -7 5 -10 14 -7 20 10 15 29 -5 55 -59z m79 45 c17 -37 15 -41
-8 -12 -22 27 -25 37 -12 37 5 0 14 -11 20 -25z m-58 6 c0 -6 -4 -13 -10 -16
-5 -3 -10 1 -10 9 0 9 5 16 10 16 6 0 10 -4 10 -9z m4396 -18 c-10 -10 -19 5
-10 18 6 11 8 11 12 0 2 -7 1 -15 -2 -18z m-3501 7 c3 -5 2 -10 -4 -10 -5 0
-13 5 -16 10 -3 6 -2 10 4 10 5 0 13 -4 16 -10z m139 -10 c10 8 25 5 57 -12
45 -24 68 -55 31 -44 -11 4 -23 2 -26 -3 -4 -6 -17 -4 -33 4 -15 8 -30 12 -35
9 -5 -3 -23 1 -41 9 -18 8 -39 17 -47 21 -8 3 -5 4 8 2 17 -3 22 1 22 16 0 19
1 20 26 3 19 -12 29 -13 38 -5z m3335 -4 c-2 -2 -13 -6 -23 -8 -24 -4 -33 19
-9 24 18 4 41 -7 32 -16z m228 -13 c20 -18 15 -25 -9 -12 -24 13 -38 28 -38
43 0 8 20 -5 47 -31z m540 -10 c0 -16 -23 2 -39 30 -10 19 -10 19 14 1 14 -10
25 -24 25 -31z m-5638 -22 c0 -14 -1 -14 -6 -1 -3 8 -10 24 -15 35 -9 20 -9
20 6 1 9 -11 16 -27 15 -35z m4950 25 c13 -14 36 -30 52 -36 16 -7 29 -19 29
-27 0 -12 8 -14 33 -10 17 2 44 -2 59 -9 15 -8 45 -13 67 -11 22 2 38 0 35 -5
-3 -4 -1 -8 5 -8 5 0 18 -3 28 -6 15 -5 15 -4 3 5 -8 6 -10 11 -4 11 5 0 14
-4 20 -9 5 -5 20 -11 34 -13 18 -2 27 -12 34 -36 10 -36 2 -52 -16 -34 -7 7
-24 12 -39 12 -15 0 -78 9 -140 21 -63 11 -143 25 -179 30 -63 9 -132 21 -217
40 -23 5 -53 9 -67 9 -14 0 -26 5 -26 10 0 6 16 8 43 3 37 -5 41 -4 29 9 -7 9
-10 23 -6 32 8 20 8 20 44 1 26 -14 29 -14 24 0 -5 11 1 15 22 15 21 0 25 -3
15 -9 -11 -7 -9 -11 9 -21 16 -8 25 -9 33 -1 7 7 5 12 -6 17 -9 3 -17 10 -17
16 0 14 43 -2 62 -24 9 -11 23 -21 30 -22 7 -2 21 -6 30 -10 9 -4 25 -6 35 -3
15 3 14 6 -7 15 -31 14 -98 72 -84 72 6 0 21 -11 33 -24z m-4425 -2 c3 -8 2
-12 -4 -9 -6 3 -10 10 -10 16 0 14 7 11 14 -7z m4521 -2 c-3 -3 -11 0 -18 7
-9 10 -8 11 6 5 10 -3 15 -9 12 -12z m-4836 -47 c8 -22 25 -64 39 -93 23 -47
24 -54 10 -68 -13 -14 -16 -11 -30 28 -8 24 -16 55 -16 69 -1 14 -8 39 -17 55
-15 30 -21 75 -7 59 4 -6 14 -28 21 -50z m4976 45 c3 -5 -1 -10 -9 -10 -8 0
-18 5 -21 10 -3 6 1 10 9 10 8 0 18 -4 21 -10z m-40 -20 c3 -5 -1 -10 -9 -10
-9 0 -16 5 -16 10 0 6 4 10 9 10 6 0 13 -4 16 -10z m-4889 -46 c16 -39 17 -47
5 -39 -11 6 -41 63 -41 77 0 18 22 -5 36 -38z m4826 37 c2 7 10 9 16 5 17 -10
15 -26 -3 -20 -8 4 -15 1 -15 -6 0 -10 -3 -10 -15 0 -8 7 -15 17 -15 22 0 6 6
6 14 -1 11 -9 15 -9 18 0z m103 -11 c3 -5 2 -10 -4 -10 -5 0 -13 5 -16 10 -3
6 -2 10 4 10 5 0 13 -4 16 -10z m-5121 -23 c-1 -9 2 -14 7 -11 5 3 9 -4 9 -15
0 -24 -18 -28 -26 -6 -4 8 -12 15 -20 15 -17 0 -18 7 -1 25 15 18 32 13 31 -8z
m236 -1 c0 -3 -4 -8 -10 -11 -5 -3 -10 -1 -10 4 0 6 5 11 10 11 6 0 10 -2 10
-4z m128 -31 c-3 -3 -9 2 -12 12 -6 14 -5 15 5 6 7 -7 10 -15 7 -18z m132 -79
c4 -21 4 -34 -1 -30 -5 3 -9 16 -9 30 0 14 -7 27 -15 30 -8 4 -15 13 -15 22 0
29 30 -11 40 -52z m-450 11 c0 -20 -25 1 -28 24 -2 23 -2 23 13 5 8 -11 15
-24 15 -29z m76 -14 c-2 -2 -16 3 -32 12 -16 8 -23 15 -16 15 6 0 12 8 12 18
0 12 6 9 20 -13 10 -16 18 -31 16 -32z m4074 49 c0 -10 -38 -42 -50 -42 -6 0
-10 -7 -10 -15 0 -22 -40 -19 -41 3 0 14 -2 14 -8 -3 -5 -13 -3 -24 6 -31 12
-8 8 -15 -21 -38 -35 -26 -38 -27 -61 -12 -14 9 -25 12 -25 6 0 -5 5 -10 11
-10 6 0 8 -9 4 -22 -5 -19 -4 -20 5 -8 10 13 11 12 6 -4 -4 -10 -1 -24 5 -32
8 -10 1 -23 -29 -56 -21 -24 -53 -64 -71 -90 -17 -27 -34 -48 -37 -48 -20 0
-105 63 -159 118 -66 68 -98 118 -134 210 -30 75 -11 64 26 -15 35 -76 54
-101 132 -185 59 -64 93 -74 126 -38 10 11 14 20 9 20 -19 0 -155 137 -188
190 -19 30 -34 56 -32 57 8 9 223 33 298 34 76 1 194 10 231 17 4 1 7 -1 7 -6z
m-4246 -93 c5 -4 7 -12 4 -19 -5 -16 -48 55 -47 78 0 10 8 2 17 -18 9 -19 21
-38 26 -41z m4758 51 c21 -6 43 -20 49 -31 15 -29 4 -35 -27 -13 -15 11 -38
27 -53 36 -30 20 -22 22 31 8z m-332 -23 c24 -10 24 -11 3 -14 -30 -6 -34 -25
-18 -75 8 -24 26 -126 39 -226 24 -183 24 -184 57 -217 26 -24 42 -32 63 -30
34 4 48 15 18 15 -26 0 -28 12 -7 30 14 12 13 15 -3 31 -15 13 -22 42 -30 116
-30 268 -33 313 -22 313 6 0 10 -20 10 -45 0 -38 6 -76 25 -171 5 -23 55 -81
55 -64 0 6 5 8 11 4 17 -10 -12 -25 -35 -18 -17 6 -18 2 -13 -32 4 -22 7 -47
7 -57 0 -16 9 -18 92 -16 78 2 154 13 166 24 5 5 -65 75 -74 75 -4 0 -3 -5 4
-12 19 -19 15 -48 -7 -48 -26 0 -37 19 -20 32 11 8 11 9 -3 5 -9 -3 -24 3 -34
14 -9 10 -24 19 -33 19 -22 0 -46 39 -33 52 12 12 35 1 27 -12 -6 -9 21 -40
34 -40 5 0 9 11 9 25 0 36 9 42 28 19 8 -10 12 -12 9 -4 -4 8 18 -12 49 -45
30 -33 56 -63 56 -66 0 -4 18 -6 41 -6 22 0 45 -5 52 -12 8 -8 8 -11 -1 -11
-7 0 -12 -9 -12 -19 0 -12 -11 -23 -27 -29 -16 -6 -21 -11 -11 -11 9 -1 24 -4
34 -8 10 -3 15 -2 12 3 -4 5 5 10 18 10 13 1 42 12 65 23 57 30 61 19 5 -14
-25 -15 -46 -30 -46 -35 0 -14 -101 -50 -189 -66 -118 -22 -326 -15 -431 16
-41 12 -79 25 -85 29 -5 5 -28 14 -50 21 -22 7 -69 26 -105 44 -36 17 -70 31
-75 32 -15 2 -100 61 -116 80 -13 15 -10 15 21 -1 19 -10 46 -26 59 -36 13
-11 31 -19 40 -19 9 0 33 -9 54 -19 20 -10 48 -22 61 -25 13 -3 32 -8 43 -12
10 -3 -3 6 -29 21 -52 28 -63 40 -22 25 15 -6 43 -14 63 -19 34 -7 37 -6 37
13 -1 17 6 22 38 24 l39 3 -63 60 c-72 69 -93 74 -25 6 25 -25 45 -48 45 -50
0 -13 -125 26 -179 55 -48 26 -56 34 -46 45 8 7 21 10 29 7 11 -4 15 -2 11 8
-3 8 1 21 10 28 13 11 19 10 38 -9 30 -28 46 -27 21 1 -19 21 -18 21 14 -1 37
-26 53 -24 23 3 -11 10 -18 23 -15 30 3 9 -4 11 -26 8 -16 -2 -30 0 -30 5 0
14 63 58 80 55 11 -2 12 -1 2 6 -9 6 -4 16 18 37 16 16 32 26 35 23 3 -2 -4
-13 -15 -23 -20 -18 -20 -18 10 -37 39 -23 49 -23 24 1 -10 10 -22 17 -26 14
-5 -2 -8 0 -8 6 0 21 18 19 46 -6 16 -15 40 -36 53 -47 l24 -21 -12 23 c-7 12
-29 35 -50 50 -46 34 -46 56 4 97 27 23 34 36 29 49 -6 16 -4 17 17 11 13 -4
35 -12 49 -18z m140 14 c0 -5 -9 -13 -20 -16 -11 -4 -18 -10 -15 -15 3 -4 -4
-6 -15 -3 -11 3 -20 7 -20 9 0 3 50 27 68 33 1 1 2 -3 2 -8z m276 -18 c-8 -8
-36 5 -36 17 0 7 6 7 21 0 11 -7 18 -14 15 -17z m774 23 c0 -3 -4 -8 -10 -11
-5 -3 -10 -1 -10 4 0 6 5 11 10 11 6 0 10 -2 10 -4z m-673 -31 c6 -7 24 -10
40 -7 40 7 18 -12 -32 -28 -29 -10 -40 -10 -43 -1 -2 6 -10 11 -17 11 -7 0
-15 11 -17 24 -5 23 -3 24 26 19 17 -4 36 -12 43 -18z m-4772 -35 c17 -33 19
-50 6 -50 -9 0 -12 8 -27 63 -8 27 4 20 21 -13z m1305 -6 c0 -8 -4 -14 -10
-14 -5 0 -10 2 -10 4 0 2 -3 12 -6 20 -5 12 -2 15 10 10 9 -3 16 -12 16 -20z
m86 -22 c12 -23 18 -42 14 -42 -5 0 -12 5 -15 10 -3 6 -14 10 -24 10 -23 0
-42 40 -27 57 17 18 28 11 52 -35z m3568 31 c-17 -13 -16 -14 11 -8 28 6 29 5
11 -9 -17 -14 -17 -16 -3 -22 9 -3 20 -3 26 0 5 4 7 -3 3 -16 -3 -13 -1 -19 6
-15 15 10 42 -3 42 -19 0 -17 -17 -19 -22 -3 -2 7 -18 12 -36 13 -19 1 -31 6
-29 13 1 6 -2 13 -8 14 -5 1 -16 9 -23 18 -8 9 -11 10 -7 4 10 -21 -9 -15 -23
7 -7 11 -19 20 -28 20 -8 0 -13 4 -9 9 3 6 28 9 56 9 46 -1 50 -3 33 -15z
m-506 -39 c131 -105 186 -150 204 -169 44 -47 88 -103 88 -114 0 -18 -18 -13
-30 9 -6 11 -16 20 -23 20 -18 1 -63 38 -55 46 4 4 16 -4 27 -17 17 -20 20
-21 21 -6 0 9 -4 17 -9 17 -8 0 -64 49 -163 143 -22 20 -50 42 -62 48 -11 5
-4 -4 17 -21 39 -33 49 -54 20 -43 -11 4 -14 3 -9 -5 4 -7 16 -12 26 -12 10 0
21 -4 24 -9 10 -15 -49 1 -70 20 -11 11 -23 16 -26 13 -10 -9 -45 5 -45 19 0
6 -3 26 -7 42 -5 28 0 65 10 65 2 0 30 -21 62 -46z m217 36 c-3 -5 -13 -10
-21 -10 -8 0 -12 5 -9 10 3 6 13 10 21 10 8 0 12 -4 9 -10z m-70 -20 c10 -11
16 -20 13 -20 -3 0 -13 9 -23 20 -10 11 -16 20 -13 20 3 0 13 -9 23 -20z m247
3 c10 -9 18 -20 18 -25 0 -14 -22 -9 -43 10 -15 12 -21 14 -24 5 -6 -17 -20
-16 -26 1 -4 10 -1 13 9 9 7 -3 14 0 14 6 0 17 31 13 52 -6z m-3362 -47 c-1
-6 -10 0 -20 13 -11 13 -20 28 -20 35 1 6 10 0 20 -13 11 -13 20 -28 20 -35z
m43 1 c3 -10 11 -16 19 -15 8 2 12 -5 11 -17 -1 -10 3 -28 8 -40 13 -25 -45
39 -72 80 -10 17 -19 34 -19 38 0 14 48 -27 53 -46z m3547 15 c0 -13 -3 -12
-15 4 -19 25 -19 40 0 24 8 -7 15 -20 15 -28z m365 18 c16 -17 16 -20 3 -15
-9 4 -19 13 -22 21 -7 19 -2 18 19 -6z m-738 -16 c35 -38 18 -44 -20 -6 -18
18 -26 32 -18 32 8 0 25 -12 38 -26z m471 -4 c21 -58 -22 -144 -117 -237 -89
-88 -102 -98 -128 -98 -32 0 -38 12 -18 35 12 13 14 20 6 20 -19 0 -297 267
-288 276 2 2 42 -28 88 -69 96 -83 135 -112 166 -121 13 -4 36 -20 52 -36 26
-26 32 -28 59 -19 16 5 43 24 60 42 29 30 112 176 112 197 0 21 -18 9 -24 -15
-4 -16 -11 -23 -18 -19 -6 4 -8 3 -5 -4 10 -15 -3 -43 -16 -35 -5 3 -7 1 -4
-5 9 -13 -2 -44 -13 -37 -5 3 -14 -8 -22 -25 -12 -29 -43 -44 -32 -16 3 8 -13
29 -41 51 -25 21 -43 40 -41 42 9 9 46 -9 46 -22 0 -22 41 -46 57 -34 7 6 11
15 8 19 -3 4 1 10 9 13 8 3 17 19 21 36 4 17 10 31 13 31 4 0 13 14 20 30 17
38 37 38 50 0z m-3843 0 c3 -5 1 -10 -4 -10 -6 0 -11 5 -11 10 0 6 2 10 4 10
3 0 8 -4 11 -10z m4133 -49 c38 -28 42 -44 8 -28 -13 7 -23 14 -21 18 2 3 -9
13 -26 23 -16 9 -27 22 -24 27 4 5 12 4 19 -3 7 -7 27 -24 44 -37z m-5604 13
c3 -8 2 -12 -4 -9 -6 3 -10 10 -10 16 0 14 7 11 14 -7z m-34 -34 c0 -13 -1
-13 -10 0 -5 8 -10 22 -10 30 0 13 1 13 10 0 5 -8 10 -22 10 -30z m5005 20 c3
-5 -1 -10 -9 -10 -9 0 -16 5 -16 10 0 6 4 10 9 10 6 0 13 -4 16 -10z m200 -30
c3 -5 2 -10 -4 -10 -5 0 -13 5 -16 10 -3 6 -2 10 4 10 5 0 13 -4 16 -10z
m-3550 -10 c-3 -5 -12 -10 -18 -10 -7 0 -6 4 3 10 19 12 23 12 15 0z m2962 -3
c5 -16 -10 -37 -26 -35 -19 3 -32 30 -19 39 12 7 42 5 45 -4z m363 3 c0 -5 -4
-10 -9 -10 -6 0 -13 5 -16 10 -3 6 1 10 9 10 9 0 16 -4 16 -10z m85 -38 c-1
-1 -15 2 -31 8 l-29 11 35 -36 c40 -41 15 -38 -33 4 l-28 25 23 12 c18 10 26
9 44 -5 12 -9 21 -17 19 -19z m560 8 c10 -11 16 -20 13 -20 -3 0 -13 9 -23 20
-10 11 -16 20 -13 20 3 0 13 -9 23 -20z m-973 -2 c17 -15 31 -48 20 -48 -5 0
-13 5 -19 11 -8 8 -11 6 -10 -7 3 -28 -57 -27 -61 1 -3 19 -2 19 11 3 8 -10
22 -18 32 -18 17 0 17 1 2 18 -19 20 -23 37 -7 27 6 -3 7 1 4 9 -7 19 6 21 28
4z m-2468 -24 c5 -14 4 -15 -9 -4 -17 14 -19 20 -6 20 5 0 12 -7 15 -16z
m1686 -4 c0 -5 -4 -10 -10 -10 -5 0 -10 5 -10 10 0 6 5 10 10 10 6 0 10 -4 10
-10z m934 -39 c-5 -6 -24 10 -35 32 -10 20 -9 20 14 -3 13 -14 23 -27 21 -29z
m307 22 c13 -16 12 -17 -3 -4 -17 13 -22 21 -14 21 2 0 10 -8 17 -17z m519 2
c7 -8 9 -15 6 -15 -4 0 -14 7 -22 15 -9 8 -11 15 -6 15 5 0 15 -7 22 -15z
m-470 -5 c0 -5 -4 -10 -10 -10 -5 0 -10 5 -10 10 0 6 5 10 10 10 6 0 10 -4 10
-10z m-3154 -53 c17 -23 38 -53 45 -67 8 -13 19 -30 24 -36 6 -7 28 -43 50
-79 22 -37 50 -79 61 -94 31 -38 66 -111 54 -111 -5 0 -10 6 -10 13 0 6 -23
32 -50 56 -28 25 -50 49 -50 54 0 6 -11 25 -25 43 -29 37 -146 264 -136 264 3
0 20 -20 37 -43z m3190 18 c-8 -8 -18 -15 -22 -15 -3 0 -1 7 6 15 7 8 17 15
22 15 5 0 3 -7 -6 -15z m328 -47 c11 -10 17 -18 11 -17 -20 0 -57 38 -49 51 6
9 9 8 12 -2 2 -8 14 -23 26 -32z m-659 -12 c16 -14 26 -28 23 -32 -4 -3 -26
13 -50 36 -44 43 -26 40 27 -4z m-2966 -25 c-1 -13 -2 -12 -6 2 -2 9 -9 17
-14 17 -5 0 -9 8 -9 18 1 15 2 15 15 -2 8 -11 14 -27 14 -35z m2751 9 c0 -5
-7 -7 -15 -4 -8 4 -15 8 -15 10 0 2 7 4 15 4 8 0 15 -4 15 -10z m939 -3 c9 4
13 3 9 -2 -4 -4 0 -14 9 -20 15 -11 15 -13 -5 -19 -25 -8 -45 8 -50 39 -3 15
-1 17 8 8 7 -6 20 -9 29 -6z m-51 -32 c12 -25 12 -25 -13 -9 -14 9 -22 20 -19
25 9 15 20 10 32 -16z m-864 -1 c18 -17 21 -28 6 -19 -5 3 -10 1 -10 -4 0 -6
-7 -11 -15 -11 -9 0 -15 9 -15 25 0 29 12 32 34 9z m833 -34 c8 -12 13 -23 11
-25 -3 -4 -78 62 -78 70 0 10 53 -25 67 -45z m-82 10 c3 -6 -1 -7 -9 -4 -18 7
-21 14 -7 14 6 0 13 -4 16 -10z m-315 -10 c0 -5 -5 -10 -11 -10 -5 0 -7 5 -4
10 3 6 8 10 11 10 2 0 4 -4 4 -10z m277 -27 c17 -23 35 -53 30 -53 -11 0 -66
58 -60 63 10 10 15 9 30 -10z m-3449 -80 c24 -37 27 -48 12 -38 -16 10 -60 83
-59 97 0 8 5 5 12 -6 7 -10 22 -34 35 -53z m3621 58 c7 -5 9 -11 4 -14 -6 -4
-19 0 -29 8 -15 11 -16 14 -4 15 8 0 21 -4 29 -9z m-3601 -41 c-2 -7 -10 1
-17 16 -12 27 -11 28 4 12 10 -9 16 -21 13 -28z m862 25 c7 -9 8 -15 2 -15 -5
0 -12 7 -16 15 -3 8 -4 15 -2 15 2 0 9 -7 16 -15z m-792 -67 c6 -16 10 -28 7
-28 -6 0 -45 76 -45 87 0 11 24 -27 38 -59z m3307 24 c-6 -7 -35 18 -35 31 0
5 9 2 20 -8 11 -10 18 -20 15 -23z m-45 18 c0 -5 -4 -10 -10 -10 -5 0 -10 5
-10 10 0 6 5 10 10 10 6 0 10 -4 10 -10z m160 -32 c0 -5 -9 -4 -20 2 -11 6
-20 12 -20 14 0 2 9 2 20 -1 11 -3 20 -9 20 -15z m64 6 c5 -14 4 -15 -9 -4
-17 14 -19 20 -6 20 5 0 12 -7 15 -16z m-282 -47 c9 -18 8 -18 -16 -2 -14 10
-26 21 -26 25 0 13 25 18 29 6 2 -6 8 -19 13 -29z m-3252 3 c0 -5 -5 -10 -11
-10 -5 0 -7 5 -4 10 3 6 8 10 11 10 2 0 4 -4 4 -10z m3206 -17 c-7 -7 -26 7
-26 19 0 6 6 6 15 -2 9 -7 13 -15 11 -17z m-3191 -13 c3 -5 1 -10 -4 -10 -6 0
-11 5 -11 10 0 6 2 10 4 10 3 0 8 -4 11 -10z m1814 -33 c11 3 21 9 21 14 0 18
27 8 52 -18 45 -49 66 -113 37 -113 -5 0 -10 8 -10 18 -1 16 -2 16 -6 -1 -2
-9 -8 -15 -13 -12 -5 3 -7 12 -3 21 3 8 2 14 -3 13 -22 -3 -52 14 -47 27 4 10
-3 14 -26 14 -17 0 -31 5 -31 11 0 5 -16 17 -35 25 -19 8 -35 18 -35 22 0 21
16 20 45 -2 21 -16 40 -23 54 -19z m1301 28 c8 -9 8 -15 2 -15 -6 0 -13 6 -16
13 -5 10 -7 10 -12 0 -7 -15 -44 -18 -44 -4 0 5 10 12 23 14 12 2 25 5 28 6 4
0 12 -6 19 -14z m-80 -25 c0 -5 -6 -7 -14 -4 -10 4 -12 -2 -8 -21 2 -14 7 -24
9 -21 8 7 53 -36 53 -51 0 -22 -26 -14 -40 12 -7 14 -18 25 -23 25 -5 0 -18
11 -29 25 -11 14 -24 23 -29 20 -5 -4 -9 -1 -9 4 0 6 10 11 23 11 12 0 29 4
37 9 15 10 30 6 30 -9z m-3016 -6 c3 -8 2 -12 -4 -9 -6 3 -10 10 -10 16 0 14
7 11 14 -7z m1524 2 c34 -17 70 -56 53 -56 -7 0 -19 7 -27 15 -9 8 -24 15 -35
15 -11 0 -17 5 -14 10 3 6 1 10 -4 10 -6 0 -11 5 -11 10 0 13 6 13 38 -4z
m1562 -14 c0 -10 10 -26 21 -36 16 -13 18 -21 10 -29 -15 -15 -76 46 -67 68 8
21 36 19 36 -3z m289 4 c10 -12 8 -13 -8 -9 -12 3 -21 9 -21 14 0 14 16 11 29
-5z m-455 -13 c4 -9 2 -21 -4 -27 -14 -14 -13 -26 3 -26 6 0 20 -12 30 -25 25
-35 0 -33 -38 4 -17 15 -47 36 -68 46 -20 9 -34 21 -31 26 8 13 58 11 72 -3 9
-9 12 -8 12 5 0 22 16 22 24 0z m-287 -7 c134 -1 168 -6 144 -21 -6 -3 -11 -1
-11 4 0 6 -7 11 -16 11 -14 0 -14 -3 -4 -15 10 -13 9 -15 -8 -15 -15 0 -20 -5
-16 -15 5 -12 10 -13 20 -4 9 8 18 7 31 -1 14 -9 14 -10 2 -7 -13 4 -15 1 -11
-16 5 -20 4 -21 -13 -7 -17 14 -18 13 -13 -5 3 -11 -1 -26 -8 -33 -15 -14 -34
-16 -34 -3 0 5 -7 8 -16 7 -25 -2 -29 24 -5 31 39 10 10 24 -36 17 -38 -5 -50
-3 -76 17 -18 13 -52 33 -77 46 -25 13 -34 20 -20 17 14 -4 89 -7 167 -8z
m-2410 -80 c-2 -6 -9 -1 -16 12 -6 12 -9 28 -5 34 8 13 27 -28 21 -46z m1868
34 c0 -7 -6 -15 -12 -17 -8 -3 -13 4 -13 17 0 13 5 20 13 18 6 -3 12 -11 12
-18z m-438 -30 c7 -10 9 -21 5 -24 -4 -2 -12 7 -19 20 -13 29 -3 32 14 4z
m468 0 c6 -20 35 -28 35 -10 0 17 46 11 70 -10 13 -11 18 -20 11 -20 -8 0 -10
-7 -6 -20 3 -11 2 -20 -3 -20 -5 0 -17 9 -27 20 -10 11 -24 20 -32 20 -7 0
-13 -9 -13 -20 0 -22 -1 -23 -24 -14 -20 8 -50 69 -41 83 10 17 23 13 30 -9z
m669 -76 c17 -15 35 -33 39 -40 11 -20 -50 -7 -86 19 -26 18 -27 20 -10 33 23
17 20 18 57 -12z m116 11 c7 -9 8 -15 2 -15 -5 0 -12 7 -16 15 -3 8 -4 15 -2
15 2 0 9 -7 16 -15z m400 -6 c0 -5 -4 -9 -10 -9 -5 0 -10 7 -10 16 0 8 5 12
10 9 6 -3 10 -10 10 -16z m-85 -10 c11 -17 -1 -21 -15 -4 -8 9 -8 15 -2 15 6
0 14 -5 17 -11z m-231 -41 c-3 -4 -14 -3 -25 2 -19 11 -24 22 -13 33 8 8 44
-25 38 -35z m166 15 c0 -5 23 -32 50 -62 56 -60 65 -83 20 -51 -16 12 -30 25
-30 30 0 4 -10 10 -22 13 -13 4 -31 12 -42 20 -15 11 -17 17 -7 35 11 21 31
30 31 15z m-2322 -112 c26 -22 19 -31 -24 -31 -38 0 -51 13 -32 34 17 20 31
20 56 -3z m1717 9 c3 -5 1 -10 -4 -10 -6 0 -11 5 -11 10 0 6 2 10 4 10 3 0 8
-4 11 -10z m-1575 -15 c0 -8 -4 -15 -10 -15 -5 0 -10 7 -10 15 0 8 5 15 10 15
6 0 10 -7 10 -15z m2027 -37 c-3 -8 -6 -5 -6 6 -1 11 2 17 5 13 3 -3 4 -12 1
-19z m108 -16 c-3 -3 -11 0 -18 7 -9 10 -8 11 6 5 10 -3 15 -9 12 -12z m103
-10 c8 -12 10 -22 4 -22 -5 0 -17 12 -27 26 -11 17 -13 25 -4 22 7 -2 19 -14
27 -26z m-2326 -3 c22 -11 49 -18 60 -16 16 5 19 2 15 -15 -4 -14 2 -27 16
-39 21 -18 47 -25 47 -13 0 17 -23 44 -38 44 -13 0 -12 3 6 16 20 14 24 13 55
-10 19 -15 42 -26 52 -26 14 0 15 -3 6 -14 -10 -12 -7 -15 16 -18 25 -3 29 -9
37 -50 6 -29 15 -48 23 -48 17 0 16 15 -3 45 -15 24 -15 25 4 25 11 0 22 6 25
13 6 19 37 -11 36 -37 -1 -17 -2 -17 -6 -3 -7 26 -33 21 -33 -7 0 -21 30 -61
30 -40 0 5 5 2 10 -6 8 -13 10 -13 10 0 0 11 3 11 12 2 16 -16 28 -15 28 3 0
8 -6 15 -14 15 -14 0 -26 21 -26 46 0 8 7 14 15 14 18 0 19 12 3 28 -6 6 -9
14 -6 18 9 8 62 -45 81 -81 8 -16 31 -44 51 -62 20 -18 36 -41 36 -53 0 -27
14 -53 45 -84 24 -24 34 -56 17 -56 -18 0 -52 42 -52 64 0 18 -4 23 -18 19
-10 -2 -24 3 -31 11 -8 9 -18 16 -23 16 -13 0 1 -61 18 -81 12 -13 12 -18 0
-34 -12 -17 -17 -18 -40 -7 -36 16 -37 16 -21 -15 16 -31 12 -41 -10 -23 -12
10 -15 10 -15 -3 0 -9 7 -20 17 -25 10 -6 14 -16 9 -27 -5 -14 -9 -15 -21 -5
-19 16 -35 4 -35 -26 0 -16 -8 -28 -25 -36 -14 -6 -25 -17 -25 -25 0 -8 -13
-22 -30 -31 -34 -20 -36 -25 -14 -43 11 -9 23 -10 42 -3 36 13 59 7 65 -16 6
-25 -18 -48 -27 -25 -6 17 -46 21 -46 5 0 -5 5 -10 11 -10 8 0 8 -5 -1 -15
-13 -16 -50 -21 -50 -7 0 4 6 14 13 21 10 10 9 14 -5 22 -10 6 -18 16 -18 23
0 8 -13 19 -28 25 -22 9 -35 9 -64 -3 -20 -9 -40 -20 -43 -26 -10 -17 -24 -2
-18 20 4 16 2 19 -11 14 -12 -4 -15 -2 -10 9 5 13 -20 77 -30 77 -3 0 -11 3
-20 6 -12 4 -16 0 -16 -16 0 -14 -6 -21 -17 -19 -31 3 -36 -1 -23 -16 15 -18
6 -45 -15 -45 -8 0 -14 3 -13 7 2 5 -1 8 -7 8 -5 0 -9 -4 -7 -8 1 -4 -6 -3
-16 2 -12 6 -33 6 -58 1 -52 -13 -49 -13 -62 16 -7 14 -15 23 -20 20 -14 -8
-39 19 -46 51 -7 32 -36 55 -36 28 0 -8 4 -15 10 -15 5 0 6 -8 3 -17 -5 -14
-10 -11 -20 16 -8 19 -12 40 -9 47 3 9 -2 14 -14 14 -16 0 -20 7 -20 38 0 20
-7 46 -15 56 -8 11 -15 23 -15 28 0 12 38 10 45 -2 3 -5 18 -10 32 -10 l26 0
-27 21 c-16 13 -25 27 -22 36 8 21 -4 39 -15 22 -7 -11 -11 -11 -21 -1 -10 10
-10 14 1 21 8 5 11 16 7 29 -4 11 -2 23 4 27 5 3 10 0 10 -7 0 -22 46 -68 69
-68 29 0 27 18 -4 32 -35 16 -31 26 11 26 21 0 38 -6 41 -14 3 -8 9 -11 14 -9
10 7 1 65 -12 80 -5 5 -9 16 -8 25 0 11 4 9 16 -7 8 -13 22 -23 29 -23 9 0 14
-12 14 -32 1 -28 2 -30 11 -15 12 21 -1 68 -26 93 -17 17 -20 54 -5 54 6 0 10
-6 10 -13 0 -8 9 -22 20 -32 11 -10 20 -24 20 -31 0 -7 4 -15 9 -19 6 -3 5 8
-1 27 -5 18 -12 43 -15 55 -3 11 -14 23 -24 26 -10 3 -19 11 -19 17 0 19 49 3
74 -25 35 -38 49 -31 26 12 -28 53 -26 63 13 58 17 -3 26 -3 20 1 -13 5 -19
34 -8 34 3 0 24 -9 47 -21z m2168 6 c10 -12 10 -15 -3 -15 -8 0 -17 7 -21 15
-3 8 -2 15 3 15 5 0 14 -7 21 -15z m270 5 c0 -5 -4 -10 -10 -10 -5 0 -10 5
-10 10 0 6 5 10 10 10 6 0 10 -4 10 -10z m-120 -55 c7 -9 8 -15 2 -15 -5 0
-12 7 -16 15 -3 8 -4 15 -2 15 2 0 9 -7 16 -15z m-130 -40 c7 -9 8 -15 2 -15
-5 0 -12 7 -16 15 -3 8 -4 15 -2 15 2 0 9 -7 16 -15z m100 5 c0 -5 -4 -10 -10
-10 -5 0 -10 5 -10 10 0 6 5 10 10 10 6 0 10 -4 10 -10z m133 -83 c26 -7 54
-20 61 -28 19 -19 32 -99 17 -99 -7 0 -14 7 -17 15 -4 8 -15 15 -25 15 -12 0
-19 7 -19 20 0 20 -15 25 -66 21 -16 -2 -25 6 -33 30 -20 57 -23 56 82 26z
m-2778 -177 c-3 -5 -12 -10 -20 -10 -8 0 -17 5 -20 10 -4 6 5 10 20 10 15 0
24 -4 20 -10z m1015 -61 c0 -5 -4 -9 -10 -9 -5 0 -10 7 -10 16 0 8 5 12 10 9
6 -3 10 -10 10 -16z m-16 -28 c3 -5 0 -11 -8 -14 -15 -6 -26 1 -26 15 0 11 27
10 34 -1z m-1110 -57 c5 -14 4 -15 -9 -4 -17 14 -19 20 -6 20 5 0 12 -7 15
-16z m996 2 c0 -23 -15 -27 -36 -10 -10 9 -13 13 -6 9 6 -3 12 -1 12 4 0 6 7
11 15 11 8 0 15 -6 15 -14z m68 -4 c24 -19 22 -52 -3 -52 -16 0 -20 6 -29 43
-7 31 0 34 32 9z m106 -12 c19 -7 26 -17 26 -35 0 -14 -3 -25 -7 -25 -14 1
-39 24 -52 48 -13 24 -6 27 33 12z m-2919 -55 l6 -30 -20 35 c-24 41 -27 60
-7 40 8 -8 17 -28 21 -45z m2751 -22 c-4 -4 -11 -1 -16 7 -16 25 -11 35 7 17
9 -9 13 -20 9 -24z m-56 12 c7 -8 27 -17 46 -21 46 -9 43 -19 -6 -20 -23 -1
-43 -4 -47 -7 -3 -4 -6 -25 -6 -47 0 -33 -2 -38 -13 -29 -8 6 -14 24 -14 39 0
22 -6 29 -25 32 -14 3 -28 1 -31 -3 -7 -12 -24 -11 -24 1 0 5 15 17 33 26 17
9 36 23 40 30 10 18 31 18 47 -1z m-2780 -5 c0 -5 -2 -10 -4 -10 -3 0 -8 5
-11 10 -3 6 -1 10 4 10 6 0 11 -4 11 -10z m1846 -37 c-7 -7 -26 7 -26 19 0 6
6 6 15 -2 9 -7 13 -15 11 -17z m-1662 -5 c5 -9 7 -20 3 -24 -8 -8 -47 24 -47
38 0 15 32 5 44 -14z m56 12 c0 -5 -2 -10 -4 -10 -3 0 -8 5 -11 10 -3 6 -1 10
4 10 6 0 11 -4 11 -10z m1710 -10 c0 -5 -4 -10 -10 -10 -5 0 -10 5 -10 10 0 6
5 10 10 10 6 0 10 -4 10 -10z m422 -15 c6 -14 8 -28 4 -32 -10 -10 -50 33 -42
46 11 18 26 13 38 -14z m-2222 -45 c0 -5 -5 -12 -12 -16 -15 -9 -38 23 -38 54
l0 25 25 -27 c14 -15 25 -31 25 -36z m1944 8 c-3 -5 -12 -4 -20 3 -7 6 -11 15
-8 21 3 5 12 4 20 -3 7 -6 11 -15 8 -21z m-2154 -16 c0 -11 -9 -27 -20 -37
-19 -17 -22 -17 -36 -3 -14 14 -14 18 7 37 28 26 49 27 49 3z m-162 -80 c-4
-27 -4 -27 -21 11 -20 43 -13 70 10 38 8 -12 13 -34 11 -49z m242 33 c0 -25
-23 -35 -35 -15 -10 16 2 40 20 40 9 0 15 -9 15 -25z m2862 -47 c-10 -10 -14
-8 -18 10 -4 12 -10 22 -15 22 -5 0 -4 9 3 20 13 20 14 19 27 -10 12 -24 12
-33 3 -42z m-2764 43 c-4 -20 -52 -21 -56 -1 -2 10 7 15 28 16 23 1 30 -3 28
-15z m2995 5 c4 -10 1 -13 -9 -9 -15 6 -19 23 -5 23 5 0 11 -7 14 -14z m-3283
-16 c0 -5 -2 -10 -4 -10 -3 0 -8 5 -11 10 -3 6 -1 10 4 10 6 0 11 -4 11 -10z
m2468 -10 c10 -16 10 -20 -2 -20 -7 0 -16 9 -19 20 -3 11 -2 20 2 20 3 0 12
-9 19 -20z"/>
<path d="M2765 4920 c3 -5 11 -10 16 -10 6 0 7 5 4 10 -3 6 -11 10 -16 10 -6
0 -7 -4 -4 -10z"/>
<path d="M3540 4692 c-22 -18 -22 -21 -9 -70 17 -69 38 -69 61 0 26 77 -1 112
-52 70z"/>
<path d="M4080 4022 c0 -5 6 -15 14 -21 12 -10 14 -9 12 5 -3 19 -26 33 -26
16z"/>
<path d="M3815 3955 c-59 -12 -53 -19 15 -16 l35 1 -50 -27 c-43 -24 -47 -28
-27 -31 13 -2 31 3 40 11 9 8 34 20 54 28 37 13 37 13 18 31 -10 10 -20 18
-22 17 -2 -1 -30 -7 -63 -14z"/>
<path d="M3496 3148 c4 -12 7 -29 7 -35 0 -7 5 -13 11 -13 6 0 24 -19 39 -41
23 -32 32 -38 43 -28 12 10 10 16 -12 38 -14 14 -32 38 -40 53 -8 15 -24 32
-35 39 -19 10 -20 9 -13 -13z"/>
<path d="M3903 2914 c-17 -8 25 -47 43 -40 23 9 16 25 -8 18 -17 -4 -20 -2
-15 11 6 17 2 19 -20 11z"/>
<path d="M788 4863 c7 -3 16 -2 19 1 4 3 -2 6 -13 5 -11 0 -14 -3 -6 -6z"/>
<path d="M770 4701 c0 -5 6 -11 13 -14 8 -3 14 1 14 9 0 8 -6 14 -14 14 -7 0
-13 -4 -13 -9z"/>
<path d="M791 4644 c0 -11 3 -14 6 -6 3 7 2 16 -1 19 -3 4 -6 -2 -5 -13z"/>
<path d="M932 4585 c0 -16 2 -22 5 -12 2 9 2 23 0 30 -3 6 -5 -1 -5 -18z"/>
<path d="M901 4578 c0 -7 4 -22 9 -33 7 -17 9 -15 9 13 1 17 -3 32 -9 32 -5 0
-10 -6 -9 -12z"/>
<path d="M830 4494 c0 -23 6 -42 18 -50 11 -9 13 -13 4 -14 -18 0 -5 -20 14
-20 18 0 18 24 0 75 -18 52 -36 57 -36 9z"/>
<path d="M2634 4059 c-4 -8 -3 -9 4 -5 8 5 12 0 12 -13 0 -12 5 -21 10 -21 15
0 12 26 -4 39 -11 9 -16 9 -22 0z"/>
<path d="M2690 4043 c0 -16 47 -66 53 -56 2 4 -8 22 -24 38 -16 17 -29 25 -29
18z"/>
<path d="M773 3930 c-13 -5 -23 -16 -23 -25 0 -9 9 -15 23 -16 12 0 41 -3 65
-5 40 -5 72 7 72 26 0 4 -19 10 -42 13 -24 2 -50 7 -58 10 -8 3 -25 2 -37 -3z"/>
<path d="M960 3880 c-9 -17 -8 -21 7 -26 10 -3 48 -20 84 -39 37 -19 72 -35
78 -35 37 0 -29 76 -87 101 -55 24 -69 24 -82 -1z"/>
<path d="M1125 3641 c-24 -10 -60 -49 -53 -57 7 -6 87 47 88 59 0 9 -9 8 -35
-2z"/>
<path d="M1216 3625 c-10 -15 -16 -27 -14 -28 2 -1 17 -12 35 -25 18 -12 34
-22 37 -22 2 0 4 20 3 45 -1 25 -5 45 -9 45 -3 0 -13 2 -21 6 -8 3 -21 -6 -31
-21z"/>
<path d="M470 3400 c0 -5 5 -10 10 -10 6 0 10 5 10 10 0 6 -4 10 -10 10 -5 0
-10 -4 -10 -10z"/>
<path d="M2896 3381 c-4 -7 -5 -15 -2 -18 9 -9 19 4 14 18 -4 11 -6 11 -12 0z"/>
<path d="M2980 3258 c0 -23 -32 -172 -39 -187 -13 -24 -14 -31 -2 -31 12 0 31
48 35 90 2 19 9 48 15 63 14 35 14 54 1 62 -5 3 -10 5 -10 3z"/>
<path d="M685 3110 c10 -11 20 -20 23 -20 3 0 -3 9 -13 20 -10 11 -20 20 -23
20 -3 0 3 -9 13 -20z"/>
<path d="M2864 3091 c3 -5 15 -7 26 -4 28 7 25 13 -6 13 -14 0 -23 -4 -20 -9z"/>
<path d="M2983 3075 c-3 -9 -3 -18 -1 -21 3 -3 8 4 11 16 6 23 -1 27 -10 5z"/>
<path d="M740 3060 c0 -13 38 -32 53 -27 6 2 -3 11 -21 19 -18 9 -32 12 -32 8z"/>
<path d="M2822 3004 c-28 -31 -52 -64 -52 -73 0 -11 12 -4 35 22 20 20 39 37
43 37 8 0 42 52 42 64 0 16 -20 1 -68 -50z"/>
<path d="M2924 2978 c-5 -34 -9 -44 -12 -29 -4 23 -4 23 -15 4 -7 -10 -21 -34
-32 -52 -107 -179 -210 -300 -287 -341 -16 -9 -25 -20 -21 -25 4 -4 2 -5 -4
-1 -15 8 -44 -6 -93 -45 -75 -60 -252 -125 -395 -145 -27 -3 -59 -9 -70 -11
-11 -3 -56 -8 -100 -12 -132 -12 -61 -26 125 -26 145 1 173 4 230 24 127 44
337 175 418 261 91 96 152 171 152 185 0 4 14 24 30 45 17 21 30 43 30 49 0 7
11 24 25 39 14 15 24 20 21 12 -2 -8 -7 -28 -10 -45 l-6 -30 15 25 c8 14 14
33 15 43 0 9 4 17 9 17 5 0 11 8 14 18 2 9 8 25 12 35 4 9 3 17 -2 17 -6 0
-15 -15 -21 -32 -11 -33 -11 -32 -9 14 2 66 -9 70 -19 6z m-701 -645 c-7 -2
-21 -2 -30 0 -10 3 -4 5 12 5 17 0 24 -2 18 -5z"/>
<path d="M830 3016 c0 -2 8 -10 18 -17 15 -13 16 -12 3 4 -13 16 -21 21 -21
13z"/>
<path d="M873 2905 c34 -18 53 -22 69 -16 l23 8 -23 7 c-13 5 -20 12 -15 19 4
7 -1 6 -10 -2 -14 -11 -23 -12 -43 -2 -47 21 -47 11 -1 -14z"/>
<path d="M1184 2901 c7 -11 46 -35 46 -28 0 3 -12 12 -26 22 -15 9 -23 12 -20
6z"/>
<path d="M1051 2856 c2 -2 15 -9 29 -15 24 -11 24 -11 6 3 -16 13 -49 24 -35
12z"/>
<path d="M1380 2820 c0 -6 7 -10 15 -10 8 0 15 2 15 4 0 2 -7 6 -15 10 -8 3
-15 1 -15 -4z"/>
<path d="M2859 2808 c-1 -7 -1 -16 0 -20 0 -5 -4 -8 -10 -8 -5 0 -7 -4 -4 -10
3 -5 1 -10 -4 -10 -6 0 -11 -4 -11 -10 0 -5 -8 -19 -17 -29 -33 -35 -58 -76
-55 -89 2 -7 -1 -11 -5 -10 -4 1 -28 -18 -53 -42 -61 -60 -118 -111 -157 -138
-18 -13 -33 -28 -33 -33 0 -15 15 -11 38 11 12 11 24 20 27 20 4 0 30 22 58
49 29 27 63 60 77 73 29 26 120 143 120 153 0 4 10 21 22 38 25 35 33 67 18
67 -6 0 -11 -6 -11 -12z"/>
<path d="M1440 2800 c19 -13 30 -13 30 0 0 6 -10 10 -22 10 -19 0 -20 -2 -8
-10z"/>
<path d="M1500 2775 c14 -8 32 -14 40 -14 9 0 4 6 -10 14 -14 8 -32 14 -40 14
-9 0 -4 -6 10 -14z"/>
<path d="M1065 2698 c22 -15 104 -42 89 -29 -5 5 -22 13 -39 19 -16 5 -39 13
-50 17 l-20 7 20 -14z"/>
<path d="M3380 2679 c42 -33 60 -41 60 -27 0 15 -50 48 -72 48 -7 0 -2 -9 12
-21z"/>
<path d="M1823 2663 c9 -2 25 -2 35 0 9 3 1 5 -18 5 -19 0 -27 -2 -17 -5z"/>
<path d="M1180 2649 c8 -5 58 -32 110 -59 52 -26 151 -78 220 -114 68 -36 126
-64 128 -62 5 6 -145 89 -307 170 -145 72 -186 89 -151 65z"/>
<path d="M3340 2610 c17 -22 36 -38 41 -35 8 6 -53 75 -67 75 -3 0 9 -18 26
-40z"/>
<path d="M3358 2543 c7 -3 16 -2 19 1 4 3 -2 6 -13 5 -11 0 -14 -3 -6 -6z"/>
<path d="M1230 2372 c0 -5 16 -16 35 -25 19 -9 35 -13 35 -9 0 5 -16 16 -35
25 -19 9 -35 13 -35 9z"/>
<path d="M1310 2340 c0 -6 6 -10 13 -10 8 0 7 -4 -3 -11 -12 -8 -10 -9 9 -4
16 5 21 4 17 -4 -4 -6 -1 -11 6 -12 30 -2 51 -8 57 -18 7 -11 73 -41 91 -41 5
0 0 11 -12 25 -20 23 -83 52 -102 47 -5 -2 -12 1 -15 5 -10 14 -61 33 -61 23z"/>
<path d="M2018 2257 c-32 -12 -58 -25 -58 -29 0 -11 18 -10 25 2 3 6 19 10 35
10 16 0 32 5 35 10 3 6 15 10 25 10 10 0 22 5 25 10 10 16 -25 10 -87 -13z"/>
<path d="M1915 2195 l-40 -13 42 -1 c46 -1 73 6 73 20 0 12 -26 10 -75 -6z"/>
<path d="M3310 1746 c0 -1 11 -15 25 -30 14 -15 25 -23 25 -18 0 4 -9 18 -20
30 -19 20 -30 27 -30 18z"/>
<path d="M2255 1650 c3 -5 8 -10 11 -10 2 0 4 5 4 10 0 6 -5 10 -11 10 -5 0
-7 -4 -4 -10z"/>
<path d="M2420 1517 c0 -14 24 -57 32 -57 13 0 10 10 -12 37 -11 14 -20 23
-20 20z"/>
<path d="M2900 1432 c0 -6 14 -26 32 -44 32 -33 29 -27 -10 26 -12 16 -22 24
-22 18z"/>
<path d="M3167 1348 c-7 -26 -9 -23 26 -32 21 -5 27 -3 27 9 0 12 -6 15 -22
10 -15 -4 -19 -3 -10 3 10 7 10 11 -1 21 -12 9 -16 7 -20 -11z"/>
<path d="M3090 1305 c0 -5 5 -17 10 -25 5 -8 10 -10 10 -5 0 6 -5 17 -10 25
-5 8 -10 11 -10 5z"/>
<path d="M4988 3480 c19 -17 36 -29 39 -26 9 9 -7 26 -40 42 l-32 15 33 -31z"/>
<path d="M5158 3373 c0 -4 -1 -15 -2 -23 -1 -17 -42 -40 -74 -40 -14 0 -21 -4
-17 -11 4 -5 21 -8 38 -5 22 4 26 3 13 -2 -26 -11 -4 -26 25 -17 15 5 20 3 17
-6 -3 -9 -17 -13 -41 -11 -37 4 -48 -7 -24 -25 14 -12 57 -24 104 -29 18 -3
49 -14 69 -26 32 -19 35 -23 18 -29 -14 -5 -9 -7 16 -7 44 0 93 -12 101 -25 4
-6 9 -6 12 0 8 12 -85 117 -136 154 -21 15 -45 25 -53 22 -8 -3 -14 -2 -12 3
3 11 -29 71 -42 79 -5 3 -11 3 -12 -2z m32 -54 c0 -5 -4 -9 -10 -9 -5 0 -10 7
-10 16 0 8 5 12 10 9 6 -3 10 -10 10 -16z m6 -88 c-4 -6 -16 -11 -27 -11 -18
0 -18 1 -1 19 17 18 40 12 28 -8z m119 -51 c13 -6 15 -9 5 -9 -8 0 -22 4 -30
9 -18 12 -2 12 25 0z m59 -19 c4 -5 -3 -7 -14 -4 -23 6 -26 13 -6 13 8 0 17
-4 20 -9z"/>
<path d="M5110 3361 c0 -9 30 -24 36 -18 2 1 -6 8 -16 15 -11 7 -20 8 -20 3z"/>
<path d="M4840 3330 c0 -5 3 -10 8 -10 4 0 47 -6 95 -14 48 -7 90 -10 92 -6 3
4 -20 11 -50 15 -30 3 -57 11 -60 16 -8 12 -85 12 -85 -1z"/>
<path d="M5048 3333 c7 -3 16 -2 19 1 4 3 -2 6 -13 5 -11 0 -14 -3 -6 -6z"/>
<path d="M5460 3135 c0 -5 5 -17 10 -25 5 -8 10 -10 10 -5 0 6 -5 17 -10 25
-5 8 -10 11 -10 5z"/>
<path d="M3550 2572 c0 -6 -12 -18 -26 -25 -15 -8 -22 -17 -17 -20 12 -8 59
40 50 50 -4 3 -7 1 -7 -5z"/>
<path d="M3935 2470 c4 -6 23 -19 43 -29 50 -26 84 -65 69 -81 -9 -8 -7 -9 7
-4 15 6 17 4 11 -6 -5 -8 -4 -11 2 -7 6 4 24 -6 39 -21 64 -61 74 -67 84 -52
13 20 12 30 -1 30 -5 0 -7 -5 -3 -12 4 -7 3 -8 -5 -4 -6 4 -9 11 -6 16 3 4 -5
10 -16 13 -11 3 -23 14 -26 25 -3 11 -18 26 -34 32 -15 7 -31 20 -34 30 -3 10
-17 21 -30 24 -14 4 -25 11 -25 17 0 6 9 8 20 4 29 -9 24 8 -6 22 -22 10 -25
10 -20 -3 7 -18 -2 -17 -34 1 -30 17 -44 19 -35 5z"/>
<path d="M4075 2460 c3 -5 14 -10 23 -10 15 0 15 2 2 10 -20 13 -33 13 -25 0z"/>
<path d="M3920 2425 c0 -13 -4 -14 -20 -5 -11 6 -20 7 -20 1 0 -5 14 -14 30
-20 17 -5 30 -15 30 -21 0 -6 5 -8 11 -4 6 3 14 1 18 -5 8 -12 41 -5 41 10 0
11 -64 59 -78 59 -7 0 -12 -7 -12 -15z m35 -15 c3 -5 1 -10 -4 -10 -6 0 -11 5
-11 10 0 6 2 10 4 10 3 0 8 -4 11 -10z"/>
<path d="M4080 2430 c0 -5 10 -10 23 -10 18 0 19 2 7 10 -19 13 -30 13 -30 0z"/>
<path d="M4140 2360 c0 -5 20 -23 45 -40 25 -17 45 -35 45 -41 0 -5 11 -14 25
-19 14 -5 25 -16 25 -24 0 -7 7 -20 17 -27 9 -8 14 -9 12 -4 -20 45 -35 65
-51 70 -20 7 -24 21 -6 27 9 3 9 6 0 12 -7 4 -12 2 -12 -4 0 -7 -22 4 -50 24
-27 20 -50 32 -50 26z"/>
<path d="M4214 2351 c21 -23 26 -26 26 -11 0 5 -10 15 -22 21 -23 12 -23 12
-4 -10z"/>
<path d="M4310 2571 c0 -5 5 -13 10 -16 6 -3 10 -2 10 4 0 5 -4 13 -10 16 -5
3 -10 2 -10 -4z"/>
<path d="M4660 2225 c0 -9 6 -12 15 -9 8 4 15 7 15 9 0 2 -7 5 -15 9 -9 3 -15
0 -15 -9z"/>
<path d="M3791 2157 c2 -1 13 -9 24 -17 19 -14 19 -14 6 3 -7 9 -18 17 -24 17
-6 0 -8 -1 -6 -3z"/>
<path d="M3890 2125 c7 -9 15 -13 17 -11 7 7 -7 26 -19 26 -6 0 -6 -6 2 -15z"/>
<path d="M4090 2120 c0 -5 0 -13 0 -17 0 -4 12 -9 27 -11 27 -3 27 -3 9 17
-20 23 -36 27 -36 11z"/>
<path d="M3860 2115 c0 -5 5 -17 10 -25 5 -8 10 -10 10 -5 0 6 -5 17 -10 25
-5 8 -10 11 -10 5z"/>
<path d="M4155 2080 c3 -5 15 -15 27 -21 16 -8 19 -8 16 2 -2 6 -14 16 -27 20
-14 6 -20 5 -16 -1z"/>
<path d="M3980 2071 c0 -10 19 -25 25 -20 1 2 -3 10 -11 17 -8 7 -14 8 -14 3z"/>
<path d="M4044 2055 c8 -8 18 -15 22 -15 3 0 1 7 -6 15 -7 8 -17 15 -22 15 -5
0 -3 -7 6 -15z"/>
<path d="M4110 2059 c0 -5 9 -9 20 -9 11 0 20 2 20 4 0 2 -9 6 -20 9 -11 3
-20 1 -20 -4z"/>
<path d="M3790 2036 c0 -2 7 -7 16 -10 8 -3 12 -2 9 4 -6 10 -25 14 -25 6z"/>
<path d="M4091 2246 c2 -2 15 -9 29 -15 24 -11 24 -11 6 3 -16 13 -49 24 -35
12z"/>
<path d="M4140 1880 c0 -5 6 -10 14 -10 8 0 18 5 21 10 3 6 -3 10 -14 10 -12
0 -21 -4 -21 -10z"/>
<path d="M3931 1878 c2 -2 17 -14 33 -28 l29 -25 -19 27 c-10 15 -25 28 -33
28 -8 0 -12 -1 -10 -2z"/>
<path d="M4105 1860 c3 -5 8 -10 11 -10 2 0 4 5 4 10 0 6 -5 10 -11 10 -5 0
-7 -4 -4 -10z"/>
<path d="M3860 1841 c0 -6 4 -13 10 -16 6 -3 7 1 4 9 -7 18 -14 21 -14 7z"/>
<path d="M4050 1830 c0 -5 5 -10 11 -10 5 0 7 5 4 10 -3 6 -8 10 -11 10 -2 0
-4 -4 -4 -10z"/>
<path d="M3980 1721 c0 -5 7 -11 14 -14 10 -4 13 -1 9 9 -6 15 -23 19 -23 5z"/>
<path d="M3946 1707 c3 -10 9 -15 12 -12 3 3 0 11 -7 18 -10 9 -11 8 -5 -6z"/>
<path d="M4079 1703 c-13 -15 -12 -15 9 -4 23 12 28 21 13 21 -5 0 -15 -7 -22
-17z"/>
<path d="M4039 1673 c-13 -16 -12 -17 4 -4 9 7 17 15 17 17 0 8 -8 3 -21 -13z"/>
<path d="M3990 1666 c0 -2 7 -7 16 -10 8 -3 12 -2 9 4 -6 10 -25 14 -25 6z"/>
<path d="M3950 1550 c0 -5 5 -10 11 -10 5 0 7 5 4 10 -3 6 -8 10 -11 10 -2 0
-4 -4 -4 -10z"/>
<path d="M4425 1820 c3 -5 8 -10 11 -10 2 0 4 5 4 10 0 6 -5 10 -11 10 -5 0
-7 -4 -4 -10z"/>
<path d="M4389 1800 c-11 -7 -9 -13 10 -29 29 -25 28 -25 28 -4 0 25 -21 43
-38 33z"/>
<path d="M4396 1726 c6 -17 34 -30 34 -16 0 5 -9 14 -20 20 -16 8 -18 8 -14
-4z"/>
<path d="M4435 1730 c4 -6 11 -8 16 -5 14 9 11 15 -7 15 -8 0 -12 -5 -9 -10z"/>
<path d="M4440 1701 c0 -6 5 -13 10 -16 6 -3 10 1 10 9 0 9 -4 16 -10 16 -5 0
-10 -4 -10 -9z"/>
<path d="M4322 1681 c2 -6 33 -41 71 -79 67 -70 80 -89 52 -79 -8 4 -17 2 -21
-4 -8 -14 21 -56 39 -56 12 0 14 14 13 68 -2 58 -6 70 -27 88 -31 25 -39 18
-11 -12 32 -34 27 -41 -8 -10 -16 14 -30 35 -30 45 0 11 -4 16 -10 13 -5 -3
-20 3 -32 14 -23 22 -42 28 -36 12z m128 -181 c0 -5 -2 -10 -4 -10 -3 0 -8 5
-11 10 -3 6 -1 10 4 10 6 0 11 -4 11 -10z"/>
<path d="M4455 1640 c3 -5 8 -10 11 -10 2 0 4 5 4 10 0 6 -5 10 -11 10 -5 0
-7 -4 -4 -10z"/>
<path d="M4336 1598 c10 -11 31 -35 47 -52 l27 -30 0 26 c0 20 -10 34 -37 53
-46 31 -63 32 -37 3z"/>
<path d="M4380 1490 c0 -11 47 -56 76 -73 7 -4 16 -2 20 5 4 7 4 10 -1 6 -4
-4 -18 6 -32 23 -30 35 -63 55 -63 39z"/>
<path d="M4897 1413 c-11 -3 -16 -10 -13 -20 3 -8 6 -17 6 -19 0 -2 9 -4 21
-4 11 0 18 4 15 9 -4 5 7 12 24 16 16 4 30 11 30 16 0 9 -50 10 -83 2z"/>
<path d="M4490 1361 c0 -6 5 -13 10 -16 6 -3 10 1 10 9 0 9 -4 16 -10 16 -5 0
-10 -4 -10 -9z"/>
<path d="M4504 1309 c0 -22 12 -25 19 -5 3 8 0 16 -6 19 -7 3 -13 -3 -13 -14z"/>
<path d="M4642 1108 c6 -18 25 -20 31 -3 5 10 0 15 -14 15 -12 0 -19 -5 -17
-12z"/>
<path d="M4810 1001 c0 -5 7 -11 14 -14 10 -4 13 -1 9 9 -6 15 -23 19 -23 5z"/>
<path d="M3090 673 c1 -20 50 -85 50 -66 0 17 -33 82 -42 83 -5 0 -8 -8 -8
-17z"/>
<path d="M3360 653 c0 -5 7 -17 15 -27 14 -19 15 -19 15 7 0 17 -5 27 -15 27
-8 0 -15 -3 -15 -7z"/>
<path d="M3195 590 c3 -5 8 -10 11 -10 2 0 4 5 4 10 0 6 -5 10 -11 10 -5 0 -7
-4 -4 -10z"/>
<path d="M3350 566 c0 -15 69 -78 79 -72 17 11 13 23 -16 51 -24 21 -63 34
-63 21z"/>
<path d="M2926 521 c-4 -7 -5 -15 -2 -18 9 -9 19 4 14 18 -4 11 -6 11 -12 0z"/>
<path d="M2741 484 c0 -11 3 -14 6 -6 3 7 2 16 -1 19 -3 4 -6 -2 -5 -13z"/>
<path d="M3291 483 c-1 -12 4 -25 9 -28 12 -7 12 2 0 30 -8 19 -9 19 -9 -2z"/>
<path d="M3350 480 c13 -24 35 -27 26 -4 -3 9 -6 18 -6 20 0 2 -7 4 -15 4 -13
0 -14 -4 -5 -20z"/>
<path d="M3320 469 c0 -5 5 -7 10 -4 6 3 10 8 10 11 0 2 -4 4 -10 4 -5 0 -10
-5 -10 -11z"/>
<path d="M2726 421 c-8 -13 4 -41 17 -41 6 0 19 -8 29 -17 12 -11 22 -13 29
-6 14 14 2 38 -29 54 -15 7 -30 15 -34 17 -3 2 -9 -1 -12 -7z"/>
<path d="M2900 391 c5 -11 10 -38 10 -60 0 -31 3 -39 14 -35 9 3 20 -3 28 -15
7 -12 16 -21 21 -21 10 0 -21 74 -33 78 -5 2 -14 19 -20 38 -6 19 -16 34 -21
34 -6 0 -6 -8 1 -19z"/>
<path d="M3250 377 c0 -25 31 -57 55 -57 24 0 17 31 -12 56 -35 30 -43 30 -43
1z"/>
<path d="M3315 390 c3 -5 11 -10 16 -10 6 0 7 5 4 10 -3 6 -11 10 -16 10 -6 0
-7 -4 -4 -10z"/>
<path d="M3170 356 c0 -14 5 -26 10 -26 6 0 10 9 10 19 0 11 -4 23 -10 26 -6
4 -10 -5 -10 -19z"/>
<path d="M2820 338 c0 -13 5 -30 10 -38 8 -13 11 -13 22 -1 10 11 10 14 1 18
-7 3 -13 11 -13 18 0 8 -4 17 -10 20 -6 3 -10 -4 -10 -17z"/>
<path d="M3072 330 c-7 -12 -10 -26 -6 -32 5 -7 2 -9 -9 -5 -22 8 -33 -29 -14
-51 8 -9 17 -24 20 -32 3 -9 6 -4 6 12 1 15 6 30 11 33 6 3 10 15 10 27 0 16
5 19 25 16 28 -6 34 9 8 19 -10 4 -22 13 -28 20 -8 11 -13 9 -23 -7z"/>
<path d="M2710 290 c0 -5 9 -10 20 -10 11 0 20 5 20 10 0 6 -9 10 -20 10 -11
0 -20 -4 -20 -10z"/>
<path d="M3160 256 c0 -8 5 -18 10 -21 6 -3 10 -19 10 -34 0 -21 6 -30 23 -35
33 -9 36 -8 30 14 -3 11 -9 20 -14 20 -5 0 -9 8 -9 18 0 10 -9 25 -20 35 -25
21 -30 21 -30 3z"/>
<path d="M2758 238 c7 -7 12 -20 12 -29 0 -10 9 -21 20 -24 11 -3 20 -14 20
-23 1 -15 3 -14 15 2 16 21 20 40 7 32 -5 -3 -16 3 -25 12 -23 25 -45 42 -54
42 -4 0 -2 -5 5 -12z"/>
<path d="M3105 240 c-11 -18 5 -68 24 -73 15 -4 18 2 18 39 0 35 -4 44 -18 44
-10 0 -21 -5 -24 -10z"/>
<path d="M2890 206 c0 -9 5 -16 10 -16 6 0 10 4 10 9 0 6 -4 13 -10 16 -5 3
-10 -1 -10 -9z"/>
<path d="M1740 5971 c0 -11 -8 -64 -19 -118 -10 -54 -18 -106 -18 -115 0 -17
27 -31 80 -42 15 -4 27 -11 27 -17 0 -7 -7 -8 -17 -4 -18 7 -22 8 -76 20 -15
3 -37 15 -49 27 -16 16 -20 17 -15 5 4 -12 1 -17 -11 -18 -9 0 0 -7 21 -16 20
-8 37 -21 37 -29 0 -8 5 -14 10 -14 6 0 10 4 10 9 0 5 24 3 53 -3 30 -7 51
-17 49 -24 -3 -17 34 -29 116 -38 78 -7 127 3 82 16 -18 6 -9 8 35 9 83 2 104
8 98 32 -3 10 -1 19 4 19 6 0 15 25 22 56 7 30 19 58 26 60 7 3 32 -6 54 -20
33 -21 42 -33 47 -66 5 -33 9 -38 20 -29 20 17 95 4 113 -19 19 -22 59 -38
121 -47 53 -7 110 -42 110 -68 0 -10 -5 -27 -10 -38 -9 -16 -22 -19 -94 -19
-136 0 -219 36 -228 100 -1 14 -6 24 -10 23 -5 -2 -18 -3 -30 -3 -13 0 -32 -7
-42 -15 -19 -14 -19 -16 -2 -28 20 -14 20 -11 -24 -217 -26 -119 -38 -144 -36
-73 0 26 5 51 10 54 4 4 5 17 1 29 -10 31 -20 11 -30 -55 -18 -130 -23 -141
-66 -154 -22 -7 -37 -16 -34 -20 2 -5 -16 -9 -40 -9 -25 -1 -45 3 -45 7 0 14
24 27 53 29 47 3 96 29 102 54 5 22 45 257 45 264 0 2 7 1 16 -3 12 -4 14 -15
10 -42 -5 -32 -5 -33 5 -11 6 14 14 46 18 73 8 44 7 46 -9 32 -23 -21 -28 -19
-32 12 -2 18 -10 29 -22 31 -14 3 -17 0 -13 -12 5 -12 0 -16 -21 -16 -16 0
-33 5 -38 10 -13 13 -59 17 -264 25 l-166 6 -23 -138 c-35 -212 -54 -209 -22
4 5 40 17 88 25 108 17 40 23 35 -76 71 -34 12 -38 11 -38 -3 0 -13 -3 -14
-11 -6 -15 15 -39 5 -32 -14 6 -15 -2 -46 -44 -173 -14 -41 -26 -81 -26 -87 0
-7 -4 -13 -8 -13 -12 0 -17 -37 -7 -51 7 -11 11 -11 15 -2 7 19 51 -13 55 -40
2 -18 24 -29 123 -64 66 -23 134 -42 150 -42 17 -1 37 -6 45 -12 11 -7 0 -8
-37 -4 -62 8 -68 1 -15 -15 20 -7 44 -19 52 -26 9 -7 40 -19 70 -26 49 -11 52
-12 26 -17 -24 -5 -15 -9 53 -25 45 -10 83 -17 85 -15 23 37 59 79 67 79 6 0
1 -13 -11 -30 -32 -44 -1 -40 52 8 86 76 108 101 108 119 0 29 -11 35 -31 17
-19 -17 -39 -11 -39 12 0 14 16 19 56 15 18 -1 24 10 43 86 33 127 33 126 40
117 3 -5 15 -11 26 -12 10 -2 26 -11 35 -20 10 -12 28 -16 55 -14 33 2 37 0
25 -10 -24 -20 -23 -68 0 -90 11 -10 20 -24 20 -29 0 -6 7 -9 15 -5 8 3 15 1
15 -4 0 -19 29 -10 49 16 13 16 21 21 22 13 0 -8 5 -3 10 10 7 17 6 27 -4 35
-21 17 -29 46 -11 39 7 -3 14 0 14 6 0 6 -11 13 -25 17 -29 7 -28 27 1 32 10
2 24 10 31 18 18 24 124 53 151 41 12 -6 22 -14 22 -19 0 -20 17 -4 50 44 19
29 42 59 50 68 56 60 67 78 67 110 l0 34 -36 -45 c-20 -24 -50 -59 -67 -76
l-32 -33 -82 50 c-45 27 -101 67 -124 88 -23 21 -73 56 -112 77 -38 20 -102
59 -143 86 -92 62 -113 68 -129 37 -10 -19 -11 -19 -8 -3 12 55 16 115 9 115
-11 0 -36 -41 -40 -65 -2 -11 -13 -72 -24 -135 -12 -63 -21 -121 -22 -128 0
-8 -8 -11 -19 -9 -10 3 -18 0 -18 -6 0 -7 -5 -4 -11 5 -8 15 7 135 37 279 l5
26 -113 7 c-134 8 -183 14 -222 27 -41 13 -46 12 -46 -10z m47 -223 c-3 -8 -6
-5 -6 6 -1 11 2 17 5 13 3 -3 4 -12 1 -19z m3 -28 c0 -5 -5 -10 -11 -10 -5 0
-7 5 -4 10 3 6 8 10 11 10 2 0 4 -4 4 -10z m-260 -162 c0 -21 -3 -29 -10 -22
-5 5 -7 19 -4 32 9 31 14 27 14 -10z m-22 -108 c-4 -3 -7 -23 -7 -45 0 -81 -1
-91 -10 -76 -5 7 -11 9 -13 5 -3 -5 -3 -3 -1 5 2 8 6 39 9 70 2 31 6 65 8 76
3 11 5 27 7 35 1 8 5 -3 8 -25 3 -22 3 -42 -1 -45z m-21 -172 c-3 -7 -5 -2 -5
12 0 14 2 19 5 13 2 -7 2 -19 0 -25z m48 -37 c3 -5 1 -12 -5 -16 -5 -3 -10 1
-10 9 0 18 6 21 15 7z m668 -111 c-6 -24 -26 -21 -31 3 -2 11 3 17 16 17 15 0
19 -5 15 -20z m-63 -10 c-12 -8 -10 -10 10 -11 18 -1 20 -3 7 -6 -10 -3 -26
-2 -35 2 -14 5 -14 7 -2 15 8 6 20 10 25 10 6 0 3 -5 -5 -10z m-242 -27 c-16
-2 -40 -2 -55 0 -16 2 -3 4 27 4 30 0 43 -2 28 -4z m96 -58 c-5 -12 -2 -14 12
-8 17 6 17 5 5 -11 -10 -12 -16 -14 -21 -5 -5 7 -13 8 -21 4 -8 -5 -5 1 5 13
22 26 28 28 20 7z"/>
<path d="M3060 5821 c0 -5 -14 -24 -31 -42 -16 -17 -35 -42 -41 -53 -6 -12 10
2 35 29 41 44 58 75 42 75 -3 0 -5 -4 -5 -9z"/>
<path d="M2791 5402 c-27 -39 -25 -47 8 -23 14 11 22 25 19 37 -3 16 -7 14
-27 -14z"/>
<path d="M2592 5330 c-14 -23 -15 -30 -4 -30 5 0 14 11 20 25 14 30 2 34 -16
5z"/>
<path d="M2625 5319 c-4 -6 -5 -12 -2 -15 2 -3 7 2 10 11 7 17 1 20 -8 4z"/>
<path d="M218 5133 c7 -3 16 -2 19 1 4 3 -2 6 -13 5 -11 0 -14 -3 -6 -6z"/>
<path d="M1728 5068 c15 -19 76 -42 95 -35 6 2 -8 10 -33 17 -25 6 -52 17 -60
23 -13 10 -13 10 -2 -5z"/>
<path d="M2370 5042 c0 -4 -16 -14 -35 -21 -19 -7 -35 -16 -35 -21 0 -5 -15
-7 -32 -4 -20 3 -49 -3 -71 -13 l-39 -18 20 -22 c22 -26 95 -38 112 -18 5 6 6
16 2 20 -4 5 -2 5 5 1 7 -4 17 2 23 14 6 11 17 20 24 20 8 0 16 7 20 15 7 19
-3 19 -25 -1 -11 -10 -19 -12 -24 -5 -3 6 1 11 9 11 9 0 16 5 16 10 0 6 12 9
27 8 19 -2 28 2 31 15 2 10 -3 17 -12 17 -9 0 -16 -4 -16 -8z"/>
<path d="M76 5032 c12 -4 34 -22 49 -39 32 -39 45 -42 45 -9 0 32 -35 56 -80
55 -27 -1 -30 -3 -14 -7z"/>
<path d="M0 5004 c0 -14 3 -14 15 -4 8 7 15 14 15 16 0 2 -7 4 -15 4 -8 0 -15
-7 -15 -16z"/>
<path d="M1795 4991 c-3 -6 2 -11 13 -11 10 0 28 -9 40 -20 26 -25 27 -25 29
-1 1 12 -7 21 -22 25 -13 3 -30 8 -38 12 -8 3 -18 1 -22 -5z"/>
<path d="M2308 4881 c-32 -32 -58 -61 -58 -65 0 -15 88 56 99 80 6 13 15 24
21 24 5 0 10 5 10 10 0 18 -14 8 -72 -49z"/>
<path d="M1920 4926 c0 -3 14 -12 30 -21 17 -9 30 -13 30 -11 0 3 -13 12 -30
21 -16 9 -30 13 -30 11z"/>
<path d="M2014 4875 c36 -19 47 -19 22 0 -11 8 -27 15 -35 15 -9 0 -3 -7 13
-15z"/>
<path d="M6 4862 c-3 -5 -5 -52 -4 -105 0 -93 1 -97 22 -97 12 0 31 -6 41 -14
17 -12 18 -16 5 -31 -12 -15 -12 -19 3 -30 9 -7 17 -19 17 -27 0 -19 33 -29
71 -21 36 7 30 18 -12 21 -18 1 -35 5 -38 8 -3 3 -4 35 -3 70 l3 66 -35 -3
c-40 -4 -61 9 -28 18 12 3 22 8 22 12 0 3 17 7 38 8 31 3 39 -1 49 -23 7 -15
10 -31 7 -36 -9 -15 44 -58 63 -51 15 6 15 7 -1 18 -9 7 -16 17 -16 24 0 6 -4
11 -10 11 -5 0 -10 7 -10 15 0 8 4 15 9 15 5 0 4 16 -2 37 -11 34 -12 35 -18
12 -6 -21 -7 -22 -8 -3 -1 28 -34 56 -63 54 -39 -3 -68 11 -74 36 -6 24 -18
31 -28 16z"/>
<path d="M2156 4863 c-11 -12 -6 -22 20 -39 22 -15 27 -15 35 -3 5 8 9 23 9
34 0 14 -3 16 -12 7 -7 -7 -17 -8 -28 -2 -10 5 -20 6 -24 3z"/>
<path d="M220 4845 c0 -8 2 -15 4 -15 2 0 6 7 10 15 3 8 1 15 -4 15 -6 0 -10
-7 -10 -15z"/>
<path d="M2067 4849 c7 -7 15 -10 18 -7 3 3 -2 9 -12 12 -14 6 -15 5 -6 -5z"/>
<path d="M2175 4780 c3 -5 8 -10 11 -10 2 0 4 5 4 10 0 6 -5 10 -11 10 -5 0
-7 -4 -4 -10z"/>
<path d="M145 4690 c-3 -5 -1 -10 4 -10 6 0 11 5 11 10 0 6 -2 10 -4 10 -3 0
-8 -4 -11 -10z"/>
<path d="M140 4510 c0 -5 5 -10 10 -10 6 0 10 5 10 10 0 6 -4 10 -10 10 -5 0
-10 -4 -10 -10z"/>
<path d="M0 4480 c0 -5 5 -10 11 -10 5 0 7 5 4 10 -3 6 -8 10 -11 10 -2 0 -4
-4 -4 -10z"/>
<path d="M0 3454 c0 -21 24 -44 38 -35 8 5 4 14 -13 29 -20 18 -25 19 -25 6z"/>
<path d="M0 3290 c0 -5 5 -10 11 -10 5 0 7 5 4 10 -3 6 -8 10 -11 10 -2 0 -4
-4 -4 -10z"/>
<path d="M75 3279 c-7 -11 22 -49 37 -49 12 0 10 34 -4 48 -15 15 -25 15 -33
1z"/>
<path d="M20 3240 c0 -5 5 -10 11 -10 5 0 7 5 4 10 -3 6 -8 10 -11 10 -2 0 -4
-4 -4 -10z"/>
<path d="M7 3113 c-12 -12 -7 -22 8 -17 8 4 15 10 15 15 0 11 -14 12 -23 2z"/>
<path d="M86 3101 c-3 -5 3 -11 15 -14 16 -4 18 -3 8 9 -13 16 -16 17 -23 5z"/>
<path d="M10 3060 c20 -13 43 -13 35 0 -3 6 -16 10 -28 10 -18 0 -19 -2 -7
-10z"/>
<path d="M3 2983 c2 -40 17 -75 17 -39 0 9 5 14 10 11 6 -3 10 1 10 9 0 9 -7
16 -16 16 -8 0 -13 4 -10 8 2 4 1 14 -4 22 -5 9 -8 -1 -7 -27z"/>
<path d="M90 3010 c0 -6 4 -9 9 -5 5 3 12 -2 14 -10 4 -12 5 -12 3 1 -1 19
-26 32 -26 14z"/>
<path d="M281 2934 c0 -11 3 -14 6 -6 3 7 2 16 -1 19 -3 4 -6 -2 -5 -13z"/>
<path d="M1 64 c0 -11 3 -14 6 -6 3 7 2 16 -1 19 -3 4 -6 -2 -5 -13z"/>
<path d="M891 56 c-18 -22 3 -56 34 -56 31 0 32 20 2 49 -21 19 -26 20 -36 7z"/>
<path d="M20 21 c0 -12 6 -21 15 -21 8 0 15 4 15 9 0 5 -7 14 -15 21 -13 10
-15 9 -15 -9z"/>
</g>
</svg>
