<?xml version="1.0" standalone="no"?>
<!DOCTYPE svg PUBLIC "-//W3C//DTD SVG 20010904//EN"
 "http://www.w3.org/TR/2001/REC-SVG-20010904/DTD/svg10.dtd">
<svg version="1.0" xmlns="http://www.w3.org/2000/svg"
 width="792.000000pt" height="1067.000000pt" viewBox="0 0 792.000000 1067.000000"
 preserveAspectRatio="xMidYMid meet">

<g transform="translate(0.000000,1067.000000) scale(0.100000,-0.100000)"
fill="#000000" stroke="none">
<path d="M6977 9214 c-16 -16 -7 -44 14 -44 15 0 20 5 17 22 -3 22 -19 33 -31
22z"/>
<path d="M7612 8578 c-7 -7 -12 -21 -12 -32 1 -20 1 -20 20 3 29 34 22 59 -8
29z"/>
<path d="M7040 8344 c0 -8 5 -12 10 -9 6 3 10 10 10 16 0 5 -4 9 -10 9 -5 0
-10 -7 -10 -16z"/>
<path d="M7132 8287 c-23 -7 -47 -18 -51 -26 -6 -10 -13 -10 -29 -2 -16 9 -21
7 -27 -7 -7 -18 -35 -450 -36 -572 -1 -41 -5 -82 -10 -91 -4 -9 -11 -67 -14
-130 -4 -63 -8 -120 -10 -126 -3 -7 0 -13 6 -13 6 0 8 -9 4 -20 -8 -25 11 -63
19 -40 3 8 12 96 21 195 8 99 19 230 25 290 5 61 13 149 16 198 3 48 9 87 13
87 3 0 3 -46 -1 -102 -4 -57 -14 -220 -23 -363 -9 -143 -21 -327 -26 -410 -6
-82 -11 -161 -12 -175 -2 -21 -8 -26 -37 -30 -40 -6 -32 -14 23 -24 21 -4 37
-13 37 -20 0 -8 14 -19 31 -25 36 -12 188 -15 205 -3 8 5 13 175 18 567 3 308
10 603 15 655 12 129 2 163 -53 184 -47 18 -46 18 -104 3z m-62 -202 c0 -19
-4 -35 -8 -35 -4 0 -6 16 -4 35 2 19 6 35 8 35 2 0 4 -16 4 -35z"/>
<path d="M7432 8195 c0 -16 2 -22 5 -12 2 9 2 23 0 30 -3 6 -5 -1 -5 -18z"/>
<path d="M7400 8148 c0 -7 5 -20 10 -28 8 -12 10 -11 10 7 0 12 -4 25 -10 28
-5 3 -10 0 -10 -7z"/>
<path d="M4425 8091 l-60 -6 -8 -65 c-4 -36 -6 -218 -3 -405 3 -187 6 -383 6
-436 0 -96 0 -97 28 -107 39 -16 152 -24 186 -14 36 10 34 -36 23 577 -7 394
-9 441 -24 453 -17 12 -44 13 -148 3z"/>
<path d="M925 8080 c-6 -9 6 -46 46 -145 19 -47 21 -67 8 -63 -7 2 -16 15 -20
29 -3 13 -11 23 -18 21 -18 -4 -45 20 -32 28 14 8 -2 64 -23 85 -13 14 -20 7
-60 -62 -64 -110 -64 -113 34 -128 25 -4 56 -13 70 -20 20 -10 30 -11 45 -2
11 6 43 12 70 12 123 2 181 6 193 14 20 12 -4 86 -35 106 -12 9 -23 20 -23 25
0 5 -14 32 -30 59 l-30 49 -94 1 c-58 1 -97 -3 -101 -9z"/>
<path d="M4220 8043 c0 -41 -11 -668 -13 -743 -3 -93 11 -166 27 -149 4 4 10
868 7 927 -1 6 -5 12 -11 12 -5 0 -10 -21 -10 -47z"/>
<path d="M1200 7773 c-14 -19 -18 -29 -9 -32 24 -8 46 -39 53 -75 4 -20 9 -36
12 -36 14 0 31 29 37 62 5 33 2 41 -30 73 -19 19 -36 35 -38 35 -2 0 -13 -12
-25 -27z"/>
<path d="M657 7747 c-6 -17 18 -56 28 -45 4 3 0 18 -8 33 -11 21 -15 24 -20
12z"/>
<path d="M1137 7709 c-9 -6 -27 -7 -38 -4 -19 6 -20 5 -9 -15 17 -32 38 -35
65 -10 34 32 21 52 -18 29z"/>
<path d="M1328 7713 c-1 -5 -2 -23 -2 -42 -1 -29 -6 -36 -31 -44 -16 -6 -35
-17 -42 -26 -8 -11 -29 -16 -70 -17 -88 -2 -90 -3 -107 -20 -11 -10 -30 -14
-58 -12 -46 3 -61 22 -26 32 42 13 -45 45 -122 46 l-65 0 26 -18 c14 -9 52
-44 85 -77 106 -107 139 -125 224 -125 34 0 60 -4 60 -10 0 -21 117 24 151 59
9 9 35 34 59 55 24 23 38 42 31 44 -6 2 -18 -2 -27 -8 -24 -21 -25 -6 -1 28
12 17 30 32 39 32 9 0 20 5 23 10 3 6 1 10 -4 10 -6 0 -11 11 -11 24 0 23 -3
24 -35 19 -33 -5 -35 -4 -35 23 0 22 -3 26 -10 14 -8 -12 -13 -13 -30 -2 -11
7 -21 9 -22 5z"/>
<path d="M2680 7663 c0 -3 7 -15 16 -25 13 -14 14 -21 5 -32 -9 -11 -9 -19 0
-34 12 -19 14 -19 26 -4 16 22 17 74 1 90 -13 13 -48 17 -48 5z"/>
<path d="M915 7650 c-3 -5 -1 -10 4 -10 6 0 11 5 11 10 0 6 -2 10 -4 10 -3 0
-8 -4 -11 -10z"/>
<path d="M1150 7640 c19 -13 30 -13 30 0 0 6 -10 10 -22 10 -19 0 -20 -2 -8
-10z"/>
<path d="M2380 7608 c-13 -5 -44 -7 -68 -6 -28 2 -46 -1 -49 -9 -6 -17 25 -22
142 -25 83 -3 100 0 100 12 0 19 -92 40 -125 28z"/>
<path d="M2682 7500 c-16 -26 -15 -99 4 -185 8 -38 14 -89 14 -112 0 -23 4
-44 10 -48 7 -4 10 53 10 179 0 143 -3 186 -13 186 -7 0 -18 -9 -25 -20z"/>
<path d="M2350 7503 c-36 -2 -68 -7 -72 -11 -9 -9 -12 -587 -4 -600 8 -14 186
-25 215 -14 l25 9 -1 267 c-1 247 -3 269 -20 281 -14 11 -15 16 -6 26 18 18
-13 50 -46 47 -14 -1 -55 -3 -91 -5z"/>
<path d="M2577 7450 c3 -11 7 -20 9 -20 2 0 4 9 4 20 0 11 -4 20 -9 20 -5 0
-7 -9 -4 -20z"/>
<path d="M1232 7351 c-7 -4 -53 -7 -103 -6 -83 3 -110 -5 -73 -19 48 -18 214
1 214 25 0 11 -21 11 -38 0z"/>
<path d="M1020 7289 c0 -9 7 -19 15 -23 20 -7 8 -36 -16 -36 -10 0 -19 -6 -19
-13 0 -7 36 -22 90 -36 98 -25 136 -29 151 -14 14 14 0 43 -20 43 -9 0 -29 11
-45 24 l-30 23 63 7 c51 6 62 10 59 24 -3 15 -19 17 -126 17 -106 0 -122 -2
-122 -16z"/>
<path d="M4291 7214 c0 -11 3 -14 6 -6 3 7 2 16 -1 19 -3 4 -6 -2 -5 -13z"/>
<path d="M876 7128 c-3 -13 -7 -176 -10 -363 -5 -340 -21 -529 -50 -625 -8
-25 -16 -85 -19 -135 l-6 -90 16 68 c9 37 20 67 24 67 22 0 20 -55 -3 -120
-14 -39 -22 -70 -19 -70 19 1 52 52 53 85 1 24 7 39 17 42 9 3 25 8 36 13 42
17 54 18 62 7 14 -19 9 -395 -5 -409 -7 -7 -12 -21 -12 -33 0 -12 -14 -29 -34
-42 -43 -28 -40 -59 7 -66 48 -7 159 10 168 25 4 7 21 30 38 52 17 21 31 45
31 53 0 25 38 122 61 154 l22 31 -33 -7 c-30 -7 -32 -6 -25 16 4 13 14 34 22
47 11 18 12 34 4 75 -10 57 -10 54 -15 147 -7 136 -27 460 -36 580 -5 69 -9
152 -10 185 0 59 -15 115 -30 115 -4 0 -12 11 -18 24 -6 15 -33 35 -64 50 -36
18 -68 44 -102 86 -28 33 -53 60 -58 60 -4 0 -10 -10 -12 -22z m95 -930 c2
-116 -5 -148 -35 -148 -15 0 -38 38 -31 50 3 5 13 35 20 65 14 54 14 57 -8 86
-22 30 -22 31 -2 44 11 8 25 18 30 24 19 17 24 -4 26 -121z"/>
<path d="M6956 7123 c-9 -10 -7 -63 3 -63 11 0 20 59 11 65 -4 3 -10 2 -14 -2z"/>
<path d="M7552 7090 c0 -14 2 -19 5 -12 2 6 2 18 0 25 -3 6 -5 1 -5 -13z"/>
<path d="M4157 7073 c-4 -3 -7 -24 -7 -45 l0 -38 54 0 c59 0 81 15 44 29 -13
5 -34 21 -47 35 -26 27 -33 30 -44 19z"/>
<path d="M4811 7051 c-19 -17 -43 -31 -52 -31 -10 0 -21 -4 -24 -10 -4 -6 13
-10 44 -10 54 0 76 19 69 61 -3 19 -5 18 -37 -10z"/>
<path d="M7561 7004 c0 -11 3 -14 6 -6 3 7 2 16 -1 19 -3 4 -6 -2 -5 -13z"/>
<path d="M6895 6991 c4 -12 2 -28 -5 -36 -9 -11 -7 -12 7 -9 22 6 24 55 4 62
-9 3 -11 -2 -6 -17z"/>
<path d="M7561 6944 c0 -11 3 -14 6 -6 3 7 2 16 -1 19 -3 4 -6 -2 -5 -13z"/>
<path d="M4000 6925 c0 -8 4 -15 10 -15 5 0 7 7 4 15 -4 8 -8 15 -10 15 -2 0
-4 -7 -4 -15z"/>
<path d="M4445 6930 c3 -5 17 -10 31 -10 13 0 24 5 24 10 0 6 -14 10 -31 10
-17 0 -28 -4 -24 -10z"/>
<path d="M4530 6930 c0 -5 24 -10 54 -10 30 0 58 5 61 10 4 6 -17 10 -54 10
-34 0 -61 -4 -61 -10z"/>
<path d="M2695 6920 c-3 -5 2 -10 12 -10 15 -1 13 -5 -9 -25 -31 -27 -34 -35
-15 -35 8 0 24 -11 37 -25 13 -14 27 -25 32 -25 15 0 8 31 -12 60 -11 16 -20
32 -19 37 5 30 -12 45 -26 23z"/>
<path d="M4050 6915 c-11 -13 -8 -15 14 -15 16 0 26 5 26 15 0 8 -6 15 -14 15
-7 0 -19 -7 -26 -15z"/>
<path d="M2101 6856 c-23 -25 -30 -54 -38 -171 -3 -44 -1 -66 5 -60 17 18 32
77 32 123 0 25 6 52 14 61 18 20 31 71 19 71 -5 0 -20 -11 -32 -24z"/>
<path d="M4205 6870 c22 -5 44 -4 50 1 5 5 -11 9 -40 8 l-50 -1 40 -8z"/>
<path d="M4275 6870 c-4 -6 9 -10 31 -10 42 0 42 4 2 14 -15 3 -30 2 -33 -4z"/>
<path d="M4420 6870 c-41 -3 -68 -8 -60 -11 25 -10 338 -5 349 6 11 11 -157
14 -289 5z"/>
<path d="M3982 6802 c2 -50 7 -67 17 -67 12 0 14 13 12 58 -1 31 1 57 6 57 23
0 31 -25 25 -82 -4 -52 -2 -63 13 -75 29 -21 48 -17 35 7 -7 14 -8 26 0 39 5
11 10 35 10 53 -1 39 -27 62 -83 71 l-38 6 3 -67z"/>
<path d="M2285 6850 c3 -5 8 -10 11 -10 2 0 4 5 4 10 0 6 -5 10 -11 10 -5 0
-7 -4 -4 -10z"/>
<path d="M4123 6843 c9 -2 23 -2 30 0 6 3 -1 5 -18 5 -16 0 -22 -2 -12 -5z"/>
<path d="M4200 6829 c52 -11 349 -31 361 -24 5 4 41 7 79 8 38 1 74 7 79 12 7
7 -88 10 -272 11 -155 0 -266 -3 -247 -7z"/>
<path d="M2682 6789 c2 -7 10 -15 17 -17 8 -3 12 1 9 9 -2 7 -10 15 -17 17 -8
3 -12 -1 -9 -9z"/>
<path d="M2198 6741 c-22 -26 -24 -189 -2 -198 8 -3 14 -11 14 -19 0 -19 34
-18 72 2 30 16 30 16 9 30 -12 9 -30 13 -40 9 -12 -3 -21 0 -25 10 -3 8 -1 15
4 15 13 0 13 87 0 95 -14 9 -12 45 3 43 6 -2 12 4 12 12 0 22 -28 23 -47 1z"/>
<path d="M2418 6753 c7 -3 16 -2 19 1 4 3 -2 6 -13 5 -11 0 -14 -3 -6 -6z"/>
<path d="M4450 6743 c-151 -11 -236 -31 -217 -50 15 -15 98 -23 230 -23 147
-1 191 8 181 34 -12 30 -94 47 -194 39z"/>
<path d="M5100 6732 c-30 -9 -57 -18 -60 -21 -3 -3 -18 -13 -33 -21 -43 -22
-14 -24 35 -2 24 10 56 22 72 26 15 4 35 14 43 21 17 18 15 17 -57 -3z"/>
<path d="M2275 6730 c-8 -13 20 -24 41 -16 20 8 9 26 -16 26 -10 0 -22 -5 -25
-10z"/>
<path d="M2623 6733 c-7 -3 -13 -13 -13 -24 0 -14 7 -19 25 -19 18 0 25 5 25
19 0 20 -17 31 -37 24z"/>
<path d="M5151 6683 c-20 -13 -21 -17 -8 -24 13 -8 78 6 66 14 -2 2 -11 8 -20
15 -12 9 -20 8 -38 -5z"/>
<path d="M1334 6583 c8 -133 56 -388 88 -472 18 -49 53 -56 44 -8 -4 22 -3 27
3 17 18 -28 21 -3 5 49 -8 28 -19 49 -23 47 -11 -7 -41 98 -34 123 3 10 -2 30
-10 42 -12 20 -24 70 -31 134 -15 121 -26 175 -38 175 -7 0 -9 -34 -4 -107z"/>
<path d="M2580 6665 c0 -8 5 -15 10 -15 6 0 10 7 10 15 0 8 -4 15 -10 15 -5 0
-10 -7 -10 -15z"/>
<path d="M2653 6645 c-8 -22 6 -33 17 -15 13 20 12 30 0 30 -6 0 -13 -7 -17
-15z"/>
<path d="M2772 6625 c0 -16 2 -22 5 -12 2 9 2 23 0 30 -3 6 -5 -1 -5 -18z"/>
<path d="M4072 6641 c4 -13 18 -16 19 -4 0 4 -5 9 -11 12 -7 2 -11 -2 -8 -8z"/>
<path d="M4253 6605 c20 -12 66 -17 170 -20 153 -5 206 0 188 18 -6 6 -83 12
-198 14 -175 3 -186 2 -160 -12z"/>
<path d="M2060 6555 c0 -8 5 -15 10 -15 6 0 10 7 10 15 0 8 -4 15 -10 15 -5 0
-10 -7 -10 -15z"/>
<path d="M4395 6549 c62 -5 103 -5 109 1 7 7 -29 9 -99 9 l-110 -2 100 -8z"/>
<path d="M4678 6553 c7 -3 16 -2 19 1 4 3 -2 6 -13 5 -11 0 -14 -3 -6 -6z"/>
<path d="M2402 6533 c5 -25 28 -28 28 -4 0 12 -6 21 -16 21 -9 0 -14 -7 -12
-17z"/>
<path d="M4450 6505 c0 -33 106 -48 134 -19 28 28 17 34 -59 34 -61 0 -75 -3
-75 -15z"/>
<path d="M2680 6470 c0 -19 11 -26 23 -14 8 8 -3 34 -14 34 -5 0 -9 -9 -9 -20z"/>
<path d="M2405 6460 c-3 -5 1 -10 9 -10 9 0 16 5 16 10 0 6 -4 10 -9 10 -6 0
-13 -4 -16 -10z"/>
<path d="M4510 6440 c-11 -7 -3 -10 30 -10 33 0 41 3 30 10 -8 5 -22 10 -30
10 -8 0 -22 -5 -30 -10z"/>
<path d="M4548 6333 c19 -7 4 -23 -21 -23 -15 0 -18 -3 -10 -11 12 -12 69 -3
79 12 8 13 5 16 -31 21 -16 3 -24 3 -17 1z"/>
<path d="M2080 6285 c0 -8 5 -15 10 -15 6 0 10 7 10 15 0 8 -4 15 -10 15 -5 0
-10 -7 -10 -15z"/>
<path d="M2560 6266 c0 -9 7 -16 16 -16 17 0 14 22 -4 28 -7 2 -12 -3 -12 -12z"/>
<path d="M2396 6255 c4 -8 12 -15 20 -15 8 0 14 7 14 15 0 8 -9 15 -20 15 -13
0 -18 -5 -14 -15z"/>
<path d="M2396 6205 c-3 -9 0 -15 9 -15 8 0 15 7 15 15 0 8 -4 15 -9 15 -5 0
-11 -7 -15 -15z"/>
<path d="M2595 6110 c4 -6 11 -8 16 -5 14 9 11 15 -7 15 -8 0 -12 -5 -9 -10z"/>
<path d="M2403 6094 c-3 -8 2 -23 11 -32 15 -15 16 -14 16 16 0 33 -16 43 -27
16z"/>
<path d="M1491 6084 c0 -11 3 -14 6 -6 3 7 2 16 -1 19 -3 4 -6 -2 -5 -13z"/>
<path d="M2186 6045 c4 -8 12 -15 20 -15 8 0 14 7 14 15 0 8 -9 15 -20 15 -13
0 -18 -5 -14 -15z"/>
<path d="M2590 6050 c0 -5 6 -10 14 -10 8 0 18 5 21 10 3 6 -3 10 -14 10 -12
0 -21 -4 -21 -10z"/>
<path d="M1480 6006 c0 -8 5 -18 10 -21 6 -3 10 1 10 9 0 8 -4 18 -10 21 -5 3
-10 -1 -10 -9z"/>
<path d="M5175 6003 c-33 -1 -289 -7 -570 -13 -280 -5 -602 -13 -714 -17
l-204 -6 6 -136 c3 -75 15 -352 27 -616 12 -264 23 -486 26 -494 4 -11 82 -13
492 -7 761 10 1330 23 1344 32 7 5 9 89 4 263 -3 141 -9 420 -12 621 -3 201
-8 368 -10 372 -5 7 -242 8 -389 1z m-599 -217 c10 -8 17 -17 14 -20 -8 -8
-90 15 -90 25 0 14 54 10 76 -5z m99 -16 c-3 -5 -13 -10 -21 -10 -8 0 -12 5
-9 10 3 6 13 10 21 10 8 0 12 -4 9 -10z m117 -130 c-3 -22 3 -40 22 -64 24
-32 58 -104 38 -81 -86 99 -99 125 -83 173 1 1 7 2 14 2 9 0 12 -10 9 -30z
m-297 -10 c5 -25 0 -37 -29 -73 -19 -24 -40 -54 -45 -68 -9 -21 -10 -22 -10
-3 -1 11 13 42 30 69 21 33 29 57 27 77 -6 38 18 37 27 -2z m382 -32 c-3 -7
-5 -2 -5 12 0 14 2 19 5 13 2 -7 2 -19 0 -25z m-477 5 c0 -5 -5 -15 -10 -23
-8 -12 -10 -11 -10 8 0 12 5 22 10 22 6 0 10 -3 10 -7z m-47 -92 c-7 -54 1
-83 34 -115 58 -58 96 -70 238 -71 101 -1 139 2 170 15 89 37 134 103 121 178
-5 34 -5 35 10 14 34 -49 9 -126 -55 -169 -19 -13 -59 -30 -90 -39 -31 -9 -66
-21 -78 -27 -12 -5 -32 -7 -43 -4 -12 3 -30 1 -40 -5 -13 -8 -23 -7 -41 5 -13
10 -33 17 -44 17 -25 0 -101 26 -135 47 -59 35 -89 123 -58 173 7 11 14 20 14
20 1 0 0 -18 -3 -39z m368 14 c18 -12 8 -34 -33 -74 -40 -38 -68 -52 -68 -33
0 5 -21 23 -46 40 -42 31 -52 51 -27 59 6 2 13 -5 16 -17 6 -24 22 -26 31 -5
3 10 -1 19 -12 23 -13 5 -8 8 18 12 40 7 106 3 121 -5z m-211 -396 c0 -43 -4
-79 -9 -79 -9 0 -23 149 -15 162 14 23 24 -11 24 -83z m350 5 c0 -43 -4 -74
-10 -74 -6 0 -10 34 -10 81 0 51 4 78 10 74 6 -3 10 -40 10 -81z m-756 45 c11
-57 7 -141 -6 -137 -9 3 -14 32 -16 86 -3 81 10 111 22 51z m298 -49 c32 -87
31 -80 19 -80 -10 0 -41 56 -41 74 0 7 -9 29 -19 49 -17 34 -18 38 -3 35 10
-2 27 -32 44 -78z m548 -37 c0 -18 -4 -33 -10 -33 -5 0 -10 21 -10 48 0 34 3
43 10 32 5 -8 10 -30 10 -47z m80 11 c0 -27 -4 -43 -10 -39 -5 3 -10 24 -10
46 0 21 5 39 10 39 6 0 10 -21 10 -46z m-842 -7 c23 -24 39 -46 35 -50 -7 -8
-93 71 -93 85 0 17 17 6 58 -35z m407 3 c21 -22 35 -43 31 -47 -3 -4 -28 14
-54 40 -28 28 -41 47 -31 47 8 0 32 -18 54 -40z m519 -29 c-7 -10 -24 13 -24
33 0 37 15 40 20 4 3 -18 5 -35 4 -37z m-332 15 c4 -6 5 -13 2 -15 -3 -3 -8
-1 -12 5 -4 6 -16 16 -27 23 -18 11 -18 11 5 5 14 -4 28 -12 32 -18z"/>
<path d="M4675 5511 c-3 -5 -1 -12 5 -16 12 -7 30 2 30 16 0 12 -27 12 -35 0z"/>
<path d="M1500 5936 c0 -8 5 -18 10 -21 6 -3 10 1 10 9 0 8 -4 18 -10 21 -5 3
-10 -1 -10 -9z"/>
<path d="M777 5893 c-4 -3 -7 -20 -6 -37 l1 -31 9 34 c10 33 8 47 -4 34z"/>
<path d="M1530 5871 c0 -11 5 -23 10 -26 6 -4 10 5 10 19 0 14 -4 26 -10 26
-5 0 -10 -9 -10 -19z"/>
<path d="M761 5804 c0 -11 3 -14 6 -6 3 7 2 16 -1 19 -3 4 -6 -2 -5 -13z"/>
<path d="M751 5754 c0 -11 3 -14 6 -6 3 7 2 16 -1 19 -3 4 -6 -2 -5 -13z"/>
<path d="M1640 5697 c0 -50 18 -86 40 -80 15 4 17 10 10 34 -5 16 -18 41 -29
55 l-21 27 0 -36z"/>
<path d="M742 5700 c0 -14 2 -19 5 -12 2 6 2 18 0 25 -3 6 -5 1 -5 -13z"/>
<path d="M1953 5643 c6 -33 -16 -75 -46 -89 -11 -5 -22 -15 -25 -21 -5 -18 29
-16 57 4 26 18 23 5 -7 -29 -14 -16 -13 -18 5 -18 32 0 50 38 47 102 -2 59 -8
78 -26 78 -6 0 -8 -12 -5 -27z"/>
<path d="M717 5630 c-13 -74 -18 -160 -8 -160 10 0 25 132 19 170 -4 22 -5 21
-11 -10z"/>
<path d="M1806 5619 c-37 -38 -109 -79 -139 -79 -7 0 -22 -6 -33 -14 -18 -14
-18 -15 6 -24 24 -9 58 -2 145 29 17 6 39 11 50 11 11 0 14 2 8 5 -18 7 -16
32 2 39 15 6 21 59 8 67 -5 3 -26 -13 -47 -34z"/>
<path d="M1795 5513 c-33 -8 -42 -23 -13 -23 33 0 58 9 58 21 0 9 -12 10 -45
2z"/>
<path d="M1505 5480 c-18 -8 -17 -9 7 -9 15 -1 30 4 33 9 7 12 -12 12 -40 0z"/>
<path d="M258 5458 c21 -21 13 -30 -28 -27 -21 2 -42 1 -45 -2 -3 -3 2 -30 11
-60 12 -40 29 -66 65 -101 27 -27 55 -48 64 -48 19 0 20 16 0 24 -20 7 -19 45
2 68 14 16 15 21 4 27 -8 5 -10 14 -6 21 5 8 1 18 -9 25 -17 13 -13 45 6 45 5
0 6 5 3 10 -3 6 -15 10 -26 10 -10 0 -19 5 -19 10 0 6 -8 10 -17 10 -13 0 -14
-3 -5 -12z"/>
<path d="M1299 5446 c-6 -6 -260 -20 -334 -17 -33 1 -71 -1 -85 -5 -21 -5 -12
-9 45 -25 39 -10 87 -19 107 -19 37 0 59 -14 36 -23 -7 -3 6 -6 30 -6 44 -1
57 13 21 24 -32 11 -14 18 54 22 79 5 168 25 170 38 2 10 -35 20 -44 11z"/>
<path d="M1266 5384 c-72 -19 -81 -34 -20 -34 68 0 94 9 94 31 0 22 -6 22 -74
3z"/>
<path d="M6890 5374 c-14 -8 -38 -11 -56 -8 -20 4 -34 1 -43 -9 -10 -13 1 -16
81 -19 111 -5 124 -1 102 30 -17 25 -47 27 -84 6z"/>
<path d="M1650 5356 c0 -9 5 -16 10 -16 6 0 10 4 10 9 0 6 -4 13 -10 16 -5 3
-10 -1 -10 -9z"/>
<path d="M7080 5363 c-54 -9 -53 -16 5 -29 33 -7 80 -10 104 -7 l44 6 -34 18
c-33 18 -66 21 -119 12z"/>
<path d="M363 5329 c9 -6 27 -12 40 -15 79 -17 137 -25 247 -34 69 -5 148 -14
175 -19 70 -14 144 -13 204 1 100 23 52 33 -155 33 -109 0 -204 3 -211 7 -10
8 -255 38 -298 38 -19 -1 -19 -1 -2 -11z"/>
<path d="M7300 5330 c-12 -8 -10 -10 8 -10 13 0 20 4 17 10 -7 12 -6 12 -25 0z"/>
<path d="M1617 5304 c-3 -3 -34 -17 -69 -30 -39 -14 -54 -23 -39 -23 21 -1
131 46 131 55 0 6 -16 5 -23 -2z"/>
<path d="M1130 5190 c-11 -7 -3 -10 30 -10 33 0 41 3 30 10 -8 5 -22 10 -30
10 -8 0 -22 -5 -30 -10z"/>
<path d="M1068 5178 c9 -9 15 -9 24 0 9 9 7 12 -12 12 -19 0 -21 -3 -12 -12z"/>
<path d="M1199 5165 c-3 -2 -41 -11 -85 -19 l-79 -14 55 -1 c67 0 138 13 153
28 8 8 4 11 -14 11 -14 0 -28 -2 -30 -5z"/>
<path d="M955 5130 c-27 -7 -25 -8 18 -9 26 0 47 4 47 9 0 11 -21 11 -65 0z"/>
<path d="M1141 4304 c-99 -14 -140 -29 -56 -20 28 3 83 8 124 11 40 4 83 10
95 15 33 13 -52 10 -163 -6z"/>
<path d="M1033 4178 c-5 -10 0 -10 56 -8 24 1 53 6 65 11 15 6 0 8 -47 6 -38
-1 -71 -5 -74 -9z"/>
<path d="M3607 3740 c-4 -8 -6 -778 -5 -1710 l3 -1695 1710 0 1710 0 0 1703
c0 936 -3 1702 -8 1702 -4 0 -7 -386 -7 -858 0 -472 -3 -872 -6 -889 -6 -30
-13 -33 -46 -19 -17 8 -58 -8 -58 -22 0 -4 21 -14 48 -21 26 -8 50 -18 53 -24
4 -5 7 -357 8 -783 l2 -774 -1696 0 -1695 0 -2 1703 c-2 936 -6 1695 -11 1687z"/>
<path d="M5456 3035 c-6 -18 2 -45 15 -45 5 0 9 14 9 30 0 32 -14 40 -24 15z"/>
<path d="M5492 2627 c-6 -7 -13 -37 -16 -67 l-6 -55 16 50 c8 28 20 54 25 60
5 5 9 13 9 17 0 12 -16 10 -28 -5z"/>
<path d="M5676 2535 c-9 -26 -7 -32 5 -12 6 10 9 21 6 23 -2 3 -7 -2 -11 -11z"/>
<path d="M5267 2473 c-2 -5 -5 -33 -6 -62 -1 -32 -8 -62 -16 -71 -16 -18 -22
-86 -29 -368 -5 -191 -9 -185 102 -169 l73 10 -7 71 c-4 39 -10 76 -14 81 -10
14 -11 230 -2 355 5 58 7 110 4 117 -8 24 -95 54 -105 36z"/>
<path d="M5955 2460 c-3 -5 1 -10 9 -10 8 0 18 5 21 10 3 6 -1 10 -9 10 -8 0
-18 -4 -21 -10z"/>
<path d="M6012 2459 c2 -6 8 -10 13 -10 5 0 11 4 13 10 2 6 -4 11 -13 11 -9 0
-15 -5 -13 -11z"/>
<path d="M5631 2423 c-11 -23 -10 -29 5 -40 43 -32 73 -1 39 40 -13 15 -26 27
-28 27 -2 0 -9 -12 -16 -27z"/>
<path d="M4339 2408 c-8 -14 -14 -18 -17 -10 -2 6 -8 10 -13 6 -13 -8 -11 -52
4 -57 9 -4 9 -7 -1 -18 -10 -11 -14 -11 -21 -1 -6 10 -10 10 -20 -2 -10 -12
-5 -15 29 -21 22 -4 47 -13 54 -21 15 -15 63 -17 106 -5 19 5 27 16 32 46 4
22 11 55 14 73 l7 33 -52 -3 c-42 -3 -57 -9 -72 -28 -18 -25 -19 -25 -19 -3 0
31 -17 37 -31 11z"/>
<path d="M6200 2381 c-14 -35 -7 -51 18 -44 14 3 17 12 14 39 -5 42 -16 43
-32 5z"/>
<path d="M6020 2370 c0 -5 5 -10 10 -10 6 0 10 5 10 10 0 6 -4 10 -10 10 -5 0
-10 -4 -10 -10z"/>
<path d="M6054 2354 c3 -9 6 -20 6 -25 0 -15 20 -10 27 7 3 9 0 20 -8 25 -21
13 -32 11 -25 -7z"/>
<path d="M5580 2315 c0 -8 5 -15 10 -15 6 0 10 7 10 15 0 8 -4 15 -10 15 -5 0
-10 -7 -10 -15z"/>
<path d="M6361 2284 c0 -11 3 -14 6 -6 3 7 2 16 -1 19 -3 4 -6 -2 -5 -13z"/>
<path d="M5965 2280 c-3 -5 -1 -10 4 -10 6 0 11 5 11 10 0 6 -2 10 -4 10 -3 0
-8 -4 -11 -10z"/>
<path d="M6105 2259 c-5 -5 -19 -16 -29 -23 -30 -20 -14 -46 26 -43 19 1 33 8
32 15 -1 6 -2 23 -2 37 -2 26 -10 31 -27 14z"/>
<path d="M4286 2252 c-7 -11 31 -62 45 -62 6 0 9 15 7 33 -2 24 -8 33 -25 35
-11 2 -24 -1 -27 -6z"/>
<path d="M5854 2230 c-4 -16 -13 -35 -20 -41 -22 -18 -16 -58 12 -84 27 -25
54 -33 54 -15 0 5 -9 14 -20 20 -32 17 -24 27 40 56 58 26 73 45 48 61 -18 11
-80 33 -96 33 -7 0 -15 -13 -18 -30z"/>
<path d="M4265 2201 c-3 -6 -17 -8 -31 -5 -16 4 -26 1 -30 -9 -3 -9 -21 -25
-40 -36 -24 -14 -34 -28 -34 -44 0 -34 39 -44 62 -16 16 18 24 20 86 13 65 -6
71 -5 93 17 l24 24 -45 5 c-33 4 -47 11 -56 28 -15 31 -21 35 -29 23z"/>
<path d="M4060 2181 c13 -26 43 -28 38 -3 -2 9 -14 18 -26 20 -21 3 -22 1 -12
-17z"/>
<path d="M4216 2064 c-9 -23 -8 -24 17 -24 22 1 57 21 57 34 0 14 -68 5 -74
-10z"/>
<path d="M4306 2049 c-21 -16 -34 -29 -27 -29 18 0 66 26 80 44 23 27 -9 18
-53 -15z"/>
<path d="M6082 2057 c-6 -7 -10 -27 -10 -45 1 -27 3 -29 13 -15 7 9 19 14 28
10 10 -4 21 3 31 18 20 31 20 34 -3 28 -10 -3 -22 0 -25 6 -9 15 -21 14 -34
-2z"/>
<path d="M6233 2004 c-7 -3 -13 -18 -13 -34 0 -20 -6 -31 -19 -35 -11 -3 -18
-12 -15 -19 3 -9 -7 -18 -27 -25 -34 -12 -49 -8 -49 15 0 8 -9 14 -19 14 -11
0 -22 4 -26 10 -10 16 -35 -1 -35 -25 0 -30 -16 -40 -57 -36 -66 5 -92 -38
-59 -98 l13 -24 22 22 c25 25 27 41 6 41 -12 0 -14 4 -6 17 7 13 20 17 49 14
23 -1 50 3 61 9 16 8 28 7 52 -6 25 -12 37 -14 55 -5 13 6 24 15 24 19 0 17
92 21 108 5 12 -12 16 -12 23 -1 11 17 11 41 0 34 -13 -9 -45 20 -37 33 6 9
12 8 26 -4 15 -14 19 -14 29 -1 17 20 5 38 -22 34 -15 -2 -22 4 -27 22 -6 25
-31 35 -57 24z"/>
<path d="M5454 1968 c2 -18 4 -55 5 -82 0 -32 4 -47 11 -40 11 11 1 154 -11
154 -4 0 -6 -15 -5 -32z"/>
<path d="M6820 1989 c0 -14 30 -38 48 -39 22 0 13 37 -10 44 -32 8 -38 7 -38
-5z"/>
<path d="M4363 1946 c-27 -13 -29 -24 -8 -32 18 -7 45 12 45 32 0 16 -6 16
-37 0z"/>
<path d="M6624 1884 c-18 -8 -41 -24 -52 -35 -12 -10 -26 -19 -32 -19 -6 0
-13 -6 -16 -14 -3 -8 -19 -17 -37 -20 -38 -8 -28 -17 45 -40 63 -21 107 -16
115 14 3 10 12 21 20 24 10 4 13 1 9 -12 -4 -13 4 -21 37 -34 23 -9 58 -19 78
-21 20 -3 42 -8 48 -11 20 -13 120 70 121 101 0 6 -14 21 -30 33 -25 18 -46
22 -123 24 -50 1 -102 7 -114 14 -27 15 -31 15 -69 -4z m-24 -63 c0 -14 -18
-23 -30 -16 -6 4 -8 11 -5 16 8 12 35 12 35 0z"/>
<path d="M4573 1830 c0 -25 2 -35 4 -22 2 12 2 32 0 45 -2 12 -4 2 -4 -23z"/>
<path d="M4367 1823 c-9 -2 -29 -27 -42 -53 -20 -40 -25 -64 -25 -129 0 -44
-4 -113 -10 -153 -13 -100 -19 -260 -9 -228 6 17 7 10 4 -24 -3 -27 -5 -57 -5
-67 0 -13 -5 -17 -17 -12 -17 6 -17 5 -1 -13 12 -14 14 -24 7 -37 -12 -21 -6
-21 32 -1 17 8 37 13 44 10 18 -6 25 -116 8 -116 -7 0 -13 -4 -13 -9 0 -12 48
-17 124 -13 70 5 57 22 -17 22 l-47 0 16 25 c9 14 17 42 18 62 1 51 26 57 26
6 0 -54 9 -63 53 -56 42 6 48 27 22 77 -8 15 -15 35 -15 43 0 13 -2 13 -17 2
-11 -10 -14 -10 -9 -1 5 8 -2 16 -19 22 -19 7 -26 16 -23 32 4 30 26 34 30 6
2 -13 11 -24 22 -26 17 -4 18 1 12 50 -10 77 -24 228 -32 338 -5 68 -15 117
-36 173 -30 78 -35 82 -81 70z"/>
<path d="M4561 1763 c0 -10 4 -27 9 -38 7 -16 9 -13 9 18 1 20 -3 37 -9 37 -5
0 -10 -8 -9 -17z"/>
<path d="M5781 1745 c-81 -38 -111 -43 -111 -19 0 12 -7 14 -28 9 -17 -3 -40
0 -58 10 -16 8 -36 15 -45 15 -17 0 -49 -30 -33 -30 5 0 17 -7 26 -14 15 -11
16 -17 5 -47 -6 -19 -16 -37 -21 -41 -9 -6 -11 -116 -2 -125 8 -8 46 18 46 31
0 24 25 63 58 91 18 15 32 35 32 45 0 26 17 34 35 16 21 -20 19 -36 -5 -36
-11 0 -20 -4 -20 -10 0 -14 37 -13 42 1 4 13 58 -9 58 -24 0 -5 10 -7 23 -3
27 6 67 -3 67 -15 0 -5 -7 -9 -15 -9 -17 0 -19 -14 -5 -40 8 -15 6 -21 -8 -29
-23 -13 -87 23 -79 44 11 26 -52 35 -73 10 -7 -9 -20 -13 -29 -10 -21 6 -37
-5 -45 -32 -6 -18 -2 -22 23 -28 17 -4 39 -16 48 -29 10 -12 26 -20 35 -18 11
2 19 -5 23 -21 6 -24 35 -38 105 -51 14 -2 35 -8 48 -11 23 -8 22 -11 26 92 1
11 4 25 9 29 12 13 8 44 -8 50 -20 8 -19 34 1 48 9 7 18 28 20 47 5 31 2 35
-26 46 -29 11 -31 15 -28 49 1 20 -1 38 -7 40 -5 2 -43 -12 -84 -31z m-201
-39 c0 -3 -4 -8 -10 -11 -5 -3 -10 -1 -10 4 0 6 5 11 10 11 6 0 10 -2 10 -4z
m217 -262 c-3 -3 -12 -4 -19 -1 -8 3 -5 6 6 6 11 1 17 -2 13 -5z"/>
<path d="M5150 1731 c0 -15 10 -20 45 -25 42 -7 45 -9 45 -39 0 -18 3 -43 7
-56 6 -23 5 -24 -48 -19 -30 3 -61 9 -71 12 -11 5 -18 1 -23 -15 -16 -51 115
-100 180 -68 33 17 55 74 55 145 l0 51 -69 7 c-39 3 -81 10 -95 16 -22 8 -26
7 -26 -9z"/>
<path d="M6075 1730 c-4 -7 0 -19 9 -28 20 -21 161 -31 179 -13 17 17 -5 28
-72 35 -31 4 -68 9 -83 12 -14 3 -29 0 -33 -6z"/>
<path d="M4570 1678 c0 -13 5 -30 10 -38 7 -11 10 -7 10 17 0 17 -4 35 -10 38
-6 3 -10 -4 -10 -17z"/>
<path d="M4575 1558 c5 -75 29 -171 48 -186 11 -10 18 -12 33 -12 4 0 1 -6 -5
-14 -12 -14 -4 -47 30 -123 10 -24 19 -47 19 -52 0 -21 24 -61 37 -61 17 0 17
20 -3 48 -8 12 -12 22 -8 22 4 0 -1 6 -11 14 -15 11 -49 105 -41 113 2 2 9 -9
17 -25 23 -46 93 -152 100 -152 24 0 15 89 -10 104 -16 10 -112 174 -132 225
-10 25 -18 40 -19 34 0 -23 -17 -14 -28 15 -5 15 -15 47 -21 72 -10 44 -10 43
-6 -22z"/>
<path d="M4606 1547 c3 -10 9 -15 12 -12 3 3 0 11 -7 18 -10 9 -11 8 -5 -6z"/>
<path d="M6547 1543 c-9 -9 -8 -25 2 -42 8 -12 13 -12 36 3 21 14 24 20 14 32
-12 15 -41 19 -52 7z"/>
<path d="M6690 1484 c0 -14 21 -31 35 -29 41 5 75 19 75 31 0 10 -13 13 -55
11 -33 -1 -55 -7 -55 -13z"/>
<path d="M5138 1463 c-29 -5 -38 -27 -14 -36 31 -12 108 -19 142 -13 49 10 38
30 -22 37 -27 4 -56 9 -64 11 -8 3 -27 3 -42 1z"/>
<path d="M6550 1460 c0 -5 5 -10 10 -10 6 0 10 5 10 10 0 6 -4 10 -10 10 -5 0
-10 -4 -10 -10z"/>
<path d="M5530 1420 c0 -12 7 -35 16 -52 16 -30 16 -31 72 -23 32 4 76 7 100
6 27 -1 41 3 37 9 -3 5 -15 10 -26 10 -11 0 -29 5 -40 10 -15 8 -17 15 -9 29
5 10 6 21 3 25 -12 12 -61 6 -73 -9 -7 -8 -21 -15 -32 -15 -10 0 -21 7 -24 15
-9 22 -24 18 -24 -5z"/>
<path d="M5790 1350 c0 -5 5 -10 10 -10 6 0 10 5 10 10 0 6 -4 10 -10 10 -5 0
-10 -4 -10 -10z"/>
<path d="M6562 1318 c-19 -19 -14 -45 10 -62 30 -21 40 -20 61 9 17 24 17 25
-3 45 -23 23 -50 26 -68 8z"/>
<path d="M6708 1312 c-9 -10 -9 -22 0 -46 7 -18 12 -40 12 -49 0 -9 7 -17 15
-17 15 0 19 10 16 41 -1 8 8 24 19 34 11 10 20 24 20 30 0 18 -68 24 -82 7z"/>
<path d="M5877 1308 c-9 -28 5 -48 34 -48 36 0 36 4 3 35 -31 29 -31 29 -37
13z"/>
<path d="M6480 1300 c0 -5 5 -10 10 -10 6 0 10 5 10 10 0 6 -4 10 -10 10 -5 0
-10 -4 -10 -10z"/>
<path d="M6370 1286 c0 -14 24 -29 33 -19 3 3 3 11 0 19 -7 18 -33 18 -33 0z"/>
<path d="M6166 1173 c-4 -5 -20 -12 -36 -18 -19 -7 -27 -14 -22 -22 10 -16 52
-5 52 13 0 8 6 14 14 14 8 0 18 5 21 10 7 12 -18 14 -29 3z"/>
<path d="M6943 1170 c-30 -12 -29 -20 2 -18 14 1 25 8 25 15 0 7 -1 13 -2 12
-2 0 -13 -4 -25 -9z"/>
<path d="M6210 1130 c0 -5 7 -10 16 -10 8 0 12 5 9 10 -3 6 -10 10 -16 10 -5
0 -9 -4 -9 -10z"/>
<path d="M5920 1105 c0 -8 5 -15 10 -15 6 0 10 7 10 15 0 8 -4 15 -10 15 -5 0
-10 -7 -10 -15z"/>
<path d="M6184 1088 c3 -9 0 -19 -7 -21 -7 -2 -9 -8 -4 -12 15 -16 30 12 17
32 -9 14 -10 15 -6 1z"/>
<path d="M5083 1055 c51 -28 79 -29 82 -5 2 10 -6 15 -24 15 -14 0 -44 4 -66
8 l-40 8 48 -26z"/>
<path d="M6117 943 c-7 -11 10 -40 18 -31 4 4 3 14 -3 24 -5 9 -12 12 -15 7z"/>
<path d="M4535 920 c-19 -8 -19 -9 3 -9 12 -1 22 4 22 9 0 6 -1 10 -2 9 -2 0
-12 -4 -23 -9z"/>
<path d="M6020 854 c0 -8 5 -12 10 -9 6 4 8 11 5 16 -9 14 -15 11 -15 -7z"/>
<path d="M6140 840 c0 -5 5 -10 10 -10 6 0 10 5 10 10 0 6 -4 10 -10 10 -5 0
-10 -4 -10 -10z"/>
</g>
</svg>
